ISO-10303-21;
HEADER;
/* Generated by software containing ST-Developer
 * from STEP Tools, Inc. (www.steptools.com) 
 */

FILE_DESCRIPTION(
/* description */ (''),
/* implementation_level */ '2;1');

FILE_NAME(
/* name */ 'bicepSTEP.step',
/* time_stamp */ '2026-06-19T20:53:36-04:00',
/* author */ (''),
/* organization */ (''),
/* preprocessor_version */ 'ST-DEVELOPER v20.1',
/* originating_system */ 'Autodesk Translation Framework v15.8.0.0',
/* authorisation */ '');

FILE_SCHEMA (('AUTOMOTIVE_DESIGN { 1 0 10303 214 3 1 1 }'));
ENDSEC;

DATA;
#10=MECHANICAL_DESIGN_GEOMETRIC_PRESENTATION_REPRESENTATION('',(#13),#1968);
#11=SHAPE_REPRESENTATION_RELATIONSHIP('SRR','None',#1974,#12);
#12=ADVANCED_BREP_SHAPE_REPRESENTATION('',(#14),#1967);
#13=STYLED_ITEM('',(#1983),#14);
#14=MANIFOLD_SOLID_BREP('Body3',#1146);
#15=FACE_BOUND('',#354,.T.);
#16=FACE_BOUND('',#355,.T.);
#17=FACE_BOUND('',#356,.T.);
#18=FACE_BOUND('',#357,.T.);
#19=FACE_BOUND('',#358,.T.);
#20=FACE_BOUND('',#359,.T.);
#21=FACE_BOUND('',#360,.T.);
#22=FACE_BOUND('',#361,.T.);
#23=FACE_BOUND('',#362,.T.);
#24=FACE_BOUND('',#363,.T.);
#25=FACE_BOUND('',#364,.T.);
#26=FACE_BOUND('',#365,.T.);
#27=FACE_BOUND('',#366,.T.);
#28=FACE_BOUND('',#367,.T.);
#29=FACE_BOUND('',#370,.T.);
#30=FACE_BOUND('',#371,.T.);
#31=FACE_BOUND('',#372,.T.);
#32=FACE_BOUND('',#373,.T.);
#33=FACE_BOUND('',#374,.T.);
#34=FACE_BOUND('',#375,.T.);
#35=FACE_BOUND('',#376,.T.);
#36=FACE_BOUND('',#377,.T.);
#37=FACE_BOUND('',#378,.T.);
#38=FACE_BOUND('',#379,.T.);
#39=FACE_BOUND('',#380,.T.);
#40=FACE_BOUND('',#381,.T.);
#41=FACE_BOUND('',#382,.T.);
#42=FACE_BOUND('',#383,.T.);
#43=PLANE('',#1200);
#44=PLANE('',#1201);
#45=PLANE('',#1202);
#46=PLANE('',#1218);
#47=PLANE('',#1219);
#48=PLANE('',#1235);
#49=PLANE('',#1240);
#50=PLANE('',#1241);
#51=PLANE('',#1243);
#52=PLANE('',#1247);
#53=PLANE('',#1248);
#54=PLANE('',#1249);
#55=PLANE('',#1250);
#56=PLANE('',#1252);
#57=PLANE('',#1254);
#58=PLANE('',#1256);
#59=PLANE('',#1257);
#60=PLANE('',#1258);
#61=PLANE('',#1260);
#62=PLANE('',#1261);
#63=PLANE('',#1280);
#64=PLANE('',#1282);
#65=LINE('',#1662,#152);
#66=LINE('',#1663,#153);
#67=LINE('',#1692,#154);
#68=LINE('',#1693,#155);
#69=LINE('',#1695,#156);
#70=LINE('',#1696,#157);
#71=LINE('',#1707,#158);
#72=LINE('',#1708,#159);
#73=LINE('',#1710,#160);
#74=LINE('',#1711,#161);
#75=LINE('',#1731,#162);
#76=LINE('',#1732,#163);
#77=LINE('',#1734,#164);
#78=LINE('',#1735,#165);
#79=LINE('',#1737,#166);
#80=LINE('',#1738,#167);
#81=LINE('',#1740,#168);
#82=LINE('',#1741,#169);
#83=LINE('',#1743,#170);
#84=LINE('',#1744,#171);
#85=LINE('',#1746,#172);
#86=LINE('',#1747,#173);
#87=LINE('',#1749,#174);
#88=LINE('',#1750,#175);
#89=LINE('',#1758,#176);
#90=LINE('',#1761,#177);
#91=LINE('',#1792,#178);
#92=LINE('',#1796,#179);
#93=LINE('',#1798,#180);
#94=LINE('',#1800,#181);
#95=LINE('',#1802,#182);
#96=LINE('',#1806,#183);
#97=LINE('',#1808,#184);
#98=LINE('',#1809,#185);
#99=LINE('',#1842,#186);
#100=LINE('',#1847,#187);
#101=LINE('',#1850,#188);
#102=LINE('',#1851,#189);
#103=LINE('',#1852,#190);
#104=LINE('',#1853,#191);
#105=LINE('',#1855,#192);
#106=LINE('',#1857,#193);
#107=LINE('',#1859,#194);
#108=LINE('',#1861,#195);
#109=LINE('',#1863,#196);
#110=LINE('',#1864,#197);
#111=LINE('',#1867,#198);
#112=LINE('',#1871,#199);
#113=LINE('',#1873,#200);
#114=LINE('',#1875,#201);
#115=LINE('',#1876,#202);
#116=LINE('',#1879,#203);
#117=LINE('',#1880,#204);
#118=LINE('',#1885,#205);
#119=LINE('',#1889,#206);
#120=LINE('',#1891,#207);
#121=LINE('',#1893,#208);
#122=LINE('',#1895,#209);
#123=LINE('',#1897,#210);
#124=LINE('',#1898,#211);
#125=LINE('',#1899,#212);
#126=LINE('',#1900,#213);
#127=LINE('',#1901,#214);
#128=LINE('',#1904,#215);
#129=LINE('',#1905,#216);
#130=LINE('',#1908,#217);
#131=LINE('',#1909,#218);
#132=LINE('',#1913,#219);
#133=LINE('',#1915,#220);
#134=LINE('',#1916,#221);
#135=LINE('',#1922,#222);
#136=LINE('',#1923,#223);
#137=LINE('',#1925,#224);
#138=LINE('',#1929,#225);
#139=LINE('',#1935,#226);
#140=LINE('',#1937,#227);
#141=LINE('',#1939,#228);
#142=LINE('',#1941,#229);
#143=LINE('',#1943,#230);
#144=LINE('',#1945,#231);
#145=LINE('',#1947,#232);
#146=LINE('',#1949,#233);
#147=LINE('',#1951,#234);
#148=LINE('',#1953,#235);
#149=LINE('',#1955,#236);
#150=LINE('',#1957,#237);
#151=LINE('',#1959,#238);
#152=VECTOR('',#1307,1.);
#153=VECTOR('',#1308,1.);
#154=VECTOR('',#1341,1.);
#155=VECTOR('',#1342,1.);
#156=VECTOR('',#1345,1.);
#157=VECTOR('',#1346,1.);
#158=VECTOR('',#1359,1.);
#159=VECTOR('',#1360,1.);
#160=VECTOR('',#1363,1.);
#161=VECTOR('',#1364,1.);
#162=VECTOR('',#1387,1.);
#163=VECTOR('',#1388,1.);
#164=VECTOR('',#1391,1.);
#165=VECTOR('',#1392,1.);
#166=VECTOR('',#1395,1.);
#167=VECTOR('',#1396,1.);
#168=VECTOR('',#1399,1.);
#169=VECTOR('',#1400,1.);
#170=VECTOR('',#1403,1.);
#171=VECTOR('',#1404,1.);
#172=VECTOR('',#1407,1.);
#173=VECTOR('',#1408,1.);
#174=VECTOR('',#1411,1.);
#175=VECTOR('',#1412,1.);
#176=VECTOR('',#1421,1.);
#177=VECTOR('',#1424,1.);
#178=VECTOR('',#1455,1.);
#179=VECTOR('',#1458,1.);
#180=VECTOR('',#1459,1.);
#181=VECTOR('',#1460,1.);
#182=VECTOR('',#1461,1.);
#183=VECTOR('',#1464,1.);
#184=VECTOR('',#1465,1.);
#185=VECTOR('',#1466,1.);
#186=VECTOR('',#1499,1.);
#187=VECTOR('',#1504,1.);
#188=VECTOR('',#1507,1.);
#189=VECTOR('',#1508,1.);
#190=VECTOR('',#1509,1.);
#191=VECTOR('',#1510,1.);
#192=VECTOR('',#1511,1.);
#193=VECTOR('',#1512,1.);
#194=VECTOR('',#1513,1.);
#195=VECTOR('',#1514,1.);
#196=VECTOR('',#1515,1.);
#197=VECTOR('',#1516,1.);
#198=VECTOR('',#1519,1.);
#199=VECTOR('',#1522,1.);
#200=VECTOR('',#1523,1.);
#201=VECTOR('',#1524,1.);
#202=VECTOR('',#1525,1.);
#203=VECTOR('',#1528,1.);
#204=VECTOR('',#1529,1.);
#205=VECTOR('',#1534,1.);
#206=VECTOR('',#1539,1.);
#207=VECTOR('',#1540,1.);
#208=VECTOR('',#1541,1.);
#209=VECTOR('',#1542,1.);
#210=VECTOR('',#1543,1.);
#211=VECTOR('',#1544,1.);
#212=VECTOR('',#1545,1.);
#213=VECTOR('',#1546,1.);
#214=VECTOR('',#1547,1.);
#215=VECTOR('',#1550,1.);
#216=VECTOR('',#1551,1.);
#217=VECTOR('',#1554,1.);
#218=VECTOR('',#1555,1.);
#219=VECTOR('',#1560,1.);
#220=VECTOR('',#1561,1.);
#221=VECTOR('',#1562,1.);
#222=VECTOR('',#1573,1.);
#223=VECTOR('',#1574,1.);
#224=VECTOR('',#1577,1.);
#225=VECTOR('',#1584,1.);
#226=VECTOR('',#1595,0.152067970513651);
#227=VECTOR('',#1598,0.0774554333727697);
#228=VECTOR('',#1601,0.0799999982118607);
#229=VECTOR('',#1604,0.074445645880004);
#230=VECTOR('',#1607,0.0803616117944743);
#231=VECTOR('',#1610,0.0781952220273201);
#232=VECTOR('',#1613,0.0767404717872913);
#233=VECTOR('',#1616,0.0797885812629013);
#234=VECTOR('',#1619,0.0802201221315055);
#235=VECTOR('',#1622,0.0738241136510696);
#236=VECTOR('',#1625,0.0774645410419987);
#237=VECTOR('',#1628,0.0776760703563348);
#238=VECTOR('',#1631,0.0806225756809305);
#239=CYLINDRICAL_SURFACE('',#1158,0.1);
#240=CYLINDRICAL_SURFACE('',#1174,0.1);
#241=CYLINDRICAL_SURFACE('',#1175,0.1);
#242=CYLINDRICAL_SURFACE('',#1181,0.1);
#243=CYLINDRICAL_SURFACE('',#1182,0.1);
#244=CYLINDRICAL_SURFACE('',#1193,0.1);
#245=CYLINDRICAL_SURFACE('',#1194,0.1);
#246=CYLINDRICAL_SURFACE('',#1195,0.1);
#247=CYLINDRICAL_SURFACE('',#1196,0.1);
#248=CYLINDRICAL_SURFACE('',#1197,0.1);
#249=CYLINDRICAL_SURFACE('',#1198,0.1);
#250=CYLINDRICAL_SURFACE('',#1199,0.1);
#251=CYLINDRICAL_SURFACE('',#1236,0.5);
#252=CYLINDRICAL_SURFACE('',#1244,0.5);
#253=CYLINDRICAL_SURFACE('',#1262,2.);
#254=CYLINDRICAL_SURFACE('',#1264,2.);
#255=CYLINDRICAL_SURFACE('',#1265,0.152067970513651);
#256=CYLINDRICAL_SURFACE('',#1266,0.0774554333727697);
#257=CYLINDRICAL_SURFACE('',#1267,0.0799999982118607);
#258=CYLINDRICAL_SURFACE('',#1268,0.074445645880004);
#259=CYLINDRICAL_SURFACE('',#1269,0.0803616117944743);
#260=CYLINDRICAL_SURFACE('',#1270,0.0781952220273201);
#261=CYLINDRICAL_SURFACE('',#1271,0.0767404717872913);
#262=CYLINDRICAL_SURFACE('',#1272,0.0797885812629013);
#263=CYLINDRICAL_SURFACE('',#1273,0.0802201221315055);
#264=CYLINDRICAL_SURFACE('',#1274,0.0738241136510696);
#265=CYLINDRICAL_SURFACE('',#1275,0.0774645410419987);
#266=CYLINDRICAL_SURFACE('',#1276,0.0776760703563348);
#267=CYLINDRICAL_SURFACE('',#1277,0.0806225756809305);
#268=CYLINDRICAL_SURFACE('',#1278,2.);
#269=CYLINDRICAL_SURFACE('',#1281,2.);
#270=FACE_OUTER_BOUND('',#331,.T.);
#271=FACE_OUTER_BOUND('',#332,.T.);
#272=FACE_OUTER_BOUND('',#333,.T.);
#273=FACE_OUTER_BOUND('',#334,.T.);
#274=FACE_OUTER_BOUND('',#335,.T.);
#275=FACE_OUTER_BOUND('',#336,.T.);
#276=FACE_OUTER_BOUND('',#337,.T.);
#277=FACE_OUTER_BOUND('',#338,.T.);
#278=FACE_OUTER_BOUND('',#339,.T.);
#279=FACE_OUTER_BOUND('',#340,.T.);
#280=FACE_OUTER_BOUND('',#341,.T.);
#281=FACE_OUTER_BOUND('',#342,.T.);
#282=FACE_OUTER_BOUND('',#343,.T.);
#283=FACE_OUTER_BOUND('',#344,.T.);
#284=FACE_OUTER_BOUND('',#345,.T.);
#285=FACE_OUTER_BOUND('',#346,.T.);
#286=FACE_OUTER_BOUND('',#347,.T.);
#287=FACE_OUTER_BOUND('',#348,.T.);
#288=FACE_OUTER_BOUND('',#349,.T.);
#289=FACE_OUTER_BOUND('',#350,.T.);
#290=FACE_OUTER_BOUND('',#351,.T.);
#291=FACE_OUTER_BOUND('',#352,.T.);
#292=FACE_OUTER_BOUND('',#353,.T.);
#293=FACE_OUTER_BOUND('',#368,.T.);
#294=FACE_OUTER_BOUND('',#369,.T.);
#295=FACE_OUTER_BOUND('',#384,.T.);
#296=FACE_OUTER_BOUND('',#385,.T.);
#297=FACE_OUTER_BOUND('',#386,.T.);
#298=FACE_OUTER_BOUND('',#387,.T.);
#299=FACE_OUTER_BOUND('',#388,.T.);
#300=FACE_OUTER_BOUND('',#389,.T.);
#301=FACE_OUTER_BOUND('',#390,.T.);
#302=FACE_OUTER_BOUND('',#391,.T.);
#303=FACE_OUTER_BOUND('',#392,.T.);
#304=FACE_OUTER_BOUND('',#393,.T.);
#305=FACE_OUTER_BOUND('',#394,.T.);
#306=FACE_OUTER_BOUND('',#395,.T.);
#307=FACE_OUTER_BOUND('',#396,.T.);
#308=FACE_OUTER_BOUND('',#397,.T.);
#309=FACE_OUTER_BOUND('',#398,.T.);
#310=FACE_OUTER_BOUND('',#399,.T.);
#311=FACE_OUTER_BOUND('',#400,.T.);
#312=FACE_OUTER_BOUND('',#401,.T.);
#313=FACE_OUTER_BOUND('',#402,.T.);
#314=FACE_OUTER_BOUND('',#403,.T.);
#315=FACE_OUTER_BOUND('',#404,.T.);
#316=FACE_OUTER_BOUND('',#405,.T.);
#317=FACE_OUTER_BOUND('',#406,.T.);
#318=FACE_OUTER_BOUND('',#407,.T.);
#319=FACE_OUTER_BOUND('',#408,.T.);
#320=FACE_OUTER_BOUND('',#409,.T.);
#321=FACE_OUTER_BOUND('',#410,.T.);
#322=FACE_OUTER_BOUND('',#411,.T.);
#323=FACE_OUTER_BOUND('',#412,.T.);
#324=FACE_OUTER_BOUND('',#413,.T.);
#325=FACE_OUTER_BOUND('',#414,.T.);
#326=FACE_OUTER_BOUND('',#415,.T.);
#327=FACE_OUTER_BOUND('',#416,.T.);
#328=FACE_OUTER_BOUND('',#417,.T.);
#329=FACE_OUTER_BOUND('',#418,.T.);
#330=FACE_OUTER_BOUND('',#419,.T.);
#331=EDGE_LOOP('',(#755,#756,#757,#758));
#332=EDGE_LOOP('',(#759,#760,#761,#762));
#333=EDGE_LOOP('',(#763,#764,#765,#766));
#334=EDGE_LOOP('',(#767,#768,#769,#770));
#335=EDGE_LOOP('',(#771,#772,#773,#774));
#336=EDGE_LOOP('',(#775,#776,#777,#778));
#337=EDGE_LOOP('',(#779,#780,#781,#782));
#338=EDGE_LOOP('',(#783,#784,#785,#786));
#339=EDGE_LOOP('',(#787,#788,#789,#790));
#340=EDGE_LOOP('',(#791,#792,#793,#794));
#341=EDGE_LOOP('',(#795,#796,#797,#798));
#342=EDGE_LOOP('',(#799,#800,#801,#802));
#343=EDGE_LOOP('',(#803,#804,#805,#806));
#344=EDGE_LOOP('',(#807,#808,#809,#810));
#345=EDGE_LOOP('',(#811,#812,#813,#814));
#346=EDGE_LOOP('',(#815,#816,#817,#818));
#347=EDGE_LOOP('',(#819,#820,#821,#822));
#348=EDGE_LOOP('',(#823,#824,#825,#826));
#349=EDGE_LOOP('',(#827,#828,#829,#830));
#350=EDGE_LOOP('',(#831,#832,#833,#834));
#351=EDGE_LOOP('',(#835,#836,#837,#838));
#352=EDGE_LOOP('',(#839,#840,#841,#842));
#353=EDGE_LOOP('',(#843,#844,#845,#846));
#354=EDGE_LOOP('',(#847));
#355=EDGE_LOOP('',(#848));
#356=EDGE_LOOP('',(#849));
#357=EDGE_LOOP('',(#850));
#358=EDGE_LOOP('',(#851));
#359=EDGE_LOOP('',(#852));
#360=EDGE_LOOP('',(#853));
#361=EDGE_LOOP('',(#854));
#362=EDGE_LOOP('',(#855));
#363=EDGE_LOOP('',(#856));
#364=EDGE_LOOP('',(#857));
#365=EDGE_LOOP('',(#858));
#366=EDGE_LOOP('',(#859));
#367=EDGE_LOOP('',(#860,#861,#862,#863,#864,#865,#866,#867));
#368=EDGE_LOOP('',(#868,#869,#870,#871));
#369=EDGE_LOOP('',(#872,#873,#874,#875,#876,#877,#878,#879,#880,#881));
#370=EDGE_LOOP('',(#882));
#371=EDGE_LOOP('',(#883));
#372=EDGE_LOOP('',(#884));
#373=EDGE_LOOP('',(#885));
#374=EDGE_LOOP('',(#886));
#375=EDGE_LOOP('',(#887));
#376=EDGE_LOOP('',(#888));
#377=EDGE_LOOP('',(#889));
#378=EDGE_LOOP('',(#890));
#379=EDGE_LOOP('',(#891));
#380=EDGE_LOOP('',(#892));
#381=EDGE_LOOP('',(#893));
#382=EDGE_LOOP('',(#894));
#383=EDGE_LOOP('',(#895,#896,#897,#898,#899,#900,#901,#902));
#384=EDGE_LOOP('',(#903,#904,#905,#906));
#385=EDGE_LOOP('',(#907,#908,#909,#910,#911));
#386=EDGE_LOOP('',(#912,#913,#914,#915,#916,#917,#918,#919,#920,#921,#922,
#923,#924));
#387=EDGE_LOOP('',(#925,#926,#927,#928,#929,#930,#931,#932));
#388=EDGE_LOOP('',(#933,#934,#935,#936));
#389=EDGE_LOOP('',(#937,#938,#939,#940,#941));
#390=EDGE_LOOP('',(#942,#943,#944,#945,#946,#947,#948,#949,#950,#951,#952,
#953,#954));
#391=EDGE_LOOP('',(#955,#956,#957,#958));
#392=EDGE_LOOP('',(#959,#960,#961,#962));
#393=EDGE_LOOP('',(#963,#964,#965,#966,#967,#968,#969,#970));
#394=EDGE_LOOP('',(#971,#972,#973));
#395=EDGE_LOOP('',(#974,#975,#976));
#396=EDGE_LOOP('',(#977,#978,#979,#980));
#397=EDGE_LOOP('',(#981,#982,#983,#984));
#398=EDGE_LOOP('',(#985,#986,#987,#988));
#399=EDGE_LOOP('',(#989,#990,#991,#992));
#400=EDGE_LOOP('',(#993,#994,#995,#996,#997));
#401=EDGE_LOOP('',(#998,#999,#1000,#1001,#1002,#1003));
#402=EDGE_LOOP('',(#1004,#1005,#1006,#1007));
#403=EDGE_LOOP('',(#1008,#1009,#1010,#1011));
#404=EDGE_LOOP('',(#1012,#1013,#1014,#1015));
#405=EDGE_LOOP('',(#1016,#1017,#1018,#1019));
#406=EDGE_LOOP('',(#1020,#1021,#1022,#1023));
#407=EDGE_LOOP('',(#1024,#1025,#1026,#1027));
#408=EDGE_LOOP('',(#1028,#1029,#1030,#1031));
#409=EDGE_LOOP('',(#1032,#1033,#1034,#1035));
#410=EDGE_LOOP('',(#1036,#1037,#1038,#1039));
#411=EDGE_LOOP('',(#1040,#1041,#1042,#1043));
#412=EDGE_LOOP('',(#1044,#1045,#1046,#1047));
#413=EDGE_LOOP('',(#1048,#1049,#1050,#1051));
#414=EDGE_LOOP('',(#1052,#1053,#1054,#1055));
#415=EDGE_LOOP('',(#1056,#1057,#1058,#1059));
#416=EDGE_LOOP('',(#1060,#1061,#1062,#1063));
#417=EDGE_LOOP('',(#1064,#1065,#1066,#1067,#1068));
#418=EDGE_LOOP('',(#1069,#1070,#1071,#1072));
#419=EDGE_LOOP('',(#1073,#1074,#1075,#1076));
#420=CIRCLE('',#1149,0.0999999999999979);
#421=CIRCLE('',#1150,0.1);
#422=CIRCLE('',#1151,0.199999999999998);
#423=CIRCLE('',#1152,0.1);
#424=CIRCLE('',#1154,0.1);
#425=CIRCLE('',#1155,0.1);
#426=CIRCLE('',#1156,0.2);
#427=CIRCLE('',#1157,0.0999999999999996);
#428=CIRCLE('',#1160,0.2);
#429=CIRCLE('',#1161,0.0999999999999996);
#430=CIRCLE('',#1162,0.1);
#431=CIRCLE('',#1163,0.1);
#432=CIRCLE('',#1165,0.1);
#433=CIRCLE('',#1166,0.1);
#434=CIRCLE('',#1167,0.2);
#435=CIRCLE('',#1168,0.0999999999999996);
#436=CIRCLE('',#1170,0.199999999999999);
#437=CIRCLE('',#1171,0.1);
#438=CIRCLE('',#1172,0.0999999999999996);
#439=CIRCLE('',#1173,0.1);
#440=CIRCLE('',#1177,0.100000000000001);
#441=CIRCLE('',#1178,0.1);
#442=CIRCLE('',#1179,0.200000000000001);
#443=CIRCLE('',#1180,0.1);
#444=CIRCLE('',#1184,0.199999999999999);
#445=CIRCLE('',#1185,0.1);
#446=CIRCLE('',#1186,0.0999999999999996);
#447=CIRCLE('',#1187,0.1);
#448=CIRCLE('',#1189,0.2);
#449=CIRCLE('',#1190,0.0999999999999996);
#450=CIRCLE('',#1191,0.1);
#451=CIRCLE('',#1192,0.1);
#452=CIRCLE('',#1203,2.);
#453=CIRCLE('',#1204,2.);
#454=CIRCLE('',#1205,0.152067970513651);
#455=CIRCLE('',#1206,0.0806225756809305);
#456=CIRCLE('',#1207,0.0776760703563348);
#457=CIRCLE('',#1208,0.0774645410419987);
#458=CIRCLE('',#1209,0.0738241136510696);
#459=CIRCLE('',#1210,0.0802201221315055);
#460=CIRCLE('',#1211,0.0797885812629013);
#461=CIRCLE('',#1212,0.0767404717872913);
#462=CIRCLE('',#1213,0.0781952220273201);
#463=CIRCLE('',#1214,0.0803616117944743);
#464=CIRCLE('',#1215,0.074445645880004);
#465=CIRCLE('',#1216,0.0799999982118607);
#466=CIRCLE('',#1217,0.0774554333727697);
#467=CIRCLE('',#1220,2.);
#468=CIRCLE('',#1221,2.);
#469=CIRCLE('',#1222,0.152067970513651);
#470=CIRCLE('',#1223,0.0806225756809305);
#471=CIRCLE('',#1224,0.0776760703563348);
#472=CIRCLE('',#1225,0.0774645410419987);
#473=CIRCLE('',#1226,0.0738241136510696);
#474=CIRCLE('',#1227,0.0802201221315055);
#475=CIRCLE('',#1228,0.0797885812629013);
#476=CIRCLE('',#1229,0.0767404717872913);
#477=CIRCLE('',#1230,0.0781952220273201);
#478=CIRCLE('',#1231,0.0803616117944743);
#479=CIRCLE('',#1232,0.074445645880004);
#480=CIRCLE('',#1233,0.0799999982118607);
#481=CIRCLE('',#1234,0.0774554333727697);
#482=CIRCLE('',#1237,0.5);
#483=CIRCLE('',#1238,0.5);
#484=CIRCLE('',#1239,0.5);
#485=CIRCLE('',#1242,0.5);
#486=CIRCLE('',#1245,0.5);
#487=CIRCLE('',#1246,0.5);
#488=CIRCLE('',#1251,2.);
#489=CIRCLE('',#1253,2.);
#490=CIRCLE('',#1255,2.);
#491=CIRCLE('',#1259,2.);
#492=CIRCLE('',#1263,2.);
#493=CIRCLE('',#1279,2.);
#494=VERTEX_POINT('',#1644);
#495=VERTEX_POINT('',#1645);
#496=VERTEX_POINT('',#1647);
#497=VERTEX_POINT('',#1649);
#498=VERTEX_POINT('',#1653);
#499=VERTEX_POINT('',#1654);
#500=VERTEX_POINT('',#1656);
#501=VERTEX_POINT('',#1658);
#502=VERTEX_POINT('',#1665);
#503=VERTEX_POINT('',#1666);
#504=VERTEX_POINT('',#1668);
#505=VERTEX_POINT('',#1670);
#506=VERTEX_POINT('',#1674);
#507=VERTEX_POINT('',#1675);
#508=VERTEX_POINT('',#1677);
#509=VERTEX_POINT('',#1679);
#510=VERTEX_POINT('',#1683);
#511=VERTEX_POINT('',#1684);
#512=VERTEX_POINT('',#1686);
#513=VERTEX_POINT('',#1688);
#514=VERTEX_POINT('',#1698);
#515=VERTEX_POINT('',#1699);
#516=VERTEX_POINT('',#1701);
#517=VERTEX_POINT('',#1703);
#518=VERTEX_POINT('',#1713);
#519=VERTEX_POINT('',#1714);
#520=VERTEX_POINT('',#1716);
#521=VERTEX_POINT('',#1718);
#522=VERTEX_POINT('',#1722);
#523=VERTEX_POINT('',#1723);
#524=VERTEX_POINT('',#1725);
#525=VERTEX_POINT('',#1727);
#526=VERTEX_POINT('',#1754);
#527=VERTEX_POINT('',#1755);
#528=VERTEX_POINT('',#1757);
#529=VERTEX_POINT('',#1759);
#530=VERTEX_POINT('',#1762);
#531=VERTEX_POINT('',#1764);
#532=VERTEX_POINT('',#1766);
#533=VERTEX_POINT('',#1768);
#534=VERTEX_POINT('',#1770);
#535=VERTEX_POINT('',#1772);
#536=VERTEX_POINT('',#1774);
#537=VERTEX_POINT('',#1776);
#538=VERTEX_POINT('',#1778);
#539=VERTEX_POINT('',#1780);
#540=VERTEX_POINT('',#1782);
#541=VERTEX_POINT('',#1784);
#542=VERTEX_POINT('',#1786);
#543=VERTEX_POINT('',#1790);
#544=VERTEX_POINT('',#1791);
#545=VERTEX_POINT('',#1793);
#546=VERTEX_POINT('',#1795);
#547=VERTEX_POINT('',#1797);
#548=VERTEX_POINT('',#1799);
#549=VERTEX_POINT('',#1801);
#550=VERTEX_POINT('',#1803);
#551=VERTEX_POINT('',#1805);
#552=VERTEX_POINT('',#1807);
#553=VERTEX_POINT('',#1810);
#554=VERTEX_POINT('',#1812);
#555=VERTEX_POINT('',#1814);
#556=VERTEX_POINT('',#1816);
#557=VERTEX_POINT('',#1818);
#558=VERTEX_POINT('',#1820);
#559=VERTEX_POINT('',#1822);
#560=VERTEX_POINT('',#1824);
#561=VERTEX_POINT('',#1826);
#562=VERTEX_POINT('',#1828);
#563=VERTEX_POINT('',#1830);
#564=VERTEX_POINT('',#1832);
#565=VERTEX_POINT('',#1834);
#566=VERTEX_POINT('',#1838);
#567=VERTEX_POINT('',#1839);
#568=VERTEX_POINT('',#1841);
#569=VERTEX_POINT('',#1843);
#570=VERTEX_POINT('',#1845);
#571=VERTEX_POINT('',#1849);
#572=VERTEX_POINT('',#1854);
#573=VERTEX_POINT('',#1856);
#574=VERTEX_POINT('',#1858);
#575=VERTEX_POINT('',#1860);
#576=VERTEX_POINT('',#1862);
#577=VERTEX_POINT('',#1866);
#578=VERTEX_POINT('',#1868);
#579=VERTEX_POINT('',#1870);
#580=VERTEX_POINT('',#1872);
#581=VERTEX_POINT('',#1874);
#582=VERTEX_POINT('',#1878);
#583=VERTEX_POINT('',#1882);
#584=VERTEX_POINT('',#1883);
#585=VERTEX_POINT('',#1888);
#586=VERTEX_POINT('',#1890);
#587=VERTEX_POINT('',#1892);
#588=VERTEX_POINT('',#1894);
#589=VERTEX_POINT('',#1896);
#590=VERTEX_POINT('',#1903);
#591=VERTEX_POINT('',#1907);
#592=VERTEX_POINT('',#1912);
#593=VERTEX_POINT('',#1914);
#594=EDGE_CURVE('',#494,#495,#420,.F.);
#595=EDGE_CURVE('',#496,#494,#421,.T.);
#596=EDGE_CURVE('',#496,#497,#422,.T.);
#597=EDGE_CURVE('',#495,#497,#423,.T.);
#598=EDGE_CURVE('',#498,#499,#424,.F.);
#599=EDGE_CURVE('',#500,#498,#425,.T.);
#600=EDGE_CURVE('',#500,#501,#426,.T.);
#601=EDGE_CURVE('',#499,#501,#427,.T.);
#602=EDGE_CURVE('',#497,#500,#65,.T.);
#603=EDGE_CURVE('',#498,#495,#66,.T.);
#604=EDGE_CURVE('',#502,#503,#428,.T.);
#605=EDGE_CURVE('',#504,#503,#429,.T.);
#606=EDGE_CURVE('',#505,#504,#430,.F.);
#607=EDGE_CURVE('',#502,#505,#431,.T.);
#608=EDGE_CURVE('',#506,#507,#432,.F.);
#609=EDGE_CURVE('',#508,#506,#433,.T.);
#610=EDGE_CURVE('',#508,#509,#434,.T.);
#611=EDGE_CURVE('',#507,#509,#435,.T.);
#612=EDGE_CURVE('',#510,#511,#436,.T.);
#613=EDGE_CURVE('',#512,#511,#437,.T.);
#614=EDGE_CURVE('',#513,#512,#438,.F.);
#615=EDGE_CURVE('',#510,#513,#439,.T.);
#616=EDGE_CURVE('',#511,#502,#67,.T.);
#617=EDGE_CURVE('',#505,#512,#68,.T.);
#618=EDGE_CURVE('',#512,#498,#69,.T.);
#619=EDGE_CURVE('',#499,#513,#70,.T.);
#620=EDGE_CURVE('',#514,#515,#440,.F.);
#621=EDGE_CURVE('',#516,#514,#441,.T.);
#622=EDGE_CURVE('',#516,#517,#442,.T.);
#623=EDGE_CURVE('',#515,#517,#443,.T.);
#624=EDGE_CURVE('',#501,#516,#71,.T.);
#625=EDGE_CURVE('',#514,#499,#72,.T.);
#626=EDGE_CURVE('',#517,#508,#73,.T.);
#627=EDGE_CURVE('',#506,#515,#74,.T.);
#628=EDGE_CURVE('',#518,#519,#444,.T.);
#629=EDGE_CURVE('',#520,#519,#445,.T.);
#630=EDGE_CURVE('',#521,#520,#446,.F.);
#631=EDGE_CURVE('',#518,#521,#447,.T.);
#632=EDGE_CURVE('',#522,#523,#448,.T.);
#633=EDGE_CURVE('',#524,#523,#449,.T.);
#634=EDGE_CURVE('',#525,#524,#450,.F.);
#635=EDGE_CURVE('',#522,#525,#451,.T.);
#636=EDGE_CURVE('',#523,#510,#75,.T.);
#637=EDGE_CURVE('',#513,#524,#76,.T.);
#638=EDGE_CURVE('',#524,#514,#77,.T.);
#639=EDGE_CURVE('',#515,#525,#78,.T.);
#640=EDGE_CURVE('',#519,#522,#79,.T.);
#641=EDGE_CURVE('',#525,#520,#80,.T.);
#642=EDGE_CURVE('',#520,#506,#81,.T.);
#643=EDGE_CURVE('',#507,#521,#82,.T.);
#644=EDGE_CURVE('',#503,#518,#83,.T.);
#645=EDGE_CURVE('',#521,#504,#84,.T.);
#646=EDGE_CURVE('',#509,#496,#85,.T.);
#647=EDGE_CURVE('',#494,#507,#86,.T.);
#648=EDGE_CURVE('',#504,#494,#87,.T.);
#649=EDGE_CURVE('',#495,#505,#88,.T.);
#650=EDGE_CURVE('',#526,#527,#452,.T.);
#651=EDGE_CURVE('',#526,#528,#89,.T.);
#652=EDGE_CURVE('',#529,#528,#453,.T.);
#653=EDGE_CURVE('',#527,#529,#90,.T.);
#654=EDGE_CURVE('',#530,#530,#454,.T.);
#655=EDGE_CURVE('',#531,#531,#455,.T.);
#656=EDGE_CURVE('',#532,#532,#456,.T.);
#657=EDGE_CURVE('',#533,#533,#457,.T.);
#658=EDGE_CURVE('',#534,#534,#458,.T.);
#659=EDGE_CURVE('',#535,#535,#459,.T.);
#660=EDGE_CURVE('',#536,#536,#460,.T.);
#661=EDGE_CURVE('',#537,#537,#461,.T.);
#662=EDGE_CURVE('',#538,#538,#462,.T.);
#663=EDGE_CURVE('',#539,#539,#463,.T.);
#664=EDGE_CURVE('',#540,#540,#464,.T.);
#665=EDGE_CURVE('',#541,#541,#465,.T.);
#666=EDGE_CURVE('',#542,#542,#466,.T.);
#667=EDGE_CURVE('',#543,#544,#91,.T.);
#668=EDGE_CURVE('',#545,#543,#467,.T.);
#669=EDGE_CURVE('',#546,#545,#92,.T.);
#670=EDGE_CURVE('',#547,#546,#93,.T.);
#671=EDGE_CURVE('',#547,#548,#94,.T.);
#672=EDGE_CURVE('',#549,#548,#95,.T.);
#673=EDGE_CURVE('',#550,#549,#468,.T.);
#674=EDGE_CURVE('',#551,#550,#96,.T.);
#675=EDGE_CURVE('',#552,#551,#97,.T.);
#676=EDGE_CURVE('',#544,#552,#98,.T.);
#677=EDGE_CURVE('',#553,#553,#469,.T.);
#678=EDGE_CURVE('',#554,#554,#470,.T.);
#679=EDGE_CURVE('',#555,#555,#471,.T.);
#680=EDGE_CURVE('',#556,#556,#472,.T.);
#681=EDGE_CURVE('',#557,#557,#473,.T.);
#682=EDGE_CURVE('',#558,#558,#474,.T.);
#683=EDGE_CURVE('',#559,#559,#475,.T.);
#684=EDGE_CURVE('',#560,#560,#476,.T.);
#685=EDGE_CURVE('',#561,#561,#477,.T.);
#686=EDGE_CURVE('',#562,#562,#478,.T.);
#687=EDGE_CURVE('',#563,#563,#479,.T.);
#688=EDGE_CURVE('',#564,#564,#480,.T.);
#689=EDGE_CURVE('',#565,#565,#481,.T.);
#690=EDGE_CURVE('',#566,#567,#482,.T.);
#691=EDGE_CURVE('',#567,#568,#99,.T.);
#692=EDGE_CURVE('',#568,#569,#483,.T.);
#693=EDGE_CURVE('',#570,#569,#484,.T.);
#694=EDGE_CURVE('',#570,#566,#100,.T.);
#695=EDGE_CURVE('',#567,#571,#101,.T.);
#696=EDGE_CURVE('',#550,#571,#102,.T.);
#697=EDGE_CURVE('',#528,#550,#103,.T.);
#698=EDGE_CURVE('',#543,#526,#104,.T.);
#699=EDGE_CURVE('',#544,#572,#105,.T.);
#700=EDGE_CURVE('',#572,#573,#106,.T.);
#701=EDGE_CURVE('',#574,#573,#107,.T.);
#702=EDGE_CURVE('',#574,#575,#108,.T.);
#703=EDGE_CURVE('',#576,#575,#109,.T.);
#704=EDGE_CURVE('',#576,#568,#110,.T.);
#705=EDGE_CURVE('',#577,#566,#111,.T.);
#706=EDGE_CURVE('',#578,#577,#485,.T.);
#707=EDGE_CURVE('',#579,#578,#112,.T.);
#708=EDGE_CURVE('',#580,#579,#113,.T.);
#709=EDGE_CURVE('',#580,#581,#114,.T.);
#710=EDGE_CURVE('',#571,#581,#115,.T.);
#711=EDGE_CURVE('',#582,#570,#116,.T.);
#712=EDGE_CURVE('',#577,#582,#117,.T.);
#713=EDGE_CURVE('',#583,#584,#486,.T.);
#714=EDGE_CURVE('',#584,#578,#118,.T.);
#715=EDGE_CURVE('',#582,#583,#487,.F.);
#716=EDGE_CURVE('',#584,#585,#119,.T.);
#717=EDGE_CURVE('',#586,#585,#120,.T.);
#718=EDGE_CURVE('',#587,#586,#121,.T.);
#719=EDGE_CURVE('',#588,#587,#122,.T.);
#720=EDGE_CURVE('',#588,#589,#123,.T.);
#721=EDGE_CURVE('',#589,#546,#124,.T.);
#722=EDGE_CURVE('',#527,#545,#125,.T.);
#723=EDGE_CURVE('',#549,#529,#126,.T.);
#724=EDGE_CURVE('',#579,#549,#127,.T.);
#725=EDGE_CURVE('',#547,#590,#128,.T.);
#726=EDGE_CURVE('',#590,#589,#129,.T.);
#727=EDGE_CURVE('',#591,#552,#130,.T.);
#728=EDGE_CURVE('',#572,#591,#131,.T.);
#729=EDGE_CURVE('',#573,#588,#488,.T.);
#730=EDGE_CURVE('',#591,#592,#132,.T.);
#731=EDGE_CURVE('',#592,#593,#133,.T.);
#732=EDGE_CURVE('',#590,#593,#134,.T.);
#733=EDGE_CURVE('',#585,#583,#489,.T.);
#734=EDGE_CURVE('',#569,#576,#490,.T.);
#735=EDGE_CURVE('',#581,#592,#135,.T.);
#736=EDGE_CURVE('',#593,#580,#136,.T.);
#737=EDGE_CURVE('',#580,#548,#137,.T.);
#738=EDGE_CURVE('',#583,#569,#491,.T.);
#739=EDGE_CURVE('',#551,#581,#138,.T.);
#740=EDGE_CURVE('',#575,#586,#492,.T.);
#741=EDGE_CURVE('',#530,#553,#139,.T.);
#742=EDGE_CURVE('',#542,#565,#140,.T.);
#743=EDGE_CURVE('',#541,#564,#141,.T.);
#744=EDGE_CURVE('',#540,#563,#142,.T.);
#745=EDGE_CURVE('',#539,#562,#143,.T.);
#746=EDGE_CURVE('',#538,#561,#144,.T.);
#747=EDGE_CURVE('',#537,#560,#145,.T.);
#748=EDGE_CURVE('',#536,#559,#146,.T.);
#749=EDGE_CURVE('',#535,#558,#147,.T.);
#750=EDGE_CURVE('',#534,#557,#148,.T.);
#751=EDGE_CURVE('',#533,#556,#149,.T.);
#752=EDGE_CURVE('',#532,#555,#150,.T.);
#753=EDGE_CURVE('',#531,#554,#151,.T.);
#754=EDGE_CURVE('',#587,#574,#493,.T.);
#755=ORIENTED_EDGE('',*,*,#594,.F.);
#756=ORIENTED_EDGE('',*,*,#595,.F.);
#757=ORIENTED_EDGE('',*,*,#596,.T.);
#758=ORIENTED_EDGE('',*,*,#597,.F.);
#759=ORIENTED_EDGE('',*,*,#598,.F.);
#760=ORIENTED_EDGE('',*,*,#599,.F.);
#761=ORIENTED_EDGE('',*,*,#600,.T.);
#762=ORIENTED_EDGE('',*,*,#601,.F.);
#763=ORIENTED_EDGE('',*,*,#597,.T.);
#764=ORIENTED_EDGE('',*,*,#602,.T.);
#765=ORIENTED_EDGE('',*,*,#599,.T.);
#766=ORIENTED_EDGE('',*,*,#603,.T.);
#767=ORIENTED_EDGE('',*,*,#604,.T.);
#768=ORIENTED_EDGE('',*,*,#605,.F.);
#769=ORIENTED_EDGE('',*,*,#606,.F.);
#770=ORIENTED_EDGE('',*,*,#607,.F.);
#771=ORIENTED_EDGE('',*,*,#608,.F.);
#772=ORIENTED_EDGE('',*,*,#609,.F.);
#773=ORIENTED_EDGE('',*,*,#610,.T.);
#774=ORIENTED_EDGE('',*,*,#611,.F.);
#775=ORIENTED_EDGE('',*,*,#612,.T.);
#776=ORIENTED_EDGE('',*,*,#613,.F.);
#777=ORIENTED_EDGE('',*,*,#614,.F.);
#778=ORIENTED_EDGE('',*,*,#615,.F.);
#779=ORIENTED_EDGE('',*,*,#613,.T.);
#780=ORIENTED_EDGE('',*,*,#616,.T.);
#781=ORIENTED_EDGE('',*,*,#607,.T.);
#782=ORIENTED_EDGE('',*,*,#617,.T.);
#783=ORIENTED_EDGE('',*,*,#614,.T.);
#784=ORIENTED_EDGE('',*,*,#618,.T.);
#785=ORIENTED_EDGE('',*,*,#598,.T.);
#786=ORIENTED_EDGE('',*,*,#619,.T.);
#787=ORIENTED_EDGE('',*,*,#620,.F.);
#788=ORIENTED_EDGE('',*,*,#621,.F.);
#789=ORIENTED_EDGE('',*,*,#622,.T.);
#790=ORIENTED_EDGE('',*,*,#623,.F.);
#791=ORIENTED_EDGE('',*,*,#601,.T.);
#792=ORIENTED_EDGE('',*,*,#624,.T.);
#793=ORIENTED_EDGE('',*,*,#621,.T.);
#794=ORIENTED_EDGE('',*,*,#625,.T.);
#795=ORIENTED_EDGE('',*,*,#623,.T.);
#796=ORIENTED_EDGE('',*,*,#626,.T.);
#797=ORIENTED_EDGE('',*,*,#609,.T.);
#798=ORIENTED_EDGE('',*,*,#627,.T.);
#799=ORIENTED_EDGE('',*,*,#628,.T.);
#800=ORIENTED_EDGE('',*,*,#629,.F.);
#801=ORIENTED_EDGE('',*,*,#630,.F.);
#802=ORIENTED_EDGE('',*,*,#631,.F.);
#803=ORIENTED_EDGE('',*,*,#632,.T.);
#804=ORIENTED_EDGE('',*,*,#633,.F.);
#805=ORIENTED_EDGE('',*,*,#634,.F.);
#806=ORIENTED_EDGE('',*,*,#635,.F.);
#807=ORIENTED_EDGE('',*,*,#633,.T.);
#808=ORIENTED_EDGE('',*,*,#636,.T.);
#809=ORIENTED_EDGE('',*,*,#615,.T.);
#810=ORIENTED_EDGE('',*,*,#637,.T.);
#811=ORIENTED_EDGE('',*,*,#634,.T.);
#812=ORIENTED_EDGE('',*,*,#638,.T.);
#813=ORIENTED_EDGE('',*,*,#620,.T.);
#814=ORIENTED_EDGE('',*,*,#639,.T.);
#815=ORIENTED_EDGE('',*,*,#629,.T.);
#816=ORIENTED_EDGE('',*,*,#640,.T.);
#817=ORIENTED_EDGE('',*,*,#635,.T.);
#818=ORIENTED_EDGE('',*,*,#641,.T.);
#819=ORIENTED_EDGE('',*,*,#630,.T.);
#820=ORIENTED_EDGE('',*,*,#642,.T.);
#821=ORIENTED_EDGE('',*,*,#608,.T.);
#822=ORIENTED_EDGE('',*,*,#643,.T.);
#823=ORIENTED_EDGE('',*,*,#605,.T.);
#824=ORIENTED_EDGE('',*,*,#644,.T.);
#825=ORIENTED_EDGE('',*,*,#631,.T.);
#826=ORIENTED_EDGE('',*,*,#645,.T.);
#827=ORIENTED_EDGE('',*,*,#611,.T.);
#828=ORIENTED_EDGE('',*,*,#646,.T.);
#829=ORIENTED_EDGE('',*,*,#595,.T.);
#830=ORIENTED_EDGE('',*,*,#647,.T.);
#831=ORIENTED_EDGE('',*,*,#606,.T.);
#832=ORIENTED_EDGE('',*,*,#648,.T.);
#833=ORIENTED_EDGE('',*,*,#594,.T.);
#834=ORIENTED_EDGE('',*,*,#649,.T.);
#835=ORIENTED_EDGE('',*,*,#617,.F.);
#836=ORIENTED_EDGE('',*,*,#649,.F.);
#837=ORIENTED_EDGE('',*,*,#603,.F.);
#838=ORIENTED_EDGE('',*,*,#618,.F.);
#839=ORIENTED_EDGE('',*,*,#619,.F.);
#840=ORIENTED_EDGE('',*,*,#625,.F.);
#841=ORIENTED_EDGE('',*,*,#638,.F.);
#842=ORIENTED_EDGE('',*,*,#637,.F.);
#843=ORIENTED_EDGE('',*,*,#650,.F.);
#844=ORIENTED_EDGE('',*,*,#651,.T.);
#845=ORIENTED_EDGE('',*,*,#652,.F.);
#846=ORIENTED_EDGE('',*,*,#653,.F.);
#847=ORIENTED_EDGE('',*,*,#654,.T.);
#848=ORIENTED_EDGE('',*,*,#655,.T.);
#849=ORIENTED_EDGE('',*,*,#656,.T.);
#850=ORIENTED_EDGE('',*,*,#657,.T.);
#851=ORIENTED_EDGE('',*,*,#658,.T.);
#852=ORIENTED_EDGE('',*,*,#659,.T.);
#853=ORIENTED_EDGE('',*,*,#660,.T.);
#854=ORIENTED_EDGE('',*,*,#661,.T.);
#855=ORIENTED_EDGE('',*,*,#662,.T.);
#856=ORIENTED_EDGE('',*,*,#663,.T.);
#857=ORIENTED_EDGE('',*,*,#664,.T.);
#858=ORIENTED_EDGE('',*,*,#665,.T.);
#859=ORIENTED_EDGE('',*,*,#666,.T.);
#860=ORIENTED_EDGE('',*,*,#622,.F.);
#861=ORIENTED_EDGE('',*,*,#624,.F.);
#862=ORIENTED_EDGE('',*,*,#600,.F.);
#863=ORIENTED_EDGE('',*,*,#602,.F.);
#864=ORIENTED_EDGE('',*,*,#596,.F.);
#865=ORIENTED_EDGE('',*,*,#646,.F.);
#866=ORIENTED_EDGE('',*,*,#610,.F.);
#867=ORIENTED_EDGE('',*,*,#626,.F.);
#868=ORIENTED_EDGE('',*,*,#627,.F.);
#869=ORIENTED_EDGE('',*,*,#642,.F.);
#870=ORIENTED_EDGE('',*,*,#641,.F.);
#871=ORIENTED_EDGE('',*,*,#639,.F.);
#872=ORIENTED_EDGE('',*,*,#667,.F.);
#873=ORIENTED_EDGE('',*,*,#668,.F.);
#874=ORIENTED_EDGE('',*,*,#669,.F.);
#875=ORIENTED_EDGE('',*,*,#670,.F.);
#876=ORIENTED_EDGE('',*,*,#671,.T.);
#877=ORIENTED_EDGE('',*,*,#672,.F.);
#878=ORIENTED_EDGE('',*,*,#673,.F.);
#879=ORIENTED_EDGE('',*,*,#674,.F.);
#880=ORIENTED_EDGE('',*,*,#675,.F.);
#881=ORIENTED_EDGE('',*,*,#676,.F.);
#882=ORIENTED_EDGE('',*,*,#677,.T.);
#883=ORIENTED_EDGE('',*,*,#678,.T.);
#884=ORIENTED_EDGE('',*,*,#679,.T.);
#885=ORIENTED_EDGE('',*,*,#680,.T.);
#886=ORIENTED_EDGE('',*,*,#681,.T.);
#887=ORIENTED_EDGE('',*,*,#682,.T.);
#888=ORIENTED_EDGE('',*,*,#683,.T.);
#889=ORIENTED_EDGE('',*,*,#684,.T.);
#890=ORIENTED_EDGE('',*,*,#685,.T.);
#891=ORIENTED_EDGE('',*,*,#686,.T.);
#892=ORIENTED_EDGE('',*,*,#687,.T.);
#893=ORIENTED_EDGE('',*,*,#688,.T.);
#894=ORIENTED_EDGE('',*,*,#689,.T.);
#895=ORIENTED_EDGE('',*,*,#632,.F.);
#896=ORIENTED_EDGE('',*,*,#640,.F.);
#897=ORIENTED_EDGE('',*,*,#628,.F.);
#898=ORIENTED_EDGE('',*,*,#644,.F.);
#899=ORIENTED_EDGE('',*,*,#604,.F.);
#900=ORIENTED_EDGE('',*,*,#616,.F.);
#901=ORIENTED_EDGE('',*,*,#612,.F.);
#902=ORIENTED_EDGE('',*,*,#636,.F.);
#903=ORIENTED_EDGE('',*,*,#643,.F.);
#904=ORIENTED_EDGE('',*,*,#647,.F.);
#905=ORIENTED_EDGE('',*,*,#648,.F.);
#906=ORIENTED_EDGE('',*,*,#645,.F.);
#907=ORIENTED_EDGE('',*,*,#690,.T.);
#908=ORIENTED_EDGE('',*,*,#691,.T.);
#909=ORIENTED_EDGE('',*,*,#692,.T.);
#910=ORIENTED_EDGE('',*,*,#693,.F.);
#911=ORIENTED_EDGE('',*,*,#694,.T.);
#912=ORIENTED_EDGE('',*,*,#691,.F.);
#913=ORIENTED_EDGE('',*,*,#695,.T.);
#914=ORIENTED_EDGE('',*,*,#696,.F.);
#915=ORIENTED_EDGE('',*,*,#697,.F.);
#916=ORIENTED_EDGE('',*,*,#651,.F.);
#917=ORIENTED_EDGE('',*,*,#698,.F.);
#918=ORIENTED_EDGE('',*,*,#667,.T.);
#919=ORIENTED_EDGE('',*,*,#699,.T.);
#920=ORIENTED_EDGE('',*,*,#700,.T.);
#921=ORIENTED_EDGE('',*,*,#701,.F.);
#922=ORIENTED_EDGE('',*,*,#702,.T.);
#923=ORIENTED_EDGE('',*,*,#703,.F.);
#924=ORIENTED_EDGE('',*,*,#704,.T.);
#925=ORIENTED_EDGE('',*,*,#690,.F.);
#926=ORIENTED_EDGE('',*,*,#705,.F.);
#927=ORIENTED_EDGE('',*,*,#706,.F.);
#928=ORIENTED_EDGE('',*,*,#707,.F.);
#929=ORIENTED_EDGE('',*,*,#708,.F.);
#930=ORIENTED_EDGE('',*,*,#709,.T.);
#931=ORIENTED_EDGE('',*,*,#710,.F.);
#932=ORIENTED_EDGE('',*,*,#695,.F.);
#933=ORIENTED_EDGE('',*,*,#694,.F.);
#934=ORIENTED_EDGE('',*,*,#711,.F.);
#935=ORIENTED_EDGE('',*,*,#712,.F.);
#936=ORIENTED_EDGE('',*,*,#705,.T.);
#937=ORIENTED_EDGE('',*,*,#713,.T.);
#938=ORIENTED_EDGE('',*,*,#714,.T.);
#939=ORIENTED_EDGE('',*,*,#706,.T.);
#940=ORIENTED_EDGE('',*,*,#712,.T.);
#941=ORIENTED_EDGE('',*,*,#715,.T.);
#942=ORIENTED_EDGE('',*,*,#714,.F.);
#943=ORIENTED_EDGE('',*,*,#716,.T.);
#944=ORIENTED_EDGE('',*,*,#717,.F.);
#945=ORIENTED_EDGE('',*,*,#718,.F.);
#946=ORIENTED_EDGE('',*,*,#719,.F.);
#947=ORIENTED_EDGE('',*,*,#720,.T.);
#948=ORIENTED_EDGE('',*,*,#721,.T.);
#949=ORIENTED_EDGE('',*,*,#669,.T.);
#950=ORIENTED_EDGE('',*,*,#722,.F.);
#951=ORIENTED_EDGE('',*,*,#653,.T.);
#952=ORIENTED_EDGE('',*,*,#723,.F.);
#953=ORIENTED_EDGE('',*,*,#724,.F.);
#954=ORIENTED_EDGE('',*,*,#707,.T.);
#955=ORIENTED_EDGE('',*,*,#725,.F.);
#956=ORIENTED_EDGE('',*,*,#670,.T.);
#957=ORIENTED_EDGE('',*,*,#721,.F.);
#958=ORIENTED_EDGE('',*,*,#726,.F.);
#959=ORIENTED_EDGE('',*,*,#727,.F.);
#960=ORIENTED_EDGE('',*,*,#728,.F.);
#961=ORIENTED_EDGE('',*,*,#699,.F.);
#962=ORIENTED_EDGE('',*,*,#676,.T.);
#963=ORIENTED_EDGE('',*,*,#720,.F.);
#964=ORIENTED_EDGE('',*,*,#729,.F.);
#965=ORIENTED_EDGE('',*,*,#700,.F.);
#966=ORIENTED_EDGE('',*,*,#728,.T.);
#967=ORIENTED_EDGE('',*,*,#730,.T.);
#968=ORIENTED_EDGE('',*,*,#731,.T.);
#969=ORIENTED_EDGE('',*,*,#732,.F.);
#970=ORIENTED_EDGE('',*,*,#726,.T.);
#971=ORIENTED_EDGE('',*,*,#713,.F.);
#972=ORIENTED_EDGE('',*,*,#733,.F.);
#973=ORIENTED_EDGE('',*,*,#716,.F.);
#974=ORIENTED_EDGE('',*,*,#692,.F.);
#975=ORIENTED_EDGE('',*,*,#704,.F.);
#976=ORIENTED_EDGE('',*,*,#734,.F.);
#977=ORIENTED_EDGE('',*,*,#735,.F.);
#978=ORIENTED_EDGE('',*,*,#709,.F.);
#979=ORIENTED_EDGE('',*,*,#736,.F.);
#980=ORIENTED_EDGE('',*,*,#731,.F.);
#981=ORIENTED_EDGE('',*,*,#708,.T.);
#982=ORIENTED_EDGE('',*,*,#724,.T.);
#983=ORIENTED_EDGE('',*,*,#672,.T.);
#984=ORIENTED_EDGE('',*,*,#737,.F.);
#985=ORIENTED_EDGE('',*,*,#711,.T.);
#986=ORIENTED_EDGE('',*,*,#693,.T.);
#987=ORIENTED_EDGE('',*,*,#738,.F.);
#988=ORIENTED_EDGE('',*,*,#715,.F.);
#989=ORIENTED_EDGE('',*,*,#710,.T.);
#990=ORIENTED_EDGE('',*,*,#739,.F.);
#991=ORIENTED_EDGE('',*,*,#674,.T.);
#992=ORIENTED_EDGE('',*,*,#696,.T.);
#993=ORIENTED_EDGE('',*,*,#727,.T.);
#994=ORIENTED_EDGE('',*,*,#675,.T.);
#995=ORIENTED_EDGE('',*,*,#739,.T.);
#996=ORIENTED_EDGE('',*,*,#735,.T.);
#997=ORIENTED_EDGE('',*,*,#730,.F.);
#998=ORIENTED_EDGE('',*,*,#733,.T.);
#999=ORIENTED_EDGE('',*,*,#738,.T.);
#1000=ORIENTED_EDGE('',*,*,#734,.T.);
#1001=ORIENTED_EDGE('',*,*,#703,.T.);
#1002=ORIENTED_EDGE('',*,*,#740,.T.);
#1003=ORIENTED_EDGE('',*,*,#717,.T.);
#1004=ORIENTED_EDGE('',*,*,#673,.T.);
#1005=ORIENTED_EDGE('',*,*,#723,.T.);
#1006=ORIENTED_EDGE('',*,*,#652,.T.);
#1007=ORIENTED_EDGE('',*,*,#697,.T.);
#1008=ORIENTED_EDGE('',*,*,#654,.F.);
#1009=ORIENTED_EDGE('',*,*,#741,.T.);
#1010=ORIENTED_EDGE('',*,*,#677,.F.);
#1011=ORIENTED_EDGE('',*,*,#741,.F.);
#1012=ORIENTED_EDGE('',*,*,#666,.F.);
#1013=ORIENTED_EDGE('',*,*,#742,.T.);
#1014=ORIENTED_EDGE('',*,*,#689,.F.);
#1015=ORIENTED_EDGE('',*,*,#742,.F.);
#1016=ORIENTED_EDGE('',*,*,#665,.F.);
#1017=ORIENTED_EDGE('',*,*,#743,.T.);
#1018=ORIENTED_EDGE('',*,*,#688,.F.);
#1019=ORIENTED_EDGE('',*,*,#743,.F.);
#1020=ORIENTED_EDGE('',*,*,#664,.F.);
#1021=ORIENTED_EDGE('',*,*,#744,.T.);
#1022=ORIENTED_EDGE('',*,*,#687,.F.);
#1023=ORIENTED_EDGE('',*,*,#744,.F.);
#1024=ORIENTED_EDGE('',*,*,#663,.F.);
#1025=ORIENTED_EDGE('',*,*,#745,.T.);
#1026=ORIENTED_EDGE('',*,*,#686,.F.);
#1027=ORIENTED_EDGE('',*,*,#745,.F.);
#1028=ORIENTED_EDGE('',*,*,#662,.F.);
#1029=ORIENTED_EDGE('',*,*,#746,.T.);
#1030=ORIENTED_EDGE('',*,*,#685,.F.);
#1031=ORIENTED_EDGE('',*,*,#746,.F.);
#1032=ORIENTED_EDGE('',*,*,#661,.F.);
#1033=ORIENTED_EDGE('',*,*,#747,.T.);
#1034=ORIENTED_EDGE('',*,*,#684,.F.);
#1035=ORIENTED_EDGE('',*,*,#747,.F.);
#1036=ORIENTED_EDGE('',*,*,#660,.F.);
#1037=ORIENTED_EDGE('',*,*,#748,.T.);
#1038=ORIENTED_EDGE('',*,*,#683,.F.);
#1039=ORIENTED_EDGE('',*,*,#748,.F.);
#1040=ORIENTED_EDGE('',*,*,#659,.F.);
#1041=ORIENTED_EDGE('',*,*,#749,.T.);
#1042=ORIENTED_EDGE('',*,*,#682,.F.);
#1043=ORIENTED_EDGE('',*,*,#749,.F.);
#1044=ORIENTED_EDGE('',*,*,#658,.F.);
#1045=ORIENTED_EDGE('',*,*,#750,.T.);
#1046=ORIENTED_EDGE('',*,*,#681,.F.);
#1047=ORIENTED_EDGE('',*,*,#750,.F.);
#1048=ORIENTED_EDGE('',*,*,#657,.F.);
#1049=ORIENTED_EDGE('',*,*,#751,.T.);
#1050=ORIENTED_EDGE('',*,*,#680,.F.);
#1051=ORIENTED_EDGE('',*,*,#751,.F.);
#1052=ORIENTED_EDGE('',*,*,#656,.F.);
#1053=ORIENTED_EDGE('',*,*,#752,.T.);
#1054=ORIENTED_EDGE('',*,*,#679,.F.);
#1055=ORIENTED_EDGE('',*,*,#752,.F.);
#1056=ORIENTED_EDGE('',*,*,#655,.F.);
#1057=ORIENTED_EDGE('',*,*,#753,.T.);
#1058=ORIENTED_EDGE('',*,*,#678,.F.);
#1059=ORIENTED_EDGE('',*,*,#753,.F.);
#1060=ORIENTED_EDGE('',*,*,#729,.T.);
#1061=ORIENTED_EDGE('',*,*,#719,.T.);
#1062=ORIENTED_EDGE('',*,*,#754,.T.);
#1063=ORIENTED_EDGE('',*,*,#701,.T.);
#1064=ORIENTED_EDGE('',*,*,#725,.T.);
#1065=ORIENTED_EDGE('',*,*,#732,.T.);
#1066=ORIENTED_EDGE('',*,*,#736,.T.);
#1067=ORIENTED_EDGE('',*,*,#737,.T.);
#1068=ORIENTED_EDGE('',*,*,#671,.F.);
#1069=ORIENTED_EDGE('',*,*,#668,.T.);
#1070=ORIENTED_EDGE('',*,*,#698,.T.);
#1071=ORIENTED_EDGE('',*,*,#650,.T.);
#1072=ORIENTED_EDGE('',*,*,#722,.T.);
#1073=ORIENTED_EDGE('',*,*,#754,.F.);
#1074=ORIENTED_EDGE('',*,*,#718,.T.);
#1075=ORIENTED_EDGE('',*,*,#740,.F.);
#1076=ORIENTED_EDGE('',*,*,#702,.F.);
#1077=TOROIDAL_SURFACE('',#1148,0.2,0.1);
#1078=TOROIDAL_SURFACE('',#1153,0.199999999999999,0.0999999999999996);
#1079=TOROIDAL_SURFACE('',#1159,0.2,0.1);
#1080=TOROIDAL_SURFACE('',#1164,0.199999999999999,0.0999999999999996);
#1081=TOROIDAL_SURFACE('',#1169,0.199999999999999,0.1);
#1082=TOROIDAL_SURFACE('',#1176,0.2,0.1);
#1083=TOROIDAL_SURFACE('',#1183,0.199999999999999,0.1);
#1084=TOROIDAL_SURFACE('',#1188,0.2,0.1);
#1085=ADVANCED_FACE('',(#270),#1077,.T.);
#1086=ADVANCED_FACE('',(#271),#1078,.T.);
#1087=ADVANCED_FACE('',(#272),#239,.T.);
#1088=ADVANCED_FACE('',(#273),#1079,.T.);
#1089=ADVANCED_FACE('',(#274),#1080,.T.);
#1090=ADVANCED_FACE('',(#275),#1081,.T.);
#1091=ADVANCED_FACE('',(#276),#240,.T.);
#1092=ADVANCED_FACE('',(#277),#241,.F.);
#1093=ADVANCED_FACE('',(#278),#1082,.T.);
#1094=ADVANCED_FACE('',(#279),#242,.T.);
#1095=ADVANCED_FACE('',(#280),#243,.T.);
#1096=ADVANCED_FACE('',(#281),#1083,.T.);
#1097=ADVANCED_FACE('',(#282),#1084,.T.);
#1098=ADVANCED_FACE('',(#283),#244,.T.);
#1099=ADVANCED_FACE('',(#284),#245,.F.);
#1100=ADVANCED_FACE('',(#285),#246,.T.);
#1101=ADVANCED_FACE('',(#286),#247,.F.);
#1102=ADVANCED_FACE('',(#287),#248,.T.);
#1103=ADVANCED_FACE('',(#288),#249,.T.);
#1104=ADVANCED_FACE('',(#289),#250,.F.);
#1105=ADVANCED_FACE('',(#290),#43,.F.);
#1106=ADVANCED_FACE('',(#291),#44,.F.);
#1107=ADVANCED_FACE('',(#292,#15,#16,#17,#18,#19,#20,#21,#22,#23,#24,#25,
#26,#27,#28),#45,.T.);
#1108=ADVANCED_FACE('',(#293),#46,.F.);
#1109=ADVANCED_FACE('',(#294,#29,#30,#31,#32,#33,#34,#35,#36,#37,#38,#39,
#40,#41,#42),#47,.T.);
#1110=ADVANCED_FACE('',(#295),#48,.F.);
#1111=ADVANCED_FACE('',(#296),#251,.T.);
#1112=ADVANCED_FACE('',(#297),#49,.T.);
#1113=ADVANCED_FACE('',(#298),#50,.T.);
#1114=ADVANCED_FACE('',(#299),#51,.T.);
#1115=ADVANCED_FACE('',(#300),#252,.T.);
#1116=ADVANCED_FACE('',(#301),#52,.T.);
#1117=ADVANCED_FACE('',(#302),#53,.F.);
#1118=ADVANCED_FACE('',(#303),#54,.F.);
#1119=ADVANCED_FACE('',(#304),#55,.T.);
#1120=ADVANCED_FACE('',(#305),#56,.T.);
#1121=ADVANCED_FACE('',(#306),#57,.T.);
#1122=ADVANCED_FACE('',(#307),#58,.T.);
#1123=ADVANCED_FACE('',(#308),#59,.F.);
#1124=ADVANCED_FACE('',(#309),#60,.T.);
#1125=ADVANCED_FACE('',(#310),#61,.F.);
#1126=ADVANCED_FACE('',(#311),#62,.T.);
#1127=ADVANCED_FACE('',(#312),#253,.T.);
#1128=ADVANCED_FACE('',(#313),#254,.T.);
#1129=ADVANCED_FACE('',(#314),#255,.F.);
#1130=ADVANCED_FACE('',(#315),#256,.F.);
#1131=ADVANCED_FACE('',(#316),#257,.F.);
#1132=ADVANCED_FACE('',(#317),#258,.F.);
#1133=ADVANCED_FACE('',(#318),#259,.F.);
#1134=ADVANCED_FACE('',(#319),#260,.F.);
#1135=ADVANCED_FACE('',(#320),#261,.F.);
#1136=ADVANCED_FACE('',(#321),#262,.F.);
#1137=ADVANCED_FACE('',(#322),#263,.F.);
#1138=ADVANCED_FACE('',(#323),#264,.F.);
#1139=ADVANCED_FACE('',(#324),#265,.F.);
#1140=ADVANCED_FACE('',(#325),#266,.F.);
#1141=ADVANCED_FACE('',(#326),#267,.F.);
#1142=ADVANCED_FACE('',(#327),#268,.T.);
#1143=ADVANCED_FACE('',(#328),#63,.T.);
#1144=ADVANCED_FACE('',(#329),#269,.T.);
#1145=ADVANCED_FACE('',(#330),#64,.T.);
#1146=CLOSED_SHELL('',(#1085,#1086,#1087,#1088,#1089,#1090,#1091,#1092,
#1093,#1094,#1095,#1096,#1097,#1098,#1099,#1100,#1101,#1102,#1103,#1104,
#1105,#1106,#1107,#1108,#1109,#1110,#1111,#1112,#1113,#1114,#1115,#1116,
#1117,#1118,#1119,#1120,#1121,#1122,#1123,#1124,#1125,#1126,#1127,#1128,
#1129,#1130,#1131,#1132,#1133,#1134,#1135,#1136,#1137,#1138,#1139,#1140,
#1141,#1142,#1143,#1144,#1145));
#1147=AXIS2_PLACEMENT_3D('',#1642,#1283,#1284);
#1148=AXIS2_PLACEMENT_3D('',#1643,#1285,#1286);
#1149=AXIS2_PLACEMENT_3D('',#1646,#1287,#1288);
#1150=AXIS2_PLACEMENT_3D('',#1648,#1289,#1290);
#1151=AXIS2_PLACEMENT_3D('',#1650,#1291,#1292);
#1152=AXIS2_PLACEMENT_3D('',#1651,#1293,#1294);
#1153=AXIS2_PLACEMENT_3D('',#1652,#1295,#1296);
#1154=AXIS2_PLACEMENT_3D('',#1655,#1297,#1298);
#1155=AXIS2_PLACEMENT_3D('',#1657,#1299,#1300);
#1156=AXIS2_PLACEMENT_3D('',#1659,#1301,#1302);
#1157=AXIS2_PLACEMENT_3D('',#1660,#1303,#1304);
#1158=AXIS2_PLACEMENT_3D('',#1661,#1305,#1306);
#1159=AXIS2_PLACEMENT_3D('',#1664,#1309,#1310);
#1160=AXIS2_PLACEMENT_3D('',#1667,#1311,#1312);
#1161=AXIS2_PLACEMENT_3D('',#1669,#1313,#1314);
#1162=AXIS2_PLACEMENT_3D('',#1671,#1315,#1316);
#1163=AXIS2_PLACEMENT_3D('',#1672,#1317,#1318);
#1164=AXIS2_PLACEMENT_3D('',#1673,#1319,#1320);
#1165=AXIS2_PLACEMENT_3D('',#1676,#1321,#1322);
#1166=AXIS2_PLACEMENT_3D('',#1678,#1323,#1324);
#1167=AXIS2_PLACEMENT_3D('',#1680,#1325,#1326);
#1168=AXIS2_PLACEMENT_3D('',#1681,#1327,#1328);
#1169=AXIS2_PLACEMENT_3D('',#1682,#1329,#1330);
#1170=AXIS2_PLACEMENT_3D('',#1685,#1331,#1332);
#1171=AXIS2_PLACEMENT_3D('',#1687,#1333,#1334);
#1172=AXIS2_PLACEMENT_3D('',#1689,#1335,#1336);
#1173=AXIS2_PLACEMENT_3D('',#1690,#1337,#1338);
#1174=AXIS2_PLACEMENT_3D('',#1691,#1339,#1340);
#1175=AXIS2_PLACEMENT_3D('',#1694,#1343,#1344);
#1176=AXIS2_PLACEMENT_3D('',#1697,#1347,#1348);
#1177=AXIS2_PLACEMENT_3D('',#1700,#1349,#1350);
#1178=AXIS2_PLACEMENT_3D('',#1702,#1351,#1352);
#1179=AXIS2_PLACEMENT_3D('',#1704,#1353,#1354);
#1180=AXIS2_PLACEMENT_3D('',#1705,#1355,#1356);
#1181=AXIS2_PLACEMENT_3D('',#1706,#1357,#1358);
#1182=AXIS2_PLACEMENT_3D('',#1709,#1361,#1362);
#1183=AXIS2_PLACEMENT_3D('',#1712,#1365,#1366);
#1184=AXIS2_PLACEMENT_3D('',#1715,#1367,#1368);
#1185=AXIS2_PLACEMENT_3D('',#1717,#1369,#1370);
#1186=AXIS2_PLACEMENT_3D('',#1719,#1371,#1372);
#1187=AXIS2_PLACEMENT_3D('',#1720,#1373,#1374);
#1188=AXIS2_PLACEMENT_3D('',#1721,#1375,#1376);
#1189=AXIS2_PLACEMENT_3D('',#1724,#1377,#1378);
#1190=AXIS2_PLACEMENT_3D('',#1726,#1379,#1380);
#1191=AXIS2_PLACEMENT_3D('',#1728,#1381,#1382);
#1192=AXIS2_PLACEMENT_3D('',#1729,#1383,#1384);
#1193=AXIS2_PLACEMENT_3D('',#1730,#1385,#1386);
#1194=AXIS2_PLACEMENT_3D('',#1733,#1389,#1390);
#1195=AXIS2_PLACEMENT_3D('',#1736,#1393,#1394);
#1196=AXIS2_PLACEMENT_3D('',#1739,#1397,#1398);
#1197=AXIS2_PLACEMENT_3D('',#1742,#1401,#1402);
#1198=AXIS2_PLACEMENT_3D('',#1745,#1405,#1406);
#1199=AXIS2_PLACEMENT_3D('',#1748,#1409,#1410);
#1200=AXIS2_PLACEMENT_3D('',#1751,#1413,#1414);
#1201=AXIS2_PLACEMENT_3D('',#1752,#1415,#1416);
#1202=AXIS2_PLACEMENT_3D('',#1753,#1417,#1418);
#1203=AXIS2_PLACEMENT_3D('',#1756,#1419,#1420);
#1204=AXIS2_PLACEMENT_3D('',#1760,#1422,#1423);
#1205=AXIS2_PLACEMENT_3D('',#1763,#1425,#1426);
#1206=AXIS2_PLACEMENT_3D('',#1765,#1427,#1428);
#1207=AXIS2_PLACEMENT_3D('',#1767,#1429,#1430);
#1208=AXIS2_PLACEMENT_3D('',#1769,#1431,#1432);
#1209=AXIS2_PLACEMENT_3D('',#1771,#1433,#1434);
#1210=AXIS2_PLACEMENT_3D('',#1773,#1435,#1436);
#1211=AXIS2_PLACEMENT_3D('',#1775,#1437,#1438);
#1212=AXIS2_PLACEMENT_3D('',#1777,#1439,#1440);
#1213=AXIS2_PLACEMENT_3D('',#1779,#1441,#1442);
#1214=AXIS2_PLACEMENT_3D('',#1781,#1443,#1444);
#1215=AXIS2_PLACEMENT_3D('',#1783,#1445,#1446);
#1216=AXIS2_PLACEMENT_3D('',#1785,#1447,#1448);
#1217=AXIS2_PLACEMENT_3D('',#1787,#1449,#1450);
#1218=AXIS2_PLACEMENT_3D('',#1788,#1451,#1452);
#1219=AXIS2_PLACEMENT_3D('',#1789,#1453,#1454);
#1220=AXIS2_PLACEMENT_3D('',#1794,#1456,#1457);
#1221=AXIS2_PLACEMENT_3D('',#1804,#1462,#1463);
#1222=AXIS2_PLACEMENT_3D('',#1811,#1467,#1468);
#1223=AXIS2_PLACEMENT_3D('',#1813,#1469,#1470);
#1224=AXIS2_PLACEMENT_3D('',#1815,#1471,#1472);
#1225=AXIS2_PLACEMENT_3D('',#1817,#1473,#1474);
#1226=AXIS2_PLACEMENT_3D('',#1819,#1475,#1476);
#1227=AXIS2_PLACEMENT_3D('',#1821,#1477,#1478);
#1228=AXIS2_PLACEMENT_3D('',#1823,#1479,#1480);
#1229=AXIS2_PLACEMENT_3D('',#1825,#1481,#1482);
#1230=AXIS2_PLACEMENT_3D('',#1827,#1483,#1484);
#1231=AXIS2_PLACEMENT_3D('',#1829,#1485,#1486);
#1232=AXIS2_PLACEMENT_3D('',#1831,#1487,#1488);
#1233=AXIS2_PLACEMENT_3D('',#1833,#1489,#1490);
#1234=AXIS2_PLACEMENT_3D('',#1835,#1491,#1492);
#1235=AXIS2_PLACEMENT_3D('',#1836,#1493,#1494);
#1236=AXIS2_PLACEMENT_3D('',#1837,#1495,#1496);
#1237=AXIS2_PLACEMENT_3D('',#1840,#1497,#1498);
#1238=AXIS2_PLACEMENT_3D('',#1844,#1500,#1501);
#1239=AXIS2_PLACEMENT_3D('',#1846,#1502,#1503);
#1240=AXIS2_PLACEMENT_3D('',#1848,#1505,#1506);
#1241=AXIS2_PLACEMENT_3D('',#1865,#1517,#1518);
#1242=AXIS2_PLACEMENT_3D('',#1869,#1520,#1521);
#1243=AXIS2_PLACEMENT_3D('',#1877,#1526,#1527);
#1244=AXIS2_PLACEMENT_3D('',#1881,#1530,#1531);
#1245=AXIS2_PLACEMENT_3D('',#1884,#1532,#1533);
#1246=AXIS2_PLACEMENT_3D('',#1886,#1535,#1536);
#1247=AXIS2_PLACEMENT_3D('',#1887,#1537,#1538);
#1248=AXIS2_PLACEMENT_3D('',#1902,#1548,#1549);
#1249=AXIS2_PLACEMENT_3D('',#1906,#1552,#1553);
#1250=AXIS2_PLACEMENT_3D('',#1910,#1556,#1557);
#1251=AXIS2_PLACEMENT_3D('',#1911,#1558,#1559);
#1252=AXIS2_PLACEMENT_3D('',#1917,#1563,#1564);
#1253=AXIS2_PLACEMENT_3D('',#1918,#1565,#1566);
#1254=AXIS2_PLACEMENT_3D('',#1919,#1567,#1568);
#1255=AXIS2_PLACEMENT_3D('',#1920,#1569,#1570);
#1256=AXIS2_PLACEMENT_3D('',#1921,#1571,#1572);
#1257=AXIS2_PLACEMENT_3D('',#1924,#1575,#1576);
#1258=AXIS2_PLACEMENT_3D('',#1926,#1578,#1579);
#1259=AXIS2_PLACEMENT_3D('',#1927,#1580,#1581);
#1260=AXIS2_PLACEMENT_3D('',#1928,#1582,#1583);
#1261=AXIS2_PLACEMENT_3D('',#1930,#1585,#1586);
#1262=AXIS2_PLACEMENT_3D('',#1931,#1587,#1588);
#1263=AXIS2_PLACEMENT_3D('',#1932,#1589,#1590);
#1264=AXIS2_PLACEMENT_3D('',#1933,#1591,#1592);
#1265=AXIS2_PLACEMENT_3D('',#1934,#1593,#1594);
#1266=AXIS2_PLACEMENT_3D('',#1936,#1596,#1597);
#1267=AXIS2_PLACEMENT_3D('',#1938,#1599,#1600);
#1268=AXIS2_PLACEMENT_3D('',#1940,#1602,#1603);
#1269=AXIS2_PLACEMENT_3D('',#1942,#1605,#1606);
#1270=AXIS2_PLACEMENT_3D('',#1944,#1608,#1609);
#1271=AXIS2_PLACEMENT_3D('',#1946,#1611,#1612);
#1272=AXIS2_PLACEMENT_3D('',#1948,#1614,#1615);
#1273=AXIS2_PLACEMENT_3D('',#1950,#1617,#1618);
#1274=AXIS2_PLACEMENT_3D('',#1952,#1620,#1621);
#1275=AXIS2_PLACEMENT_3D('',#1954,#1623,#1624);
#1276=AXIS2_PLACEMENT_3D('',#1956,#1626,#1627);
#1277=AXIS2_PLACEMENT_3D('',#1958,#1629,#1630);
#1278=AXIS2_PLACEMENT_3D('',#1960,#1632,#1633);
#1279=AXIS2_PLACEMENT_3D('',#1961,#1634,#1635);
#1280=AXIS2_PLACEMENT_3D('',#1962,#1636,#1637);
#1281=AXIS2_PLACEMENT_3D('',#1963,#1638,#1639);
#1282=AXIS2_PLACEMENT_3D('',#1964,#1640,#1641);
#1283=DIRECTION('axis',(0.,0.,1.));
#1284=DIRECTION('refdir',(1.,0.,0.));
#1285=DIRECTION('center_axis',(0.,0.,-1.));
#1286=DIRECTION('ref_axis',(-1.,0.,0.));
#1287=DIRECTION('center_axis',(0.,0.,-1.));
#1288=DIRECTION('ref_axis',(0.,1.,0.));
#1289=DIRECTION('center_axis',(1.,0.,0.));
#1290=DIRECTION('ref_axis',(0.,0.,1.));
#1291=DIRECTION('center_axis',(0.,0.,1.));
#1292=DIRECTION('ref_axis',(-0.707106781186555,0.70710678118654,0.));
#1293=DIRECTION('center_axis',(0.,-1.,0.));
#1294=DIRECTION('ref_axis',(1.,0.,0.));
#1295=DIRECTION('center_axis',(0.,0.,-1.));
#1296=DIRECTION('ref_axis',(-1.,0.,0.));
#1297=DIRECTION('center_axis',(0.,0.,-1.));
#1298=DIRECTION('ref_axis',(-1.,0.,0.));
#1299=DIRECTION('center_axis',(0.,1.,0.));
#1300=DIRECTION('ref_axis',(0.,0.,1.));
#1301=DIRECTION('center_axis',(0.,0.,1.));
#1302=DIRECTION('ref_axis',(-0.707106781186549,-0.707106781186546,0.));
#1303=DIRECTION('center_axis',(1.,0.,0.));
#1304=DIRECTION('ref_axis',(0.,1.,0.));
#1305=DIRECTION('center_axis',(0.,1.,0.));
#1306=DIRECTION('ref_axis',(0.707106781186547,0.,0.707106781186548));
#1307=DIRECTION('',(0.,-1.,0.));
#1308=DIRECTION('',(0.,1.,0.));
#1309=DIRECTION('center_axis',(0.,0.,-1.));
#1310=DIRECTION('ref_axis',(-1.,0.,0.));
#1311=DIRECTION('center_axis',(0.,0.,-1.));
#1312=DIRECTION('ref_axis',(-0.707106781186555,0.70710678118654,0.));
#1313=DIRECTION('center_axis',(1.,0.,0.));
#1314=DIRECTION('ref_axis',(0.,-1.,0.));
#1315=DIRECTION('center_axis',(0.,0.,1.));
#1316=DIRECTION('ref_axis',(-1.,0.,0.));
#1317=DIRECTION('center_axis',(0.,-1.,0.));
#1318=DIRECTION('ref_axis',(0.,0.,-1.));
#1319=DIRECTION('center_axis',(0.,0.,-1.));
#1320=DIRECTION('ref_axis',(-1.,0.,0.));
#1321=DIRECTION('center_axis',(0.,0.,-1.));
#1322=DIRECTION('ref_axis',(1.,0.,0.));
#1323=DIRECTION('center_axis',(0.,-1.,0.));
#1324=DIRECTION('ref_axis',(0.,0.,1.));
#1325=DIRECTION('center_axis',(0.,0.,1.));
#1326=DIRECTION('ref_axis',(0.707106781186548,0.707106781186548,0.));
#1327=DIRECTION('center_axis',(-1.,0.,0.));
#1328=DIRECTION('ref_axis',(0.,-1.,0.));
#1329=DIRECTION('center_axis',(0.,0.,-1.));
#1330=DIRECTION('ref_axis',(-1.,0.,0.));
#1331=DIRECTION('center_axis',(0.,0.,-1.));
#1332=DIRECTION('ref_axis',(-0.707106781186549,-0.707106781186546,0.));
#1333=DIRECTION('center_axis',(0.,1.,0.));
#1334=DIRECTION('ref_axis',(1.,0.,0.));
#1335=DIRECTION('center_axis',(0.,0.,1.));
#1336=DIRECTION('ref_axis',(0.,-1.,0.));
#1337=DIRECTION('center_axis',(1.,0.,0.));
#1338=DIRECTION('ref_axis',(0.,0.,-1.));
#1339=DIRECTION('center_axis',(0.,-1.,0.));
#1340=DIRECTION('ref_axis',(0.707106781186548,0.,-0.707106781186547));
#1341=DIRECTION('',(0.,1.,0.));
#1342=DIRECTION('',(0.,-1.,0.));
#1343=DIRECTION('center_axis',(0.,0.,-1.));
#1344=DIRECTION('ref_axis',(-0.707106781186555,-0.70710678118654,0.));
#1345=DIRECTION('',(0.,0.,1.));
#1346=DIRECTION('',(0.,0.,-1.));
#1347=DIRECTION('center_axis',(0.,0.,-1.));
#1348=DIRECTION('ref_axis',(-1.,0.,0.));
#1349=DIRECTION('center_axis',(0.,0.,-1.));
#1350=DIRECTION('ref_axis',(0.,-1.,0.));
#1351=DIRECTION('center_axis',(-1.,0.,0.));
#1352=DIRECTION('ref_axis',(0.,0.,1.));
#1353=DIRECTION('center_axis',(0.,0.,1.));
#1354=DIRECTION('ref_axis',(0.707106781186543,-0.707106781186552,0.));
#1355=DIRECTION('center_axis',(0.,1.,0.));
#1356=DIRECTION('ref_axis',(-1.,0.,0.));
#1357=DIRECTION('center_axis',(-1.,0.,0.));
#1358=DIRECTION('ref_axis',(0.,0.70710678118654,0.707106781186555));
#1359=DIRECTION('',(1.,0.,0.));
#1360=DIRECTION('',(-1.,0.,0.));
#1361=DIRECTION('center_axis',(0.,-1.,0.));
#1362=DIRECTION('ref_axis',(-0.707106781186549,0.,0.707106781186546));
#1363=DIRECTION('',(0.,1.,0.));
#1364=DIRECTION('',(0.,-1.,0.));
#1365=DIRECTION('center_axis',(0.,0.,-1.));
#1366=DIRECTION('ref_axis',(-1.,0.,0.));
#1367=DIRECTION('center_axis',(0.,0.,-1.));
#1368=DIRECTION('ref_axis',(0.707106781186549,0.707106781186546,0.));
#1369=DIRECTION('center_axis',(0.,-1.,0.));
#1370=DIRECTION('ref_axis',(-1.,0.,0.));
#1371=DIRECTION('center_axis',(0.,0.,1.));
#1372=DIRECTION('ref_axis',(0.,1.,0.));
#1373=DIRECTION('center_axis',(-1.,0.,0.));
#1374=DIRECTION('ref_axis',(0.,0.,-1.));
#1375=DIRECTION('center_axis',(0.,0.,-1.));
#1376=DIRECTION('ref_axis',(-1.,0.,0.));
#1377=DIRECTION('center_axis',(0.,0.,-1.));
#1378=DIRECTION('ref_axis',(0.707106781186543,-0.707106781186552,0.));
#1379=DIRECTION('center_axis',(-1.,0.,0.));
#1380=DIRECTION('ref_axis',(0.,1.,0.));
#1381=DIRECTION('center_axis',(0.,0.,1.));
#1382=DIRECTION('ref_axis',(1.,0.,0.));
#1383=DIRECTION('center_axis',(0.,1.,0.));
#1384=DIRECTION('ref_axis',(0.,0.,-1.));
#1385=DIRECTION('center_axis',(1.,0.,0.));
#1386=DIRECTION('ref_axis',(0.,0.70710678118654,-0.707106781186555));
#1387=DIRECTION('',(-1.,0.,0.));
#1388=DIRECTION('',(1.,0.,0.));
#1389=DIRECTION('center_axis',(0.,0.,-1.));
#1390=DIRECTION('ref_axis',(0.707106781186544,-0.707106781186551,0.));
#1391=DIRECTION('',(0.,0.,1.));
#1392=DIRECTION('',(0.,0.,-1.));
#1393=DIRECTION('center_axis',(0.,1.,0.));
#1394=DIRECTION('ref_axis',(-0.70710678118655,0.,-0.707106781186546));
#1395=DIRECTION('',(0.,-1.,0.));
#1396=DIRECTION('',(0.,1.,0.));
#1397=DIRECTION('center_axis',(0.,0.,-1.));
#1398=DIRECTION('ref_axis',(0.707106781186557,0.707106781186538,0.));
#1399=DIRECTION('',(0.,0.,1.));
#1400=DIRECTION('',(0.,0.,-1.));
#1401=DIRECTION('center_axis',(-1.,0.,0.));
#1402=DIRECTION('ref_axis',(0.,-0.70710678118654,-0.707106781186555));
#1403=DIRECTION('',(1.,0.,0.));
#1404=DIRECTION('',(-1.,0.,0.));
#1405=DIRECTION('center_axis',(1.,0.,0.));
#1406=DIRECTION('ref_axis',(0.,-0.70710678118654,0.707106781186555));
#1407=DIRECTION('',(-1.,0.,0.));
#1408=DIRECTION('',(1.,0.,0.));
#1409=DIRECTION('center_axis',(0.,0.,-1.));
#1410=DIRECTION('ref_axis',(-0.707106781186555,0.70710678118654,0.));
#1411=DIRECTION('',(0.,0.,1.));
#1412=DIRECTION('',(0.,0.,-1.));
#1413=DIRECTION('center_axis',(-1.,0.,0.));
#1414=DIRECTION('ref_axis',(0.,1.,0.));
#1415=DIRECTION('center_axis',(0.,-1.,0.));
#1416=DIRECTION('ref_axis',(-1.,0.,0.));
#1417=DIRECTION('center_axis',(0.,0.,1.));
#1418=DIRECTION('ref_axis',(1.,0.,0.));
#1419=DIRECTION('center_axis',(0.,0.,-1.));
#1420=DIRECTION('ref_axis',(0.707106781186548,-0.707106781186548,0.));
#1421=DIRECTION('',(0.,1.,0.));
#1422=DIRECTION('center_axis',(0.,0.,-1.));
#1423=DIRECTION('ref_axis',(0.707106781186548,0.707106781186548,0.));
#1424=DIRECTION('',(0.,1.,0.));
#1425=DIRECTION('center_axis',(0.,0.,-1.));
#1426=DIRECTION('ref_axis',(1.,0.,0.));
#1427=DIRECTION('center_axis',(0.,0.,-1.));
#1428=DIRECTION('ref_axis',(1.,0.,0.));
#1429=DIRECTION('center_axis',(0.,0.,-1.));
#1430=DIRECTION('ref_axis',(1.,0.,0.));
#1431=DIRECTION('center_axis',(0.,0.,-1.));
#1432=DIRECTION('ref_axis',(1.,0.,0.));
#1433=DIRECTION('center_axis',(0.,0.,-1.));
#1434=DIRECTION('ref_axis',(1.,0.,0.));
#1435=DIRECTION('center_axis',(0.,0.,-1.));
#1436=DIRECTION('ref_axis',(1.,0.,0.));
#1437=DIRECTION('center_axis',(0.,0.,-1.));
#1438=DIRECTION('ref_axis',(1.,0.,0.));
#1439=DIRECTION('center_axis',(0.,0.,-1.));
#1440=DIRECTION('ref_axis',(1.,0.,0.));
#1441=DIRECTION('center_axis',(0.,0.,-1.));
#1442=DIRECTION('ref_axis',(1.,0.,0.));
#1443=DIRECTION('center_axis',(0.,0.,-1.));
#1444=DIRECTION('ref_axis',(1.,0.,0.));
#1445=DIRECTION('center_axis',(0.,0.,-1.));
#1446=DIRECTION('ref_axis',(1.,0.,0.));
#1447=DIRECTION('center_axis',(0.,0.,-1.));
#1448=DIRECTION('ref_axis',(1.,0.,0.));
#1449=DIRECTION('center_axis',(0.,0.,-1.));
#1450=DIRECTION('ref_axis',(1.,0.,0.));
#1451=DIRECTION('center_axis',(1.,0.,0.));
#1452=DIRECTION('ref_axis',(0.,-1.,0.));
#1453=DIRECTION('center_axis',(0.,0.,-1.));
#1454=DIRECTION('ref_axis',(-1.,0.,0.));
#1455=DIRECTION('',(0.,1.,0.));
#1456=DIRECTION('center_axis',(0.,0.,1.));
#1457=DIRECTION('ref_axis',(-0.707106781186548,-0.707106781186548,0.));
#1458=DIRECTION('',(0.,-1.,0.));
#1459=DIRECTION('',(-1.,0.,0.));
#1460=DIRECTION('',(0.,1.,0.));
#1461=DIRECTION('',(1.,0.,0.));
#1462=DIRECTION('center_axis',(0.,0.,1.));
#1463=DIRECTION('ref_axis',(-0.707106781186548,0.707106781186548,0.));
#1464=DIRECTION('',(1.,0.,0.));
#1465=DIRECTION('',(0.,1.,0.));
#1466=DIRECTION('',(-1.,0.,0.));
#1467=DIRECTION('center_axis',(0.,0.,1.));
#1468=DIRECTION('ref_axis',(1.,0.,0.));
#1469=DIRECTION('center_axis',(0.,0.,1.));
#1470=DIRECTION('ref_axis',(1.,0.,0.));
#1471=DIRECTION('center_axis',(0.,0.,1.));
#1472=DIRECTION('ref_axis',(1.,0.,0.));
#1473=DIRECTION('center_axis',(0.,0.,1.));
#1474=DIRECTION('ref_axis',(1.,0.,0.));
#1475=DIRECTION('center_axis',(0.,0.,1.));
#1476=DIRECTION('ref_axis',(1.,0.,0.));
#1477=DIRECTION('center_axis',(0.,0.,1.));
#1478=DIRECTION('ref_axis',(1.,0.,0.));
#1479=DIRECTION('center_axis',(0.,0.,1.));
#1480=DIRECTION('ref_axis',(1.,0.,0.));
#1481=DIRECTION('center_axis',(0.,0.,1.));
#1482=DIRECTION('ref_axis',(1.,0.,0.));
#1483=DIRECTION('center_axis',(0.,0.,1.));
#1484=DIRECTION('ref_axis',(1.,0.,0.));
#1485=DIRECTION('center_axis',(0.,0.,1.));
#1486=DIRECTION('ref_axis',(1.,0.,0.));
#1487=DIRECTION('center_axis',(0.,0.,1.));
#1488=DIRECTION('ref_axis',(1.,0.,0.));
#1489=DIRECTION('center_axis',(0.,0.,1.));
#1490=DIRECTION('ref_axis',(1.,0.,0.));
#1491=DIRECTION('center_axis',(0.,0.,1.));
#1492=DIRECTION('ref_axis',(1.,0.,0.));
#1493=DIRECTION('center_axis',(0.,1.,0.));
#1494=DIRECTION('ref_axis',(1.,0.,0.));
#1495=DIRECTION('center_axis',(0.,0.,1.));
#1496=DIRECTION('ref_axis',(0.707106781186548,0.707106781186548,0.));
#1497=DIRECTION('center_axis',(0.,0.,-1.));
#1498=DIRECTION('ref_axis',(0.707106781186548,0.707106781186548,0.));
#1499=DIRECTION('',(0.,0.,-1.));
#1500=DIRECTION('center_axis',(0.,0.,1.));
#1501=DIRECTION('ref_axis',(0.707106781186548,0.707106781186548,0.));
#1502=DIRECTION('center_axis',(0.,0.,-1.));
#1503=DIRECTION('ref_axis',(0.707106781186548,0.707106781186548,0.));
#1504=DIRECTION('',(0.,0.,1.));
#1505=DIRECTION('center_axis',(1.,0.,0.));
#1506=DIRECTION('ref_axis',(0.,0.,-1.));
#1507=DIRECTION('',(0.,-1.,0.));
#1508=DIRECTION('',(0.,0.,-1.));
#1509=DIRECTION('',(0.,0.,-1.));
#1510=DIRECTION('',(0.,0.,1.));
#1511=DIRECTION('',(0.,0.,-1.));
#1512=DIRECTION('',(0.,-1.,0.));
#1513=DIRECTION('',(0.,0.,1.));
#1514=DIRECTION('',(0.,1.,0.));
#1515=DIRECTION('',(0.,0.,-1.));
#1516=DIRECTION('',(0.,1.,0.));
#1517=DIRECTION('center_axis',(0.,0.,1.));
#1518=DIRECTION('ref_axis',(0.,-1.,0.));
#1519=DIRECTION('',(1.,0.,0.));
#1520=DIRECTION('center_axis',(0.,0.,-1.));
#1521=DIRECTION('ref_axis',(-0.707106781186548,0.707106781186548,0.));
#1522=DIRECTION('',(0.,1.,0.));
#1523=DIRECTION('',(-1.,0.,0.));
#1524=DIRECTION('',(1.,0.,0.));
#1525=DIRECTION('',(-1.,0.,0.));
#1526=DIRECTION('center_axis',(0.,1.,0.));
#1527=DIRECTION('ref_axis',(0.,0.,1.));
#1528=DIRECTION('',(1.,0.,0.));
#1529=DIRECTION('',(0.,0.,-1.));
#1530=DIRECTION('center_axis',(0.,0.,-1.));
#1531=DIRECTION('ref_axis',(-0.707106781186548,0.707106781186548,0.));
#1532=DIRECTION('center_axis',(0.,0.,1.));
#1533=DIRECTION('ref_axis',(-0.707106781186548,0.707106781186548,0.));
#1534=DIRECTION('',(0.,0.,1.));
#1535=DIRECTION('center_axis',(0.,0.,-1.));
#1536=DIRECTION('ref_axis',(-0.707106781186548,0.707106781186548,0.));
#1537=DIRECTION('center_axis',(-1.,0.,0.));
#1538=DIRECTION('ref_axis',(0.,0.,1.));
#1539=DIRECTION('',(0.,-1.,0.));
#1540=DIRECTION('',(0.,0.,1.));
#1541=DIRECTION('',(0.,1.,0.));
#1542=DIRECTION('',(0.,0.,-1.));
#1543=DIRECTION('',(0.,1.,0.));
#1544=DIRECTION('',(0.,0.,1.));
#1545=DIRECTION('',(0.,0.,-1.));
#1546=DIRECTION('',(0.,0.,1.));
#1547=DIRECTION('',(0.,0.,1.));
#1548=DIRECTION('center_axis',(0.,1.,0.));
#1549=DIRECTION('ref_axis',(0.,0.,-1.));
#1550=DIRECTION('',(0.,0.,-1.));
#1551=DIRECTION('',(-1.,0.,0.));
#1552=DIRECTION('center_axis',(0.,1.,0.));
#1553=DIRECTION('ref_axis',(0.,0.,-1.));
#1554=DIRECTION('',(0.,0.,1.));
#1555=DIRECTION('',(-1.,0.,0.));
#1556=DIRECTION('center_axis',(0.,0.,1.));
#1557=DIRECTION('ref_axis',(1.,0.,0.));
#1558=DIRECTION('center_axis',(0.,0.,-1.));
#1559=DIRECTION('ref_axis',(-0.707106781186548,-0.707106781186548,0.));
#1560=DIRECTION('',(0.,1.,0.));
#1561=DIRECTION('',(-1.,0.,0.));
#1562=DIRECTION('',(0.,1.,0.));
#1563=DIRECTION('center_axis',(0.,0.,-1.));
#1564=DIRECTION('ref_axis',(0.,1.,0.));
#1565=DIRECTION('center_axis',(0.,0.,-1.));
#1566=DIRECTION('ref_axis',(0.707106781186548,0.707106781186548,0.));
#1567=DIRECTION('center_axis',(0.,0.,-1.));
#1568=DIRECTION('ref_axis',(0.,1.,0.));
#1569=DIRECTION('center_axis',(0.,0.,-1.));
#1570=DIRECTION('ref_axis',(0.707106781186548,0.707106781186548,0.));
#1571=DIRECTION('center_axis',(0.,-1.,0.));
#1572=DIRECTION('ref_axis',(0.,0.,-1.));
#1573=DIRECTION('',(0.,0.,-1.));
#1574=DIRECTION('',(0.,0.,1.));
#1575=DIRECTION('center_axis',(0.,-1.,0.));
#1576=DIRECTION('ref_axis',(0.,0.,-1.));
#1577=DIRECTION('',(0.,0.,1.));
#1578=DIRECTION('center_axis',(0.,0.,1.));
#1579=DIRECTION('ref_axis',(1.,0.,0.));
#1580=DIRECTION('center_axis',(0.,0.,-1.));
#1581=DIRECTION('ref_axis',(0.707106781186548,0.707106781186548,0.));
#1582=DIRECTION('center_axis',(0.,-1.,0.));
#1583=DIRECTION('ref_axis',(0.,0.,-1.));
#1584=DIRECTION('',(0.,0.,-1.));
#1585=DIRECTION('center_axis',(-1.,0.,0.));
#1586=DIRECTION('ref_axis',(0.,0.,1.));
#1587=DIRECTION('center_axis',(0.,0.,-1.));
#1588=DIRECTION('ref_axis',(0.707106781186548,0.707106781186548,0.));
#1589=DIRECTION('center_axis',(0.,0.,1.));
#1590=DIRECTION('ref_axis',(-0.707106781186548,0.707106781186548,0.));
#1591=DIRECTION('center_axis',(0.,0.,-1.));
#1592=DIRECTION('ref_axis',(0.707106781186548,0.707106781186548,0.));
#1593=DIRECTION('center_axis',(0.,0.,-1.));
#1594=DIRECTION('ref_axis',(1.,0.,0.));
#1595=DIRECTION('',(0.,0.,-1.));
#1596=DIRECTION('center_axis',(0.,0.,-1.));
#1597=DIRECTION('ref_axis',(1.,0.,0.));
#1598=DIRECTION('',(0.,0.,-1.));
#1599=DIRECTION('center_axis',(0.,0.,-1.));
#1600=DIRECTION('ref_axis',(1.,0.,0.));
#1601=DIRECTION('',(0.,0.,-1.));
#1602=DIRECTION('center_axis',(0.,0.,-1.));
#1603=DIRECTION('ref_axis',(1.,0.,0.));
#1604=DIRECTION('',(0.,0.,-1.));
#1605=DIRECTION('center_axis',(0.,0.,-1.));
#1606=DIRECTION('ref_axis',(1.,0.,0.));
#1607=DIRECTION('',(0.,0.,-1.));
#1608=DIRECTION('center_axis',(0.,0.,-1.));
#1609=DIRECTION('ref_axis',(1.,0.,0.));
#1610=DIRECTION('',(0.,0.,-1.));
#1611=DIRECTION('center_axis',(0.,0.,-1.));
#1612=DIRECTION('ref_axis',(1.,0.,0.));
#1613=DIRECTION('',(0.,0.,-1.));
#1614=DIRECTION('center_axis',(0.,0.,-1.));
#1615=DIRECTION('ref_axis',(1.,0.,0.));
#1616=DIRECTION('',(0.,0.,-1.));
#1617=DIRECTION('center_axis',(0.,0.,-1.));
#1618=DIRECTION('ref_axis',(1.,0.,0.));
#1619=DIRECTION('',(0.,0.,-1.));
#1620=DIRECTION('center_axis',(0.,0.,-1.));
#1621=DIRECTION('ref_axis',(1.,0.,0.));
#1622=DIRECTION('',(0.,0.,-1.));
#1623=DIRECTION('center_axis',(0.,0.,-1.));
#1624=DIRECTION('ref_axis',(1.,0.,0.));
#1625=DIRECTION('',(0.,0.,-1.));
#1626=DIRECTION('center_axis',(0.,0.,-1.));
#1627=DIRECTION('ref_axis',(1.,0.,0.));
#1628=DIRECTION('',(0.,0.,-1.));
#1629=DIRECTION('center_axis',(0.,0.,-1.));
#1630=DIRECTION('ref_axis',(1.,0.,0.));
#1631=DIRECTION('',(0.,0.,-1.));
#1632=DIRECTION('center_axis',(0.,0.,1.));
#1633=DIRECTION('ref_axis',(-0.707106781186548,-0.707106781186548,0.));
#1634=DIRECTION('center_axis',(0.,0.,1.));
#1635=DIRECTION('ref_axis',(-0.707106781186548,-0.707106781186548,0.));
#1636=DIRECTION('center_axis',(1.,0.,0.));
#1637=DIRECTION('ref_axis',(0.,0.,-1.));
#1638=DIRECTION('center_axis',(0.,0.,1.));
#1639=DIRECTION('ref_axis',(-0.707106781186548,-0.707106781186548,0.));
#1640=DIRECTION('center_axis',(0.,0.,-1.));
#1641=DIRECTION('ref_axis',(-1.,0.,0.));
#1642=CARTESIAN_POINT('',(0.,0.,0.));
#1643=CARTESIAN_POINT('Origin',(1.05546999993801,11.5419781098689,-0.1));
#1644=CARTESIAN_POINT('',(1.05546999993801,11.6419781098689,-0.1));
#1645=CARTESIAN_POINT('',(0.955469999938007,11.5419781098689,-0.1));
#1646=CARTESIAN_POINT('Origin',(1.05546999993801,11.5419781098689,-0.1));
#1647=CARTESIAN_POINT('',(1.05546999993801,11.7419781098689,0.));
#1648=CARTESIAN_POINT('Origin',(1.05546999993801,11.7419781098689,-0.1));
#1649=CARTESIAN_POINT('',(0.855469999938007,11.5419781098689,0.));
#1650=CARTESIAN_POINT('Origin',(1.05546999993801,11.5419781098689,0.));
#1651=CARTESIAN_POINT('Origin',(0.855469999938007,11.5419781098689,-0.1));
#1652=CARTESIAN_POINT('Origin',(1.05546999993801,11.0000001624227,-0.1));
#1653=CARTESIAN_POINT('',(0.955469999938007,11.0000001624227,-0.1));
#1654=CARTESIAN_POINT('',(1.05546999993801,10.9000001624227,-0.1));
#1655=CARTESIAN_POINT('Origin',(1.05546999993801,11.0000001624227,-0.1));
#1656=CARTESIAN_POINT('',(0.855469999938007,11.0000001624227,0.));
#1657=CARTESIAN_POINT('Origin',(0.855469999938007,11.0000001624227,-0.1));
#1658=CARTESIAN_POINT('',(1.05546999993801,10.8000001624227,0.));
#1659=CARTESIAN_POINT('Origin',(1.05546999993801,11.0000001624227,0.));
#1660=CARTESIAN_POINT('Origin',(1.05546999993801,10.8000001624227,-0.1));
#1661=CARTESIAN_POINT('Origin',(0.855469999938007,5.45000008121133,-0.1));
#1662=CARTESIAN_POINT('',(0.855469999938007,5.45000008121133,0.));
#1663=CARTESIAN_POINT('',(0.955469999938007,5.45000008121133,-0.1));
#1664=CARTESIAN_POINT('Origin',(1.05546999993801,11.5419781098689,-0.4));
#1665=CARTESIAN_POINT('',(0.855469999938006,11.5419781098689,-0.5));
#1666=CARTESIAN_POINT('',(1.05546999993801,11.7419781098689,-0.5));
#1667=CARTESIAN_POINT('Origin',(1.05546999993801,11.5419781098689,-0.5));
#1668=CARTESIAN_POINT('',(1.05546999993801,11.6419781098689,-0.4));
#1669=CARTESIAN_POINT('Origin',(1.05546999993801,11.7419781098689,-0.4));
#1670=CARTESIAN_POINT('',(0.955469999938007,11.5419781098689,-0.4));
#1671=CARTESIAN_POINT('Origin',(1.05546999993801,11.5419781098689,-0.4));
#1672=CARTESIAN_POINT('Origin',(0.855469999938006,11.5419781098689,-0.4));
#1673=CARTESIAN_POINT('Origin',(3.10000004768372,11.5419781098689,-0.1));
#1674=CARTESIAN_POINT('',(3.20000004768372,11.5419781098689,-0.1));
#1675=CARTESIAN_POINT('',(3.10000004768372,11.6419781098689,-0.1));
#1676=CARTESIAN_POINT('Origin',(3.10000004768372,11.5419781098689,-0.1));
#1677=CARTESIAN_POINT('',(3.30000004768372,11.5419781098689,0.));
#1678=CARTESIAN_POINT('Origin',(3.30000004768372,11.5419781098689,-0.1));
#1679=CARTESIAN_POINT('',(3.10000004768372,11.7419781098689,0.));
#1680=CARTESIAN_POINT('Origin',(3.10000004768372,11.5419781098689,0.));
#1681=CARTESIAN_POINT('Origin',(3.10000004768372,11.7419781098689,-0.1));
#1682=CARTESIAN_POINT('Origin',(1.05546999993801,11.0000001624227,-0.4));
#1683=CARTESIAN_POINT('',(1.05546999993801,10.8000001624227,-0.5));
#1684=CARTESIAN_POINT('',(0.855469999938006,11.0000001624227,-0.5));
#1685=CARTESIAN_POINT('Origin',(1.05546999993801,11.0000001624227,-0.5));
#1686=CARTESIAN_POINT('',(0.955469999938007,11.0000001624227,-0.4));
#1687=CARTESIAN_POINT('Origin',(0.855469999938006,11.0000001624227,-0.4));
#1688=CARTESIAN_POINT('',(1.05546999993801,10.9000001624227,-0.4));
#1689=CARTESIAN_POINT('Origin',(1.05546999993801,11.0000001624227,-0.4));
#1690=CARTESIAN_POINT('Origin',(1.05546999993801,10.8000001624227,-0.4));
#1691=CARTESIAN_POINT('Origin',(0.855469999938006,5.45000008121133,-0.4));
#1692=CARTESIAN_POINT('',(0.855469999938006,5.45000008121133,-0.5));
#1693=CARTESIAN_POINT('',(0.955469999938007,5.45000008121133,-0.4));
#1694=CARTESIAN_POINT('Origin',(1.05546999993801,11.0000001624227,0.));
#1695=CARTESIAN_POINT('',(0.955469999938007,11.0000001624227,0.));
#1696=CARTESIAN_POINT('',(1.05546999993801,10.9000001624227,0.));
#1697=CARTESIAN_POINT('Origin',(3.10000004768372,11.0000001624227,-0.1));
#1698=CARTESIAN_POINT('',(3.10000004768372,10.9000001624227,-0.1));
#1699=CARTESIAN_POINT('',(3.20000004768372,11.0000001624227,-0.1));
#1700=CARTESIAN_POINT('Origin',(3.10000004768372,11.0000001624227,-0.1));
#1701=CARTESIAN_POINT('',(3.10000004768372,10.8000001624227,0.));
#1702=CARTESIAN_POINT('Origin',(3.10000004768372,10.8000001624227,-0.1));
#1703=CARTESIAN_POINT('',(3.30000004768372,11.0000001624227,0.));
#1704=CARTESIAN_POINT('Origin',(3.10000004768372,11.0000001624227,0.));
#1705=CARTESIAN_POINT('Origin',(3.30000004768372,11.0000001624227,-0.1));
#1706=CARTESIAN_POINT('Origin',(1.60000002384186,10.8000001624227,-0.1));
#1707=CARTESIAN_POINT('',(1.60000002384186,10.8000001624227,0.));
#1708=CARTESIAN_POINT('',(1.60000002384186,10.9000001624227,-0.1));
#1709=CARTESIAN_POINT('Origin',(3.30000004768372,5.75000008568168,-0.1));
#1710=CARTESIAN_POINT('',(3.30000004768372,5.75000008568168,0.));
#1711=CARTESIAN_POINT('',(3.20000004768372,5.75000008568168,-0.1));
#1712=CARTESIAN_POINT('Origin',(3.10000004768372,11.5419781098689,-0.4));
#1713=CARTESIAN_POINT('',(3.10000004768372,11.7419781098689,-0.5));
#1714=CARTESIAN_POINT('',(3.30000004768372,11.5419781098689,-0.5));
#1715=CARTESIAN_POINT('Origin',(3.10000004768372,11.5419781098689,-0.5));
#1716=CARTESIAN_POINT('',(3.20000004768372,11.5419781098689,-0.4));
#1717=CARTESIAN_POINT('Origin',(3.30000004768372,11.5419781098689,-0.4));
#1718=CARTESIAN_POINT('',(3.10000004768372,11.6419781098689,-0.4));
#1719=CARTESIAN_POINT('Origin',(3.10000004768372,11.5419781098689,-0.4));
#1720=CARTESIAN_POINT('Origin',(3.10000004768372,11.7419781098689,-0.4));
#1721=CARTESIAN_POINT('Origin',(3.10000004768372,11.0000001624227,-0.4));
#1722=CARTESIAN_POINT('',(3.30000004768372,11.0000001624227,-0.5));
#1723=CARTESIAN_POINT('',(3.10000004768372,10.8000001624227,-0.5));
#1724=CARTESIAN_POINT('Origin',(3.10000004768372,11.0000001624227,-0.5));
#1725=CARTESIAN_POINT('',(3.10000004768372,10.9000001624227,-0.4));
#1726=CARTESIAN_POINT('Origin',(3.10000004768372,10.8000001624227,-0.4));
#1727=CARTESIAN_POINT('',(3.20000004768372,11.0000001624227,-0.4));
#1728=CARTESIAN_POINT('Origin',(3.10000004768372,11.0000001624227,-0.4));
#1729=CARTESIAN_POINT('Origin',(3.30000004768372,11.0000001624227,-0.4));
#1730=CARTESIAN_POINT('Origin',(3.35000002384186,10.8000001624227,-0.4));
#1731=CARTESIAN_POINT('',(3.35000002384186,10.8000001624227,-0.5));
#1732=CARTESIAN_POINT('',(3.35000002384186,10.9000001624227,-0.4));
#1733=CARTESIAN_POINT('Origin',(3.10000004768372,11.0000001624227,0.));
#1734=CARTESIAN_POINT('',(3.10000004768372,10.9000001624227,0.));
#1735=CARTESIAN_POINT('',(3.20000004768372,11.0000001624227,0.));
#1736=CARTESIAN_POINT('Origin',(3.30000004768372,5.75000008568168,-0.4));
#1737=CARTESIAN_POINT('',(3.30000004768372,5.75000008568168,-0.5));
#1738=CARTESIAN_POINT('',(3.20000004768372,5.75000008568168,-0.4));
#1739=CARTESIAN_POINT('Origin',(3.10000004768372,11.5419781098689,0.));
#1740=CARTESIAN_POINT('',(3.20000004768372,11.5419781098689,0.));
#1741=CARTESIAN_POINT('',(3.10000004768372,11.6419781098689,0.));
#1742=CARTESIAN_POINT('Origin',(2.227734999969,11.7419781098689,-0.4));
#1743=CARTESIAN_POINT('',(2.227734999969,11.7419781098689,-0.5));
#1744=CARTESIAN_POINT('',(2.227734999969,11.6419781098689,-0.4));
#1745=CARTESIAN_POINT('Origin',(0.477734999969003,11.7419781098689,-0.1));
#1746=CARTESIAN_POINT('',(0.477734999969003,11.7419781098689,0.));
#1747=CARTESIAN_POINT('',(0.477734999969003,11.6419781098689,-0.1));
#1748=CARTESIAN_POINT('Origin',(1.05546999993801,11.5419781098689,0.));
#1749=CARTESIAN_POINT('',(1.05546999993801,11.6419781098689,0.));
#1750=CARTESIAN_POINT('',(0.955469999938007,11.5419781098689,0.));
#1751=CARTESIAN_POINT('Origin',(0.955469999938007,10.9000001624227,0.));
#1752=CARTESIAN_POINT('Origin',(3.20000004768372,10.9000001624227,0.));
#1753=CARTESIAN_POINT('Origin',(0.,0.,0.));
#1754=CARTESIAN_POINT('',(4.,2.,0.));
#1755=CARTESIAN_POINT('',(0.,2.,0.));
#1756=CARTESIAN_POINT('Origin',(2.,2.,0.));
#1757=CARTESIAN_POINT('',(4.,11.,0.));
#1758=CARTESIAN_POINT('',(4.,0.,0.));
#1759=CARTESIAN_POINT('',(0.,11.,0.));
#1760=CARTESIAN_POINT('Origin',(2.,11.,0.));
#1761=CARTESIAN_POINT('',(0.,0.,0.));
#1762=CARTESIAN_POINT('',(1.89793198366528,1.42999996803701,0.));
#1763=CARTESIAN_POINT('Origin',(2.04999995417893,1.42999996803701,0.));
#1764=CARTESIAN_POINT('',(1.24437739470301,1.76999996043742,0.));
#1765=CARTESIAN_POINT('Origin',(1.32499997038394,1.76999996043742,0.));
#1766=CARTESIAN_POINT('',(1.97232388382259,0.699999984353781,0.));
#1767=CARTESIAN_POINT('Origin',(2.04999995417893,0.699999984353781,0.));
#1768=CARTESIAN_POINT('',(2.69253539704368,1.76499996054918,0.));
#1769=CARTESIAN_POINT('Origin',(2.76999993808568,1.76499996054918,0.));
#1770=CARTESIAN_POINT('',(2.31617583292827,2.14999995194376,0.));
#1771=CARTESIAN_POINT('Origin',(2.38999994657934,2.14999995194376,0.));
#1772=CARTESIAN_POINT('',(2.68477981606593,1.42499996814877,0.));
#1773=CARTESIAN_POINT('Origin',(2.76499993819743,1.42499996814877,0.));
#1774=CARTESIAN_POINT('',(1.62426781849148,0.708672178311614,0.));
#1775=CARTESIAN_POINT('Origin',(1.70405639975438,0.708672178311614,0.));
#1776=CARTESIAN_POINT('',(1.25128609442194,1.42441339613946,0.));
#1777=CARTESIAN_POINT('Origin',(1.32802656620924,1.42441339613946,0.));
#1778=CARTESIAN_POINT('',(2.30775527396794,0.708672178311614,0.));
#1779=CARTESIAN_POINT('Origin',(2.38595049599526,0.708672178311614,0.));
#1780=CARTESIAN_POINT('',(1.62434208345483,2.14999995194376,0.));
#1781=CARTESIAN_POINT('Origin',(1.70470369524931,2.14999995194376,0.));
#1782=CARTESIAN_POINT('',(1.97555430829893,2.14999995194376,0.));
#1783=CARTESIAN_POINT('Origin',(2.04999995417893,2.14999995194376,0.));
#1784=CARTESIAN_POINT('',(2.68499993998557,1.0899999756366,0.));
#1785=CARTESIAN_POINT('Origin',(2.76499993819743,1.0899999756366,0.));
#1786=CARTESIAN_POINT('',(1.25057113283647,1.084180468978,0.));
#1787=CARTESIAN_POINT('Origin',(1.32802656620924,1.084180468978,0.));
#1788=CARTESIAN_POINT('Origin',(3.20000004768372,11.5000001713634,0.));
#1789=CARTESIAN_POINT('Origin',(3.5,0.,-0.5));
#1790=CARTESIAN_POINT('',(4.,2.,-0.5));
#1791=CARTESIAN_POINT('',(4.,4.60000006854534,-0.500000007450581));
#1792=CARTESIAN_POINT('',(4.,1.5500000230968,-0.5));
#1793=CARTESIAN_POINT('',(0.,2.,-0.5));
#1794=CARTESIAN_POINT('Origin',(2.,2.,-0.5));
#1795=CARTESIAN_POINT('',(0.,4.60000006854534,-0.500000007450581));
#1796=CARTESIAN_POINT('',(0.,-0.0240594687179261,-0.5));
#1797=CARTESIAN_POINT('',(0.5,4.60000006854534,-0.500000007450581));
#1798=CARTESIAN_POINT('',(4.,4.60000006854534,-0.500000007450581));
#1799=CARTESIAN_POINT('',(0.5,11.0000001639128,-0.500000007450581));
#1800=CARTESIAN_POINT('',(0.5,0.,-0.5));
#1801=CARTESIAN_POINT('',(0.,11.0000001639128,-0.500000007450581));
#1802=CARTESIAN_POINT('',(0.,11.0000001639128,-0.500000007450581));
#1803=CARTESIAN_POINT('',(4.,11.0000001639128,-0.500000007450581));
#1804=CARTESIAN_POINT('Origin',(2.,11.,-0.5));
#1805=CARTESIAN_POINT('',(3.5,11.0000001639128,-0.500000007450581));
#1806=CARTESIAN_POINT('',(0.,11.0000001639128,-0.500000007450581));
#1807=CARTESIAN_POINT('',(3.5,4.60000006854534,-0.500000007450581));
#1808=CARTESIAN_POINT('',(3.5,0.,-0.5));
#1809=CARTESIAN_POINT('',(4.,4.60000006854534,-0.500000007450581));
#1810=CARTESIAN_POINT('',(1.89793198366528,1.42999996803701,-0.5));
#1811=CARTESIAN_POINT('Origin',(2.04999995417893,1.42999996803701,-0.5));
#1812=CARTESIAN_POINT('',(1.24437739470301,1.76999996043742,-0.5));
#1813=CARTESIAN_POINT('Origin',(1.32499997038394,1.76999996043742,-0.5));
#1814=CARTESIAN_POINT('',(1.97232388382259,0.699999984353781,-0.5));
#1815=CARTESIAN_POINT('Origin',(2.04999995417893,0.699999984353781,-0.5));
#1816=CARTESIAN_POINT('',(2.69253539704368,1.76499996054918,-0.5));
#1817=CARTESIAN_POINT('Origin',(2.76999993808568,1.76499996054918,-0.5));
#1818=CARTESIAN_POINT('',(2.31617583292827,2.14999995194376,-0.5));
#1819=CARTESIAN_POINT('Origin',(2.38999994657934,2.14999995194376,-0.5));
#1820=CARTESIAN_POINT('',(2.68477981606593,1.42499996814877,-0.5));
#1821=CARTESIAN_POINT('Origin',(2.76499993819743,1.42499996814877,-0.5));
#1822=CARTESIAN_POINT('',(1.62426781849148,0.708672178311614,-0.5));
#1823=CARTESIAN_POINT('Origin',(1.70405639975438,0.708672178311614,-0.5));
#1824=CARTESIAN_POINT('',(1.25128609442194,1.42441339613946,-0.5));
#1825=CARTESIAN_POINT('Origin',(1.32802656620924,1.42441339613946,-0.5));
#1826=CARTESIAN_POINT('',(2.30775527396794,0.708672178311614,-0.5));
#1827=CARTESIAN_POINT('Origin',(2.38595049599526,0.708672178311614,-0.5));
#1828=CARTESIAN_POINT('',(1.62434208345483,2.14999995194376,-0.5));
#1829=CARTESIAN_POINT('Origin',(1.70470369524931,2.14999995194376,-0.5));
#1830=CARTESIAN_POINT('',(1.97555430829893,2.14999995194376,-0.5));
#1831=CARTESIAN_POINT('Origin',(2.04999995417893,2.14999995194376,-0.5));
#1832=CARTESIAN_POINT('',(2.68499993998557,1.0899999756366,-0.5));
#1833=CARTESIAN_POINT('Origin',(2.76499993819743,1.0899999756366,-0.5));
#1834=CARTESIAN_POINT('',(1.25057113283647,1.084180468978,-0.5));
#1835=CARTESIAN_POINT('Origin',(1.32802656620924,1.084180468978,-0.5));
#1836=CARTESIAN_POINT('Origin',(0.955469999938007,11.6419781098689,0.));
#1837=CARTESIAN_POINT('Origin',(3.5,11.1000001728535,-2.75000004097819));
#1838=CARTESIAN_POINT('',(3.5,11.6000001728535,-2.40000003576279));
#1839=CARTESIAN_POINT('',(4.,11.1000001728535,-2.40000003576279));
#1840=CARTESIAN_POINT('Origin',(3.5,11.1000001728535,-2.40000003576279));
#1841=CARTESIAN_POINT('',(4.,11.1000001728535,-5.50000008195639));
#1842=CARTESIAN_POINT('',(4.,11.1000001728535,-2.75000004097819));
#1843=CARTESIAN_POINT('',(3.99004974799498,11.1992536085122,-5.5));
#1844=CARTESIAN_POINT('Origin',(3.5,11.1000001728535,-5.50000008195639));
#1845=CARTESIAN_POINT('',(3.5,11.6000001728535,-5.5));
#1846=CARTESIAN_POINT('Origin',(3.5,11.1000001728535,-5.5));
#1847=CARTESIAN_POINT('',(3.5,11.6000001728535,-2.75000004097819));
#1848=CARTESIAN_POINT('Origin',(4.,0.,0.));
#1849=CARTESIAN_POINT('',(4.,11.0000001639128,-2.40000003576279));
#1850=CARTESIAN_POINT('',(4.,11.0000001639128,-2.40000003576279));
#1851=CARTESIAN_POINT('',(4.,11.,-1.5));
#1852=CARTESIAN_POINT('',(4.,11.,-1.5));
#1853=CARTESIAN_POINT('',(4.,2.,-1.5));
#1854=CARTESIAN_POINT('',(4.,4.60000006854534,-5.50000008195639));
#1855=CARTESIAN_POINT('',(4.,4.60000006854534,-0.300000004470348));
#1856=CARTESIAN_POINT('',(4.,2.,-5.50000008195639));
#1857=CARTESIAN_POINT('',(4.,2.30000003427267,-5.50000008195639));
#1858=CARTESIAN_POINT('',(4.,2.,-6.));
#1859=CARTESIAN_POINT('',(4.,2.,-1.5));
#1860=CARTESIAN_POINT('',(4.,11.,-6.));
#1861=CARTESIAN_POINT('',(4.,0.,-6.));
#1862=CARTESIAN_POINT('',(4.,11.0000001639128,-5.50000008195639));
#1863=CARTESIAN_POINT('',(4.,11.,-1.5));
#1864=CARTESIAN_POINT('',(4.,11.6000001728535,-5.50000008195639));
#1865=CARTESIAN_POINT('Origin',(0.,11.6000001728535,-2.40000003576279));
#1866=CARTESIAN_POINT('',(0.5,11.6000001728535,-2.40000003576279));
#1867=CARTESIAN_POINT('',(0.,11.6000001728535,-2.40000003576279));
#1868=CARTESIAN_POINT('',(0.,11.1000001728535,-2.40000003576279));
#1869=CARTESIAN_POINT('Origin',(0.5,11.1000001728535,-2.40000003576279));
#1870=CARTESIAN_POINT('',(0.,11.0000001639128,-2.40000003576279));
#1871=CARTESIAN_POINT('',(0.,11.0000001639128,-2.40000003576279));
#1872=CARTESIAN_POINT('',(0.5,11.0000001639128,-2.40000003576279));
#1873=CARTESIAN_POINT('',(0.,11.0000001639128,-2.40000003576279));
#1874=CARTESIAN_POINT('',(3.5,11.0000001639128,-2.40000003576279));
#1875=CARTESIAN_POINT('',(0.,11.0000001639128,-2.40000003576279));
#1876=CARTESIAN_POINT('',(0.,11.0000001639128,-2.40000003576279));
#1877=CARTESIAN_POINT('Origin',(0.,11.6000001728535,-5.50000008195639));
#1878=CARTESIAN_POINT('',(0.5,11.6000001728535,-5.5));
#1879=CARTESIAN_POINT('',(0.25,11.6000001728535,-5.5));
#1880=CARTESIAN_POINT('',(0.5,11.6000001728535,-5.75000004097819));
#1881=CARTESIAN_POINT('Origin',(0.5,11.1000001728535,-5.75000004097819));
#1882=CARTESIAN_POINT('',(0.00995025200502337,11.1992536085122,-5.5));
#1883=CARTESIAN_POINT('',(0.,11.1000001728535,-5.50000008195639));
#1884=CARTESIAN_POINT('Origin',(0.5,11.1000001728535,-5.50000008195639));
#1885=CARTESIAN_POINT('',(0.,11.1000001728535,-5.75000004097819));
#1886=CARTESIAN_POINT('Origin',(0.5,11.1000001728535,-5.5));
#1887=CARTESIAN_POINT('Origin',(0.,0.,-6.));
#1888=CARTESIAN_POINT('',(0.,11.0000001639128,-5.50000008195639));
#1889=CARTESIAN_POINT('',(0.,11.6000001728535,-5.50000008195639));
#1890=CARTESIAN_POINT('',(0.,11.,-6.));
#1891=CARTESIAN_POINT('',(0.,11.,-4.5));
#1892=CARTESIAN_POINT('',(0.,2.,-6.));
#1893=CARTESIAN_POINT('',(0.,0.,-6.));
#1894=CARTESIAN_POINT('',(0.,2.,-5.5));
#1895=CARTESIAN_POINT('',(0.,2.,-4.5));
#1896=CARTESIAN_POINT('',(0.,4.60000006854534,-5.50000008195639));
#1897=CARTESIAN_POINT('',(0.,1.55438042262319,-5.5));
#1898=CARTESIAN_POINT('',(0.,4.60000006854534,-3.30000000447035));
#1899=CARTESIAN_POINT('',(0.,2.,-4.5));
#1900=CARTESIAN_POINT('',(0.,11.,-4.5));
#1901=CARTESIAN_POINT('',(0.,11.,-4.5));
#1902=CARTESIAN_POINT('Origin',(4.,4.60000006854534,-0.600000008940697));
#1903=CARTESIAN_POINT('',(0.5,4.60000006854534,-5.50000008195639));
#1904=CARTESIAN_POINT('',(0.5,4.60000006854534,-0.550000004470348));
#1905=CARTESIAN_POINT('',(4.,4.60000006854534,-5.50000008195639));
#1906=CARTESIAN_POINT('Origin',(4.,4.60000006854534,-0.600000008940697));
#1907=CARTESIAN_POINT('',(3.5,4.60000006854534,-5.50000008195639));
#1908=CARTESIAN_POINT('',(3.5,4.60000006854534,-3.05000000447035));
#1909=CARTESIAN_POINT('',(4.,4.60000006854534,-5.50000008195639));
#1910=CARTESIAN_POINT('Origin',(0.5,0.,-5.5));
#1911=CARTESIAN_POINT('Origin',(2.,2.,-5.50000008195639));
#1912=CARTESIAN_POINT('',(3.5,11.0000001639128,-5.50000008195639));
#1913=CARTESIAN_POINT('',(3.5,0.,-5.5));
#1914=CARTESIAN_POINT('',(0.5,11.0000001639128,-5.50000008195639));
#1915=CARTESIAN_POINT('',(0.25,11.0000001639128,-5.5));
#1916=CARTESIAN_POINT('',(0.5,0.,-5.5));
#1917=CARTESIAN_POINT('Origin',(0.,11.0000001639128,-5.50000008195639));
#1918=CARTESIAN_POINT('Origin',(2.,11.,-5.5));
#1919=CARTESIAN_POINT('Origin',(0.,11.0000001639128,-5.50000008195639));
#1920=CARTESIAN_POINT('Origin',(2.,11.,-5.5));
#1921=CARTESIAN_POINT('Origin',(0.,11.0000001639128,-2.40000003576279));
#1922=CARTESIAN_POINT('',(3.5,11.0000001639128,-3.00000000372529));
#1923=CARTESIAN_POINT('',(0.5,11.0000001639128,-0.50000000372529));
#1924=CARTESIAN_POINT('Origin',(0.,11.0000001639128,-0.500000007450581));
#1925=CARTESIAN_POINT('',(0.5,11.0000001639128,-0.50000000372529));
#1926=CARTESIAN_POINT('Origin',(0.5,0.,-5.5));
#1927=CARTESIAN_POINT('Origin',(2.,11.,-5.5));
#1928=CARTESIAN_POINT('Origin',(0.,11.0000001639128,-0.500000007450581));
#1929=CARTESIAN_POINT('',(3.5,11.0000001639128,-3.00000000372529));
#1930=CARTESIAN_POINT('Origin',(3.5,0.,-5.5));
#1931=CARTESIAN_POINT('Origin',(2.,11.,-1.5));
#1932=CARTESIAN_POINT('Origin',(2.,11.,-6.));
#1933=CARTESIAN_POINT('Origin',(2.,11.,-1.5));
#1934=CARTESIAN_POINT('Origin',(2.04999995417893,1.42999996803701,0.));
#1935=CARTESIAN_POINT('',(1.89793198366528,1.42999996803701,0.));
#1936=CARTESIAN_POINT('Origin',(1.32802656620924,1.084180468978,0.));
#1937=CARTESIAN_POINT('',(1.25057113283647,1.084180468978,0.));
#1938=CARTESIAN_POINT('Origin',(2.76499993819743,1.0899999756366,0.));
#1939=CARTESIAN_POINT('',(2.68499993998557,1.0899999756366,0.));
#1940=CARTESIAN_POINT('Origin',(2.04999995417893,2.14999995194376,0.));
#1941=CARTESIAN_POINT('',(1.97555430829893,2.14999995194376,0.));
#1942=CARTESIAN_POINT('Origin',(1.70470369524931,2.14999995194376,0.));
#1943=CARTESIAN_POINT('',(1.62434208345483,2.14999995194376,0.));
#1944=CARTESIAN_POINT('Origin',(2.38595049599526,0.708672178311614,0.));
#1945=CARTESIAN_POINT('',(2.30775527396794,0.708672178311614,0.));
#1946=CARTESIAN_POINT('Origin',(1.32802656620924,1.42441339613946,0.));
#1947=CARTESIAN_POINT('',(1.25128609442194,1.42441339613946,0.));
#1948=CARTESIAN_POINT('Origin',(1.70405639975438,0.708672178311614,0.));
#1949=CARTESIAN_POINT('',(1.62426781849148,0.708672178311614,0.));
#1950=CARTESIAN_POINT('Origin',(2.76499993819743,1.42499996814877,0.));
#1951=CARTESIAN_POINT('',(2.68477981606593,1.42499996814877,0.));
#1952=CARTESIAN_POINT('Origin',(2.38999994657934,2.14999995194376,0.));
#1953=CARTESIAN_POINT('',(2.31617583292827,2.14999995194376,0.));
#1954=CARTESIAN_POINT('Origin',(2.76999993808568,1.76499996054918,0.));
#1955=CARTESIAN_POINT('',(2.69253539704368,1.76499996054918,0.));
#1956=CARTESIAN_POINT('Origin',(2.04999995417893,0.699999984353781,0.));
#1957=CARTESIAN_POINT('',(1.97232388382259,0.699999984353781,0.));
#1958=CARTESIAN_POINT('Origin',(1.32499997038394,1.76999996043742,0.));
#1959=CARTESIAN_POINT('',(1.24437739470301,1.76999996043742,0.));
#1960=CARTESIAN_POINT('Origin',(2.,2.,-4.5));
#1961=CARTESIAN_POINT('Origin',(2.,2.,-6.));
#1962=CARTESIAN_POINT('Origin',(0.5,0.,-0.5));
#1963=CARTESIAN_POINT('Origin',(2.,2.,-4.5));
#1964=CARTESIAN_POINT('Origin',(4.,0.,-6.));
#1965=UNCERTAINTY_MEASURE_WITH_UNIT(LENGTH_MEASURE(0.001),#1969,
'DISTANCE_ACCURACY_VALUE',
'Maximum model space distance between geometric entities at asserted c
onnectivities');
#1966=UNCERTAINTY_MEASURE_WITH_UNIT(LENGTH_MEASURE(0.001),#1969,
'DISTANCE_ACCURACY_VALUE',
'Maximum model space distance between geometric entities at asserted c
onnectivities');
#1967=(
GEOMETRIC_REPRESENTATION_CONTEXT(3)
GLOBAL_UNCERTAINTY_ASSIGNED_CONTEXT((#1965))
GLOBAL_UNIT_ASSIGNED_CONTEXT((#1969,#1970,#1971))
REPRESENTATION_CONTEXT('','3D')
);
#1968=(
GEOMETRIC_REPRESENTATION_CONTEXT(3)
GLOBAL_UNCERTAINTY_ASSIGNED_CONTEXT((#1966))
GLOBAL_UNIT_ASSIGNED_CONTEXT((#1969,#1970,#1971))
REPRESENTATION_CONTEXT('','3D')
);
#1969=(
LENGTH_UNIT()
NAMED_UNIT(*)
SI_UNIT(.CENTI.,.METRE.)
);
#1970=(
NAMED_UNIT(*)
PLANE_ANGLE_UNIT()
SI_UNIT($,.RADIAN.)
);
#1971=(
NAMED_UNIT(*)
SI_UNIT($,.STERADIAN.)
SOLID_ANGLE_UNIT()
);
#1972=SHAPE_DEFINITION_REPRESENTATION(#1973,#1974);
#1973=PRODUCT_DEFINITION_SHAPE('',$,#1976);
#1974=SHAPE_REPRESENTATION('',(#1147),#1967);
#1975=PRODUCT_DEFINITION_CONTEXT('part definition',#1980,'design');
#1976=PRODUCT_DEFINITION('2026-04-24-15-07-28-606','bicep',#1977,#1975);
#1977=PRODUCT_DEFINITION_FORMATION('',$,#1982);
#1978=PRODUCT_RELATED_PRODUCT_CATEGORY('bicep','bicep',(#1982));
#1979=APPLICATION_PROTOCOL_DEFINITION('international standard',
'automotive_design',2009,#1980);
#1980=APPLICATION_CONTEXT(
'Core Data for Automotive Mechanical Design Process');
#1981=PRODUCT_CONTEXT('part definition',#1980,'mechanical');
#1982=PRODUCT('2026-04-24-15-07-28-606','bicep',$,(#1981));
#1983=PRESENTATION_STYLE_ASSIGNMENT((#1984));
#1984=SURFACE_STYLE_USAGE(.BOTH.,#1985);
#1985=SURFACE_SIDE_STYLE('',(#1986));
#1986=SURFACE_STYLE_FILL_AREA(#1987);
#1987=FILL_AREA_STYLE('Steel - Satin',(#1988));
#1988=FILL_AREA_STYLE_COLOUR('Steel - Satin',#1989);
#1989=COLOUR_RGB('Steel - Satin',0.627450980392157,0.627450980392157,0.627450980392157);
ENDSEC;
END-ISO-10303-21;
