ISO-10303-21;
HEADER;
/* Generated by software containing ST-Developer
 * from STEP Tools, Inc. (www.steptools.com) 
 */

FILE_DESCRIPTION(
/* description */ (''),
/* implementation_level */ '2;1');

FILE_NAME(
/* name */ 'forearmSTEP.step',
/* time_stamp */ '2026-06-19T20:59:56-04:00',
/* author */ (''),
/* organization */ (''),
/* preprocessor_version */ 'ST-DEVELOPER v20.1',
/* originating_system */ 'Autodesk Translation Framework v15.8.0.0',
/* authorisation */ '');

FILE_SCHEMA (('AUTOMOTIVE_DESIGN { 1 0 10303 214 3 1 1 }'));
ENDSEC;

DATA;
#10=MECHANICAL_DESIGN_GEOMETRIC_PRESENTATION_REPRESENTATION('',(#13),#1980);
#11=SHAPE_REPRESENTATION_RELATIONSHIP('SRR','None',#1987,#12);
#12=ADVANCED_BREP_SHAPE_REPRESENTATION('',(#14),#1979);
#13=STYLED_ITEM('',(#1996),#14);
#14=MANIFOLD_SOLID_BREP('Body3',#1146);
#15=TOROIDAL_SURFACE('',#1190,0.2,0.1);
#16=TOROIDAL_SURFACE('',#1195,0.199999999999999,0.0999999999999996);
#17=TOROIDAL_SURFACE('',#1201,0.2,0.1);
#18=TOROIDAL_SURFACE('',#1205,0.199999999999999,0.0999999999999996);
#19=TOROIDAL_SURFACE('',#1210,0.199999999999999,0.1);
#20=TOROIDAL_SURFACE('',#1216,0.2,0.1);
#21=TOROIDAL_SURFACE('',#1223,0.199999999999999,0.1);
#22=TOROIDAL_SURFACE('',#1227,0.2,0.1);
#23=CYLINDRICAL_SURFACE('',#1186,2.);
#24=CYLINDRICAL_SURFACE('',#1188,2.);
#25=CYLINDRICAL_SURFACE('',#1200,0.1);
#26=CYLINDRICAL_SURFACE('',#1214,0.1);
#27=CYLINDRICAL_SURFACE('',#1215,0.1);
#28=CYLINDRICAL_SURFACE('',#1221,0.1);
#29=CYLINDRICAL_SURFACE('',#1222,0.1);
#30=CYLINDRICAL_SURFACE('',#1231,0.1);
#31=CYLINDRICAL_SURFACE('',#1232,0.1);
#32=CYLINDRICAL_SURFACE('',#1233,0.1);
#33=CYLINDRICAL_SURFACE('',#1234,0.1);
#34=CYLINDRICAL_SURFACE('',#1235,0.1);
#35=CYLINDRICAL_SURFACE('',#1236,0.1);
#36=CYLINDRICAL_SURFACE('',#1237,0.1);
#37=CYLINDRICAL_SURFACE('',#1257,0.5);
#38=CYLINDRICAL_SURFACE('',#1264,0.5);
#39=CYLINDRICAL_SURFACE('',#1277,2.);
#40=CYLINDRICAL_SURFACE('',#1279,2.);
#41=CYLINDRICAL_SURFACE('',#1280,0.152067970513651);
#42=CYLINDRICAL_SURFACE('',#1281,0.0774554333727697);
#43=CYLINDRICAL_SURFACE('',#1282,0.0799999982118607);
#44=CYLINDRICAL_SURFACE('',#1283,0.074445645880004);
#45=CYLINDRICAL_SURFACE('',#1284,0.0803616117944743);
#46=CYLINDRICAL_SURFACE('',#1285,0.0781952220273201);
#47=CYLINDRICAL_SURFACE('',#1286,0.0767404717872913);
#48=CYLINDRICAL_SURFACE('',#1287,0.0797885812629013);
#49=CYLINDRICAL_SURFACE('',#1288,0.0802201221315055);
#50=CYLINDRICAL_SURFACE('',#1289,0.0738241136510696);
#51=CYLINDRICAL_SURFACE('',#1290,0.0774645410419987);
#52=CYLINDRICAL_SURFACE('',#1291,0.0776760703563348);
#53=CYLINDRICAL_SURFACE('',#1292,0.0806225756809305);
#54=FACE_BOUND('',#146,.T.);
#55=FACE_BOUND('',#147,.T.);
#56=FACE_BOUND('',#148,.T.);
#57=FACE_BOUND('',#149,.T.);
#58=FACE_BOUND('',#150,.T.);
#59=FACE_BOUND('',#151,.T.);
#60=FACE_BOUND('',#152,.T.);
#61=FACE_BOUND('',#153,.T.);
#62=FACE_BOUND('',#154,.T.);
#63=FACE_BOUND('',#155,.T.);
#64=FACE_BOUND('',#156,.T.);
#65=FACE_BOUND('',#157,.T.);
#66=FACE_BOUND('',#158,.T.);
#67=FACE_BOUND('',#159,.T.);
#68=FACE_BOUND('',#188,.T.);
#69=FACE_BOUND('',#189,.T.);
#70=FACE_BOUND('',#190,.T.);
#71=FACE_BOUND('',#191,.T.);
#72=FACE_BOUND('',#192,.T.);
#73=FACE_BOUND('',#193,.T.);
#74=FACE_BOUND('',#194,.T.);
#75=FACE_BOUND('',#195,.T.);
#76=FACE_BOUND('',#196,.T.);
#77=FACE_BOUND('',#197,.T.);
#78=FACE_BOUND('',#198,.T.);
#79=FACE_BOUND('',#199,.T.);
#80=FACE_BOUND('',#200,.T.);
#81=FACE_BOUND('',#201,.T.);
#82=FACE_OUTER_BOUND('',#143,.T.);
#83=FACE_OUTER_BOUND('',#144,.T.);
#84=FACE_OUTER_BOUND('',#145,.T.);
#85=FACE_OUTER_BOUND('',#160,.T.);
#86=FACE_OUTER_BOUND('',#161,.T.);
#87=FACE_OUTER_BOUND('',#162,.T.);
#88=FACE_OUTER_BOUND('',#163,.T.);
#89=FACE_OUTER_BOUND('',#164,.T.);
#90=FACE_OUTER_BOUND('',#165,.T.);
#91=FACE_OUTER_BOUND('',#166,.T.);
#92=FACE_OUTER_BOUND('',#167,.T.);
#93=FACE_OUTER_BOUND('',#168,.T.);
#94=FACE_OUTER_BOUND('',#169,.T.);
#95=FACE_OUTER_BOUND('',#170,.T.);
#96=FACE_OUTER_BOUND('',#171,.T.);
#97=FACE_OUTER_BOUND('',#172,.T.);
#98=FACE_OUTER_BOUND('',#173,.T.);
#99=FACE_OUTER_BOUND('',#174,.T.);
#100=FACE_OUTER_BOUND('',#175,.T.);
#101=FACE_OUTER_BOUND('',#176,.T.);
#102=FACE_OUTER_BOUND('',#177,.T.);
#103=FACE_OUTER_BOUND('',#178,.T.);
#104=FACE_OUTER_BOUND('',#179,.T.);
#105=FACE_OUTER_BOUND('',#180,.T.);
#106=FACE_OUTER_BOUND('',#181,.T.);
#107=FACE_OUTER_BOUND('',#182,.T.);
#108=FACE_OUTER_BOUND('',#183,.T.);
#109=FACE_OUTER_BOUND('',#184,.T.);
#110=FACE_OUTER_BOUND('',#185,.T.);
#111=FACE_OUTER_BOUND('',#186,.T.);
#112=FACE_OUTER_BOUND('',#187,.T.);
#113=FACE_OUTER_BOUND('',#202,.T.);
#114=FACE_OUTER_BOUND('',#203,.T.);
#115=FACE_OUTER_BOUND('',#204,.T.);
#116=FACE_OUTER_BOUND('',#205,.T.);
#117=FACE_OUTER_BOUND('',#206,.T.);
#118=FACE_OUTER_BOUND('',#207,.T.);
#119=FACE_OUTER_BOUND('',#208,.T.);
#120=FACE_OUTER_BOUND('',#209,.T.);
#121=FACE_OUTER_BOUND('',#210,.T.);
#122=FACE_OUTER_BOUND('',#211,.T.);
#123=FACE_OUTER_BOUND('',#212,.T.);
#124=FACE_OUTER_BOUND('',#213,.T.);
#125=FACE_OUTER_BOUND('',#214,.T.);
#126=FACE_OUTER_BOUND('',#215,.T.);
#127=FACE_OUTER_BOUND('',#216,.T.);
#128=FACE_OUTER_BOUND('',#217,.T.);
#129=FACE_OUTER_BOUND('',#218,.T.);
#130=FACE_OUTER_BOUND('',#219,.T.);
#131=FACE_OUTER_BOUND('',#220,.T.);
#132=FACE_OUTER_BOUND('',#221,.T.);
#133=FACE_OUTER_BOUND('',#222,.T.);
#134=FACE_OUTER_BOUND('',#223,.T.);
#135=FACE_OUTER_BOUND('',#224,.T.);
#136=FACE_OUTER_BOUND('',#225,.T.);
#137=FACE_OUTER_BOUND('',#226,.T.);
#138=FACE_OUTER_BOUND('',#227,.T.);
#139=FACE_OUTER_BOUND('',#228,.T.);
#140=FACE_OUTER_BOUND('',#229,.T.);
#141=FACE_OUTER_BOUND('',#230,.T.);
#142=FACE_OUTER_BOUND('',#231,.T.);
#143=EDGE_LOOP('',(#741,#742,#743,#744,#745,#746,#747,#748));
#144=EDGE_LOOP('',(#749,#750,#751,#752,#753,#754,#755,#756,#757,#758,#759,
#760,#761));
#145=EDGE_LOOP('',(#762,#763,#764,#765,#766,#767,#768,#769,#770,#771));
#146=EDGE_LOOP('',(#772));
#147=EDGE_LOOP('',(#773));
#148=EDGE_LOOP('',(#774));
#149=EDGE_LOOP('',(#775,#776,#777,#778,#779,#780,#781,#782));
#150=EDGE_LOOP('',(#783));
#151=EDGE_LOOP('',(#784));
#152=EDGE_LOOP('',(#785));
#153=EDGE_LOOP('',(#786));
#154=EDGE_LOOP('',(#787));
#155=EDGE_LOOP('',(#788));
#156=EDGE_LOOP('',(#789));
#157=EDGE_LOOP('',(#790));
#158=EDGE_LOOP('',(#791));
#159=EDGE_LOOP('',(#792));
#160=EDGE_LOOP('',(#793,#794,#795,#796,#797,#798,#799,#800,#801,#802,#803,
#804,#805));
#161=EDGE_LOOP('',(#806,#807,#808,#809));
#162=EDGE_LOOP('',(#810,#811,#812,#813));
#163=EDGE_LOOP('',(#814,#815,#816,#817));
#164=EDGE_LOOP('',(#818,#819,#820,#821));
#165=EDGE_LOOP('',(#822,#823,#824,#825));
#166=EDGE_LOOP('',(#826,#827,#828,#829));
#167=EDGE_LOOP('',(#830,#831,#832,#833));
#168=EDGE_LOOP('',(#834,#835,#836,#837));
#169=EDGE_LOOP('',(#838,#839,#840,#841));
#170=EDGE_LOOP('',(#842,#843,#844,#845));
#171=EDGE_LOOP('',(#846,#847,#848,#849));
#172=EDGE_LOOP('',(#850,#851,#852,#853));
#173=EDGE_LOOP('',(#854,#855,#856,#857));
#174=EDGE_LOOP('',(#858,#859,#860,#861));
#175=EDGE_LOOP('',(#862,#863,#864,#865));
#176=EDGE_LOOP('',(#866,#867,#868,#869));
#177=EDGE_LOOP('',(#870,#871,#872,#873));
#178=EDGE_LOOP('',(#874,#875,#876,#877));
#179=EDGE_LOOP('',(#878,#879,#880,#881));
#180=EDGE_LOOP('',(#882,#883,#884,#885));
#181=EDGE_LOOP('',(#886,#887,#888,#889));
#182=EDGE_LOOP('',(#890,#891,#892,#893));
#183=EDGE_LOOP('',(#894,#895,#896,#897));
#184=EDGE_LOOP('',(#898,#899,#900,#901));
#185=EDGE_LOOP('',(#902,#903,#904,#905));
#186=EDGE_LOOP('',(#906,#907,#908,#909));
#187=EDGE_LOOP('',(#910,#911,#912,#913));
#188=EDGE_LOOP('',(#914));
#189=EDGE_LOOP('',(#915));
#190=EDGE_LOOP('',(#916));
#191=EDGE_LOOP('',(#917));
#192=EDGE_LOOP('',(#918));
#193=EDGE_LOOP('',(#919));
#194=EDGE_LOOP('',(#920));
#195=EDGE_LOOP('',(#921));
#196=EDGE_LOOP('',(#922));
#197=EDGE_LOOP('',(#923));
#198=EDGE_LOOP('',(#924));
#199=EDGE_LOOP('',(#925));
#200=EDGE_LOOP('',(#926));
#201=EDGE_LOOP('',(#927,#928,#929,#930,#931,#932,#933,#934));
#202=EDGE_LOOP('',(#935,#936,#937,#938));
#203=EDGE_LOOP('',(#939,#940,#941,#942));
#204=EDGE_LOOP('',(#943,#944,#945,#946,#947));
#205=EDGE_LOOP('',(#948,#949,#950,#951,#952,#953,#954,#955));
#206=EDGE_LOOP('',(#956,#957,#958,#959));
#207=EDGE_LOOP('',(#960,#961,#962,#963,#964));
#208=EDGE_LOOP('',(#965,#966,#967));
#209=EDGE_LOOP('',(#968,#969,#970));
#210=EDGE_LOOP('',(#971,#972,#973,#974));
#211=EDGE_LOOP('',(#975,#976,#977,#978));
#212=EDGE_LOOP('',(#979,#980,#981,#982));
#213=EDGE_LOOP('',(#983,#984,#985,#986));
#214=EDGE_LOOP('',(#987,#988,#989,#990,#991));
#215=EDGE_LOOP('',(#992,#993,#994,#995,#996,#997));
#216=EDGE_LOOP('',(#998,#999,#1000,#1001));
#217=EDGE_LOOP('',(#1002,#1003,#1004,#1005));
#218=EDGE_LOOP('',(#1006,#1007,#1008,#1009));
#219=EDGE_LOOP('',(#1010,#1011,#1012,#1013));
#220=EDGE_LOOP('',(#1014,#1015,#1016,#1017));
#221=EDGE_LOOP('',(#1018,#1019,#1020,#1021));
#222=EDGE_LOOP('',(#1022,#1023,#1024,#1025));
#223=EDGE_LOOP('',(#1026,#1027,#1028,#1029));
#224=EDGE_LOOP('',(#1030,#1031,#1032,#1033));
#225=EDGE_LOOP('',(#1034,#1035,#1036,#1037));
#226=EDGE_LOOP('',(#1038,#1039,#1040,#1041));
#227=EDGE_LOOP('',(#1042,#1043,#1044,#1045));
#228=EDGE_LOOP('',(#1046,#1047,#1048,#1049));
#229=EDGE_LOOP('',(#1050,#1051,#1052,#1053));
#230=EDGE_LOOP('',(#1054,#1055,#1056,#1057,#1058));
#231=EDGE_LOOP('',(#1059,#1060,#1061,#1062));
#232=CIRCLE('',#1161,2.);
#233=CIRCLE('',#1164,2.);
#234=CIRCLE('',#1165,2.);
#235=CIRCLE('',#1166,0.0776760703563348);
#236=CIRCLE('',#1167,0.0797885812629013);
#237=CIRCLE('',#1168,0.0781952220273201);
#238=CIRCLE('',#1169,0.2);
#239=CIRCLE('',#1170,0.199999999999999);
#240=CIRCLE('',#1171,0.2);
#241=CIRCLE('',#1172,0.199999999999999);
#242=CIRCLE('',#1173,0.0774554333727697);
#243=CIRCLE('',#1174,0.0799999982118607);
#244=CIRCLE('',#1175,0.074445645880004);
#245=CIRCLE('',#1176,0.0803616117944743);
#246=CIRCLE('',#1177,0.0767404717872913);
#247=CIRCLE('',#1178,0.0802201221315055);
#248=CIRCLE('',#1179,0.0738241136510696);
#249=CIRCLE('',#1180,0.0774645410419987);
#250=CIRCLE('',#1181,0.0806225756809305);
#251=CIRCLE('',#1182,0.152067970513651);
#252=CIRCLE('',#1187,2.);
#253=CIRCLE('',#1189,2.);
#254=CIRCLE('',#1191,0.0999999999999979);
#255=CIRCLE('',#1192,0.1);
#256=CIRCLE('',#1193,0.199999999999998);
#257=CIRCLE('',#1194,0.1);
#258=CIRCLE('',#1196,0.1);
#259=CIRCLE('',#1197,0.1);
#260=CIRCLE('',#1198,0.2);
#261=CIRCLE('',#1199,0.0999999999999996);
#262=CIRCLE('',#1202,0.0999999999999996);
#263=CIRCLE('',#1203,0.1);
#264=CIRCLE('',#1204,0.1);
#265=CIRCLE('',#1206,0.1);
#266=CIRCLE('',#1207,0.1);
#267=CIRCLE('',#1208,0.2);
#268=CIRCLE('',#1209,0.0999999999999996);
#269=CIRCLE('',#1211,0.1);
#270=CIRCLE('',#1212,0.0999999999999996);
#271=CIRCLE('',#1213,0.1);
#272=CIRCLE('',#1217,0.100000000000001);
#273=CIRCLE('',#1218,0.1);
#274=CIRCLE('',#1219,0.200000000000001);
#275=CIRCLE('',#1220,0.1);
#276=CIRCLE('',#1224,0.1);
#277=CIRCLE('',#1225,0.0999999999999996);
#278=CIRCLE('',#1226,0.1);
#279=CIRCLE('',#1228,0.0999999999999996);
#280=CIRCLE('',#1229,0.1);
#281=CIRCLE('',#1230,0.1);
#282=CIRCLE('',#1241,2.);
#283=CIRCLE('',#1242,0.152067970513651);
#284=CIRCLE('',#1243,0.0806225756809305);
#285=CIRCLE('',#1244,0.0776760703563348);
#286=CIRCLE('',#1245,0.0774645410419987);
#287=CIRCLE('',#1246,0.0738241136510696);
#288=CIRCLE('',#1247,0.0802201221315055);
#289=CIRCLE('',#1248,0.0797885812629013);
#290=CIRCLE('',#1249,0.0767404717872913);
#291=CIRCLE('',#1250,0.0781952220273201);
#292=CIRCLE('',#1251,0.0803616117944743);
#293=CIRCLE('',#1252,0.074445645880004);
#294=CIRCLE('',#1253,0.0799999982118607);
#295=CIRCLE('',#1254,0.0774554333727697);
#296=CIRCLE('',#1258,0.5);
#297=CIRCLE('',#1259,0.5);
#298=CIRCLE('',#1260,0.5);
#299=CIRCLE('',#1262,0.5);
#300=CIRCLE('',#1265,0.5);
#301=CIRCLE('',#1266,0.5);
#302=CIRCLE('',#1268,2.);
#303=CIRCLE('',#1270,2.);
#304=CIRCLE('',#1274,2.);
#305=CIRCLE('',#1278,2.);
#306=LINE('',#1658,#393);
#307=LINE('',#1660,#394);
#308=LINE('',#1662,#395);
#309=LINE('',#1666,#396);
#310=LINE('',#1668,#397);
#311=LINE('',#1670,#398);
#312=LINE('',#1671,#399);
#313=LINE('',#1675,#400);
#314=LINE('',#1677,#401);
#315=LINE('',#1679,#402);
#316=LINE('',#1681,#403);
#317=LINE('',#1683,#404);
#318=LINE('',#1685,#405);
#319=LINE('',#1687,#406);
#320=LINE('',#1689,#407);
#321=LINE('',#1691,#408);
#322=LINE('',#1693,#409);
#323=LINE('',#1694,#410);
#324=LINE('',#1695,#411);
#325=LINE('',#1699,#412);
#326=LINE('',#1700,#413);
#327=LINE('',#1704,#414);
#328=LINE('',#1706,#415);
#329=LINE('',#1708,#416);
#330=LINE('',#1710,#417);
#331=LINE('',#1712,#418);
#332=LINE('',#1723,#419);
#333=LINE('',#1727,#420);
#334=LINE('',#1731,#421);
#335=LINE('',#1734,#422);
#336=LINE('',#1757,#423);
#337=LINE('',#1759,#424);
#338=LINE('',#1761,#425);
#339=LINE('',#1763,#426);
#340=LINE('',#1765,#427);
#341=LINE('',#1767,#428);
#342=LINE('',#1768,#429);
#343=LINE('',#1770,#430);
#344=LINE('',#1772,#431);
#345=LINE('',#1773,#432);
#346=LINE('',#1774,#433);
#347=LINE('',#1776,#434);
#348=LINE('',#1778,#435);
#349=LINE('',#1802,#436);
#350=LINE('',#1803,#437);
#351=LINE('',#1826,#438);
#352=LINE('',#1828,#439);
#353=LINE('',#1829,#440);
#354=LINE('',#1840,#441);
#355=LINE('',#1841,#442);
#356=LINE('',#1843,#443);
#357=LINE('',#1844,#444);
#358=LINE('',#1858,#445);
#359=LINE('',#1860,#446);
#360=LINE('',#1861,#447);
#361=LINE('',#1863,#448);
#362=LINE('',#1865,#449);
#363=LINE('',#1866,#450);
#364=LINE('',#1868,#451);
#365=LINE('',#1870,#452);
#366=LINE('',#1871,#453);
#367=LINE('',#1873,#454);
#368=LINE('',#1874,#455);
#369=LINE('',#1914,#456);
#370=LINE('',#1917,#457);
#371=LINE('',#1920,#458);
#372=LINE('',#1922,#459);
#373=LINE('',#1923,#460);
#374=LINE('',#1926,#461);
#375=LINE('',#1927,#462);
#376=LINE('',#1937,#463);
#377=LINE('',#1938,#464);
#378=LINE('',#1940,#465);
#379=LINE('',#1944,#466);
#380=LINE('',#1950,#467);
#381=LINE('',#1952,#468);
#382=LINE('',#1954,#469);
#383=LINE('',#1956,#470);
#384=LINE('',#1958,#471);
#385=LINE('',#1960,#472);
#386=LINE('',#1962,#473);
#387=LINE('',#1964,#474);
#388=LINE('',#1966,#475);
#389=LINE('',#1968,#476);
#390=LINE('',#1970,#477);
#391=LINE('',#1972,#478);
#392=LINE('',#1974,#479);
#393=VECTOR('',#1299,1.);
#394=VECTOR('',#1300,1.);
#395=VECTOR('',#1301,1.);
#396=VECTOR('',#1304,1.);
#397=VECTOR('',#1305,1.);
#398=VECTOR('',#1306,1.);
#399=VECTOR('',#1307,1.);
#400=VECTOR('',#1310,1.);
#401=VECTOR('',#1311,1.);
#402=VECTOR('',#1312,1.);
#403=VECTOR('',#1313,1.);
#404=VECTOR('',#1314,1.);
#405=VECTOR('',#1315,1.);
#406=VECTOR('',#1316,1.);
#407=VECTOR('',#1317,1.);
#408=VECTOR('',#1318,1.);
#409=VECTOR('',#1319,1.);
#410=VECTOR('',#1320,1.);
#411=VECTOR('',#1321,1.);
#412=VECTOR('',#1324,1.);
#413=VECTOR('',#1325,1.);
#414=VECTOR('',#1328,1.);
#415=VECTOR('',#1329,1.);
#416=VECTOR('',#1330,1.);
#417=VECTOR('',#1331,1.);
#418=VECTOR('',#1334,1.);
#419=VECTOR('',#1343,1.);
#420=VECTOR('',#1346,1.);
#421=VECTOR('',#1349,1.);
#422=VECTOR('',#1352,1.);
#423=VECTOR('',#1375,1.);
#424=VECTOR('',#1376,1.);
#425=VECTOR('',#1377,1.);
#426=VECTOR('',#1378,1.);
#427=VECTOR('',#1379,1.);
#428=VECTOR('',#1380,1.);
#429=VECTOR('',#1381,1.);
#430=VECTOR('',#1382,1.);
#431=VECTOR('',#1383,1.);
#432=VECTOR('',#1384,1.);
#433=VECTOR('',#1385,1.);
#434=VECTOR('',#1388,1.);
#435=VECTOR('',#1391,1.);
#436=VECTOR('',#1422,1.);
#437=VECTOR('',#1423,1.);
#438=VECTOR('',#1452,1.);
#439=VECTOR('',#1455,1.);
#440=VECTOR('',#1456,1.);
#441=VECTOR('',#1469,1.);
#442=VECTOR('',#1470,1.);
#443=VECTOR('',#1473,1.);
#444=VECTOR('',#1474,1.);
#445=VECTOR('',#1493,1.);
#446=VECTOR('',#1496,1.);
#447=VECTOR('',#1497,1.);
#448=VECTOR('',#1500,1.);
#449=VECTOR('',#1503,1.);
#450=VECTOR('',#1504,1.);
#451=VECTOR('',#1507,1.);
#452=VECTOR('',#1510,1.);
#453=VECTOR('',#1511,1.);
#454=VECTOR('',#1514,1.);
#455=VECTOR('',#1515,1.);
#456=VECTOR('',#1562,1.);
#457=VECTOR('',#1565,1.);
#458=VECTOR('',#1568,1.);
#459=VECTOR('',#1569,1.);
#460=VECTOR('',#1570,1.);
#461=VECTOR('',#1573,1.);
#462=VECTOR('',#1574,1.);
#463=VECTOR('',#1591,1.);
#464=VECTOR('',#1592,1.);
#465=VECTOR('',#1595,1.);
#466=VECTOR('',#1602,1.);
#467=VECTOR('',#1613,0.152067970513651);
#468=VECTOR('',#1616,0.0774554333727697);
#469=VECTOR('',#1619,0.0799999982118607);
#470=VECTOR('',#1622,0.074445645880004);
#471=VECTOR('',#1625,0.0803616117944743);
#472=VECTOR('',#1628,0.0781952220273201);
#473=VECTOR('',#1631,0.0767404717872913);
#474=VECTOR('',#1634,0.0797885812629013);
#475=VECTOR('',#1637,0.0802201221315055);
#476=VECTOR('',#1640,0.0738241136510696);
#477=VECTOR('',#1643,0.0774645410419987);
#478=VECTOR('',#1646,0.0776760703563348);
#479=VECTOR('',#1649,0.0806225756809305);
#480=VERTEX_POINT('',#1656);
#481=VERTEX_POINT('',#1657);
#482=VERTEX_POINT('',#1659);
#483=VERTEX_POINT('',#1661);
#484=VERTEX_POINT('',#1663);
#485=VERTEX_POINT('',#1665);
#486=VERTEX_POINT('',#1667);
#487=VERTEX_POINT('',#1669);
#488=VERTEX_POINT('',#1673);
#489=VERTEX_POINT('',#1674);
#490=VERTEX_POINT('',#1676);
#491=VERTEX_POINT('',#1678);
#492=VERTEX_POINT('',#1680);
#493=VERTEX_POINT('',#1682);
#494=VERTEX_POINT('',#1684);
#495=VERTEX_POINT('',#1686);
#496=VERTEX_POINT('',#1688);
#497=VERTEX_POINT('',#1690);
#498=VERTEX_POINT('',#1692);
#499=VERTEX_POINT('',#1697);
#500=VERTEX_POINT('',#1698);
#501=VERTEX_POINT('',#1701);
#502=VERTEX_POINT('',#1703);
#503=VERTEX_POINT('',#1705);
#504=VERTEX_POINT('',#1707);
#505=VERTEX_POINT('',#1709);
#506=VERTEX_POINT('',#1713);
#507=VERTEX_POINT('',#1715);
#508=VERTEX_POINT('',#1717);
#509=VERTEX_POINT('',#1719);
#510=VERTEX_POINT('',#1720);
#511=VERTEX_POINT('',#1722);
#512=VERTEX_POINT('',#1724);
#513=VERTEX_POINT('',#1726);
#514=VERTEX_POINT('',#1728);
#515=VERTEX_POINT('',#1730);
#516=VERTEX_POINT('',#1732);
#517=VERTEX_POINT('',#1735);
#518=VERTEX_POINT('',#1737);
#519=VERTEX_POINT('',#1739);
#520=VERTEX_POINT('',#1741);
#521=VERTEX_POINT('',#1743);
#522=VERTEX_POINT('',#1745);
#523=VERTEX_POINT('',#1747);
#524=VERTEX_POINT('',#1749);
#525=VERTEX_POINT('',#1751);
#526=VERTEX_POINT('',#1753);
#527=VERTEX_POINT('',#1756);
#528=VERTEX_POINT('',#1758);
#529=VERTEX_POINT('',#1760);
#530=VERTEX_POINT('',#1762);
#531=VERTEX_POINT('',#1764);
#532=VERTEX_POINT('',#1766);
#533=VERTEX_POINT('',#1769);
#534=VERTEX_POINT('',#1771);
#535=VERTEX_POINT('',#1784);
#536=VERTEX_POINT('',#1785);
#537=VERTEX_POINT('',#1787);
#538=VERTEX_POINT('',#1789);
#539=VERTEX_POINT('',#1793);
#540=VERTEX_POINT('',#1794);
#541=VERTEX_POINT('',#1796);
#542=VERTEX_POINT('',#1798);
#543=VERTEX_POINT('',#1805);
#544=VERTEX_POINT('',#1807);
#545=VERTEX_POINT('',#1811);
#546=VERTEX_POINT('',#1812);
#547=VERTEX_POINT('',#1814);
#548=VERTEX_POINT('',#1816);
#549=VERTEX_POINT('',#1820);
#550=VERTEX_POINT('',#1822);
#551=VERTEX_POINT('',#1831);
#552=VERTEX_POINT('',#1832);
#553=VERTEX_POINT('',#1834);
#554=VERTEX_POINT('',#1836);
#555=VERTEX_POINT('',#1846);
#556=VERTEX_POINT('',#1848);
#557=VERTEX_POINT('',#1852);
#558=VERTEX_POINT('',#1854);
#559=VERTEX_POINT('',#1879);
#560=VERTEX_POINT('',#1881);
#561=VERTEX_POINT('',#1883);
#562=VERTEX_POINT('',#1885);
#563=VERTEX_POINT('',#1887);
#564=VERTEX_POINT('',#1889);
#565=VERTEX_POINT('',#1891);
#566=VERTEX_POINT('',#1893);
#567=VERTEX_POINT('',#1895);
#568=VERTEX_POINT('',#1897);
#569=VERTEX_POINT('',#1899);
#570=VERTEX_POINT('',#1901);
#571=VERTEX_POINT('',#1903);
#572=VERTEX_POINT('',#1908);
#573=VERTEX_POINT('',#1910);
#574=VERTEX_POINT('',#1912);
#575=VERTEX_POINT('',#1916);
#576=VERTEX_POINT('',#1919);
#577=VERTEX_POINT('',#1921);
#578=VERTEX_POINT('',#1925);
#579=VERTEX_POINT('',#1929);
#580=EDGE_CURVE('',#480,#481,#306,.T.);
#581=EDGE_CURVE('',#481,#482,#307,.T.);
#582=EDGE_CURVE('',#483,#482,#308,.T.);
#583=EDGE_CURVE('',#484,#483,#232,.T.);
#584=EDGE_CURVE('',#485,#484,#309,.T.);
#585=EDGE_CURVE('',#485,#486,#310,.T.);
#586=EDGE_CURVE('',#486,#487,#311,.T.);
#587=EDGE_CURVE('',#487,#480,#312,.T.);
#588=EDGE_CURVE('',#488,#489,#313,.T.);
#589=EDGE_CURVE('',#490,#489,#314,.T.);
#590=EDGE_CURVE('',#490,#491,#315,.T.);
#591=EDGE_CURVE('',#492,#491,#316,.T.);
#592=EDGE_CURVE('',#493,#492,#317,.T.);
#593=EDGE_CURVE('',#493,#494,#318,.T.);
#594=EDGE_CURVE('',#495,#494,#319,.T.);
#595=EDGE_CURVE('',#495,#496,#320,.T.);
#596=EDGE_CURVE('',#497,#496,#321,.T.);
#597=EDGE_CURVE('',#498,#497,#322,.T.);
#598=EDGE_CURVE('',#483,#498,#323,.T.);
#599=EDGE_CURVE('',#482,#488,#324,.T.);
#600=EDGE_CURVE('',#499,#500,#325,.T.);
#601=EDGE_CURVE('',#492,#500,#326,.T.);
#602=EDGE_CURVE('',#501,#492,#233,.T.);
#603=EDGE_CURVE('',#502,#501,#327,.T.);
#604=EDGE_CURVE('',#502,#503,#328,.T.);
#605=EDGE_CURVE('',#503,#504,#329,.T.);
#606=EDGE_CURVE('',#505,#504,#330,.T.);
#607=EDGE_CURVE('',#489,#505,#234,.T.);
#608=EDGE_CURVE('',#488,#499,#331,.T.);
#609=EDGE_CURVE('',#506,#506,#235,.T.);
#610=EDGE_CURVE('',#507,#507,#236,.T.);
#611=EDGE_CURVE('',#508,#508,#237,.T.);
#612=EDGE_CURVE('',#509,#510,#238,.T.);
#613=EDGE_CURVE('',#511,#509,#332,.T.);
#614=EDGE_CURVE('',#512,#511,#239,.T.);
#615=EDGE_CURVE('',#513,#512,#333,.T.);
#616=EDGE_CURVE('',#514,#513,#240,.T.);
#617=EDGE_CURVE('',#515,#514,#334,.T.);
#618=EDGE_CURVE('',#516,#515,#241,.T.);
#619=EDGE_CURVE('',#510,#516,#335,.T.);
#620=EDGE_CURVE('',#517,#517,#242,.T.);
#621=EDGE_CURVE('',#518,#518,#243,.T.);
#622=EDGE_CURVE('',#519,#519,#244,.T.);
#623=EDGE_CURVE('',#520,#520,#245,.T.);
#624=EDGE_CURVE('',#521,#521,#246,.T.);
#625=EDGE_CURVE('',#522,#522,#247,.T.);
#626=EDGE_CURVE('',#523,#523,#248,.T.);
#627=EDGE_CURVE('',#524,#524,#249,.T.);
#628=EDGE_CURVE('',#525,#525,#250,.T.);
#629=EDGE_CURVE('',#526,#526,#251,.T.);
#630=EDGE_CURVE('',#484,#527,#336,.T.);
#631=EDGE_CURVE('',#527,#528,#337,.T.);
#632=EDGE_CURVE('',#529,#528,#338,.T.);
#633=EDGE_CURVE('',#529,#530,#339,.T.);
#634=EDGE_CURVE('',#531,#530,#340,.T.);
#635=EDGE_CURVE('',#531,#532,#341,.T.);
#636=EDGE_CURVE('',#501,#532,#342,.T.);
#637=EDGE_CURVE('',#533,#501,#343,.T.);
#638=EDGE_CURVE('',#534,#533,#344,.T.);
#639=EDGE_CURVE('',#534,#505,#345,.T.);
#640=EDGE_CURVE('',#504,#485,#346,.T.);
#641=EDGE_CURVE('',#503,#486,#347,.T.);
#642=EDGE_CURVE('',#481,#499,#348,.T.);
#643=EDGE_CURVE('',#527,#498,#252,.T.);
#644=EDGE_CURVE('',#490,#534,#253,.T.);
#645=EDGE_CURVE('',#535,#536,#254,.F.);
#646=EDGE_CURVE('',#537,#535,#255,.T.);
#647=EDGE_CURVE('',#537,#538,#256,.T.);
#648=EDGE_CURVE('',#536,#538,#257,.T.);
#649=EDGE_CURVE('',#539,#540,#258,.F.);
#650=EDGE_CURVE('',#541,#539,#259,.T.);
#651=EDGE_CURVE('',#541,#542,#260,.T.);
#652=EDGE_CURVE('',#540,#542,#261,.T.);
#653=EDGE_CURVE('',#538,#541,#349,.T.);
#654=EDGE_CURVE('',#539,#536,#350,.T.);
#655=EDGE_CURVE('',#543,#513,#262,.T.);
#656=EDGE_CURVE('',#544,#543,#263,.F.);
#657=EDGE_CURVE('',#514,#544,#264,.T.);
#658=EDGE_CURVE('',#545,#546,#265,.F.);
#659=EDGE_CURVE('',#547,#545,#266,.T.);
#660=EDGE_CURVE('',#547,#548,#267,.T.);
#661=EDGE_CURVE('',#546,#548,#268,.T.);
#662=EDGE_CURVE('',#549,#515,#269,.T.);
#663=EDGE_CURVE('',#550,#549,#270,.F.);
#664=EDGE_CURVE('',#516,#550,#271,.T.);
#665=EDGE_CURVE('',#544,#549,#351,.T.);
#666=EDGE_CURVE('',#549,#539,#352,.T.);
#667=EDGE_CURVE('',#540,#550,#353,.T.);
#668=EDGE_CURVE('',#551,#552,#272,.F.);
#669=EDGE_CURVE('',#553,#551,#273,.T.);
#670=EDGE_CURVE('',#553,#554,#274,.T.);
#671=EDGE_CURVE('',#552,#554,#275,.T.);
#672=EDGE_CURVE('',#542,#553,#354,.T.);
#673=EDGE_CURVE('',#551,#540,#355,.T.);
#674=EDGE_CURVE('',#554,#547,#356,.T.);
#675=EDGE_CURVE('',#545,#552,#357,.T.);
#676=EDGE_CURVE('',#555,#511,#276,.T.);
#677=EDGE_CURVE('',#556,#555,#277,.F.);
#678=EDGE_CURVE('',#512,#556,#278,.T.);
#679=EDGE_CURVE('',#557,#510,#279,.T.);
#680=EDGE_CURVE('',#558,#557,#280,.F.);
#681=EDGE_CURVE('',#509,#558,#281,.T.);
#682=EDGE_CURVE('',#550,#557,#358,.T.);
#683=EDGE_CURVE('',#557,#551,#359,.T.);
#684=EDGE_CURVE('',#552,#558,#360,.T.);
#685=EDGE_CURVE('',#558,#555,#361,.T.);
#686=EDGE_CURVE('',#555,#545,#362,.T.);
#687=EDGE_CURVE('',#546,#556,#363,.T.);
#688=EDGE_CURVE('',#556,#543,#364,.T.);
#689=EDGE_CURVE('',#548,#537,#365,.T.);
#690=EDGE_CURVE('',#535,#546,#366,.T.);
#691=EDGE_CURVE('',#543,#535,#367,.T.);
#692=EDGE_CURVE('',#536,#544,#368,.T.);
#693=EDGE_CURVE('',#491,#533,#282,.T.);
#694=EDGE_CURVE('',#559,#559,#283,.T.);
#695=EDGE_CURVE('',#560,#560,#284,.T.);
#696=EDGE_CURVE('',#561,#561,#285,.T.);
#697=EDGE_CURVE('',#562,#562,#286,.T.);
#698=EDGE_CURVE('',#563,#563,#287,.T.);
#699=EDGE_CURVE('',#564,#564,#288,.T.);
#700=EDGE_CURVE('',#565,#565,#289,.T.);
#701=EDGE_CURVE('',#566,#566,#290,.T.);
#702=EDGE_CURVE('',#567,#567,#291,.T.);
#703=EDGE_CURVE('',#568,#568,#292,.T.);
#704=EDGE_CURVE('',#569,#569,#293,.T.);
#705=EDGE_CURVE('',#570,#570,#294,.T.);
#706=EDGE_CURVE('',#571,#571,#295,.T.);
#707=EDGE_CURVE('',#572,#531,#296,.T.);
#708=EDGE_CURVE('',#530,#573,#297,.T.);
#709=EDGE_CURVE('',#574,#573,#298,.T.);
#710=EDGE_CURVE('',#574,#572,#369,.T.);
#711=EDGE_CURVE('',#575,#572,#370,.T.);
#712=EDGE_CURVE('',#494,#575,#299,.T.);
#713=EDGE_CURVE('',#576,#493,#371,.T.);
#714=EDGE_CURVE('',#576,#577,#372,.T.);
#715=EDGE_CURVE('',#532,#577,#373,.T.);
#716=EDGE_CURVE('',#578,#574,#374,.T.);
#717=EDGE_CURVE('',#575,#578,#375,.T.);
#718=EDGE_CURVE('',#579,#495,#300,.T.);
#719=EDGE_CURVE('',#578,#579,#301,.F.);
#720=EDGE_CURVE('',#496,#579,#302,.T.);
#721=EDGE_CURVE('',#573,#529,#303,.T.);
#722=EDGE_CURVE('',#577,#487,#376,.T.);
#723=EDGE_CURVE('',#480,#576,#377,.T.);
#724=EDGE_CURVE('',#576,#500,#378,.T.);
#725=EDGE_CURVE('',#579,#573,#304,.T.);
#726=EDGE_CURVE('',#502,#577,#379,.T.);
#727=EDGE_CURVE('',#528,#497,#305,.T.);
#728=EDGE_CURVE('',#559,#526,#380,.T.);
#729=EDGE_CURVE('',#571,#517,#381,.T.);
#730=EDGE_CURVE('',#570,#518,#382,.T.);
#731=EDGE_CURVE('',#569,#519,#383,.T.);
#732=EDGE_CURVE('',#568,#520,#384,.T.);
#733=EDGE_CURVE('',#567,#508,#385,.T.);
#734=EDGE_CURVE('',#566,#521,#386,.T.);
#735=EDGE_CURVE('',#565,#507,#387,.T.);
#736=EDGE_CURVE('',#564,#522,#388,.T.);
#737=EDGE_CURVE('',#563,#523,#389,.T.);
#738=EDGE_CURVE('',#562,#524,#390,.T.);
#739=EDGE_CURVE('',#561,#506,#391,.T.);
#740=EDGE_CURVE('',#560,#525,#392,.T.);
#741=ORIENTED_EDGE('',*,*,#580,.T.);
#742=ORIENTED_EDGE('',*,*,#581,.T.);
#743=ORIENTED_EDGE('',*,*,#582,.F.);
#744=ORIENTED_EDGE('',*,*,#583,.F.);
#745=ORIENTED_EDGE('',*,*,#584,.F.);
#746=ORIENTED_EDGE('',*,*,#585,.T.);
#747=ORIENTED_EDGE('',*,*,#586,.T.);
#748=ORIENTED_EDGE('',*,*,#587,.T.);
#749=ORIENTED_EDGE('',*,*,#588,.T.);
#750=ORIENTED_EDGE('',*,*,#589,.F.);
#751=ORIENTED_EDGE('',*,*,#590,.T.);
#752=ORIENTED_EDGE('',*,*,#591,.F.);
#753=ORIENTED_EDGE('',*,*,#592,.F.);
#754=ORIENTED_EDGE('',*,*,#593,.T.);
#755=ORIENTED_EDGE('',*,*,#594,.F.);
#756=ORIENTED_EDGE('',*,*,#595,.T.);
#757=ORIENTED_EDGE('',*,*,#596,.F.);
#758=ORIENTED_EDGE('',*,*,#597,.F.);
#759=ORIENTED_EDGE('',*,*,#598,.F.);
#760=ORIENTED_EDGE('',*,*,#582,.T.);
#761=ORIENTED_EDGE('',*,*,#599,.T.);
#762=ORIENTED_EDGE('',*,*,#600,.T.);
#763=ORIENTED_EDGE('',*,*,#601,.F.);
#764=ORIENTED_EDGE('',*,*,#602,.F.);
#765=ORIENTED_EDGE('',*,*,#603,.F.);
#766=ORIENTED_EDGE('',*,*,#604,.T.);
#767=ORIENTED_EDGE('',*,*,#605,.T.);
#768=ORIENTED_EDGE('',*,*,#606,.F.);
#769=ORIENTED_EDGE('',*,*,#607,.F.);
#770=ORIENTED_EDGE('',*,*,#588,.F.);
#771=ORIENTED_EDGE('',*,*,#608,.T.);
#772=ORIENTED_EDGE('',*,*,#609,.T.);
#773=ORIENTED_EDGE('',*,*,#610,.T.);
#774=ORIENTED_EDGE('',*,*,#611,.T.);
#775=ORIENTED_EDGE('',*,*,#612,.F.);
#776=ORIENTED_EDGE('',*,*,#613,.F.);
#777=ORIENTED_EDGE('',*,*,#614,.F.);
#778=ORIENTED_EDGE('',*,*,#615,.F.);
#779=ORIENTED_EDGE('',*,*,#616,.F.);
#780=ORIENTED_EDGE('',*,*,#617,.F.);
#781=ORIENTED_EDGE('',*,*,#618,.F.);
#782=ORIENTED_EDGE('',*,*,#619,.F.);
#783=ORIENTED_EDGE('',*,*,#620,.T.);
#784=ORIENTED_EDGE('',*,*,#621,.T.);
#785=ORIENTED_EDGE('',*,*,#622,.T.);
#786=ORIENTED_EDGE('',*,*,#623,.T.);
#787=ORIENTED_EDGE('',*,*,#624,.T.);
#788=ORIENTED_EDGE('',*,*,#625,.T.);
#789=ORIENTED_EDGE('',*,*,#626,.T.);
#790=ORIENTED_EDGE('',*,*,#627,.T.);
#791=ORIENTED_EDGE('',*,*,#628,.T.);
#792=ORIENTED_EDGE('',*,*,#629,.T.);
#793=ORIENTED_EDGE('',*,*,#584,.T.);
#794=ORIENTED_EDGE('',*,*,#630,.T.);
#795=ORIENTED_EDGE('',*,*,#631,.T.);
#796=ORIENTED_EDGE('',*,*,#632,.F.);
#797=ORIENTED_EDGE('',*,*,#633,.T.);
#798=ORIENTED_EDGE('',*,*,#634,.F.);
#799=ORIENTED_EDGE('',*,*,#635,.T.);
#800=ORIENTED_EDGE('',*,*,#636,.F.);
#801=ORIENTED_EDGE('',*,*,#637,.F.);
#802=ORIENTED_EDGE('',*,*,#638,.F.);
#803=ORIENTED_EDGE('',*,*,#639,.T.);
#804=ORIENTED_EDGE('',*,*,#606,.T.);
#805=ORIENTED_EDGE('',*,*,#640,.T.);
#806=ORIENTED_EDGE('',*,*,#585,.F.);
#807=ORIENTED_EDGE('',*,*,#640,.F.);
#808=ORIENTED_EDGE('',*,*,#605,.F.);
#809=ORIENTED_EDGE('',*,*,#641,.T.);
#810=ORIENTED_EDGE('',*,*,#608,.F.);
#811=ORIENTED_EDGE('',*,*,#599,.F.);
#812=ORIENTED_EDGE('',*,*,#581,.F.);
#813=ORIENTED_EDGE('',*,*,#642,.T.);
#814=ORIENTED_EDGE('',*,*,#583,.T.);
#815=ORIENTED_EDGE('',*,*,#598,.T.);
#816=ORIENTED_EDGE('',*,*,#643,.F.);
#817=ORIENTED_EDGE('',*,*,#630,.F.);
#818=ORIENTED_EDGE('',*,*,#607,.T.);
#819=ORIENTED_EDGE('',*,*,#639,.F.);
#820=ORIENTED_EDGE('',*,*,#644,.F.);
#821=ORIENTED_EDGE('',*,*,#589,.T.);
#822=ORIENTED_EDGE('',*,*,#645,.F.);
#823=ORIENTED_EDGE('',*,*,#646,.F.);
#824=ORIENTED_EDGE('',*,*,#647,.T.);
#825=ORIENTED_EDGE('',*,*,#648,.F.);
#826=ORIENTED_EDGE('',*,*,#649,.F.);
#827=ORIENTED_EDGE('',*,*,#650,.F.);
#828=ORIENTED_EDGE('',*,*,#651,.T.);
#829=ORIENTED_EDGE('',*,*,#652,.F.);
#830=ORIENTED_EDGE('',*,*,#648,.T.);
#831=ORIENTED_EDGE('',*,*,#653,.T.);
#832=ORIENTED_EDGE('',*,*,#650,.T.);
#833=ORIENTED_EDGE('',*,*,#654,.T.);
#834=ORIENTED_EDGE('',*,*,#616,.T.);
#835=ORIENTED_EDGE('',*,*,#655,.F.);
#836=ORIENTED_EDGE('',*,*,#656,.F.);
#837=ORIENTED_EDGE('',*,*,#657,.F.);
#838=ORIENTED_EDGE('',*,*,#658,.F.);
#839=ORIENTED_EDGE('',*,*,#659,.F.);
#840=ORIENTED_EDGE('',*,*,#660,.T.);
#841=ORIENTED_EDGE('',*,*,#661,.F.);
#842=ORIENTED_EDGE('',*,*,#618,.T.);
#843=ORIENTED_EDGE('',*,*,#662,.F.);
#844=ORIENTED_EDGE('',*,*,#663,.F.);
#845=ORIENTED_EDGE('',*,*,#664,.F.);
#846=ORIENTED_EDGE('',*,*,#662,.T.);
#847=ORIENTED_EDGE('',*,*,#617,.T.);
#848=ORIENTED_EDGE('',*,*,#657,.T.);
#849=ORIENTED_EDGE('',*,*,#665,.T.);
#850=ORIENTED_EDGE('',*,*,#663,.T.);
#851=ORIENTED_EDGE('',*,*,#666,.T.);
#852=ORIENTED_EDGE('',*,*,#649,.T.);
#853=ORIENTED_EDGE('',*,*,#667,.T.);
#854=ORIENTED_EDGE('',*,*,#668,.F.);
#855=ORIENTED_EDGE('',*,*,#669,.F.);
#856=ORIENTED_EDGE('',*,*,#670,.T.);
#857=ORIENTED_EDGE('',*,*,#671,.F.);
#858=ORIENTED_EDGE('',*,*,#652,.T.);
#859=ORIENTED_EDGE('',*,*,#672,.T.);
#860=ORIENTED_EDGE('',*,*,#669,.T.);
#861=ORIENTED_EDGE('',*,*,#673,.T.);
#862=ORIENTED_EDGE('',*,*,#671,.T.);
#863=ORIENTED_EDGE('',*,*,#674,.T.);
#864=ORIENTED_EDGE('',*,*,#659,.T.);
#865=ORIENTED_EDGE('',*,*,#675,.T.);
#866=ORIENTED_EDGE('',*,*,#614,.T.);
#867=ORIENTED_EDGE('',*,*,#676,.F.);
#868=ORIENTED_EDGE('',*,*,#677,.F.);
#869=ORIENTED_EDGE('',*,*,#678,.F.);
#870=ORIENTED_EDGE('',*,*,#612,.T.);
#871=ORIENTED_EDGE('',*,*,#679,.F.);
#872=ORIENTED_EDGE('',*,*,#680,.F.);
#873=ORIENTED_EDGE('',*,*,#681,.F.);
#874=ORIENTED_EDGE('',*,*,#679,.T.);
#875=ORIENTED_EDGE('',*,*,#619,.T.);
#876=ORIENTED_EDGE('',*,*,#664,.T.);
#877=ORIENTED_EDGE('',*,*,#682,.T.);
#878=ORIENTED_EDGE('',*,*,#680,.T.);
#879=ORIENTED_EDGE('',*,*,#683,.T.);
#880=ORIENTED_EDGE('',*,*,#668,.T.);
#881=ORIENTED_EDGE('',*,*,#684,.T.);
#882=ORIENTED_EDGE('',*,*,#676,.T.);
#883=ORIENTED_EDGE('',*,*,#613,.T.);
#884=ORIENTED_EDGE('',*,*,#681,.T.);
#885=ORIENTED_EDGE('',*,*,#685,.T.);
#886=ORIENTED_EDGE('',*,*,#677,.T.);
#887=ORIENTED_EDGE('',*,*,#686,.T.);
#888=ORIENTED_EDGE('',*,*,#658,.T.);
#889=ORIENTED_EDGE('',*,*,#687,.T.);
#890=ORIENTED_EDGE('',*,*,#655,.T.);
#891=ORIENTED_EDGE('',*,*,#615,.T.);
#892=ORIENTED_EDGE('',*,*,#678,.T.);
#893=ORIENTED_EDGE('',*,*,#688,.T.);
#894=ORIENTED_EDGE('',*,*,#661,.T.);
#895=ORIENTED_EDGE('',*,*,#689,.T.);
#896=ORIENTED_EDGE('',*,*,#646,.T.);
#897=ORIENTED_EDGE('',*,*,#690,.T.);
#898=ORIENTED_EDGE('',*,*,#656,.T.);
#899=ORIENTED_EDGE('',*,*,#691,.T.);
#900=ORIENTED_EDGE('',*,*,#645,.T.);
#901=ORIENTED_EDGE('',*,*,#692,.T.);
#902=ORIENTED_EDGE('',*,*,#665,.F.);
#903=ORIENTED_EDGE('',*,*,#692,.F.);
#904=ORIENTED_EDGE('',*,*,#654,.F.);
#905=ORIENTED_EDGE('',*,*,#666,.F.);
#906=ORIENTED_EDGE('',*,*,#667,.F.);
#907=ORIENTED_EDGE('',*,*,#673,.F.);
#908=ORIENTED_EDGE('',*,*,#683,.F.);
#909=ORIENTED_EDGE('',*,*,#682,.F.);
#910=ORIENTED_EDGE('',*,*,#638,.T.);
#911=ORIENTED_EDGE('',*,*,#693,.F.);
#912=ORIENTED_EDGE('',*,*,#590,.F.);
#913=ORIENTED_EDGE('',*,*,#644,.T.);
#914=ORIENTED_EDGE('',*,*,#694,.T.);
#915=ORIENTED_EDGE('',*,*,#695,.T.);
#916=ORIENTED_EDGE('',*,*,#696,.T.);
#917=ORIENTED_EDGE('',*,*,#697,.T.);
#918=ORIENTED_EDGE('',*,*,#698,.T.);
#919=ORIENTED_EDGE('',*,*,#699,.T.);
#920=ORIENTED_EDGE('',*,*,#700,.T.);
#921=ORIENTED_EDGE('',*,*,#701,.T.);
#922=ORIENTED_EDGE('',*,*,#702,.T.);
#923=ORIENTED_EDGE('',*,*,#703,.T.);
#924=ORIENTED_EDGE('',*,*,#704,.T.);
#925=ORIENTED_EDGE('',*,*,#705,.T.);
#926=ORIENTED_EDGE('',*,*,#706,.T.);
#927=ORIENTED_EDGE('',*,*,#670,.F.);
#928=ORIENTED_EDGE('',*,*,#672,.F.);
#929=ORIENTED_EDGE('',*,*,#651,.F.);
#930=ORIENTED_EDGE('',*,*,#653,.F.);
#931=ORIENTED_EDGE('',*,*,#647,.F.);
#932=ORIENTED_EDGE('',*,*,#689,.F.);
#933=ORIENTED_EDGE('',*,*,#660,.F.);
#934=ORIENTED_EDGE('',*,*,#674,.F.);
#935=ORIENTED_EDGE('',*,*,#675,.F.);
#936=ORIENTED_EDGE('',*,*,#686,.F.);
#937=ORIENTED_EDGE('',*,*,#685,.F.);
#938=ORIENTED_EDGE('',*,*,#684,.F.);
#939=ORIENTED_EDGE('',*,*,#687,.F.);
#940=ORIENTED_EDGE('',*,*,#690,.F.);
#941=ORIENTED_EDGE('',*,*,#691,.F.);
#942=ORIENTED_EDGE('',*,*,#688,.F.);
#943=ORIENTED_EDGE('',*,*,#707,.T.);
#944=ORIENTED_EDGE('',*,*,#634,.T.);
#945=ORIENTED_EDGE('',*,*,#708,.T.);
#946=ORIENTED_EDGE('',*,*,#709,.F.);
#947=ORIENTED_EDGE('',*,*,#710,.T.);
#948=ORIENTED_EDGE('',*,*,#707,.F.);
#949=ORIENTED_EDGE('',*,*,#711,.F.);
#950=ORIENTED_EDGE('',*,*,#712,.F.);
#951=ORIENTED_EDGE('',*,*,#593,.F.);
#952=ORIENTED_EDGE('',*,*,#713,.F.);
#953=ORIENTED_EDGE('',*,*,#714,.T.);
#954=ORIENTED_EDGE('',*,*,#715,.F.);
#955=ORIENTED_EDGE('',*,*,#635,.F.);
#956=ORIENTED_EDGE('',*,*,#710,.F.);
#957=ORIENTED_EDGE('',*,*,#716,.F.);
#958=ORIENTED_EDGE('',*,*,#717,.F.);
#959=ORIENTED_EDGE('',*,*,#711,.T.);
#960=ORIENTED_EDGE('',*,*,#718,.T.);
#961=ORIENTED_EDGE('',*,*,#594,.T.);
#962=ORIENTED_EDGE('',*,*,#712,.T.);
#963=ORIENTED_EDGE('',*,*,#717,.T.);
#964=ORIENTED_EDGE('',*,*,#719,.T.);
#965=ORIENTED_EDGE('',*,*,#718,.F.);
#966=ORIENTED_EDGE('',*,*,#720,.F.);
#967=ORIENTED_EDGE('',*,*,#595,.F.);
#968=ORIENTED_EDGE('',*,*,#708,.F.);
#969=ORIENTED_EDGE('',*,*,#633,.F.);
#970=ORIENTED_EDGE('',*,*,#721,.F.);
#971=ORIENTED_EDGE('',*,*,#722,.F.);
#972=ORIENTED_EDGE('',*,*,#714,.F.);
#973=ORIENTED_EDGE('',*,*,#723,.F.);
#974=ORIENTED_EDGE('',*,*,#587,.F.);
#975=ORIENTED_EDGE('',*,*,#713,.T.);
#976=ORIENTED_EDGE('',*,*,#592,.T.);
#977=ORIENTED_EDGE('',*,*,#601,.T.);
#978=ORIENTED_EDGE('',*,*,#724,.F.);
#979=ORIENTED_EDGE('',*,*,#716,.T.);
#980=ORIENTED_EDGE('',*,*,#709,.T.);
#981=ORIENTED_EDGE('',*,*,#725,.F.);
#982=ORIENTED_EDGE('',*,*,#719,.F.);
#983=ORIENTED_EDGE('',*,*,#715,.T.);
#984=ORIENTED_EDGE('',*,*,#726,.F.);
#985=ORIENTED_EDGE('',*,*,#603,.T.);
#986=ORIENTED_EDGE('',*,*,#636,.T.);
#987=ORIENTED_EDGE('',*,*,#604,.F.);
#988=ORIENTED_EDGE('',*,*,#726,.T.);
#989=ORIENTED_EDGE('',*,*,#722,.T.);
#990=ORIENTED_EDGE('',*,*,#586,.F.);
#991=ORIENTED_EDGE('',*,*,#641,.F.);
#992=ORIENTED_EDGE('',*,*,#720,.T.);
#993=ORIENTED_EDGE('',*,*,#725,.T.);
#994=ORIENTED_EDGE('',*,*,#721,.T.);
#995=ORIENTED_EDGE('',*,*,#632,.T.);
#996=ORIENTED_EDGE('',*,*,#727,.T.);
#997=ORIENTED_EDGE('',*,*,#596,.T.);
#998=ORIENTED_EDGE('',*,*,#602,.T.);
#999=ORIENTED_EDGE('',*,*,#591,.T.);
#1000=ORIENTED_EDGE('',*,*,#693,.T.);
#1001=ORIENTED_EDGE('',*,*,#637,.T.);
#1002=ORIENTED_EDGE('',*,*,#694,.F.);
#1003=ORIENTED_EDGE('',*,*,#728,.T.);
#1004=ORIENTED_EDGE('',*,*,#629,.F.);
#1005=ORIENTED_EDGE('',*,*,#728,.F.);
#1006=ORIENTED_EDGE('',*,*,#706,.F.);
#1007=ORIENTED_EDGE('',*,*,#729,.T.);
#1008=ORIENTED_EDGE('',*,*,#620,.F.);
#1009=ORIENTED_EDGE('',*,*,#729,.F.);
#1010=ORIENTED_EDGE('',*,*,#705,.F.);
#1011=ORIENTED_EDGE('',*,*,#730,.T.);
#1012=ORIENTED_EDGE('',*,*,#621,.F.);
#1013=ORIENTED_EDGE('',*,*,#730,.F.);
#1014=ORIENTED_EDGE('',*,*,#704,.F.);
#1015=ORIENTED_EDGE('',*,*,#731,.T.);
#1016=ORIENTED_EDGE('',*,*,#622,.F.);
#1017=ORIENTED_EDGE('',*,*,#731,.F.);
#1018=ORIENTED_EDGE('',*,*,#703,.F.);
#1019=ORIENTED_EDGE('',*,*,#732,.T.);
#1020=ORIENTED_EDGE('',*,*,#623,.F.);
#1021=ORIENTED_EDGE('',*,*,#732,.F.);
#1022=ORIENTED_EDGE('',*,*,#702,.F.);
#1023=ORIENTED_EDGE('',*,*,#733,.T.);
#1024=ORIENTED_EDGE('',*,*,#611,.F.);
#1025=ORIENTED_EDGE('',*,*,#733,.F.);
#1026=ORIENTED_EDGE('',*,*,#701,.F.);
#1027=ORIENTED_EDGE('',*,*,#734,.T.);
#1028=ORIENTED_EDGE('',*,*,#624,.F.);
#1029=ORIENTED_EDGE('',*,*,#734,.F.);
#1030=ORIENTED_EDGE('',*,*,#700,.F.);
#1031=ORIENTED_EDGE('',*,*,#735,.T.);
#1032=ORIENTED_EDGE('',*,*,#610,.F.);
#1033=ORIENTED_EDGE('',*,*,#735,.F.);
#1034=ORIENTED_EDGE('',*,*,#699,.F.);
#1035=ORIENTED_EDGE('',*,*,#736,.T.);
#1036=ORIENTED_EDGE('',*,*,#625,.F.);
#1037=ORIENTED_EDGE('',*,*,#736,.F.);
#1038=ORIENTED_EDGE('',*,*,#698,.F.);
#1039=ORIENTED_EDGE('',*,*,#737,.T.);
#1040=ORIENTED_EDGE('',*,*,#626,.F.);
#1041=ORIENTED_EDGE('',*,*,#737,.F.);
#1042=ORIENTED_EDGE('',*,*,#697,.F.);
#1043=ORIENTED_EDGE('',*,*,#738,.T.);
#1044=ORIENTED_EDGE('',*,*,#627,.F.);
#1045=ORIENTED_EDGE('',*,*,#738,.F.);
#1046=ORIENTED_EDGE('',*,*,#696,.F.);
#1047=ORIENTED_EDGE('',*,*,#739,.T.);
#1048=ORIENTED_EDGE('',*,*,#609,.F.);
#1049=ORIENTED_EDGE('',*,*,#739,.F.);
#1050=ORIENTED_EDGE('',*,*,#695,.F.);
#1051=ORIENTED_EDGE('',*,*,#740,.T.);
#1052=ORIENTED_EDGE('',*,*,#628,.F.);
#1053=ORIENTED_EDGE('',*,*,#740,.F.);
#1054=ORIENTED_EDGE('',*,*,#580,.F.);
#1055=ORIENTED_EDGE('',*,*,#723,.T.);
#1056=ORIENTED_EDGE('',*,*,#724,.T.);
#1057=ORIENTED_EDGE('',*,*,#600,.F.);
#1058=ORIENTED_EDGE('',*,*,#642,.F.);
#1059=ORIENTED_EDGE('',*,*,#597,.T.);
#1060=ORIENTED_EDGE('',*,*,#727,.F.);
#1061=ORIENTED_EDGE('',*,*,#631,.F.);
#1062=ORIENTED_EDGE('',*,*,#643,.T.);
#1063=PLANE('',#1160);
#1064=PLANE('',#1162);
#1065=PLANE('',#1163);
#1066=PLANE('',#1183);
#1067=PLANE('',#1184);
#1068=PLANE('',#1185);
#1069=PLANE('',#1238);
#1070=PLANE('',#1239);
#1071=PLANE('',#1240);
#1072=PLANE('',#1255);
#1073=PLANE('',#1256);
#1074=PLANE('',#1261);
#1075=PLANE('',#1263);
#1076=PLANE('',#1267);
#1077=PLANE('',#1269);
#1078=PLANE('',#1271);
#1079=PLANE('',#1272);
#1080=PLANE('',#1273);
#1081=PLANE('',#1275);
#1082=PLANE('',#1276);
#1083=PLANE('',#1293);
#1084=PLANE('',#1294);
#1085=ADVANCED_FACE('',(#82),#1063,.T.);
#1086=ADVANCED_FACE('',(#83),#1064,.T.);
#1087=ADVANCED_FACE('',(#84,#54,#55,#56,#57,#58,#59,#60,#61,#62,#63,#64,
#65,#66,#67),#1065,.T.);
#1088=ADVANCED_FACE('',(#85),#1066,.T.);
#1089=ADVANCED_FACE('',(#86),#1067,.F.);
#1090=ADVANCED_FACE('',(#87),#1068,.F.);
#1091=ADVANCED_FACE('',(#88),#23,.T.);
#1092=ADVANCED_FACE('',(#89),#24,.T.);
#1093=ADVANCED_FACE('',(#90),#15,.T.);
#1094=ADVANCED_FACE('',(#91),#16,.T.);
#1095=ADVANCED_FACE('',(#92),#25,.T.);
#1096=ADVANCED_FACE('',(#93),#17,.T.);
#1097=ADVANCED_FACE('',(#94),#18,.T.);
#1098=ADVANCED_FACE('',(#95),#19,.T.);
#1099=ADVANCED_FACE('',(#96),#26,.T.);
#1100=ADVANCED_FACE('',(#97),#27,.F.);
#1101=ADVANCED_FACE('',(#98),#20,.T.);
#1102=ADVANCED_FACE('',(#99),#28,.T.);
#1103=ADVANCED_FACE('',(#100),#29,.T.);
#1104=ADVANCED_FACE('',(#101),#21,.T.);
#1105=ADVANCED_FACE('',(#102),#22,.T.);
#1106=ADVANCED_FACE('',(#103),#30,.T.);
#1107=ADVANCED_FACE('',(#104),#31,.F.);
#1108=ADVANCED_FACE('',(#105),#32,.T.);
#1109=ADVANCED_FACE('',(#106),#33,.F.);
#1110=ADVANCED_FACE('',(#107),#34,.T.);
#1111=ADVANCED_FACE('',(#108),#35,.T.);
#1112=ADVANCED_FACE('',(#109),#36,.F.);
#1113=ADVANCED_FACE('',(#110),#1069,.F.);
#1114=ADVANCED_FACE('',(#111),#1070,.F.);
#1115=ADVANCED_FACE('',(#112,#68,#69,#70,#71,#72,#73,#74,#75,#76,#77,#78,
#79,#80,#81),#1071,.T.);
#1116=ADVANCED_FACE('',(#113),#1072,.F.);
#1117=ADVANCED_FACE('',(#114),#1073,.F.);
#1118=ADVANCED_FACE('',(#115),#37,.T.);
#1119=ADVANCED_FACE('',(#116),#1074,.T.);
#1120=ADVANCED_FACE('',(#117),#1075,.T.);
#1121=ADVANCED_FACE('',(#118),#38,.T.);
#1122=ADVANCED_FACE('',(#119),#1076,.T.);
#1123=ADVANCED_FACE('',(#120),#1077,.T.);
#1124=ADVANCED_FACE('',(#121),#1078,.T.);
#1125=ADVANCED_FACE('',(#122),#1079,.F.);
#1126=ADVANCED_FACE('',(#123),#1080,.T.);
#1127=ADVANCED_FACE('',(#124),#1081,.F.);
#1128=ADVANCED_FACE('',(#125),#1082,.T.);
#1129=ADVANCED_FACE('',(#126),#39,.T.);
#1130=ADVANCED_FACE('',(#127),#40,.T.);
#1131=ADVANCED_FACE('',(#128),#41,.F.);
#1132=ADVANCED_FACE('',(#129),#42,.F.);
#1133=ADVANCED_FACE('',(#130),#43,.F.);
#1134=ADVANCED_FACE('',(#131),#44,.F.);
#1135=ADVANCED_FACE('',(#132),#45,.F.);
#1136=ADVANCED_FACE('',(#133),#46,.F.);
#1137=ADVANCED_FACE('',(#134),#47,.F.);
#1138=ADVANCED_FACE('',(#135),#48,.F.);
#1139=ADVANCED_FACE('',(#136),#49,.F.);
#1140=ADVANCED_FACE('',(#137),#50,.F.);
#1141=ADVANCED_FACE('',(#138),#51,.F.);
#1142=ADVANCED_FACE('',(#139),#52,.F.);
#1143=ADVANCED_FACE('',(#140),#53,.F.);
#1144=ADVANCED_FACE('',(#141),#1083,.T.);
#1145=ADVANCED_FACE('',(#142),#1084,.T.);
#1146=CLOSED_SHELL('',(#1085,#1086,#1087,#1088,#1089,#1090,#1091,#1092,
#1093,#1094,#1095,#1096,#1097,#1098,#1099,#1100,#1101,#1102,#1103,#1104,
#1105,#1106,#1107,#1108,#1109,#1110,#1111,#1112,#1113,#1114,#1115,#1116,
#1117,#1118,#1119,#1120,#1121,#1122,#1123,#1124,#1125,#1126,#1127,#1128,
#1129,#1130,#1131,#1132,#1133,#1134,#1135,#1136,#1137,#1138,#1139,#1140,
#1141,#1142,#1143,#1144,#1145));
#1147=DERIVED_UNIT_ELEMENT(#1149,1.);
#1148=DERIVED_UNIT_ELEMENT(#1982,-3.);
#1149=(
MASS_UNIT()
NAMED_UNIT(*)
SI_UNIT(.KILO.,.GRAM.)
);
#1150=DERIVED_UNIT((#1147,#1148));
#1151=MEASURE_REPRESENTATION_ITEM('density measure',
POSITIVE_RATIO_MEASURE(7850.),#1150);
#1152=PROPERTY_DEFINITION_REPRESENTATION(#1157,#1154);
#1153=PROPERTY_DEFINITION_REPRESENTATION(#1158,#1155);
#1154=REPRESENTATION('material name',(#1156),#1979);
#1155=REPRESENTATION('density',(#1151),#1979);
#1156=DESCRIPTIVE_REPRESENTATION_ITEM('Steel','Steel');
#1157=PROPERTY_DEFINITION('material property','material name',#1989);
#1158=PROPERTY_DEFINITION('material property','density of part',#1989);
#1159=AXIS2_PLACEMENT_3D('',#1654,#1295,#1296);
#1160=AXIS2_PLACEMENT_3D('',#1655,#1297,#1298);
#1161=AXIS2_PLACEMENT_3D('',#1664,#1302,#1303);
#1162=AXIS2_PLACEMENT_3D('',#1672,#1308,#1309);
#1163=AXIS2_PLACEMENT_3D('',#1696,#1322,#1323);
#1164=AXIS2_PLACEMENT_3D('',#1702,#1326,#1327);
#1165=AXIS2_PLACEMENT_3D('',#1711,#1332,#1333);
#1166=AXIS2_PLACEMENT_3D('',#1714,#1335,#1336);
#1167=AXIS2_PLACEMENT_3D('',#1716,#1337,#1338);
#1168=AXIS2_PLACEMENT_3D('',#1718,#1339,#1340);
#1169=AXIS2_PLACEMENT_3D('',#1721,#1341,#1342);
#1170=AXIS2_PLACEMENT_3D('',#1725,#1344,#1345);
#1171=AXIS2_PLACEMENT_3D('',#1729,#1347,#1348);
#1172=AXIS2_PLACEMENT_3D('',#1733,#1350,#1351);
#1173=AXIS2_PLACEMENT_3D('',#1736,#1353,#1354);
#1174=AXIS2_PLACEMENT_3D('',#1738,#1355,#1356);
#1175=AXIS2_PLACEMENT_3D('',#1740,#1357,#1358);
#1176=AXIS2_PLACEMENT_3D('',#1742,#1359,#1360);
#1177=AXIS2_PLACEMENT_3D('',#1744,#1361,#1362);
#1178=AXIS2_PLACEMENT_3D('',#1746,#1363,#1364);
#1179=AXIS2_PLACEMENT_3D('',#1748,#1365,#1366);
#1180=AXIS2_PLACEMENT_3D('',#1750,#1367,#1368);
#1181=AXIS2_PLACEMENT_3D('',#1752,#1369,#1370);
#1182=AXIS2_PLACEMENT_3D('',#1754,#1371,#1372);
#1183=AXIS2_PLACEMENT_3D('',#1755,#1373,#1374);
#1184=AXIS2_PLACEMENT_3D('',#1775,#1386,#1387);
#1185=AXIS2_PLACEMENT_3D('',#1777,#1389,#1390);
#1186=AXIS2_PLACEMENT_3D('',#1779,#1392,#1393);
#1187=AXIS2_PLACEMENT_3D('',#1780,#1394,#1395);
#1188=AXIS2_PLACEMENT_3D('',#1781,#1396,#1397);
#1189=AXIS2_PLACEMENT_3D('',#1782,#1398,#1399);
#1190=AXIS2_PLACEMENT_3D('',#1783,#1400,#1401);
#1191=AXIS2_PLACEMENT_3D('',#1786,#1402,#1403);
#1192=AXIS2_PLACEMENT_3D('',#1788,#1404,#1405);
#1193=AXIS2_PLACEMENT_3D('',#1790,#1406,#1407);
#1194=AXIS2_PLACEMENT_3D('',#1791,#1408,#1409);
#1195=AXIS2_PLACEMENT_3D('',#1792,#1410,#1411);
#1196=AXIS2_PLACEMENT_3D('',#1795,#1412,#1413);
#1197=AXIS2_PLACEMENT_3D('',#1797,#1414,#1415);
#1198=AXIS2_PLACEMENT_3D('',#1799,#1416,#1417);
#1199=AXIS2_PLACEMENT_3D('',#1800,#1418,#1419);
#1200=AXIS2_PLACEMENT_3D('',#1801,#1420,#1421);
#1201=AXIS2_PLACEMENT_3D('',#1804,#1424,#1425);
#1202=AXIS2_PLACEMENT_3D('',#1806,#1426,#1427);
#1203=AXIS2_PLACEMENT_3D('',#1808,#1428,#1429);
#1204=AXIS2_PLACEMENT_3D('',#1809,#1430,#1431);
#1205=AXIS2_PLACEMENT_3D('',#1810,#1432,#1433);
#1206=AXIS2_PLACEMENT_3D('',#1813,#1434,#1435);
#1207=AXIS2_PLACEMENT_3D('',#1815,#1436,#1437);
#1208=AXIS2_PLACEMENT_3D('',#1817,#1438,#1439);
#1209=AXIS2_PLACEMENT_3D('',#1818,#1440,#1441);
#1210=AXIS2_PLACEMENT_3D('',#1819,#1442,#1443);
#1211=AXIS2_PLACEMENT_3D('',#1821,#1444,#1445);
#1212=AXIS2_PLACEMENT_3D('',#1823,#1446,#1447);
#1213=AXIS2_PLACEMENT_3D('',#1824,#1448,#1449);
#1214=AXIS2_PLACEMENT_3D('',#1825,#1450,#1451);
#1215=AXIS2_PLACEMENT_3D('',#1827,#1453,#1454);
#1216=AXIS2_PLACEMENT_3D('',#1830,#1457,#1458);
#1217=AXIS2_PLACEMENT_3D('',#1833,#1459,#1460);
#1218=AXIS2_PLACEMENT_3D('',#1835,#1461,#1462);
#1219=AXIS2_PLACEMENT_3D('',#1837,#1463,#1464);
#1220=AXIS2_PLACEMENT_3D('',#1838,#1465,#1466);
#1221=AXIS2_PLACEMENT_3D('',#1839,#1467,#1468);
#1222=AXIS2_PLACEMENT_3D('',#1842,#1471,#1472);
#1223=AXIS2_PLACEMENT_3D('',#1845,#1475,#1476);
#1224=AXIS2_PLACEMENT_3D('',#1847,#1477,#1478);
#1225=AXIS2_PLACEMENT_3D('',#1849,#1479,#1480);
#1226=AXIS2_PLACEMENT_3D('',#1850,#1481,#1482);
#1227=AXIS2_PLACEMENT_3D('',#1851,#1483,#1484);
#1228=AXIS2_PLACEMENT_3D('',#1853,#1485,#1486);
#1229=AXIS2_PLACEMENT_3D('',#1855,#1487,#1488);
#1230=AXIS2_PLACEMENT_3D('',#1856,#1489,#1490);
#1231=AXIS2_PLACEMENT_3D('',#1857,#1491,#1492);
#1232=AXIS2_PLACEMENT_3D('',#1859,#1494,#1495);
#1233=AXIS2_PLACEMENT_3D('',#1862,#1498,#1499);
#1234=AXIS2_PLACEMENT_3D('',#1864,#1501,#1502);
#1235=AXIS2_PLACEMENT_3D('',#1867,#1505,#1506);
#1236=AXIS2_PLACEMENT_3D('',#1869,#1508,#1509);
#1237=AXIS2_PLACEMENT_3D('',#1872,#1512,#1513);
#1238=AXIS2_PLACEMENT_3D('',#1875,#1516,#1517);
#1239=AXIS2_PLACEMENT_3D('',#1876,#1518,#1519);
#1240=AXIS2_PLACEMENT_3D('',#1877,#1520,#1521);
#1241=AXIS2_PLACEMENT_3D('',#1878,#1522,#1523);
#1242=AXIS2_PLACEMENT_3D('',#1880,#1524,#1525);
#1243=AXIS2_PLACEMENT_3D('',#1882,#1526,#1527);
#1244=AXIS2_PLACEMENT_3D('',#1884,#1528,#1529);
#1245=AXIS2_PLACEMENT_3D('',#1886,#1530,#1531);
#1246=AXIS2_PLACEMENT_3D('',#1888,#1532,#1533);
#1247=AXIS2_PLACEMENT_3D('',#1890,#1534,#1535);
#1248=AXIS2_PLACEMENT_3D('',#1892,#1536,#1537);
#1249=AXIS2_PLACEMENT_3D('',#1894,#1538,#1539);
#1250=AXIS2_PLACEMENT_3D('',#1896,#1540,#1541);
#1251=AXIS2_PLACEMENT_3D('',#1898,#1542,#1543);
#1252=AXIS2_PLACEMENT_3D('',#1900,#1544,#1545);
#1253=AXIS2_PLACEMENT_3D('',#1902,#1546,#1547);
#1254=AXIS2_PLACEMENT_3D('',#1904,#1548,#1549);
#1255=AXIS2_PLACEMENT_3D('',#1905,#1550,#1551);
#1256=AXIS2_PLACEMENT_3D('',#1906,#1552,#1553);
#1257=AXIS2_PLACEMENT_3D('',#1907,#1554,#1555);
#1258=AXIS2_PLACEMENT_3D('',#1909,#1556,#1557);
#1259=AXIS2_PLACEMENT_3D('',#1911,#1558,#1559);
#1260=AXIS2_PLACEMENT_3D('',#1913,#1560,#1561);
#1261=AXIS2_PLACEMENT_3D('',#1915,#1563,#1564);
#1262=AXIS2_PLACEMENT_3D('',#1918,#1566,#1567);
#1263=AXIS2_PLACEMENT_3D('',#1924,#1571,#1572);
#1264=AXIS2_PLACEMENT_3D('',#1928,#1575,#1576);
#1265=AXIS2_PLACEMENT_3D('',#1930,#1577,#1578);
#1266=AXIS2_PLACEMENT_3D('',#1931,#1579,#1580);
#1267=AXIS2_PLACEMENT_3D('',#1932,#1581,#1582);
#1268=AXIS2_PLACEMENT_3D('',#1933,#1583,#1584);
#1269=AXIS2_PLACEMENT_3D('',#1934,#1585,#1586);
#1270=AXIS2_PLACEMENT_3D('',#1935,#1587,#1588);
#1271=AXIS2_PLACEMENT_3D('',#1936,#1589,#1590);
#1272=AXIS2_PLACEMENT_3D('',#1939,#1593,#1594);
#1273=AXIS2_PLACEMENT_3D('',#1941,#1596,#1597);
#1274=AXIS2_PLACEMENT_3D('',#1942,#1598,#1599);
#1275=AXIS2_PLACEMENT_3D('',#1943,#1600,#1601);
#1276=AXIS2_PLACEMENT_3D('',#1945,#1603,#1604);
#1277=AXIS2_PLACEMENT_3D('',#1946,#1605,#1606);
#1278=AXIS2_PLACEMENT_3D('',#1947,#1607,#1608);
#1279=AXIS2_PLACEMENT_3D('',#1948,#1609,#1610);
#1280=AXIS2_PLACEMENT_3D('',#1949,#1611,#1612);
#1281=AXIS2_PLACEMENT_3D('',#1951,#1614,#1615);
#1282=AXIS2_PLACEMENT_3D('',#1953,#1617,#1618);
#1283=AXIS2_PLACEMENT_3D('',#1955,#1620,#1621);
#1284=AXIS2_PLACEMENT_3D('',#1957,#1623,#1624);
#1285=AXIS2_PLACEMENT_3D('',#1959,#1626,#1627);
#1286=AXIS2_PLACEMENT_3D('',#1961,#1629,#1630);
#1287=AXIS2_PLACEMENT_3D('',#1963,#1632,#1633);
#1288=AXIS2_PLACEMENT_3D('',#1965,#1635,#1636);
#1289=AXIS2_PLACEMENT_3D('',#1967,#1638,#1639);
#1290=AXIS2_PLACEMENT_3D('',#1969,#1641,#1642);
#1291=AXIS2_PLACEMENT_3D('',#1971,#1644,#1645);
#1292=AXIS2_PLACEMENT_3D('',#1973,#1647,#1648);
#1293=AXIS2_PLACEMENT_3D('',#1975,#1650,#1651);
#1294=AXIS2_PLACEMENT_3D('',#1976,#1652,#1653);
#1295=DIRECTION('axis',(0.,0.,1.));
#1296=DIRECTION('refdir',(1.,0.,0.));
#1297=DIRECTION('center_axis',(0.,0.,1.));
#1298=DIRECTION('ref_axis',(1.,0.,0.));
#1299=DIRECTION('',(0.,-1.,0.));
#1300=DIRECTION('',(-1.,0.,0.));
#1301=DIRECTION('',(0.,1.,0.));
#1302=DIRECTION('center_axis',(0.,0.,-1.));
#1303=DIRECTION('ref_axis',(-1.,8.26946079742757E-16,0.));
#1304=DIRECTION('',(0.,-1.,0.));
#1305=DIRECTION('',(-1.,0.,0.));
#1306=DIRECTION('',(0.,1.,0.));
#1307=DIRECTION('',(-1.,0.,0.));
#1308=DIRECTION('center_axis',(-1.,0.,0.));
#1309=DIRECTION('ref_axis',(0.,0.,1.));
#1310=DIRECTION('',(0.,-1.,0.));
#1311=DIRECTION('',(0.,0.,-1.));
#1312=DIRECTION('',(0.,1.,0.));
#1313=DIRECTION('',(0.,0.,1.));
#1314=DIRECTION('',(0.,0.,1.));
#1315=DIRECTION('',(0.,1.,0.));
#1316=DIRECTION('',(0.,0.,1.));
#1317=DIRECTION('',(0.,-1.,0.));
#1318=DIRECTION('',(0.,0.,1.));
#1319=DIRECTION('',(0.,1.,0.));
#1320=DIRECTION('',(0.,0.,-1.));
#1321=DIRECTION('',(0.,0.,1.));
#1322=DIRECTION('center_axis',(0.,0.,-1.));
#1323=DIRECTION('ref_axis',(-1.,0.,0.));
#1324=DIRECTION('',(0.,1.,0.));
#1325=DIRECTION('',(1.,0.,0.));
#1326=DIRECTION('center_axis',(0.,0.,1.));
#1327=DIRECTION('ref_axis',(-0.707106781186548,0.707106781186548,0.));
#1328=DIRECTION('',(1.,0.,0.));
#1329=DIRECTION('',(0.,-1.,0.));
#1330=DIRECTION('',(1.,0.,0.));
#1331=DIRECTION('',(0.,1.,0.));
#1332=DIRECTION('center_axis',(0.,0.,1.));
#1333=DIRECTION('ref_axis',(-1.,8.26946079742757E-16,0.));
#1334=DIRECTION('',(1.,0.,0.));
#1335=DIRECTION('center_axis',(0.,0.,1.));
#1336=DIRECTION('ref_axis',(1.,0.,0.));
#1337=DIRECTION('center_axis',(0.,0.,1.));
#1338=DIRECTION('ref_axis',(1.,0.,0.));
#1339=DIRECTION('center_axis',(0.,0.,1.));
#1340=DIRECTION('ref_axis',(1.,0.,0.));
#1341=DIRECTION('center_axis',(0.,0.,-1.));
#1342=DIRECTION('ref_axis',(0.707106781186543,-0.707106781186552,0.));
#1343=DIRECTION('',(0.,-1.,0.));
#1344=DIRECTION('center_axis',(0.,0.,-1.));
#1345=DIRECTION('ref_axis',(0.707106781186549,0.707106781186546,0.));
#1346=DIRECTION('',(1.,0.,0.));
#1347=DIRECTION('center_axis',(0.,0.,-1.));
#1348=DIRECTION('ref_axis',(-0.707106781186555,0.70710678118654,0.));
#1349=DIRECTION('',(0.,1.,0.));
#1350=DIRECTION('center_axis',(0.,0.,-1.));
#1351=DIRECTION('ref_axis',(-0.707106781186549,-0.707106781186546,0.));
#1352=DIRECTION('',(-1.,0.,0.));
#1353=DIRECTION('center_axis',(0.,0.,1.));
#1354=DIRECTION('ref_axis',(1.,0.,0.));
#1355=DIRECTION('center_axis',(0.,0.,1.));
#1356=DIRECTION('ref_axis',(1.,0.,0.));
#1357=DIRECTION('center_axis',(0.,0.,1.));
#1358=DIRECTION('ref_axis',(1.,0.,0.));
#1359=DIRECTION('center_axis',(0.,0.,1.));
#1360=DIRECTION('ref_axis',(1.,0.,0.));
#1361=DIRECTION('center_axis',(0.,0.,1.));
#1362=DIRECTION('ref_axis',(1.,0.,0.));
#1363=DIRECTION('center_axis',(0.,0.,1.));
#1364=DIRECTION('ref_axis',(1.,0.,0.));
#1365=DIRECTION('center_axis',(0.,0.,1.));
#1366=DIRECTION('ref_axis',(1.,0.,0.));
#1367=DIRECTION('center_axis',(0.,0.,1.));
#1368=DIRECTION('ref_axis',(1.,0.,0.));
#1369=DIRECTION('center_axis',(0.,0.,1.));
#1370=DIRECTION('ref_axis',(1.,0.,0.));
#1371=DIRECTION('center_axis',(0.,0.,1.));
#1372=DIRECTION('ref_axis',(1.,0.,0.));
#1373=DIRECTION('center_axis',(1.,0.,0.));
#1374=DIRECTION('ref_axis',(0.,0.,-1.));
#1375=DIRECTION('',(0.,0.,-1.));
#1376=DIRECTION('',(0.,1.,0.));
#1377=DIRECTION('',(0.,0.,-1.));
#1378=DIRECTION('',(0.,1.,0.));
#1379=DIRECTION('',(0.,0.,-1.));
#1380=DIRECTION('',(0.,-1.,0.));
#1381=DIRECTION('',(0.,0.,-1.));
#1382=DIRECTION('',(0.,0.,-1.));
#1383=DIRECTION('',(0.,1.,0.));
#1384=DIRECTION('',(0.,0.,-1.));
#1385=DIRECTION('',(0.,0.,-1.));
#1386=DIRECTION('center_axis',(0.,1.,0.));
#1387=DIRECTION('ref_axis',(0.,0.,-1.));
#1388=DIRECTION('',(0.,0.,-1.));
#1389=DIRECTION('center_axis',(0.,1.,0.));
#1390=DIRECTION('ref_axis',(0.,0.,-1.));
#1391=DIRECTION('',(0.,0.,1.));
#1392=DIRECTION('center_axis',(0.,0.,-1.));
#1393=DIRECTION('ref_axis',(-1.,8.26946079742757E-16,0.));
#1394=DIRECTION('center_axis',(0.,0.,-1.));
#1395=DIRECTION('ref_axis',(-1.,8.26946079742757E-16,0.));
#1396=DIRECTION('center_axis',(0.,0.,-1.));
#1397=DIRECTION('ref_axis',(-1.,8.26946079742757E-16,0.));
#1398=DIRECTION('center_axis',(0.,0.,1.));
#1399=DIRECTION('ref_axis',(-1.,8.26946079742757E-16,0.));
#1400=DIRECTION('center_axis',(0.,0.,-1.));
#1401=DIRECTION('ref_axis',(-1.,0.,0.));
#1402=DIRECTION('center_axis',(0.,0.,-1.));
#1403=DIRECTION('ref_axis',(0.,1.,0.));
#1404=DIRECTION('center_axis',(1.,0.,0.));
#1405=DIRECTION('ref_axis',(0.,0.,1.));
#1406=DIRECTION('center_axis',(0.,0.,1.));
#1407=DIRECTION('ref_axis',(-0.707106781186555,0.70710678118654,0.));
#1408=DIRECTION('center_axis',(0.,-1.,0.));
#1409=DIRECTION('ref_axis',(1.,0.,0.));
#1410=DIRECTION('center_axis',(0.,0.,-1.));
#1411=DIRECTION('ref_axis',(-1.,0.,0.));
#1412=DIRECTION('center_axis',(0.,0.,-1.));
#1413=DIRECTION('ref_axis',(-1.,0.,0.));
#1414=DIRECTION('center_axis',(0.,1.,0.));
#1415=DIRECTION('ref_axis',(0.,0.,1.));
#1416=DIRECTION('center_axis',(0.,0.,1.));
#1417=DIRECTION('ref_axis',(-0.707106781186549,-0.707106781186546,0.));
#1418=DIRECTION('center_axis',(1.,0.,0.));
#1419=DIRECTION('ref_axis',(0.,1.,0.));
#1420=DIRECTION('center_axis',(0.,1.,0.));
#1421=DIRECTION('ref_axis',(0.707106781186547,0.,0.707106781186548));
#1422=DIRECTION('',(0.,-1.,0.));
#1423=DIRECTION('',(0.,1.,0.));
#1424=DIRECTION('center_axis',(0.,0.,-1.));
#1425=DIRECTION('ref_axis',(-1.,0.,0.));
#1426=DIRECTION('center_axis',(1.,0.,0.));
#1427=DIRECTION('ref_axis',(0.,-1.,0.));
#1428=DIRECTION('center_axis',(0.,0.,1.));
#1429=DIRECTION('ref_axis',(-1.,0.,0.));
#1430=DIRECTION('center_axis',(0.,-1.,0.));
#1431=DIRECTION('ref_axis',(0.,0.,-1.));
#1432=DIRECTION('center_axis',(0.,0.,-1.));
#1433=DIRECTION('ref_axis',(-1.,0.,0.));
#1434=DIRECTION('center_axis',(0.,0.,-1.));
#1435=DIRECTION('ref_axis',(1.,0.,0.));
#1436=DIRECTION('center_axis',(0.,-1.,0.));
#1437=DIRECTION('ref_axis',(0.,0.,1.));
#1438=DIRECTION('center_axis',(0.,0.,1.));
#1439=DIRECTION('ref_axis',(0.707106781186548,0.707106781186548,0.));
#1440=DIRECTION('center_axis',(-1.,0.,0.));
#1441=DIRECTION('ref_axis',(0.,-1.,0.));
#1442=DIRECTION('center_axis',(0.,0.,-1.));
#1443=DIRECTION('ref_axis',(-1.,0.,0.));
#1444=DIRECTION('center_axis',(0.,1.,0.));
#1445=DIRECTION('ref_axis',(1.,0.,0.));
#1446=DIRECTION('center_axis',(0.,0.,1.));
#1447=DIRECTION('ref_axis',(0.,-1.,0.));
#1448=DIRECTION('center_axis',(1.,0.,0.));
#1449=DIRECTION('ref_axis',(0.,0.,-1.));
#1450=DIRECTION('center_axis',(0.,-1.,0.));
#1451=DIRECTION('ref_axis',(0.707106781186548,0.,-0.707106781186547));
#1452=DIRECTION('',(0.,-1.,0.));
#1453=DIRECTION('center_axis',(0.,0.,-1.));
#1454=DIRECTION('ref_axis',(-0.707106781186555,-0.70710678118654,0.));
#1455=DIRECTION('',(0.,0.,1.));
#1456=DIRECTION('',(0.,0.,-1.));
#1457=DIRECTION('center_axis',(0.,0.,-1.));
#1458=DIRECTION('ref_axis',(-1.,0.,0.));
#1459=DIRECTION('center_axis',(0.,0.,-1.));
#1460=DIRECTION('ref_axis',(0.,-1.,0.));
#1461=DIRECTION('center_axis',(-1.,0.,0.));
#1462=DIRECTION('ref_axis',(0.,0.,1.));
#1463=DIRECTION('center_axis',(0.,0.,1.));
#1464=DIRECTION('ref_axis',(0.707106781186543,-0.707106781186552,0.));
#1465=DIRECTION('center_axis',(0.,1.,0.));
#1466=DIRECTION('ref_axis',(-1.,0.,0.));
#1467=DIRECTION('center_axis',(-1.,0.,0.));
#1468=DIRECTION('ref_axis',(0.,0.70710678118654,0.707106781186555));
#1469=DIRECTION('',(1.,0.,0.));
#1470=DIRECTION('',(-1.,0.,0.));
#1471=DIRECTION('center_axis',(0.,-1.,0.));
#1472=DIRECTION('ref_axis',(-0.707106781186549,0.,0.707106781186546));
#1473=DIRECTION('',(0.,1.,0.));
#1474=DIRECTION('',(0.,-1.,0.));
#1475=DIRECTION('center_axis',(0.,0.,-1.));
#1476=DIRECTION('ref_axis',(-1.,0.,0.));
#1477=DIRECTION('center_axis',(0.,-1.,0.));
#1478=DIRECTION('ref_axis',(-1.,0.,0.));
#1479=DIRECTION('center_axis',(0.,0.,1.));
#1480=DIRECTION('ref_axis',(0.,1.,0.));
#1481=DIRECTION('center_axis',(-1.,0.,0.));
#1482=DIRECTION('ref_axis',(0.,0.,-1.));
#1483=DIRECTION('center_axis',(0.,0.,-1.));
#1484=DIRECTION('ref_axis',(-1.,0.,0.));
#1485=DIRECTION('center_axis',(-1.,0.,0.));
#1486=DIRECTION('ref_axis',(0.,1.,0.));
#1487=DIRECTION('center_axis',(0.,0.,1.));
#1488=DIRECTION('ref_axis',(1.,0.,0.));
#1489=DIRECTION('center_axis',(0.,1.,0.));
#1490=DIRECTION('ref_axis',(0.,0.,-1.));
#1491=DIRECTION('center_axis',(1.,0.,0.));
#1492=DIRECTION('ref_axis',(0.,0.70710678118654,-0.707106781186555));
#1493=DIRECTION('',(1.,0.,0.));
#1494=DIRECTION('center_axis',(0.,0.,-1.));
#1495=DIRECTION('ref_axis',(0.707106781186544,-0.707106781186551,0.));
#1496=DIRECTION('',(0.,0.,1.));
#1497=DIRECTION('',(0.,0.,-1.));
#1498=DIRECTION('center_axis',(0.,1.,0.));
#1499=DIRECTION('ref_axis',(-0.70710678118655,0.,-0.707106781186546));
#1500=DIRECTION('',(0.,1.,0.));
#1501=DIRECTION('center_axis',(0.,0.,-1.));
#1502=DIRECTION('ref_axis',(0.707106781186557,0.707106781186538,0.));
#1503=DIRECTION('',(0.,0.,1.));
#1504=DIRECTION('',(0.,0.,-1.));
#1505=DIRECTION('center_axis',(-1.,0.,0.));
#1506=DIRECTION('ref_axis',(0.,-0.70710678118654,-0.707106781186555));
#1507=DIRECTION('',(-1.,0.,0.));
#1508=DIRECTION('center_axis',(1.,0.,0.));
#1509=DIRECTION('ref_axis',(0.,-0.70710678118654,0.707106781186555));
#1510=DIRECTION('',(-1.,0.,0.));
#1511=DIRECTION('',(1.,0.,0.));
#1512=DIRECTION('center_axis',(0.,0.,-1.));
#1513=DIRECTION('ref_axis',(-0.707106781186555,0.70710678118654,0.));
#1514=DIRECTION('',(0.,0.,1.));
#1515=DIRECTION('',(0.,0.,-1.));
#1516=DIRECTION('center_axis',(-1.,0.,0.));
#1517=DIRECTION('ref_axis',(0.,1.,0.));
#1518=DIRECTION('center_axis',(0.,-1.,0.));
#1519=DIRECTION('ref_axis',(-1.,0.,0.));
#1520=DIRECTION('center_axis',(0.,0.,1.));
#1521=DIRECTION('ref_axis',(1.,0.,0.));
#1522=DIRECTION('center_axis',(0.,0.,-1.));
#1523=DIRECTION('ref_axis',(0.707106781186548,0.707106781186548,0.));
#1524=DIRECTION('center_axis',(0.,0.,-1.));
#1525=DIRECTION('ref_axis',(1.,0.,0.));
#1526=DIRECTION('center_axis',(0.,0.,-1.));
#1527=DIRECTION('ref_axis',(1.,0.,0.));
#1528=DIRECTION('center_axis',(0.,0.,-1.));
#1529=DIRECTION('ref_axis',(1.,0.,0.));
#1530=DIRECTION('center_axis',(0.,0.,-1.));
#1531=DIRECTION('ref_axis',(1.,0.,0.));
#1532=DIRECTION('center_axis',(0.,0.,-1.));
#1533=DIRECTION('ref_axis',(1.,0.,0.));
#1534=DIRECTION('center_axis',(0.,0.,-1.));
#1535=DIRECTION('ref_axis',(1.,0.,0.));
#1536=DIRECTION('center_axis',(0.,0.,-1.));
#1537=DIRECTION('ref_axis',(1.,0.,0.));
#1538=DIRECTION('center_axis',(0.,0.,-1.));
#1539=DIRECTION('ref_axis',(1.,0.,0.));
#1540=DIRECTION('center_axis',(0.,0.,-1.));
#1541=DIRECTION('ref_axis',(1.,0.,0.));
#1542=DIRECTION('center_axis',(0.,0.,-1.));
#1543=DIRECTION('ref_axis',(1.,0.,0.));
#1544=DIRECTION('center_axis',(0.,0.,-1.));
#1545=DIRECTION('ref_axis',(1.,0.,0.));
#1546=DIRECTION('center_axis',(0.,0.,-1.));
#1547=DIRECTION('ref_axis',(1.,0.,0.));
#1548=DIRECTION('center_axis',(0.,0.,-1.));
#1549=DIRECTION('ref_axis',(1.,0.,0.));
#1550=DIRECTION('center_axis',(1.,0.,0.));
#1551=DIRECTION('ref_axis',(0.,-1.,0.));
#1552=DIRECTION('center_axis',(0.,1.,0.));
#1553=DIRECTION('ref_axis',(1.,0.,0.));
#1554=DIRECTION('center_axis',(0.,0.,1.));
#1555=DIRECTION('ref_axis',(0.707106781186548,0.707106781186548,0.));
#1556=DIRECTION('center_axis',(0.,0.,-1.));
#1557=DIRECTION('ref_axis',(0.707106781186548,0.707106781186548,0.));
#1558=DIRECTION('center_axis',(0.,0.,1.));
#1559=DIRECTION('ref_axis',(0.707106781186548,0.707106781186548,0.));
#1560=DIRECTION('center_axis',(0.,0.,-1.));
#1561=DIRECTION('ref_axis',(0.707106781186548,0.707106781186548,0.));
#1562=DIRECTION('',(0.,0.,1.));
#1563=DIRECTION('center_axis',(0.,0.,1.));
#1564=DIRECTION('ref_axis',(0.,-1.,0.));
#1565=DIRECTION('',(1.,0.,0.));
#1566=DIRECTION('center_axis',(0.,0.,-1.));
#1567=DIRECTION('ref_axis',(-0.707106781186548,0.707106781186548,0.));
#1568=DIRECTION('',(-1.,0.,0.));
#1569=DIRECTION('',(1.,0.,0.));
#1570=DIRECTION('',(-1.,0.,0.));
#1571=DIRECTION('center_axis',(0.,1.,0.));
#1572=DIRECTION('ref_axis',(0.,0.,1.));
#1573=DIRECTION('',(1.,0.,0.));
#1574=DIRECTION('',(0.,0.,-1.));
#1575=DIRECTION('center_axis',(0.,0.,-1.));
#1576=DIRECTION('ref_axis',(-0.707106781186548,0.707106781186548,0.));
#1577=DIRECTION('center_axis',(0.,0.,1.));
#1578=DIRECTION('ref_axis',(-0.707106781186548,0.707106781186548,0.));
#1579=DIRECTION('center_axis',(0.,0.,-1.));
#1580=DIRECTION('ref_axis',(-0.707106781186548,0.707106781186548,0.));
#1581=DIRECTION('center_axis',(0.,0.,-1.));
#1582=DIRECTION('ref_axis',(0.,1.,0.));
#1583=DIRECTION('center_axis',(0.,0.,-1.));
#1584=DIRECTION('ref_axis',(0.707106781186548,0.707106781186548,0.));
#1585=DIRECTION('center_axis',(0.,0.,-1.));
#1586=DIRECTION('ref_axis',(0.,1.,0.));
#1587=DIRECTION('center_axis',(0.,0.,-1.));
#1588=DIRECTION('ref_axis',(0.707106781186548,0.707106781186548,0.));
#1589=DIRECTION('center_axis',(0.,-1.,0.));
#1590=DIRECTION('ref_axis',(0.,0.,-1.));
#1591=DIRECTION('',(0.,0.,-1.));
#1592=DIRECTION('',(0.,0.,1.));
#1593=DIRECTION('center_axis',(0.,-1.,0.));
#1594=DIRECTION('ref_axis',(0.,0.,-1.));
#1595=DIRECTION('',(0.,0.,1.));
#1596=DIRECTION('center_axis',(0.,0.,1.));
#1597=DIRECTION('ref_axis',(1.,0.,0.));
#1598=DIRECTION('center_axis',(0.,0.,-1.));
#1599=DIRECTION('ref_axis',(0.707106781186548,0.707106781186548,0.));
#1600=DIRECTION('center_axis',(0.,-1.,0.));
#1601=DIRECTION('ref_axis',(0.,0.,-1.));
#1602=DIRECTION('',(0.,0.,-1.));
#1603=DIRECTION('center_axis',(-1.,0.,0.));
#1604=DIRECTION('ref_axis',(0.,0.,1.));
#1605=DIRECTION('center_axis',(0.,0.,-1.));
#1606=DIRECTION('ref_axis',(0.707106781186548,0.707106781186548,0.));
#1607=DIRECTION('center_axis',(0.,0.,1.));
#1608=DIRECTION('ref_axis',(-0.707106781186548,0.707106781186548,0.));
#1609=DIRECTION('center_axis',(0.,0.,-1.));
#1610=DIRECTION('ref_axis',(0.707106781186548,0.707106781186548,0.));
#1611=DIRECTION('center_axis',(0.,0.,-1.));
#1612=DIRECTION('ref_axis',(1.,0.,0.));
#1613=DIRECTION('',(0.,0.,-1.));
#1614=DIRECTION('center_axis',(0.,0.,-1.));
#1615=DIRECTION('ref_axis',(1.,0.,0.));
#1616=DIRECTION('',(0.,0.,-1.));
#1617=DIRECTION('center_axis',(0.,0.,-1.));
#1618=DIRECTION('ref_axis',(1.,0.,0.));
#1619=DIRECTION('',(0.,0.,-1.));
#1620=DIRECTION('center_axis',(0.,0.,-1.));
#1621=DIRECTION('ref_axis',(1.,0.,0.));
#1622=DIRECTION('',(0.,0.,-1.));
#1623=DIRECTION('center_axis',(0.,0.,-1.));
#1624=DIRECTION('ref_axis',(1.,0.,0.));
#1625=DIRECTION('',(0.,0.,-1.));
#1626=DIRECTION('center_axis',(0.,0.,-1.));
#1627=DIRECTION('ref_axis',(1.,0.,0.));
#1628=DIRECTION('',(0.,0.,-1.));
#1629=DIRECTION('center_axis',(0.,0.,-1.));
#1630=DIRECTION('ref_axis',(1.,0.,0.));
#1631=DIRECTION('',(0.,0.,-1.));
#1632=DIRECTION('center_axis',(0.,0.,-1.));
#1633=DIRECTION('ref_axis',(1.,0.,0.));
#1634=DIRECTION('',(0.,0.,-1.));
#1635=DIRECTION('center_axis',(0.,0.,-1.));
#1636=DIRECTION('ref_axis',(1.,0.,0.));
#1637=DIRECTION('',(0.,0.,-1.));
#1638=DIRECTION('center_axis',(0.,0.,-1.));
#1639=DIRECTION('ref_axis',(1.,0.,0.));
#1640=DIRECTION('',(0.,0.,-1.));
#1641=DIRECTION('center_axis',(0.,0.,-1.));
#1642=DIRECTION('ref_axis',(1.,0.,0.));
#1643=DIRECTION('',(0.,0.,-1.));
#1644=DIRECTION('center_axis',(0.,0.,-1.));
#1645=DIRECTION('ref_axis',(1.,0.,0.));
#1646=DIRECTION('',(0.,0.,-1.));
#1647=DIRECTION('center_axis',(0.,0.,-1.));
#1648=DIRECTION('ref_axis',(1.,0.,0.));
#1649=DIRECTION('',(0.,0.,-1.));
#1650=DIRECTION('center_axis',(1.,0.,0.));
#1651=DIRECTION('ref_axis',(0.,0.,-1.));
#1652=DIRECTION('center_axis',(0.,0.,-1.));
#1653=DIRECTION('ref_axis',(-1.,0.,0.));
#1654=CARTESIAN_POINT('',(0.,0.,0.));
#1655=CARTESIAN_POINT('Origin',(0.5,0.,-5.5));
#1656=CARTESIAN_POINT('',(0.5,11.0000001639128,-5.50000008195639));
#1657=CARTESIAN_POINT('',(0.5,0.8,-5.50000008195639));
#1658=CARTESIAN_POINT('',(0.5,1.,-5.5));
#1659=CARTESIAN_POINT('',(0.,0.800000011920929,-5.50000008195639));
#1660=CARTESIAN_POINT('',(0.25,0.8,-5.5));
#1661=CARTESIAN_POINT('',(-2.22044604925031E-16,-1.11022302462516E-16,-5.50000008195639));
#1662=CARTESIAN_POINT('',(0.,0.400000005960464,-5.50000008195639));
#1663=CARTESIAN_POINT('',(4.,-1.11022302462516E-16,-5.50000008195639));
#1664=CARTESIAN_POINT('Origin',(2.,-1.99840144432528E-15,-5.50000008195639));
#1665=CARTESIAN_POINT('',(4.,0.800000011920929,-5.50000008195639));
#1666=CARTESIAN_POINT('',(4.,0.400000005960464,-5.50000008195639));
#1667=CARTESIAN_POINT('',(3.5,0.8,-5.50000008195639));
#1668=CARTESIAN_POINT('',(2.25,0.8,-5.5));
#1669=CARTESIAN_POINT('',(3.5,11.0000001639128,-5.50000008195639));
#1670=CARTESIAN_POINT('',(3.5,1.,-5.5));
#1671=CARTESIAN_POINT('',(0.25,11.0000001639128,-5.5));
#1672=CARTESIAN_POINT('Origin',(0.,0.,-6.));
#1673=CARTESIAN_POINT('',(0.,0.800000011920929,-0.500000007450581));
#1674=CARTESIAN_POINT('',(-2.22044604925031E-16,0.,-0.500000007450581));
#1675=CARTESIAN_POINT('',(0.,-5.55111512312578E-17,-0.500000007450581));
#1676=CARTESIAN_POINT('',(-2.22044604925031E-16,-3.4450928483977E-16,0.));
#1677=CARTESIAN_POINT('',(-2.22044604925031E-16,-3.4450928483977E-16,0.));
#1678=CARTESIAN_POINT('',(0.,11.,0.));
#1679=CARTESIAN_POINT('',(0.,0.,0.));
#1680=CARTESIAN_POINT('',(0.,11.0000001639128,-0.500000007450581));
#1681=CARTESIAN_POINT('',(0.,11.,-4.5));
#1682=CARTESIAN_POINT('',(0.,11.0000001639128,-2.40000003576279));
#1683=CARTESIAN_POINT('',(0.,11.,-4.5));
#1684=CARTESIAN_POINT('',(0.,11.1000001728535,-2.40000003576279));
#1685=CARTESIAN_POINT('',(0.,11.0000001639128,-2.40000003576279));
#1686=CARTESIAN_POINT('',(0.,11.1000001728535,-5.50000008195639));
#1687=CARTESIAN_POINT('',(0.,11.1000001728535,-5.75000004097819));
#1688=CARTESIAN_POINT('',(0.,11.0000001639128,-5.50000008195639));
#1689=CARTESIAN_POINT('',(0.,11.6000001728535,-5.50000008195639));
#1690=CARTESIAN_POINT('',(0.,11.,-6.));
#1691=CARTESIAN_POINT('',(0.,11.,-4.5));
#1692=CARTESIAN_POINT('',(-2.22044604925031E-16,-3.4450928483977E-16,-6.));
#1693=CARTESIAN_POINT('',(0.,0.,-6.));
#1694=CARTESIAN_POINT('',(-2.22044604925031E-16,-3.4450928483977E-16,0.));
#1695=CARTESIAN_POINT('',(0.,0.800000011920929,-3.25000000372529));
#1696=CARTESIAN_POINT('Origin',(3.5,0.,-0.5));
#1697=CARTESIAN_POINT('',(0.5,0.8,-0.5));
#1698=CARTESIAN_POINT('',(0.5,11.0000001639128,-0.500000007450581));
#1699=CARTESIAN_POINT('',(0.5,1.,-0.5));
#1700=CARTESIAN_POINT('',(0.,11.0000001639128,-0.500000007450581));
#1701=CARTESIAN_POINT('',(4.,11.0000001639128,-0.500000007450581));
#1702=CARTESIAN_POINT('Origin',(2.,11.,-0.5));
#1703=CARTESIAN_POINT('',(3.5,11.0000001639128,-0.500000007450581));
#1704=CARTESIAN_POINT('',(0.,11.0000001639128,-0.500000007450581));
#1705=CARTESIAN_POINT('',(3.5,0.8,-0.500000007450581));
#1706=CARTESIAN_POINT('',(3.5,1.,-0.5));
#1707=CARTESIAN_POINT('',(4.,0.800000011920929,-0.500000007450581));
#1708=CARTESIAN_POINT('',(3.75,0.8,-0.5));
#1709=CARTESIAN_POINT('',(4.,0.,-0.500000007450581));
#1710=CARTESIAN_POINT('',(4.,-5.55111512312578E-17,-0.500000007450581));
#1711=CARTESIAN_POINT('Origin',(2.,-1.99840144432528E-15,-0.500000007450581));
#1712=CARTESIAN_POINT('',(1.75,0.8,-0.5));
#1713=CARTESIAN_POINT('',(1.97232388382259,-1.50000001564622,-0.5));
#1714=CARTESIAN_POINT('Origin',(2.04999995417893,-1.50000001564622,-0.5));
#1715=CARTESIAN_POINT('',(1.62426781849148,-1.49132782168839,-0.5));
#1716=CARTESIAN_POINT('Origin',(1.70405639975438,-1.49132782168839,-0.5));
#1717=CARTESIAN_POINT('',(2.30775527396794,-1.49132782168839,-0.5));
#1718=CARTESIAN_POINT('Origin',(2.38595049599526,-1.49132782168839,-0.5));
#1719=CARTESIAN_POINT('',(3.30000004768372,11.0000001624227,-0.5));
#1720=CARTESIAN_POINT('',(3.10000004768372,10.8000001624227,-0.5));
#1721=CARTESIAN_POINT('Origin',(3.10000004768372,11.0000001624227,-0.5));
#1722=CARTESIAN_POINT('',(3.30000004768372,11.5419781098689,-0.5));
#1723=CARTESIAN_POINT('',(3.30000004768372,5.75000008568168,-0.5));
#1724=CARTESIAN_POINT('',(3.10000004768372,11.7419781098689,-0.5));
#1725=CARTESIAN_POINT('Origin',(3.10000004768372,11.5419781098689,-0.5));
#1726=CARTESIAN_POINT('',(1.05546999993801,11.7419781098689,-0.5));
#1727=CARTESIAN_POINT('',(2.227734999969,11.7419781098689,-0.5));
#1728=CARTESIAN_POINT('',(0.855469999938006,11.5419781098689,-0.5));
#1729=CARTESIAN_POINT('Origin',(1.05546999993801,11.5419781098689,-0.5));
#1730=CARTESIAN_POINT('',(0.855469999938006,11.0000001624227,-0.5));
#1731=CARTESIAN_POINT('',(0.855469999938006,5.45000008121133,-0.5));
#1732=CARTESIAN_POINT('',(1.05546999993801,10.8000001624227,-0.5));
#1733=CARTESIAN_POINT('Origin',(1.05546999993801,11.0000001624227,-0.5));
#1734=CARTESIAN_POINT('',(3.35000002384186,10.8000001624227,-0.5));
#1735=CARTESIAN_POINT('',(1.25057113283647,-1.115819531022,-0.5));
#1736=CARTESIAN_POINT('Origin',(1.32802656620924,-1.115819531022,-0.5));
#1737=CARTESIAN_POINT('',(2.68499993998557,-1.1100000243634,-0.5));
#1738=CARTESIAN_POINT('Origin',(2.76499993819743,-1.1100000243634,-0.5));
#1739=CARTESIAN_POINT('',(1.97555430829893,-0.0500000480562454,-0.5));
#1740=CARTESIAN_POINT('Origin',(2.04999995417893,-0.0500000480562454,-0.5));
#1741=CARTESIAN_POINT('',(1.62434208345483,-0.0500000480562454,-0.5));
#1742=CARTESIAN_POINT('Origin',(1.70470369524931,-0.0500000480562454,-0.5));
#1743=CARTESIAN_POINT('',(1.25128609442194,-0.775586603860542,-0.5));
#1744=CARTESIAN_POINT('Origin',(1.32802656620924,-0.775586603860542,-0.5));
#1745=CARTESIAN_POINT('',(2.68477981606593,-0.775000031851233,-0.5));
#1746=CARTESIAN_POINT('Origin',(2.76499993819743,-0.775000031851233,-0.5));
#1747=CARTESIAN_POINT('',(2.31617583292827,-0.0500000480562454,-0.5));
#1748=CARTESIAN_POINT('Origin',(2.38999994657934,-0.0500000480562454,-0.5));
#1749=CARTESIAN_POINT('',(2.69253539704368,-0.435000039450825,-0.5));
#1750=CARTESIAN_POINT('Origin',(2.76999993808568,-0.435000039450825,-0.5));
#1751=CARTESIAN_POINT('',(1.24437739470301,-0.430000039562583,-0.5));
#1752=CARTESIAN_POINT('Origin',(1.32499997038394,-0.430000039562583,-0.5));
#1753=CARTESIAN_POINT('',(1.89793198366528,-0.770000031962991,-0.5));
#1754=CARTESIAN_POINT('Origin',(2.04999995417893,-0.770000031962991,-0.5));
#1755=CARTESIAN_POINT('Origin',(4.,0.,0.));
#1756=CARTESIAN_POINT('',(4.,-1.22464679914738E-16,-6.));
#1757=CARTESIAN_POINT('',(4.,-1.22464679914738E-16,0.));
#1758=CARTESIAN_POINT('',(4.,11.,-6.));
#1759=CARTESIAN_POINT('',(4.,0.,-6.));
#1760=CARTESIAN_POINT('',(4.,11.0000001639128,-5.50000008195639));
#1761=CARTESIAN_POINT('',(4.,11.,-1.5));
#1762=CARTESIAN_POINT('',(4.,11.1000001728535,-5.50000008195639));
#1763=CARTESIAN_POINT('',(4.,11.6000001728535,-5.50000008195639));
#1764=CARTESIAN_POINT('',(4.,11.1000001728535,-2.40000003576279));
#1765=CARTESIAN_POINT('',(4.,11.1000001728535,-2.75000004097819));
#1766=CARTESIAN_POINT('',(4.,11.0000001639128,-2.40000003576279));
#1767=CARTESIAN_POINT('',(4.,11.0000001639128,-2.40000003576279));
#1768=CARTESIAN_POINT('',(4.,11.,-1.5));
#1769=CARTESIAN_POINT('',(4.,11.,0.));
#1770=CARTESIAN_POINT('',(4.,11.,-1.5));
#1771=CARTESIAN_POINT('',(4.,-1.22464679914738E-16,0.));
#1772=CARTESIAN_POINT('',(4.,0.,0.));
#1773=CARTESIAN_POINT('',(4.,-1.22464679914738E-16,0.));
#1774=CARTESIAN_POINT('',(4.,0.800000011920929,-0.25000000372529));
#1775=CARTESIAN_POINT('Origin',(4.,0.800000011920929,-0.500000007450581));
#1776=CARTESIAN_POINT('',(3.5,0.8,-5.50000008195639));
#1777=CARTESIAN_POINT('Origin',(4.,0.800000011920929,-0.500000007450581));
#1778=CARTESIAN_POINT('',(0.5,0.8,-0.5));
#1779=CARTESIAN_POINT('Origin',(2.,-1.99840144432528E-15,0.));
#1780=CARTESIAN_POINT('Origin',(2.,-1.99840144432528E-15,-6.));
#1781=CARTESIAN_POINT('Origin',(2.,-1.99840144432528E-15,0.));
#1782=CARTESIAN_POINT('Origin',(2.,-1.99840144432528E-15,0.));
#1783=CARTESIAN_POINT('Origin',(1.05546999993801,11.5419781098689,-0.1));
#1784=CARTESIAN_POINT('',(1.05546999993801,11.6419781098689,-0.1));
#1785=CARTESIAN_POINT('',(0.955469999938007,11.5419781098689,-0.1));
#1786=CARTESIAN_POINT('Origin',(1.05546999993801,11.5419781098689,-0.1));
#1787=CARTESIAN_POINT('',(1.05546999993801,11.7419781098689,0.));
#1788=CARTESIAN_POINT('Origin',(1.05546999993801,11.7419781098689,-0.1));
#1789=CARTESIAN_POINT('',(0.855469999938007,11.5419781098689,0.));
#1790=CARTESIAN_POINT('Origin',(1.05546999993801,11.5419781098689,0.));
#1791=CARTESIAN_POINT('Origin',(0.855469999938007,11.5419781098689,-0.1));
#1792=CARTESIAN_POINT('Origin',(1.05546999993801,11.0000001624227,-0.1));
#1793=CARTESIAN_POINT('',(0.955469999938007,11.0000001624227,-0.1));
#1794=CARTESIAN_POINT('',(1.05546999993801,10.9000001624227,-0.1));
#1795=CARTESIAN_POINT('Origin',(1.05546999993801,11.0000001624227,-0.1));
#1796=CARTESIAN_POINT('',(0.855469999938007,11.0000001624227,0.));
#1797=CARTESIAN_POINT('Origin',(0.855469999938007,11.0000001624227,-0.1));
#1798=CARTESIAN_POINT('',(1.05546999993801,10.8000001624227,0.));
#1799=CARTESIAN_POINT('Origin',(1.05546999993801,11.0000001624227,0.));
#1800=CARTESIAN_POINT('Origin',(1.05546999993801,10.8000001624227,-0.1));
#1801=CARTESIAN_POINT('Origin',(0.855469999938007,5.45000008121133,-0.1));
#1802=CARTESIAN_POINT('',(0.855469999938007,5.45000008121133,0.));
#1803=CARTESIAN_POINT('',(0.955469999938007,5.45000008121133,-0.1));
#1804=CARTESIAN_POINT('Origin',(1.05546999993801,11.5419781098689,-0.4));
#1805=CARTESIAN_POINT('',(1.05546999993801,11.6419781098689,-0.4));
#1806=CARTESIAN_POINT('Origin',(1.05546999993801,11.7419781098689,-0.4));
#1807=CARTESIAN_POINT('',(0.955469999938007,11.5419781098689,-0.4));
#1808=CARTESIAN_POINT('Origin',(1.05546999993801,11.5419781098689,-0.4));
#1809=CARTESIAN_POINT('Origin',(0.855469999938006,11.5419781098689,-0.4));
#1810=CARTESIAN_POINT('Origin',(3.10000004768372,11.5419781098689,-0.1));
#1811=CARTESIAN_POINT('',(3.20000004768372,11.5419781098689,-0.1));
#1812=CARTESIAN_POINT('',(3.10000004768372,11.6419781098689,-0.1));
#1813=CARTESIAN_POINT('Origin',(3.10000004768372,11.5419781098689,-0.1));
#1814=CARTESIAN_POINT('',(3.30000004768372,11.5419781098689,0.));
#1815=CARTESIAN_POINT('Origin',(3.30000004768372,11.5419781098689,-0.1));
#1816=CARTESIAN_POINT('',(3.10000004768372,11.7419781098689,0.));
#1817=CARTESIAN_POINT('Origin',(3.10000004768372,11.5419781098689,0.));
#1818=CARTESIAN_POINT('Origin',(3.10000004768372,11.7419781098689,-0.1));
#1819=CARTESIAN_POINT('Origin',(1.05546999993801,11.0000001624227,-0.4));
#1820=CARTESIAN_POINT('',(0.955469999938007,11.0000001624227,-0.4));
#1821=CARTESIAN_POINT('Origin',(0.855469999938006,11.0000001624227,-0.4));
#1822=CARTESIAN_POINT('',(1.05546999993801,10.9000001624227,-0.4));
#1823=CARTESIAN_POINT('Origin',(1.05546999993801,11.0000001624227,-0.4));
#1824=CARTESIAN_POINT('Origin',(1.05546999993801,10.8000001624227,-0.4));
#1825=CARTESIAN_POINT('Origin',(0.855469999938006,5.45000008121133,-0.4));
#1826=CARTESIAN_POINT('',(0.955469999938007,5.45000008121133,-0.4));
#1827=CARTESIAN_POINT('Origin',(1.05546999993801,11.0000001624227,0.));
#1828=CARTESIAN_POINT('',(0.955469999938007,11.0000001624227,0.));
#1829=CARTESIAN_POINT('',(1.05546999993801,10.9000001624227,0.));
#1830=CARTESIAN_POINT('Origin',(3.10000004768372,11.0000001624227,-0.1));
#1831=CARTESIAN_POINT('',(3.10000004768372,10.9000001624227,-0.1));
#1832=CARTESIAN_POINT('',(3.20000004768372,11.0000001624227,-0.1));
#1833=CARTESIAN_POINT('Origin',(3.10000004768372,11.0000001624227,-0.1));
#1834=CARTESIAN_POINT('',(3.10000004768372,10.8000001624227,0.));
#1835=CARTESIAN_POINT('Origin',(3.10000004768372,10.8000001624227,-0.1));
#1836=CARTESIAN_POINT('',(3.30000004768372,11.0000001624227,0.));
#1837=CARTESIAN_POINT('Origin',(3.10000004768372,11.0000001624227,0.));
#1838=CARTESIAN_POINT('Origin',(3.30000004768372,11.0000001624227,-0.1));
#1839=CARTESIAN_POINT('Origin',(1.60000002384186,10.8000001624227,-0.1));
#1840=CARTESIAN_POINT('',(1.60000002384186,10.8000001624227,0.));
#1841=CARTESIAN_POINT('',(1.60000002384186,10.9000001624227,-0.1));
#1842=CARTESIAN_POINT('Origin',(3.30000004768372,5.75000008568168,-0.1));
#1843=CARTESIAN_POINT('',(3.30000004768372,5.75000008568168,0.));
#1844=CARTESIAN_POINT('',(3.20000004768372,5.75000008568168,-0.1));
#1845=CARTESIAN_POINT('Origin',(3.10000004768372,11.5419781098689,-0.4));
#1846=CARTESIAN_POINT('',(3.20000004768372,11.5419781098689,-0.4));
#1847=CARTESIAN_POINT('Origin',(3.30000004768372,11.5419781098689,-0.4));
#1848=CARTESIAN_POINT('',(3.10000004768372,11.6419781098689,-0.4));
#1849=CARTESIAN_POINT('Origin',(3.10000004768372,11.5419781098689,-0.4));
#1850=CARTESIAN_POINT('Origin',(3.10000004768372,11.7419781098689,-0.4));
#1851=CARTESIAN_POINT('Origin',(3.10000004768372,11.0000001624227,-0.4));
#1852=CARTESIAN_POINT('',(3.10000004768372,10.9000001624227,-0.4));
#1853=CARTESIAN_POINT('Origin',(3.10000004768372,10.8000001624227,-0.4));
#1854=CARTESIAN_POINT('',(3.20000004768372,11.0000001624227,-0.4));
#1855=CARTESIAN_POINT('Origin',(3.10000004768372,11.0000001624227,-0.4));
#1856=CARTESIAN_POINT('Origin',(3.30000004768372,11.0000001624227,-0.4));
#1857=CARTESIAN_POINT('Origin',(3.35000002384186,10.8000001624227,-0.4));
#1858=CARTESIAN_POINT('',(3.35000002384186,10.9000001624227,-0.4));
#1859=CARTESIAN_POINT('Origin',(3.10000004768372,11.0000001624227,0.));
#1860=CARTESIAN_POINT('',(3.10000004768372,10.9000001624227,0.));
#1861=CARTESIAN_POINT('',(3.20000004768372,11.0000001624227,0.));
#1862=CARTESIAN_POINT('Origin',(3.30000004768372,5.75000008568168,-0.4));
#1863=CARTESIAN_POINT('',(3.20000004768372,5.75000008568168,-0.4));
#1864=CARTESIAN_POINT('Origin',(3.10000004768372,11.5419781098689,0.));
#1865=CARTESIAN_POINT('',(3.20000004768372,11.5419781098689,0.));
#1866=CARTESIAN_POINT('',(3.10000004768372,11.6419781098689,0.));
#1867=CARTESIAN_POINT('Origin',(2.227734999969,11.7419781098689,-0.4));
#1868=CARTESIAN_POINT('',(2.227734999969,11.6419781098689,-0.4));
#1869=CARTESIAN_POINT('Origin',(0.477734999969003,11.7419781098689,-0.1));
#1870=CARTESIAN_POINT('',(0.477734999969003,11.7419781098689,0.));
#1871=CARTESIAN_POINT('',(0.477734999969003,11.6419781098689,-0.1));
#1872=CARTESIAN_POINT('Origin',(1.05546999993801,11.5419781098689,0.));
#1873=CARTESIAN_POINT('',(1.05546999993801,11.6419781098689,0.));
#1874=CARTESIAN_POINT('',(0.955469999938007,11.5419781098689,0.));
#1875=CARTESIAN_POINT('Origin',(0.955469999938007,10.9000001624227,0.));
#1876=CARTESIAN_POINT('Origin',(3.20000004768372,10.9000001624227,0.));
#1877=CARTESIAN_POINT('Origin',(0.,0.,0.));
#1878=CARTESIAN_POINT('Origin',(2.,11.,0.));
#1879=CARTESIAN_POINT('',(1.89793198366528,-0.770000031962991,0.));
#1880=CARTESIAN_POINT('Origin',(2.04999995417893,-0.770000031962991,0.));
#1881=CARTESIAN_POINT('',(1.24437739470301,-0.430000039562583,0.));
#1882=CARTESIAN_POINT('Origin',(1.32499997038394,-0.430000039562583,0.));
#1883=CARTESIAN_POINT('',(1.97232388382259,-1.50000001564622,0.));
#1884=CARTESIAN_POINT('Origin',(2.04999995417893,-1.50000001564622,0.));
#1885=CARTESIAN_POINT('',(2.69253539704368,-0.435000039450825,0.));
#1886=CARTESIAN_POINT('Origin',(2.76999993808568,-0.435000039450825,0.));
#1887=CARTESIAN_POINT('',(2.31617583292827,-0.0500000480562454,0.));
#1888=CARTESIAN_POINT('Origin',(2.38999994657934,-0.0500000480562454,0.));
#1889=CARTESIAN_POINT('',(2.68477981606593,-0.775000031851233,0.));
#1890=CARTESIAN_POINT('Origin',(2.76499993819743,-0.775000031851233,0.));
#1891=CARTESIAN_POINT('',(1.62426781849148,-1.49132782168839,0.));
#1892=CARTESIAN_POINT('Origin',(1.70405639975438,-1.49132782168839,0.));
#1893=CARTESIAN_POINT('',(1.25128609442194,-0.775586603860542,0.));
#1894=CARTESIAN_POINT('Origin',(1.32802656620924,-0.775586603860542,0.));
#1895=CARTESIAN_POINT('',(2.30775527396794,-1.49132782168839,0.));
#1896=CARTESIAN_POINT('Origin',(2.38595049599526,-1.49132782168839,0.));
#1897=CARTESIAN_POINT('',(1.62434208345483,-0.0500000480562454,0.));
#1898=CARTESIAN_POINT('Origin',(1.70470369524931,-0.0500000480562454,0.));
#1899=CARTESIAN_POINT('',(1.97555430829893,-0.0500000480562454,0.));
#1900=CARTESIAN_POINT('Origin',(2.04999995417893,-0.0500000480562454,0.));
#1901=CARTESIAN_POINT('',(2.68499993998557,-1.1100000243634,0.));
#1902=CARTESIAN_POINT('Origin',(2.76499993819743,-1.1100000243634,0.));
#1903=CARTESIAN_POINT('',(1.25057113283647,-1.115819531022,0.));
#1904=CARTESIAN_POINT('Origin',(1.32802656620924,-1.115819531022,0.));
#1905=CARTESIAN_POINT('Origin',(3.20000004768372,11.5000001713634,0.));
#1906=CARTESIAN_POINT('Origin',(0.955469999938007,11.6419781098689,0.));
#1907=CARTESIAN_POINT('Origin',(3.5,11.1000001728535,-2.75000004097819));
#1908=CARTESIAN_POINT('',(3.5,11.6000001728535,-2.40000003576279));
#1909=CARTESIAN_POINT('Origin',(3.5,11.1000001728535,-2.40000003576279));
#1910=CARTESIAN_POINT('',(3.99004974799498,11.1992536085122,-5.5));
#1911=CARTESIAN_POINT('Origin',(3.5,11.1000001728535,-5.50000008195639));
#1912=CARTESIAN_POINT('',(3.5,11.6000001728535,-5.5));
#1913=CARTESIAN_POINT('Origin',(3.5,11.1000001728535,-5.5));
#1914=CARTESIAN_POINT('',(3.5,11.6000001728535,-2.75000004097819));
#1915=CARTESIAN_POINT('Origin',(0.,11.6000001728535,-2.40000003576279));
#1916=CARTESIAN_POINT('',(0.5,11.6000001728535,-2.40000003576279));
#1917=CARTESIAN_POINT('',(0.,11.6000001728535,-2.40000003576279));
#1918=CARTESIAN_POINT('Origin',(0.5,11.1000001728535,-2.40000003576279));
#1919=CARTESIAN_POINT('',(0.5,11.0000001639128,-2.40000003576279));
#1920=CARTESIAN_POINT('',(0.,11.0000001639128,-2.40000003576279));
#1921=CARTESIAN_POINT('',(3.5,11.0000001639128,-2.40000003576279));
#1922=CARTESIAN_POINT('',(0.,11.0000001639128,-2.40000003576279));
#1923=CARTESIAN_POINT('',(0.,11.0000001639128,-2.40000003576279));
#1924=CARTESIAN_POINT('Origin',(0.,11.6000001728535,-5.50000008195639));
#1925=CARTESIAN_POINT('',(0.5,11.6000001728535,-5.5));
#1926=CARTESIAN_POINT('',(0.25,11.6000001728535,-5.5));
#1927=CARTESIAN_POINT('',(0.5,11.6000001728535,-5.75000004097819));
#1928=CARTESIAN_POINT('Origin',(0.5,11.1000001728535,-5.75000004097819));
#1929=CARTESIAN_POINT('',(0.00995025200502337,11.1992536085122,-5.5));
#1930=CARTESIAN_POINT('Origin',(0.5,11.1000001728535,-5.50000008195639));
#1931=CARTESIAN_POINT('Origin',(0.5,11.1000001728535,-5.5));
#1932=CARTESIAN_POINT('Origin',(0.,11.0000001639128,-5.50000008195639));
#1933=CARTESIAN_POINT('Origin',(2.,11.,-5.5));
#1934=CARTESIAN_POINT('Origin',(0.,11.0000001639128,-5.50000008195639));
#1935=CARTESIAN_POINT('Origin',(2.,11.,-5.5));
#1936=CARTESIAN_POINT('Origin',(0.,11.0000001639128,-2.40000003576279));
#1937=CARTESIAN_POINT('',(3.5,11.0000001639128,-3.00000000372529));
#1938=CARTESIAN_POINT('',(0.5,11.0000001639128,-0.50000000372529));
#1939=CARTESIAN_POINT('Origin',(0.,11.0000001639128,-0.500000007450581));
#1940=CARTESIAN_POINT('',(0.5,11.0000001639128,-0.50000000372529));
#1941=CARTESIAN_POINT('Origin',(0.5,0.,-5.5));
#1942=CARTESIAN_POINT('Origin',(2.,11.,-5.5));
#1943=CARTESIAN_POINT('Origin',(0.,11.0000001639128,-0.500000007450581));
#1944=CARTESIAN_POINT('',(3.5,11.0000001639128,-3.00000000372529));
#1945=CARTESIAN_POINT('Origin',(3.5,0.,-5.5));
#1946=CARTESIAN_POINT('Origin',(2.,11.,-1.5));
#1947=CARTESIAN_POINT('Origin',(2.,11.,-6.));
#1948=CARTESIAN_POINT('Origin',(2.,11.,-1.5));
#1949=CARTESIAN_POINT('Origin',(2.04999995417893,-0.770000031962991,0.));
#1950=CARTESIAN_POINT('',(1.89793198366528,-0.770000031962991,0.));
#1951=CARTESIAN_POINT('Origin',(1.32802656620924,-1.115819531022,0.));
#1952=CARTESIAN_POINT('',(1.25057113283647,-1.115819531022,0.));
#1953=CARTESIAN_POINT('Origin',(2.76499993819743,-1.1100000243634,0.));
#1954=CARTESIAN_POINT('',(2.68499993998557,-1.1100000243634,0.));
#1955=CARTESIAN_POINT('Origin',(2.04999995417893,-0.0500000480562454,0.));
#1956=CARTESIAN_POINT('',(1.97555430829893,-0.0500000480562454,0.));
#1957=CARTESIAN_POINT('Origin',(1.70470369524931,-0.0500000480562454,0.));
#1958=CARTESIAN_POINT('',(1.62434208345483,-0.0500000480562454,0.));
#1959=CARTESIAN_POINT('Origin',(2.38595049599526,-1.49132782168839,0.));
#1960=CARTESIAN_POINT('',(2.30775527396794,-1.49132782168839,0.));
#1961=CARTESIAN_POINT('Origin',(1.32802656620924,-0.775586603860542,0.));
#1962=CARTESIAN_POINT('',(1.25128609442194,-0.775586603860542,0.));
#1963=CARTESIAN_POINT('Origin',(1.70405639975438,-1.49132782168839,0.));
#1964=CARTESIAN_POINT('',(1.62426781849148,-1.49132782168839,0.));
#1965=CARTESIAN_POINT('Origin',(2.76499993819743,-0.775000031851233,0.));
#1966=CARTESIAN_POINT('',(2.68477981606593,-0.775000031851233,0.));
#1967=CARTESIAN_POINT('Origin',(2.38999994657934,-0.0500000480562454,0.));
#1968=CARTESIAN_POINT('',(2.31617583292827,-0.0500000480562454,0.));
#1969=CARTESIAN_POINT('Origin',(2.76999993808568,-0.435000039450825,0.));
#1970=CARTESIAN_POINT('',(2.69253539704368,-0.435000039450825,0.));
#1971=CARTESIAN_POINT('Origin',(2.04999995417893,-1.50000001564622,0.));
#1972=CARTESIAN_POINT('',(1.97232388382259,-1.50000001564622,0.));
#1973=CARTESIAN_POINT('Origin',(1.32499997038394,-0.430000039562583,0.));
#1974=CARTESIAN_POINT('',(1.24437739470301,-0.430000039562583,0.));
#1975=CARTESIAN_POINT('Origin',(0.5,0.,-0.5));
#1976=CARTESIAN_POINT('Origin',(4.,0.,-6.));
#1977=UNCERTAINTY_MEASURE_WITH_UNIT(LENGTH_MEASURE(0.001),#1981,
'DISTANCE_ACCURACY_VALUE',
'Maximum model space distance between geometric entities at asserted c
onnectivities');
#1978=UNCERTAINTY_MEASURE_WITH_UNIT(LENGTH_MEASURE(0.001),#1981,
'DISTANCE_ACCURACY_VALUE',
'Maximum model space distance between geometric entities at asserted c
onnectivities');
#1979=(
GEOMETRIC_REPRESENTATION_CONTEXT(3)
GLOBAL_UNCERTAINTY_ASSIGNED_CONTEXT((#1977))
GLOBAL_UNIT_ASSIGNED_CONTEXT((#1981,#1983,#1984))
REPRESENTATION_CONTEXT('','3D')
);
#1980=(
GEOMETRIC_REPRESENTATION_CONTEXT(3)
GLOBAL_UNCERTAINTY_ASSIGNED_CONTEXT((#1978))
GLOBAL_UNIT_ASSIGNED_CONTEXT((#1981,#1983,#1984))
REPRESENTATION_CONTEXT('','3D')
);
#1981=(
LENGTH_UNIT()
NAMED_UNIT(*)
SI_UNIT(.CENTI.,.METRE.)
);
#1982=(
LENGTH_UNIT()
NAMED_UNIT(*)
SI_UNIT($,.METRE.)
);
#1983=(
NAMED_UNIT(*)
PLANE_ANGLE_UNIT()
SI_UNIT($,.RADIAN.)
);
#1984=(
NAMED_UNIT(*)
SI_UNIT($,.STERADIAN.)
SOLID_ANGLE_UNIT()
);
#1985=SHAPE_DEFINITION_REPRESENTATION(#1986,#1987);
#1986=PRODUCT_DEFINITION_SHAPE('',$,#1989);
#1987=SHAPE_REPRESENTATION('',(#1159),#1979);
#1988=PRODUCT_DEFINITION_CONTEXT('part definition',#1993,'design');
#1989=PRODUCT_DEFINITION('2026-04-24-15-07-28-606','forearm1',#1990,#1988);
#1990=PRODUCT_DEFINITION_FORMATION('',$,#1995);
#1991=PRODUCT_RELATED_PRODUCT_CATEGORY('forearm1','forearm1',(#1995));
#1992=APPLICATION_PROTOCOL_DEFINITION('international standard',
'automotive_design',2009,#1993);
#1993=APPLICATION_CONTEXT(
'Core Data for Automotive Mechanical Design Process');
#1994=PRODUCT_CONTEXT('part definition',#1993,'mechanical');
#1995=PRODUCT('2026-04-24-15-07-28-606','forearm1',$,(#1994));
#1996=PRESENTATION_STYLE_ASSIGNMENT((#1997));
#1997=SURFACE_STYLE_USAGE(.BOTH.,#1998);
#1998=SURFACE_SIDE_STYLE('',(#1999));
#1999=SURFACE_STYLE_FILL_AREA(#2000);
#2000=FILL_AREA_STYLE('Steel - Satin',(#2001));
#2001=FILL_AREA_STYLE_COLOUR('Steel - Satin',#2002);
#2002=COLOUR_RGB('Steel - Satin',0.627450980392157,0.627450980392157,0.627450980392157);
ENDSEC;
END-ISO-10303-21;
