ISO-10303-21;
HEADER;
/* Generated by software containing ST-Developer
 * from STEP Tools, Inc. (www.steptools.com) 
 */

FILE_DESCRIPTION(
/* description */ (''),
/* implementation_level */ '2;1');

FILE_NAME(
/* name */ 'GripperPadSTEP.step',
/* time_stamp */ '2026-06-19T21:03:41-04:00',
/* author */ (''),
/* organization */ (''),
/* preprocessor_version */ 'ST-DEVELOPER v20.1',
/* originating_system */ 'Autodesk Translation Framework v15.8.0.0',
/* authorisation */ '');

FILE_SCHEMA (('AUTOMOTIVE_DESIGN { 1 0 10303 214 3 1 1 }'));
ENDSEC;

DATA;
#10=MECHANICAL_DESIGN_GEOMETRIC_PRESENTATION_REPRESENTATION('',(#13),#583);
#11=SHAPE_REPRESENTATION_RELATIONSHIP('SRR','None',#590,#12);
#12=ADVANCED_BREP_SHAPE_REPRESENTATION('',(#14),#582);
#13=STYLED_ITEM('',(#599),#14);
#14=MANIFOLD_SOLID_BREP('Body2',#355);
#15=CYLINDRICAL_SURFACE('',#386,1.);
#16=CYLINDRICAL_SURFACE('',#388,1.);
#17=CIRCLE('',#379,1.);
#18=CIRCLE('',#380,1.);
#19=CIRCLE('',#383,1.);
#20=CIRCLE('',#384,1.);
#21=FACE_OUTER_BOUND('',#39,.T.);
#22=FACE_OUTER_BOUND('',#40,.T.);
#23=FACE_OUTER_BOUND('',#41,.T.);
#24=FACE_OUTER_BOUND('',#42,.T.);
#25=FACE_OUTER_BOUND('',#43,.T.);
#26=FACE_OUTER_BOUND('',#44,.T.);
#27=FACE_OUTER_BOUND('',#45,.T.);
#28=FACE_OUTER_BOUND('',#46,.T.);
#29=FACE_OUTER_BOUND('',#47,.T.);
#30=FACE_OUTER_BOUND('',#48,.T.);
#31=FACE_OUTER_BOUND('',#49,.T.);
#32=FACE_OUTER_BOUND('',#50,.T.);
#33=FACE_OUTER_BOUND('',#51,.T.);
#34=FACE_OUTER_BOUND('',#52,.T.);
#35=FACE_OUTER_BOUND('',#53,.T.);
#36=FACE_OUTER_BOUND('',#54,.T.);
#37=FACE_OUTER_BOUND('',#55,.T.);
#38=FACE_OUTER_BOUND('',#56,.T.);
#39=EDGE_LOOP('',(#225,#226,#227,#228));
#40=EDGE_LOOP('',(#229,#230,#231,#232));
#41=EDGE_LOOP('',(#233,#234,#235,#236));
#42=EDGE_LOOP('',(#237,#238,#239,#240));
#43=EDGE_LOOP('',(#241,#242,#243,#244));
#44=EDGE_LOOP('',(#245,#246,#247,#248));
#45=EDGE_LOOP('',(#249,#250,#251,#252));
#46=EDGE_LOOP('',(#253,#254,#255,#256));
#47=EDGE_LOOP('',(#257,#258,#259,#260));
#48=EDGE_LOOP('',(#261,#262,#263,#264,#265,#266,#267,#268,#269,#270,#271,
#272,#273,#274,#275,#276));
#49=EDGE_LOOP('',(#277,#278,#279,#280));
#50=EDGE_LOOP('',(#281,#282,#283,#284,#285,#286,#287,#288,#289,#290,#291,
#292,#293,#294,#295,#296));
#51=EDGE_LOOP('',(#297,#298,#299,#300));
#52=EDGE_LOOP('',(#301,#302,#303,#304));
#53=EDGE_LOOP('',(#305,#306,#307,#308));
#54=EDGE_LOOP('',(#309,#310,#311,#312));
#55=EDGE_LOOP('',(#313,#314,#315,#316));
#56=EDGE_LOOP('',(#317,#318,#319,#320));
#57=LINE('',#485,#101);
#58=LINE('',#487,#102);
#59=LINE('',#489,#103);
#60=LINE('',#490,#104);
#61=LINE('',#494,#105);
#62=LINE('',#496,#106);
#63=LINE('',#498,#107);
#64=LINE('',#499,#108);
#65=LINE('',#502,#109);
#66=LINE('',#504,#110);
#67=LINE('',#505,#111);
#68=LINE('',#508,#112);
#69=LINE('',#510,#113);
#70=LINE('',#511,#114);
#71=LINE('',#514,#115);
#72=LINE('',#516,#116);
#73=LINE('',#517,#117);
#74=LINE('',#520,#118);
#75=LINE('',#522,#119);
#76=LINE('',#523,#120);
#77=LINE('',#527,#121);
#78=LINE('',#529,#122);
#79=LINE('',#531,#123);
#80=LINE('',#532,#124);
#81=LINE('',#535,#125);
#82=LINE('',#537,#126);
#83=LINE('',#538,#127);
#84=LINE('',#540,#128);
#85=LINE('',#541,#129);
#86=LINE('',#544,#130);
#87=LINE('',#548,#131);
#88=LINE('',#551,#132);
#89=LINE('',#553,#133);
#90=LINE('',#554,#134);
#91=LINE('',#557,#135);
#92=LINE('',#558,#136);
#93=LINE('',#560,#137);
#94=LINE('',#562,#138);
#95=LINE('',#566,#139);
#96=LINE('',#569,#140);
#97=LINE('',#572,#141);
#98=LINE('',#573,#142);
#99=LINE('',#575,#143);
#100=LINE('',#577,#144);
#101=VECTOR('',#395,1.);
#102=VECTOR('',#396,1.);
#103=VECTOR('',#397,1.);
#104=VECTOR('',#398,1.);
#105=VECTOR('',#401,1.);
#106=VECTOR('',#402,1.);
#107=VECTOR('',#403,1.);
#108=VECTOR('',#404,1.);
#109=VECTOR('',#407,1.);
#110=VECTOR('',#408,1.);
#111=VECTOR('',#409,1.);
#112=VECTOR('',#412,1.);
#113=VECTOR('',#413,1.);
#114=VECTOR('',#414,1.);
#115=VECTOR('',#417,1.);
#116=VECTOR('',#418,1.);
#117=VECTOR('',#419,1.);
#118=VECTOR('',#422,1.);
#119=VECTOR('',#423,1.);
#120=VECTOR('',#424,1.);
#121=VECTOR('',#427,1.);
#122=VECTOR('',#428,1.);
#123=VECTOR('',#429,1.);
#124=VECTOR('',#430,1.);
#125=VECTOR('',#433,1.);
#126=VECTOR('',#434,1.);
#127=VECTOR('',#435,1.);
#128=VECTOR('',#438,1.);
#129=VECTOR('',#439,1.);
#130=VECTOR('',#442,1.);
#131=VECTOR('',#445,1.);
#132=VECTOR('',#448,1.);
#133=VECTOR('',#449,1.);
#134=VECTOR('',#450,1.);
#135=VECTOR('',#453,1.);
#136=VECTOR('',#454,1.);
#137=VECTOR('',#457,1.);
#138=VECTOR('',#458,1.);
#139=VECTOR('',#461,1.);
#140=VECTOR('',#464,1.);
#141=VECTOR('',#469,1.);
#142=VECTOR('',#470,1.);
#143=VECTOR('',#473,1.);
#144=VECTOR('',#476,1.);
#145=VERTEX_POINT('',#483);
#146=VERTEX_POINT('',#484);
#147=VERTEX_POINT('',#486);
#148=VERTEX_POINT('',#488);
#149=VERTEX_POINT('',#492);
#150=VERTEX_POINT('',#493);
#151=VERTEX_POINT('',#495);
#152=VERTEX_POINT('',#497);
#153=VERTEX_POINT('',#501);
#154=VERTEX_POINT('',#503);
#155=VERTEX_POINT('',#507);
#156=VERTEX_POINT('',#509);
#157=VERTEX_POINT('',#513);
#158=VERTEX_POINT('',#515);
#159=VERTEX_POINT('',#519);
#160=VERTEX_POINT('',#521);
#161=VERTEX_POINT('',#525);
#162=VERTEX_POINT('',#526);
#163=VERTEX_POINT('',#528);
#164=VERTEX_POINT('',#530);
#165=VERTEX_POINT('',#534);
#166=VERTEX_POINT('',#536);
#167=VERTEX_POINT('',#543);
#168=VERTEX_POINT('',#545);
#169=VERTEX_POINT('',#547);
#170=VERTEX_POINT('',#549);
#171=VERTEX_POINT('',#552);
#172=VERTEX_POINT('',#556);
#173=VERTEX_POINT('',#561);
#174=VERTEX_POINT('',#563);
#175=VERTEX_POINT('',#565);
#176=VERTEX_POINT('',#567);
#177=EDGE_CURVE('',#145,#146,#57,.T.);
#178=EDGE_CURVE('',#145,#147,#58,.T.);
#179=EDGE_CURVE('',#148,#147,#59,.T.);
#180=EDGE_CURVE('',#146,#148,#60,.T.);
#181=EDGE_CURVE('',#149,#150,#61,.T.);
#182=EDGE_CURVE('',#151,#150,#62,.T.);
#183=EDGE_CURVE('',#152,#151,#63,.T.);
#184=EDGE_CURVE('',#149,#152,#64,.T.);
#185=EDGE_CURVE('',#153,#152,#65,.T.);
#186=EDGE_CURVE('',#153,#154,#66,.T.);
#187=EDGE_CURVE('',#149,#154,#67,.T.);
#188=EDGE_CURVE('',#150,#155,#68,.T.);
#189=EDGE_CURVE('',#155,#156,#69,.T.);
#190=EDGE_CURVE('',#151,#156,#70,.T.);
#191=EDGE_CURVE('',#155,#157,#71,.T.);
#192=EDGE_CURVE('',#157,#158,#72,.T.);
#193=EDGE_CURVE('',#156,#158,#73,.T.);
#194=EDGE_CURVE('',#157,#159,#74,.T.);
#195=EDGE_CURVE('',#160,#159,#75,.T.);
#196=EDGE_CURVE('',#158,#160,#76,.T.);
#197=EDGE_CURVE('',#161,#162,#77,.T.);
#198=EDGE_CURVE('',#163,#161,#78,.T.);
#199=EDGE_CURVE('',#164,#163,#79,.T.);
#200=EDGE_CURVE('',#162,#164,#80,.T.);
#201=EDGE_CURVE('',#165,#161,#81,.T.);
#202=EDGE_CURVE('',#165,#166,#82,.T.);
#203=EDGE_CURVE('',#163,#166,#83,.T.);
#204=EDGE_CURVE('',#147,#164,#84,.T.);
#205=EDGE_CURVE('',#162,#145,#85,.T.);
#206=EDGE_CURVE('',#166,#167,#86,.T.);
#207=EDGE_CURVE('',#168,#167,#17,.T.);
#208=EDGE_CURVE('',#169,#168,#87,.T.);
#209=EDGE_CURVE('',#170,#169,#18,.T.);
#210=EDGE_CURVE('',#153,#170,#88,.T.);
#211=EDGE_CURVE('',#160,#171,#89,.T.);
#212=EDGE_CURVE('',#171,#148,#90,.T.);
#213=EDGE_CURVE('',#172,#159,#91,.T.);
#214=EDGE_CURVE('',#171,#172,#92,.T.);
#215=EDGE_CURVE('',#146,#172,#93,.T.);
#216=EDGE_CURVE('',#154,#173,#94,.T.);
#217=EDGE_CURVE('',#174,#173,#19,.T.);
#218=EDGE_CURVE('',#175,#174,#95,.T.);
#219=EDGE_CURVE('',#176,#175,#20,.T.);
#220=EDGE_CURVE('',#165,#176,#96,.T.);
#221=EDGE_CURVE('',#175,#168,#97,.T.);
#222=EDGE_CURVE('',#167,#176,#98,.T.);
#223=EDGE_CURVE('',#169,#174,#99,.T.);
#224=EDGE_CURVE('',#173,#170,#100,.T.);
#225=ORIENTED_EDGE('',*,*,#177,.F.);
#226=ORIENTED_EDGE('',*,*,#178,.T.);
#227=ORIENTED_EDGE('',*,*,#179,.F.);
#228=ORIENTED_EDGE('',*,*,#180,.F.);
#229=ORIENTED_EDGE('',*,*,#181,.T.);
#230=ORIENTED_EDGE('',*,*,#182,.F.);
#231=ORIENTED_EDGE('',*,*,#183,.F.);
#232=ORIENTED_EDGE('',*,*,#184,.F.);
#233=ORIENTED_EDGE('',*,*,#184,.T.);
#234=ORIENTED_EDGE('',*,*,#185,.F.);
#235=ORIENTED_EDGE('',*,*,#186,.T.);
#236=ORIENTED_EDGE('',*,*,#187,.F.);
#237=ORIENTED_EDGE('',*,*,#182,.T.);
#238=ORIENTED_EDGE('',*,*,#188,.T.);
#239=ORIENTED_EDGE('',*,*,#189,.T.);
#240=ORIENTED_EDGE('',*,*,#190,.F.);
#241=ORIENTED_EDGE('',*,*,#191,.T.);
#242=ORIENTED_EDGE('',*,*,#192,.T.);
#243=ORIENTED_EDGE('',*,*,#193,.F.);
#244=ORIENTED_EDGE('',*,*,#189,.F.);
#245=ORIENTED_EDGE('',*,*,#194,.T.);
#246=ORIENTED_EDGE('',*,*,#195,.F.);
#247=ORIENTED_EDGE('',*,*,#196,.F.);
#248=ORIENTED_EDGE('',*,*,#192,.F.);
#249=ORIENTED_EDGE('',*,*,#197,.F.);
#250=ORIENTED_EDGE('',*,*,#198,.F.);
#251=ORIENTED_EDGE('',*,*,#199,.F.);
#252=ORIENTED_EDGE('',*,*,#200,.F.);
#253=ORIENTED_EDGE('',*,*,#198,.T.);
#254=ORIENTED_EDGE('',*,*,#201,.F.);
#255=ORIENTED_EDGE('',*,*,#202,.T.);
#256=ORIENTED_EDGE('',*,*,#203,.F.);
#257=ORIENTED_EDGE('',*,*,#200,.T.);
#258=ORIENTED_EDGE('',*,*,#204,.F.);
#259=ORIENTED_EDGE('',*,*,#178,.F.);
#260=ORIENTED_EDGE('',*,*,#205,.F.);
#261=ORIENTED_EDGE('',*,*,#204,.T.);
#262=ORIENTED_EDGE('',*,*,#199,.T.);
#263=ORIENTED_EDGE('',*,*,#203,.T.);
#264=ORIENTED_EDGE('',*,*,#206,.T.);
#265=ORIENTED_EDGE('',*,*,#207,.F.);
#266=ORIENTED_EDGE('',*,*,#208,.F.);
#267=ORIENTED_EDGE('',*,*,#209,.F.);
#268=ORIENTED_EDGE('',*,*,#210,.F.);
#269=ORIENTED_EDGE('',*,*,#185,.T.);
#270=ORIENTED_EDGE('',*,*,#183,.T.);
#271=ORIENTED_EDGE('',*,*,#190,.T.);
#272=ORIENTED_EDGE('',*,*,#193,.T.);
#273=ORIENTED_EDGE('',*,*,#196,.T.);
#274=ORIENTED_EDGE('',*,*,#211,.T.);
#275=ORIENTED_EDGE('',*,*,#212,.T.);
#276=ORIENTED_EDGE('',*,*,#179,.T.);
#277=ORIENTED_EDGE('',*,*,#195,.T.);
#278=ORIENTED_EDGE('',*,*,#213,.F.);
#279=ORIENTED_EDGE('',*,*,#214,.F.);
#280=ORIENTED_EDGE('',*,*,#211,.F.);
#281=ORIENTED_EDGE('',*,*,#205,.T.);
#282=ORIENTED_EDGE('',*,*,#177,.T.);
#283=ORIENTED_EDGE('',*,*,#215,.T.);
#284=ORIENTED_EDGE('',*,*,#213,.T.);
#285=ORIENTED_EDGE('',*,*,#194,.F.);
#286=ORIENTED_EDGE('',*,*,#191,.F.);
#287=ORIENTED_EDGE('',*,*,#188,.F.);
#288=ORIENTED_EDGE('',*,*,#181,.F.);
#289=ORIENTED_EDGE('',*,*,#187,.T.);
#290=ORIENTED_EDGE('',*,*,#216,.T.);
#291=ORIENTED_EDGE('',*,*,#217,.F.);
#292=ORIENTED_EDGE('',*,*,#218,.F.);
#293=ORIENTED_EDGE('',*,*,#219,.F.);
#294=ORIENTED_EDGE('',*,*,#220,.F.);
#295=ORIENTED_EDGE('',*,*,#201,.T.);
#296=ORIENTED_EDGE('',*,*,#197,.T.);
#297=ORIENTED_EDGE('',*,*,#214,.T.);
#298=ORIENTED_EDGE('',*,*,#215,.F.);
#299=ORIENTED_EDGE('',*,*,#180,.T.);
#300=ORIENTED_EDGE('',*,*,#212,.F.);
#301=ORIENTED_EDGE('',*,*,#219,.T.);
#302=ORIENTED_EDGE('',*,*,#221,.T.);
#303=ORIENTED_EDGE('',*,*,#207,.T.);
#304=ORIENTED_EDGE('',*,*,#222,.T.);
#305=ORIENTED_EDGE('',*,*,#221,.F.);
#306=ORIENTED_EDGE('',*,*,#218,.T.);
#307=ORIENTED_EDGE('',*,*,#223,.F.);
#308=ORIENTED_EDGE('',*,*,#208,.T.);
#309=ORIENTED_EDGE('',*,*,#209,.T.);
#310=ORIENTED_EDGE('',*,*,#223,.T.);
#311=ORIENTED_EDGE('',*,*,#217,.T.);
#312=ORIENTED_EDGE('',*,*,#224,.T.);
#313=ORIENTED_EDGE('',*,*,#224,.F.);
#314=ORIENTED_EDGE('',*,*,#216,.F.);
#315=ORIENTED_EDGE('',*,*,#186,.F.);
#316=ORIENTED_EDGE('',*,*,#210,.T.);
#317=ORIENTED_EDGE('',*,*,#222,.F.);
#318=ORIENTED_EDGE('',*,*,#206,.F.);
#319=ORIENTED_EDGE('',*,*,#202,.F.);
#320=ORIENTED_EDGE('',*,*,#220,.T.);
#321=PLANE('',#369);
#322=PLANE('',#370);
#323=PLANE('',#371);
#324=PLANE('',#372);
#325=PLANE('',#373);
#326=PLANE('',#374);
#327=PLANE('',#375);
#328=PLANE('',#376);
#329=PLANE('',#377);
#330=PLANE('',#378);
#331=PLANE('',#381);
#332=PLANE('',#382);
#333=PLANE('',#385);
#334=PLANE('',#387);
#335=PLANE('',#389);
#336=PLANE('',#390);
#337=ADVANCED_FACE('',(#21),#321,.T.);
#338=ADVANCED_FACE('',(#22),#322,.T.);
#339=ADVANCED_FACE('',(#23),#323,.F.);
#340=ADVANCED_FACE('',(#24),#324,.F.);
#341=ADVANCED_FACE('',(#25),#325,.T.);
#342=ADVANCED_FACE('',(#26),#326,.T.);
#343=ADVANCED_FACE('',(#27),#327,.T.);
#344=ADVANCED_FACE('',(#28),#328,.F.);
#345=ADVANCED_FACE('',(#29),#329,.F.);
#346=ADVANCED_FACE('',(#30),#330,.T.);
#347=ADVANCED_FACE('',(#31),#331,.F.);
#348=ADVANCED_FACE('',(#32),#332,.T.);
#349=ADVANCED_FACE('',(#33),#333,.F.);
#350=ADVANCED_FACE('',(#34),#15,.T.);
#351=ADVANCED_FACE('',(#35),#334,.T.);
#352=ADVANCED_FACE('',(#36),#16,.T.);
#353=ADVANCED_FACE('',(#37),#335,.T.);
#354=ADVANCED_FACE('',(#38),#336,.T.);
#355=CLOSED_SHELL('',(#337,#338,#339,#340,#341,#342,#343,#344,#345,#346,
#347,#348,#349,#350,#351,#352,#353,#354));
#356=DERIVED_UNIT_ELEMENT(#358,1.);
#357=DERIVED_UNIT_ELEMENT(#585,-3.);
#358=(
MASS_UNIT()
NAMED_UNIT(*)
SI_UNIT(.KILO.,.GRAM.)
);
#359=DERIVED_UNIT((#356,#357));
#360=MEASURE_REPRESENTATION_ITEM('density measure',
POSITIVE_RATIO_MEASURE(7850.),#359);
#361=PROPERTY_DEFINITION_REPRESENTATION(#366,#363);
#362=PROPERTY_DEFINITION_REPRESENTATION(#367,#364);
#363=REPRESENTATION('material name',(#365),#582);
#364=REPRESENTATION('density',(#360),#582);
#365=DESCRIPTIVE_REPRESENTATION_ITEM('Steel','Steel');
#366=PROPERTY_DEFINITION('material property','material name',#592);
#367=PROPERTY_DEFINITION('material property','density of part',#592);
#368=AXIS2_PLACEMENT_3D('',#481,#391,#392);
#369=AXIS2_PLACEMENT_3D('',#482,#393,#394);
#370=AXIS2_PLACEMENT_3D('',#491,#399,#400);
#371=AXIS2_PLACEMENT_3D('',#500,#405,#406);
#372=AXIS2_PLACEMENT_3D('',#506,#410,#411);
#373=AXIS2_PLACEMENT_3D('',#512,#415,#416);
#374=AXIS2_PLACEMENT_3D('',#518,#420,#421);
#375=AXIS2_PLACEMENT_3D('',#524,#425,#426);
#376=AXIS2_PLACEMENT_3D('',#533,#431,#432);
#377=AXIS2_PLACEMENT_3D('',#539,#436,#437);
#378=AXIS2_PLACEMENT_3D('',#542,#440,#441);
#379=AXIS2_PLACEMENT_3D('',#546,#443,#444);
#380=AXIS2_PLACEMENT_3D('',#550,#446,#447);
#381=AXIS2_PLACEMENT_3D('',#555,#451,#452);
#382=AXIS2_PLACEMENT_3D('',#559,#455,#456);
#383=AXIS2_PLACEMENT_3D('',#564,#459,#460);
#384=AXIS2_PLACEMENT_3D('',#568,#462,#463);
#385=AXIS2_PLACEMENT_3D('',#570,#465,#466);
#386=AXIS2_PLACEMENT_3D('',#571,#467,#468);
#387=AXIS2_PLACEMENT_3D('',#574,#471,#472);
#388=AXIS2_PLACEMENT_3D('',#576,#474,#475);
#389=AXIS2_PLACEMENT_3D('',#578,#477,#478);
#390=AXIS2_PLACEMENT_3D('',#579,#479,#480);
#391=DIRECTION('axis',(0.,0.,1.));
#392=DIRECTION('refdir',(1.,0.,0.));
#393=DIRECTION('center_axis',(0.,0.,-1.));
#394=DIRECTION('ref_axis',(0.,1.,0.));
#395=DIRECTION('',(0.,-1.,0.));
#396=DIRECTION('',(1.,0.,0.));
#397=DIRECTION('',(0.,1.,0.));
#398=DIRECTION('',(1.,0.,0.));
#399=DIRECTION('center_axis',(0.,0.,1.));
#400=DIRECTION('ref_axis',(0.,-1.,0.));
#401=DIRECTION('',(0.,-1.,0.));
#402=DIRECTION('',(-1.,0.,0.));
#403=DIRECTION('',(0.,-1.,0.));
#404=DIRECTION('',(1.,0.,0.));
#405=DIRECTION('center_axis',(0.,1.,0.));
#406=DIRECTION('ref_axis',(-1.,0.,0.));
#407=DIRECTION('',(0.,0.,-1.));
#408=DIRECTION('',(-1.,0.,0.));
#409=DIRECTION('',(0.,0.,1.));
#410=DIRECTION('center_axis',(0.,-1.,0.));
#411=DIRECTION('ref_axis',(0.,0.,1.));
#412=DIRECTION('',(0.,0.,1.));
#413=DIRECTION('',(1.,0.,0.));
#414=DIRECTION('',(0.,0.,1.));
#415=DIRECTION('center_axis',(0.,0.,1.));
#416=DIRECTION('ref_axis',(0.,-1.,0.));
#417=DIRECTION('',(0.,-1.,0.));
#418=DIRECTION('',(1.,0.,0.));
#419=DIRECTION('',(0.,-1.,0.));
#420=DIRECTION('center_axis',(0.,-1.,0.));
#421=DIRECTION('ref_axis',(0.,0.,-1.));
#422=DIRECTION('',(0.,0.,-1.));
#423=DIRECTION('',(-1.,0.,0.));
#424=DIRECTION('',(0.,0.,-1.));
#425=DIRECTION('center_axis',(0.,0.,-1.));
#426=DIRECTION('ref_axis',(0.,1.,0.));
#427=DIRECTION('',(0.,-1.,0.));
#428=DIRECTION('',(-1.,0.,0.));
#429=DIRECTION('',(0.,1.,0.));
#430=DIRECTION('',(1.,0.,0.));
#431=DIRECTION('center_axis',(0.,1.,0.));
#432=DIRECTION('ref_axis',(-1.,0.,0.));
#433=DIRECTION('',(0.,0.,1.));
#434=DIRECTION('',(1.,0.,0.));
#435=DIRECTION('',(0.,0.,-1.));
#436=DIRECTION('center_axis',(0.,-1.,0.));
#437=DIRECTION('ref_axis',(0.,0.,-1.));
#438=DIRECTION('',(0.,0.,1.));
#439=DIRECTION('',(0.,0.,-1.));
#440=DIRECTION('center_axis',(1.,0.,0.));
#441=DIRECTION('ref_axis',(0.,0.,-1.));
#442=DIRECTION('',(0.,1.,0.));
#443=DIRECTION('center_axis',(-1.,0.,0.));
#444=DIRECTION('ref_axis',(0.,0.707106781186548,-0.707106781186548));
#445=DIRECTION('',(0.,0.,-1.));
#446=DIRECTION('center_axis',(-1.,0.,0.));
#447=DIRECTION('ref_axis',(0.,0.707106781186548,0.707106781186548));
#448=DIRECTION('',(0.,1.,0.));
#449=DIRECTION('',(0.,-1.,0.));
#450=DIRECTION('',(0.,0.,-1.));
#451=DIRECTION('center_axis',(0.,0.,-1.));
#452=DIRECTION('ref_axis',(0.,-1.,0.));
#453=DIRECTION('',(0.,1.,0.));
#454=DIRECTION('',(-1.,0.,0.));
#455=DIRECTION('center_axis',(-1.,0.,0.));
#456=DIRECTION('ref_axis',(0.,0.,1.));
#457=DIRECTION('',(0.,0.,1.));
#458=DIRECTION('',(0.,1.,0.));
#459=DIRECTION('center_axis',(1.,0.,0.));
#460=DIRECTION('ref_axis',(0.,0.707106781186548,0.707106781186548));
#461=DIRECTION('',(0.,0.,1.));
#462=DIRECTION('center_axis',(1.,0.,0.));
#463=DIRECTION('ref_axis',(0.,0.707106781186548,-0.707106781186548));
#464=DIRECTION('',(0.,1.,0.));
#465=DIRECTION('center_axis',(0.,1.,0.));
#466=DIRECTION('ref_axis',(1.,0.,0.));
#467=DIRECTION('center_axis',(-1.,0.,0.));
#468=DIRECTION('ref_axis',(0.,0.707106781186548,-0.707106781186548));
#469=DIRECTION('',(1.,0.,0.));
#470=DIRECTION('',(-1.,0.,0.));
#471=DIRECTION('center_axis',(0.,1.,0.));
#472=DIRECTION('ref_axis',(0.,0.,1.));
#473=DIRECTION('',(-1.,0.,0.));
#474=DIRECTION('center_axis',(1.,0.,0.));
#475=DIRECTION('ref_axis',(0.,0.707106781186548,0.707106781186548));
#476=DIRECTION('',(1.,0.,0.));
#477=DIRECTION('center_axis',(0.,0.,1.));
#478=DIRECTION('ref_axis',(1.,0.,0.));
#479=DIRECTION('center_axis',(0.,0.,-1.));
#480=DIRECTION('ref_axis',(-1.,0.,0.));
#481=CARTESIAN_POINT('',(0.,0.,0.));
#482=CARTESIAN_POINT('Origin',(-0.548696862856541,-0.0615887867016225,-1.87266768211392));
#483=CARTESIAN_POINT('',(-0.548696862856541,0.688411213298378,-1.87266768211392));
#484=CARTESIAN_POINT('',(-0.548696862856541,-0.0615887867016225,-1.87266768211392));
#485=CARTESIAN_POINT('',(-0.548696862856541,0.688411213298378,-1.87266768211392));
#486=CARTESIAN_POINT('',(0.451303137143459,0.688411213298378,-1.87266768211392));
#487=CARTESIAN_POINT('',(-0.548696862856541,0.688411213298378,-1.87266768211392));
#488=CARTESIAN_POINT('',(0.451303137143459,-0.0615887867016225,-1.87266768211392));
#489=CARTESIAN_POINT('',(0.451303137143459,0.688411213298378,-1.87266768211392));
#490=CARTESIAN_POINT('',(-0.548696862856541,-0.0615887867016225,-1.87266768211392));
#491=CARTESIAN_POINT('Origin',(-0.548696862856541,1.12841121329838,1.05233236109945));
#492=CARTESIAN_POINT('',(-0.548696862856541,1.12841121329838,1.05233236109945));
#493=CARTESIAN_POINT('',(-0.548696862856541,0.688411213298378,1.05233236109945));
#494=CARTESIAN_POINT('',(-0.548696862856541,1.12841121329838,1.05233236109945));
#495=CARTESIAN_POINT('',(0.451303137143459,0.688411213298378,1.05233236109945));
#496=CARTESIAN_POINT('',(-0.0486968628565414,0.688411213298378,1.05233236109945));
#497=CARTESIAN_POINT('',(0.451303137143459,1.12841121329838,1.05233236109945));
#498=CARTESIAN_POINT('',(0.451303137143459,1.12841121329838,1.05233236109945));
#499=CARTESIAN_POINT('',(-0.298696866581832,1.12841121329838,1.05233236109945));
#500=CARTESIAN_POINT('Origin',(-0.048696870307122,1.12841121329838,0.302332350668637));
#501=CARTESIAN_POINT('',(0.451303137143459,1.12841121329838,2.50233238345119));
#502=CARTESIAN_POINT('',(0.451303137143459,1.12841121329838,1.70233233949276));
#503=CARTESIAN_POINT('',(-0.548696877757703,1.12841121329838,2.50233238345119));
#504=CARTESIAN_POINT('',(0.451303137143459,1.12841121329838,2.50233238345119));
#505=CARTESIAN_POINT('',(-0.548696862856541,1.12841121329838,-0.447667660507234));
#506=CARTESIAN_POINT('Origin',(0.451303137143459,0.688411213298378,0.952238774531272));
#507=CARTESIAN_POINT('',(-0.548696862856541,0.688411213298378,2.47733231788608));
#508=CARTESIAN_POINT('',(-0.548696862856541,0.688411213298378,2.45233231788608));
#509=CARTESIAN_POINT('',(0.451303137143459,0.688411213298378,2.47733231788608));
#510=CARTESIAN_POINT('',(-0.548696862856541,0.688411213298378,2.47733231788608));
#511=CARTESIAN_POINT('',(0.451303137143459,0.688411213298378,2.45233231788608));
#512=CARTESIAN_POINT('Origin',(-0.548696862856541,0.688411213298378,2.47733231788608));
#513=CARTESIAN_POINT('',(-0.548696862856541,-0.0550669302512459,2.47733231788608));
#514=CARTESIAN_POINT('',(-0.548696862856541,0.688411213298378,2.47733231788608));
#515=CARTESIAN_POINT('',(0.451303137143459,-0.0550669302512459,2.47733231788608));
#516=CARTESIAN_POINT('',(-0.548696862856541,-0.0550669302512459,2.47733231788608));
#517=CARTESIAN_POINT('',(0.451303137143459,0.688411213298378,2.47733231788608));
#518=CARTESIAN_POINT('Origin',(-0.548696862856541,-0.0550669302512459,2.47733231788608));
#519=CARTESIAN_POINT('',(-0.548696862856541,-0.0550669302512459,2.45233231788608));
#520=CARTESIAN_POINT('',(-0.548696862856541,-0.0550669302512459,2.47733231788608));
#521=CARTESIAN_POINT('',(0.451303137143459,-0.0550669302512459,2.45233231788608));
#522=CARTESIAN_POINT('',(-0.0486968628565414,-0.0550669302512459,2.45233231788608));
#523=CARTESIAN_POINT('',(0.451303137143459,-0.0550669302512459,2.47733231788608));
#524=CARTESIAN_POINT('Origin',(-0.548696862856541,0.688411213298378,-0.447659915467655));
#525=CARTESIAN_POINT('',(-0.548696862856541,1.12841121329838,-0.447659915467655));
#526=CARTESIAN_POINT('',(-0.548696862856541,0.688411213298378,-0.447659915467655));
#527=CARTESIAN_POINT('',(-0.548696862856541,1.12841121329838,-0.447659915467655));
#528=CARTESIAN_POINT('',(0.451303137143459,1.12841121329838,-0.447659915467655));
#529=CARTESIAN_POINT('',(-0.298696866581832,1.12841121329838,-0.447659915467656));
#530=CARTESIAN_POINT('',(0.451303137143459,0.688411213298378,-0.447659915467655));
#531=CARTESIAN_POINT('',(0.451303137143459,1.12841121329838,-0.447659915467655));
#532=CARTESIAN_POINT('',(-0.548696862856541,0.688411213298378,-0.447659915467655));
#533=CARTESIAN_POINT('Origin',(-0.048696870307122,1.12841121329838,0.302332350668637));
#534=CARTESIAN_POINT('',(-0.548696877757703,1.12841121329838,-1.89766768211392));
#535=CARTESIAN_POINT('',(-0.548696862856541,1.12841121329838,-1.12266767093805));
#536=CARTESIAN_POINT('',(0.451303137143459,1.12841121329838,-1.89766768211392));
#537=CARTESIAN_POINT('',(-0.548696877757703,1.12841121329838,-1.89766768211392));
#538=CARTESIAN_POINT('',(0.451303137143459,1.12841121329838,1.02733232906195));
#539=CARTESIAN_POINT('Origin',(-0.548696862856541,0.688411213298378,-0.347659915467655));
#540=CARTESIAN_POINT('',(0.451303137143459,0.688411213298378,-1.84766768211392));
#541=CARTESIAN_POINT('',(-0.548696862856541,0.688411213298378,-1.84766768211392));
#542=CARTESIAN_POINT('Origin',(0.451303137143459,-0.0615887867016225,2.40233231788608));
#543=CARTESIAN_POINT('',(0.451303137143459,3.62841121329838,-1.89766768211392));
#544=CARTESIAN_POINT('',(0.451303137143459,1.12841121329838,-1.89766768211392));
#545=CARTESIAN_POINT('',(0.451303137143459,4.62841121329838,-0.897667682113918));
#546=CARTESIAN_POINT('Origin',(0.451303137143459,3.62841121329838,-0.897667682113918));
#547=CARTESIAN_POINT('',(0.451303137143459,4.62841121329838,1.50233238345119));
#548=CARTESIAN_POINT('',(0.451303137143459,4.62841121329838,-1.89766768211392));
#549=CARTESIAN_POINT('',(0.451303137143459,3.62841121329838,2.50233238345119));
#550=CARTESIAN_POINT('Origin',(0.451303137143459,3.62841121329838,1.50233238345119));
#551=CARTESIAN_POINT('',(0.451303137143459,1.12841121329838,2.50233238345119));
#552=CARTESIAN_POINT('',(0.451303137143459,-0.0615887867016225,2.45233231788608));
#553=CARTESIAN_POINT('',(0.451303137143459,0.363411213298377,2.45233231788608));
#554=CARTESIAN_POINT('',(0.451303137143459,-0.0615887867016225,-1.87266768211392));
#555=CARTESIAN_POINT('Origin',(0.451303137143459,0.788411213298378,2.45233231788608));
#556=CARTESIAN_POINT('',(-0.548696862856541,-0.0615887867016225,2.45233231788608));
#557=CARTESIAN_POINT('',(-0.548696862856541,0.363411213298377,2.45233231788608));
#558=CARTESIAN_POINT('',(0.201303137143459,-0.0615887867016225,2.45233231788608));
#559=CARTESIAN_POINT('Origin',(-0.548696862856541,-0.0615887867016225,-1.89766768211392));
#560=CARTESIAN_POINT('',(-0.548696862856541,-0.0615887867016225,-1.89766768211392));
#561=CARTESIAN_POINT('',(-0.548696877757703,3.62841121329838,2.50233238345119));
#562=CARTESIAN_POINT('',(-0.548696877757703,1.12841121329838,2.50233238345119));
#563=CARTESIAN_POINT('',(-0.548696877757703,4.62841121329838,1.50233238345119));
#564=CARTESIAN_POINT('Origin',(-0.548696862856541,3.62841121329838,1.50233238345119));
#565=CARTESIAN_POINT('',(-0.548696877757703,4.62841121329838,-0.897667682113918));
#566=CARTESIAN_POINT('',(-0.548696877757703,4.62841121329838,2.50233238345119));
#567=CARTESIAN_POINT('',(-0.548696877757703,3.62841121329838,-1.89766768211392));
#568=CARTESIAN_POINT('Origin',(-0.548696862856541,3.62841121329838,-0.897667682113918));
#569=CARTESIAN_POINT('',(-0.548696877757703,1.12841121329838,-1.89766768211392));
#570=CARTESIAN_POINT('Origin',(-0.0486968628565414,-0.0615887867016225,
0.252332317886081));
#571=CARTESIAN_POINT('Origin',(0.201303133418168,3.62841121329838,-0.897667682113918));
#572=CARTESIAN_POINT('',(0.201303133418168,4.62841121329838,-0.897667682113918));
#573=CARTESIAN_POINT('',(0.201303133418168,3.62841121329838,-1.89766768211392));
#574=CARTESIAN_POINT('Origin',(-0.048696870307122,4.62841121329838,0.302332350668637));
#575=CARTESIAN_POINT('',(-0.298696874032412,4.62841121329838,1.50233238345119));
#576=CARTESIAN_POINT('Origin',(-0.298696874032412,3.62841121329838,1.50233238345119));
#577=CARTESIAN_POINT('',(-0.298696874032412,3.62841121329838,2.50233238345119));
#578=CARTESIAN_POINT('Origin',(-0.548696877757703,1.12841121329838,2.50233238345119));
#579=CARTESIAN_POINT('Origin',(0.451303137143459,1.12841121329838,-1.89766768211392));
#580=UNCERTAINTY_MEASURE_WITH_UNIT(LENGTH_MEASURE(0.001),#584,
'DISTANCE_ACCURACY_VALUE',
'Maximum model space distance between geometric entities at asserted c
onnectivities');
#581=UNCERTAINTY_MEASURE_WITH_UNIT(LENGTH_MEASURE(0.001),#584,
'DISTANCE_ACCURACY_VALUE',
'Maximum model space distance between geometric entities at asserted c
onnectivities');
#582=(
GEOMETRIC_REPRESENTATION_CONTEXT(3)
GLOBAL_UNCERTAINTY_ASSIGNED_CONTEXT((#580))
GLOBAL_UNIT_ASSIGNED_CONTEXT((#584,#586,#587))
REPRESENTATION_CONTEXT('','3D')
);
#583=(
GEOMETRIC_REPRESENTATION_CONTEXT(3)
GLOBAL_UNCERTAINTY_ASSIGNED_CONTEXT((#581))
GLOBAL_UNIT_ASSIGNED_CONTEXT((#584,#586,#587))
REPRESENTATION_CONTEXT('','3D')
);
#584=(
LENGTH_UNIT()
NAMED_UNIT(*)
SI_UNIT(.CENTI.,.METRE.)
);
#585=(
LENGTH_UNIT()
NAMED_UNIT(*)
SI_UNIT($,.METRE.)
);
#586=(
NAMED_UNIT(*)
PLANE_ANGLE_UNIT()
SI_UNIT($,.RADIAN.)
);
#587=(
NAMED_UNIT(*)
SI_UNIT($,.STERADIAN.)
SOLID_ANGLE_UNIT()
);
#588=SHAPE_DEFINITION_REPRESENTATION(#589,#590);
#589=PRODUCT_DEFINITION_SHAPE('',$,#592);
#590=SHAPE_REPRESENTATION('',(#368),#582);
#591=PRODUCT_DEFINITION_CONTEXT('part definition',#596,'design');
#592=PRODUCT_DEFINITION('2026-05-11-22-42-08-638','hand',#593,#591);
#593=PRODUCT_DEFINITION_FORMATION('',$,#598);
#594=PRODUCT_RELATED_PRODUCT_CATEGORY('hand','hand',(#598));
#595=APPLICATION_PROTOCOL_DEFINITION('international standard',
'automotive_design',2009,#596);
#596=APPLICATION_CONTEXT(
'Core Data for Automotive Mechanical Design Process');
#597=PRODUCT_CONTEXT('part definition',#596,'mechanical');
#598=PRODUCT('2026-05-11-22-42-08-638','hand',$,(#597));
#599=PRESENTATION_STYLE_ASSIGNMENT((#600));
#600=SURFACE_STYLE_USAGE(.BOTH.,#601);
#601=SURFACE_SIDE_STYLE('',(#602));
#602=SURFACE_STYLE_FILL_AREA(#603);
#603=FILL_AREA_STYLE('Steel - Satin',(#604));
#604=FILL_AREA_STYLE_COLOUR('Steel - Satin',#605);
#605=COLOUR_RGB('Steel - Satin',0.627450980392157,0.627450980392157,0.627450980392157);
ENDSEC;
END-ISO-10303-21;
