ISO-10303-21;
HEADER;
/* Generated by software containing ST-Developer
 * from STEP Tools, Inc. (www.steptools.com) 
 */

FILE_DESCRIPTION(
/* description */ (''),
/* implementation_level */ '2;1');

FILE_NAME(
/* name */ 'handSTEP.step',
/* time_stamp */ '2026-06-19T21:02:16-04:00',
/* author */ (''),
/* organization */ (''),
/* preprocessor_version */ 'ST-DEVELOPER v20.1',
/* originating_system */ 'Autodesk Translation Framework v15.8.0.0',
/* authorisation */ '');

FILE_SCHEMA (('AUTOMOTIVE_DESIGN { 1 0 10303 214 3 1 1 }'));
ENDSEC;

DATA;
#10=MECHANICAL_DESIGN_GEOMETRIC_PRESENTATION_REPRESENTATION('',(#13),#1079);
#11=SHAPE_REPRESENTATION_RELATIONSHIP('SRR','None',#1085,#12);
#12=ADVANCED_BREP_SHAPE_REPRESENTATION('',(#14),#1078);
#13=STYLED_ITEM('',(#1094),#14);
#14=MANIFOLD_SOLID_BREP('Body1',#688);
#15=FACE_BOUND('',#67,.T.);
#16=FACE_BOUND('',#68,.T.);
#17=FACE_BOUND('',#84,.T.);
#18=FACE_BOUND('',#85,.T.);
#19=FACE_OUTER_BOUND('',#52,.T.);
#20=FACE_OUTER_BOUND('',#53,.T.);
#21=FACE_OUTER_BOUND('',#54,.T.);
#22=FACE_OUTER_BOUND('',#55,.T.);
#23=FACE_OUTER_BOUND('',#56,.T.);
#24=FACE_OUTER_BOUND('',#57,.T.);
#25=FACE_OUTER_BOUND('',#58,.T.);
#26=FACE_OUTER_BOUND('',#59,.T.);
#27=FACE_OUTER_BOUND('',#60,.T.);
#28=FACE_OUTER_BOUND('',#61,.T.);
#29=FACE_OUTER_BOUND('',#62,.T.);
#30=FACE_OUTER_BOUND('',#63,.T.);
#31=FACE_OUTER_BOUND('',#64,.T.);
#32=FACE_OUTER_BOUND('',#65,.T.);
#33=FACE_OUTER_BOUND('',#66,.T.);
#34=FACE_OUTER_BOUND('',#69,.T.);
#35=FACE_OUTER_BOUND('',#70,.T.);
#36=FACE_OUTER_BOUND('',#71,.T.);
#37=FACE_OUTER_BOUND('',#72,.T.);
#38=FACE_OUTER_BOUND('',#73,.T.);
#39=FACE_OUTER_BOUND('',#74,.T.);
#40=FACE_OUTER_BOUND('',#75,.T.);
#41=FACE_OUTER_BOUND('',#76,.T.);
#42=FACE_OUTER_BOUND('',#77,.T.);
#43=FACE_OUTER_BOUND('',#78,.T.);
#44=FACE_OUTER_BOUND('',#79,.T.);
#45=FACE_OUTER_BOUND('',#80,.T.);
#46=FACE_OUTER_BOUND('',#81,.T.);
#47=FACE_OUTER_BOUND('',#82,.T.);
#48=FACE_OUTER_BOUND('',#83,.T.);
#49=FACE_OUTER_BOUND('',#86,.T.);
#50=FACE_OUTER_BOUND('',#87,.T.);
#51=FACE_OUTER_BOUND('',#88,.T.);
#52=EDGE_LOOP('',(#434,#435,#436,#437));
#53=EDGE_LOOP('',(#438,#439,#440,#441));
#54=EDGE_LOOP('',(#442,#443,#444,#445));
#55=EDGE_LOOP('',(#446,#447,#448,#449));
#56=EDGE_LOOP('',(#450,#451,#452,#453));
#57=EDGE_LOOP('',(#454,#455,#456,#457));
#58=EDGE_LOOP('',(#458,#459,#460,#461,#462,#463));
#59=EDGE_LOOP('',(#464,#465,#466,#467));
#60=EDGE_LOOP('',(#468,#469,#470,#471));
#61=EDGE_LOOP('',(#472,#473,#474,#475,#476,#477));
#62=EDGE_LOOP('',(#478,#479,#480,#481,#482,#483));
#63=EDGE_LOOP('',(#484,#485,#486,#487));
#64=EDGE_LOOP('',(#488,#489,#490,#491));
#65=EDGE_LOOP('',(#492,#493,#494,#495));
#66=EDGE_LOOP('',(#496,#497,#498,#499,#500,#501));
#67=EDGE_LOOP('',(#502,#503,#504,#505));
#68=EDGE_LOOP('',(#506,#507,#508,#509));
#69=EDGE_LOOP('',(#510,#511,#512,#513,#514,#515,#516,#517,#518,#519,#520,
#521,#522,#523));
#70=EDGE_LOOP('',(#524,#525,#526,#527,#528,#529));
#71=EDGE_LOOP('',(#530,#531,#532,#533));
#72=EDGE_LOOP('',(#534,#535,#536,#537,#538,#539,#540));
#73=EDGE_LOOP('',(#541,#542,#543,#544));
#74=EDGE_LOOP('',(#545,#546,#547,#548));
#75=EDGE_LOOP('',(#549,#550,#551,#552));
#76=EDGE_LOOP('',(#553,#554,#555,#556));
#77=EDGE_LOOP('',(#557,#558,#559,#560));
#78=EDGE_LOOP('',(#561,#562,#563,#564));
#79=EDGE_LOOP('',(#565,#566,#567,#568));
#80=EDGE_LOOP('',(#569,#570,#571,#572,#573));
#81=EDGE_LOOP('',(#574,#575,#576,#577,#578,#579,#580,#581,#582,#583,#584,
#585,#586,#587));
#82=EDGE_LOOP('',(#588,#589,#590,#591,#592,#593,#594,#595));
#83=EDGE_LOOP('',(#596,#597,#598,#599));
#84=EDGE_LOOP('',(#600,#601,#602,#603));
#85=EDGE_LOOP('',(#604,#605,#606,#607));
#86=EDGE_LOOP('',(#608,#609,#610,#611));
#87=EDGE_LOOP('',(#612,#613,#614,#615));
#88=EDGE_LOOP('',(#616,#617,#618,#619,#620,#621));
#89=LINE('',#889,#183);
#90=LINE('',#891,#184);
#91=LINE('',#893,#185);
#92=LINE('',#894,#186);
#93=LINE('',#898,#187);
#94=LINE('',#900,#188);
#95=LINE('',#902,#189);
#96=LINE('',#903,#190);
#97=LINE('',#907,#191);
#98=LINE('',#908,#192);
#99=LINE('',#909,#193);
#100=LINE('',#913,#194);
#101=LINE('',#915,#195);
#102=LINE('',#917,#196);
#103=LINE('',#918,#197);
#104=LINE('',#921,#198);
#105=LINE('',#923,#199);
#106=LINE('',#924,#200);
#107=LINE('',#927,#201);
#108=LINE('',#928,#202);
#109=LINE('',#931,#203);
#110=LINE('',#933,#204);
#111=LINE('',#935,#205);
#112=LINE('',#936,#206);
#113=LINE('',#940,#207);
#114=LINE('',#942,#208);
#115=LINE('',#944,#209);
#116=LINE('',#945,#210);
#117=LINE('',#948,#211);
#118=LINE('',#950,#212);
#119=LINE('',#951,#213);
#120=LINE('',#954,#214);
#121=LINE('',#956,#215);
#122=LINE('',#958,#216);
#123=LINE('',#960,#217);
#124=LINE('',#961,#218);
#125=LINE('',#964,#219);
#126=LINE('',#966,#220);
#127=LINE('',#967,#221);
#128=LINE('',#970,#222);
#129=LINE('',#972,#223);
#130=LINE('',#973,#224);
#131=LINE('',#976,#225);
#132=LINE('',#978,#226);
#133=LINE('',#980,#227);
#134=LINE('',#981,#228);
#135=LINE('',#984,#229);
#136=LINE('',#986,#230);
#137=LINE('',#987,#231);
#138=LINE('',#990,#232);
#139=LINE('',#991,#233);
#140=LINE('',#992,#234);
#141=LINE('',#995,#235);
#142=LINE('',#997,#236);
#143=LINE('',#999,#237);
#144=LINE('',#1000,#238);
#145=LINE('',#1003,#239);
#146=LINE('',#1005,#240);
#147=LINE('',#1007,#241);
#148=LINE('',#1008,#242);
#149=LINE('',#1011,#243);
#150=LINE('',#1013,#244);
#151=LINE('',#1014,#245);
#152=LINE('',#1016,#246);
#153=LINE('',#1018,#247);
#154=LINE('',#1019,#248);
#155=LINE('',#1020,#249);
#156=LINE('',#1023,#250);
#157=LINE('',#1024,#251);
#158=LINE('',#1026,#252);
#159=LINE('',#1028,#253);
#160=LINE('',#1032,#254);
#161=LINE('',#1033,#255);
#162=LINE('',#1034,#256);
#163=LINE('',#1038,#257);
#164=LINE('',#1039,#258);
#165=LINE('',#1040,#259);
#166=LINE('',#1043,#260);
#167=LINE('',#1044,#261);
#168=LINE('',#1047,#262);
#169=LINE('',#1048,#263);
#170=LINE('',#1051,#264);
#171=LINE('',#1052,#265);
#172=LINE('',#1055,#266);
#173=LINE('',#1056,#267);
#174=LINE('',#1058,#268);
#175=LINE('',#1061,#269);
#176=LINE('',#1062,#270);
#177=LINE('',#1064,#271);
#178=LINE('',#1066,#272);
#179=LINE('',#1067,#273);
#180=LINE('',#1068,#274);
#181=LINE('',#1071,#275);
#182=LINE('',#1072,#276);
#183=VECTOR('',#727,1.);
#184=VECTOR('',#728,1.);
#185=VECTOR('',#729,1.);
#186=VECTOR('',#730,1.);
#187=VECTOR('',#733,1.);
#188=VECTOR('',#734,1.);
#189=VECTOR('',#735,1.);
#190=VECTOR('',#736,1.);
#191=VECTOR('',#739,1.);
#192=VECTOR('',#740,1.);
#193=VECTOR('',#741,1.);
#194=VECTOR('',#744,1.);
#195=VECTOR('',#745,1.);
#196=VECTOR('',#746,1.);
#197=VECTOR('',#747,1.);
#198=VECTOR('',#750,1.);
#199=VECTOR('',#751,1.);
#200=VECTOR('',#752,1.);
#201=VECTOR('',#755,1.);
#202=VECTOR('',#756,1.);
#203=VECTOR('',#759,1.);
#204=VECTOR('',#760,1.);
#205=VECTOR('',#761,1.);
#206=VECTOR('',#762,1.);
#207=VECTOR('',#765,1.);
#208=VECTOR('',#766,1.);
#209=VECTOR('',#767,1.);
#210=VECTOR('',#768,1.);
#211=VECTOR('',#771,1.);
#212=VECTOR('',#772,1.);
#213=VECTOR('',#773,1.);
#214=VECTOR('',#776,1.);
#215=VECTOR('',#777,1.);
#216=VECTOR('',#778,1.);
#217=VECTOR('',#779,1.);
#218=VECTOR('',#780,1.);
#219=VECTOR('',#783,1.);
#220=VECTOR('',#784,1.);
#221=VECTOR('',#785,1.);
#222=VECTOR('',#788,1.);
#223=VECTOR('',#789,1.);
#224=VECTOR('',#790,1.);
#225=VECTOR('',#793,1.);
#226=VECTOR('',#794,1.);
#227=VECTOR('',#795,1.);
#228=VECTOR('',#796,1.);
#229=VECTOR('',#799,1.);
#230=VECTOR('',#800,1.);
#231=VECTOR('',#801,1.);
#232=VECTOR('',#804,1.);
#233=VECTOR('',#805,1.);
#234=VECTOR('',#806,1.);
#235=VECTOR('',#807,1.);
#236=VECTOR('',#808,1.);
#237=VECTOR('',#809,1.);
#238=VECTOR('',#810,1.);
#239=VECTOR('',#811,1.);
#240=VECTOR('',#812,1.);
#241=VECTOR('',#813,1.);
#242=VECTOR('',#814,1.);
#243=VECTOR('',#817,1.);
#244=VECTOR('',#818,1.);
#245=VECTOR('',#819,1.);
#246=VECTOR('',#820,1.);
#247=VECTOR('',#821,1.);
#248=VECTOR('',#822,1.);
#249=VECTOR('',#823,1.);
#250=VECTOR('',#826,1.);
#251=VECTOR('',#827,1.);
#252=VECTOR('',#830,1.);
#253=VECTOR('',#833,1.);
#254=VECTOR('',#836,1.);
#255=VECTOR('',#837,1.);
#256=VECTOR('',#838,1.);
#257=VECTOR('',#841,1.);
#258=VECTOR('',#842,1.);
#259=VECTOR('',#843,1.);
#260=VECTOR('',#846,1.);
#261=VECTOR('',#847,1.);
#262=VECTOR('',#850,1.);
#263=VECTOR('',#851,1.);
#264=VECTOR('',#854,1.);
#265=VECTOR('',#855,1.);
#266=VECTOR('',#858,1.);
#267=VECTOR('',#859,1.);
#268=VECTOR('',#862,1.);
#269=VECTOR('',#865,1.);
#270=VECTOR('',#866,1.);
#271=VECTOR('',#869,1.);
#272=VECTOR('',#870,1.);
#273=VECTOR('',#871,1.);
#274=VECTOR('',#872,1.);
#275=VECTOR('',#877,1.);
#276=VECTOR('',#878,1.);
#277=VERTEX_POINT('',#887);
#278=VERTEX_POINT('',#888);
#279=VERTEX_POINT('',#890);
#280=VERTEX_POINT('',#892);
#281=VERTEX_POINT('',#896);
#282=VERTEX_POINT('',#897);
#283=VERTEX_POINT('',#899);
#284=VERTEX_POINT('',#901);
#285=VERTEX_POINT('',#905);
#286=VERTEX_POINT('',#906);
#287=VERTEX_POINT('',#911);
#288=VERTEX_POINT('',#912);
#289=VERTEX_POINT('',#914);
#290=VERTEX_POINT('',#916);
#291=VERTEX_POINT('',#920);
#292=VERTEX_POINT('',#922);
#293=VERTEX_POINT('',#926);
#294=VERTEX_POINT('',#930);
#295=VERTEX_POINT('',#932);
#296=VERTEX_POINT('',#934);
#297=VERTEX_POINT('',#938);
#298=VERTEX_POINT('',#939);
#299=VERTEX_POINT('',#941);
#300=VERTEX_POINT('',#943);
#301=VERTEX_POINT('',#947);
#302=VERTEX_POINT('',#949);
#303=VERTEX_POINT('',#953);
#304=VERTEX_POINT('',#955);
#305=VERTEX_POINT('',#957);
#306=VERTEX_POINT('',#959);
#307=VERTEX_POINT('',#963);
#308=VERTEX_POINT('',#965);
#309=VERTEX_POINT('',#969);
#310=VERTEX_POINT('',#971);
#311=VERTEX_POINT('',#975);
#312=VERTEX_POINT('',#977);
#313=VERTEX_POINT('',#979);
#314=VERTEX_POINT('',#983);
#315=VERTEX_POINT('',#985);
#316=VERTEX_POINT('',#989);
#317=VERTEX_POINT('',#993);
#318=VERTEX_POINT('',#994);
#319=VERTEX_POINT('',#996);
#320=VERTEX_POINT('',#998);
#321=VERTEX_POINT('',#1001);
#322=VERTEX_POINT('',#1002);
#323=VERTEX_POINT('',#1004);
#324=VERTEX_POINT('',#1006);
#325=VERTEX_POINT('',#1010);
#326=VERTEX_POINT('',#1012);
#327=VERTEX_POINT('',#1015);
#328=VERTEX_POINT('',#1017);
#329=VERTEX_POINT('',#1022);
#330=VERTEX_POINT('',#1030);
#331=VERTEX_POINT('',#1031);
#332=VERTEX_POINT('',#1036);
#333=VERTEX_POINT('',#1037);
#334=VERTEX_POINT('',#1042);
#335=VERTEX_POINT('',#1046);
#336=VERTEX_POINT('',#1050);
#337=VERTEX_POINT('',#1054);
#338=VERTEX_POINT('',#1060);
#339=VERTEX_POINT('',#1065);
#340=EDGE_CURVE('',#277,#278,#89,.T.);
#341=EDGE_CURVE('',#278,#279,#90,.T.);
#342=EDGE_CURVE('',#279,#280,#91,.T.);
#343=EDGE_CURVE('',#280,#277,#92,.T.);
#344=EDGE_CURVE('',#281,#282,#93,.T.);
#345=EDGE_CURVE('',#282,#283,#94,.T.);
#346=EDGE_CURVE('',#284,#283,#95,.T.);
#347=EDGE_CURVE('',#281,#284,#96,.T.);
#348=EDGE_CURVE('',#285,#286,#97,.T.);
#349=EDGE_CURVE('',#286,#284,#98,.T.);
#350=EDGE_CURVE('',#283,#285,#99,.T.);
#351=EDGE_CURVE('',#287,#288,#100,.T.);
#352=EDGE_CURVE('',#287,#289,#101,.T.);
#353=EDGE_CURVE('',#290,#289,#102,.T.);
#354=EDGE_CURVE('',#288,#290,#103,.T.);
#355=EDGE_CURVE('',#288,#291,#104,.T.);
#356=EDGE_CURVE('',#292,#290,#105,.T.);
#357=EDGE_CURVE('',#291,#292,#106,.T.);
#358=EDGE_CURVE('',#289,#293,#107,.T.);
#359=EDGE_CURVE('',#293,#292,#108,.T.);
#360=EDGE_CURVE('',#294,#291,#109,.T.);
#361=EDGE_CURVE('',#294,#295,#110,.T.);
#362=EDGE_CURVE('',#295,#296,#111,.T.);
#363=EDGE_CURVE('',#287,#296,#112,.T.);
#364=EDGE_CURVE('',#297,#298,#113,.T.);
#365=EDGE_CURVE('',#297,#299,#114,.T.);
#366=EDGE_CURVE('',#300,#299,#115,.T.);
#367=EDGE_CURVE('',#298,#300,#116,.T.);
#368=EDGE_CURVE('',#299,#301,#117,.T.);
#369=EDGE_CURVE('',#301,#302,#118,.T.);
#370=EDGE_CURVE('',#302,#300,#119,.T.);
#371=EDGE_CURVE('',#303,#298,#120,.T.);
#372=EDGE_CURVE('',#303,#304,#121,.T.);
#373=EDGE_CURVE('',#304,#305,#122,.T.);
#374=EDGE_CURVE('',#305,#306,#123,.T.);
#375=EDGE_CURVE('',#306,#297,#124,.T.);
#376=EDGE_CURVE('',#296,#307,#125,.T.);
#377=EDGE_CURVE('',#307,#308,#126,.T.);
#378=EDGE_CURVE('',#308,#293,#127,.T.);
#379=EDGE_CURVE('',#309,#301,#128,.T.);
#380=EDGE_CURVE('',#309,#310,#129,.T.);
#381=EDGE_CURVE('',#310,#302,#130,.T.);
#382=EDGE_CURVE('',#311,#294,#131,.T.);
#383=EDGE_CURVE('',#312,#311,#132,.T.);
#384=EDGE_CURVE('',#313,#312,#133,.T.);
#385=EDGE_CURVE('',#294,#313,#134,.T.);
#386=EDGE_CURVE('',#311,#314,#135,.T.);
#387=EDGE_CURVE('',#314,#315,#136,.T.);
#388=EDGE_CURVE('',#312,#315,#137,.T.);
#389=EDGE_CURVE('',#316,#295,#138,.T.);
#390=EDGE_CURVE('',#313,#306,#139,.T.);
#391=EDGE_CURVE('',#305,#316,#140,.T.);
#392=EDGE_CURVE('',#317,#318,#141,.T.);
#393=EDGE_CURVE('',#318,#319,#142,.T.);
#394=EDGE_CURVE('',#319,#320,#143,.T.);
#395=EDGE_CURVE('',#320,#317,#144,.T.);
#396=EDGE_CURVE('',#321,#322,#145,.T.);
#397=EDGE_CURVE('',#322,#323,#146,.T.);
#398=EDGE_CURVE('',#323,#324,#147,.T.);
#399=EDGE_CURVE('',#324,#321,#148,.T.);
#400=EDGE_CURVE('',#325,#304,#149,.T.);
#401=EDGE_CURVE('',#325,#326,#150,.T.);
#402=EDGE_CURVE('',#326,#282,#151,.T.);
#403=EDGE_CURVE('',#327,#281,#152,.T.);
#404=EDGE_CURVE('',#327,#328,#153,.T.);
#405=EDGE_CURVE('',#328,#277,#154,.T.);
#406=EDGE_CURVE('',#280,#307,#155,.T.);
#407=EDGE_CURVE('',#329,#303,#156,.T.);
#408=EDGE_CURVE('',#329,#310,#157,.T.);
#409=EDGE_CURVE('',#325,#329,#158,.T.);
#410=EDGE_CURVE('',#314,#308,#159,.T.);
#411=EDGE_CURVE('',#330,#331,#160,.T.);
#412=EDGE_CURVE('',#320,#331,#161,.T.);
#413=EDGE_CURVE('',#330,#319,#162,.T.);
#414=EDGE_CURVE('',#332,#333,#163,.T.);
#415=EDGE_CURVE('',#322,#333,#164,.T.);
#416=EDGE_CURVE('',#332,#321,#165,.T.);
#417=EDGE_CURVE('',#330,#334,#166,.T.);
#418=EDGE_CURVE('',#318,#334,#167,.T.);
#419=EDGE_CURVE('',#335,#333,#168,.T.);
#420=EDGE_CURVE('',#323,#335,#169,.T.);
#421=EDGE_CURVE('',#324,#336,#170,.T.);
#422=EDGE_CURVE('',#332,#336,#171,.T.);
#423=EDGE_CURVE('',#334,#337,#172,.T.);
#424=EDGE_CURVE('',#317,#337,#173,.T.);
#425=EDGE_CURVE('',#337,#331,#174,.T.);
#426=EDGE_CURVE('',#327,#338,#175,.T.);
#427=EDGE_CURVE('',#338,#286,#176,.T.);
#428=EDGE_CURVE('',#315,#279,#177,.T.);
#429=EDGE_CURVE('',#339,#278,#178,.T.);
#430=EDGE_CURVE('',#339,#338,#179,.T.);
#431=EDGE_CURVE('',#285,#309,#180,.T.);
#432=EDGE_CURVE('',#328,#339,#181,.T.);
#433=EDGE_CURVE('',#336,#335,#182,.T.);
#434=ORIENTED_EDGE('',*,*,#340,.T.);
#435=ORIENTED_EDGE('',*,*,#341,.T.);
#436=ORIENTED_EDGE('',*,*,#342,.T.);
#437=ORIENTED_EDGE('',*,*,#343,.T.);
#438=ORIENTED_EDGE('',*,*,#344,.T.);
#439=ORIENTED_EDGE('',*,*,#345,.T.);
#440=ORIENTED_EDGE('',*,*,#346,.F.);
#441=ORIENTED_EDGE('',*,*,#347,.F.);
#442=ORIENTED_EDGE('',*,*,#348,.T.);
#443=ORIENTED_EDGE('',*,*,#349,.T.);
#444=ORIENTED_EDGE('',*,*,#346,.T.);
#445=ORIENTED_EDGE('',*,*,#350,.T.);
#446=ORIENTED_EDGE('',*,*,#351,.F.);
#447=ORIENTED_EDGE('',*,*,#352,.T.);
#448=ORIENTED_EDGE('',*,*,#353,.F.);
#449=ORIENTED_EDGE('',*,*,#354,.F.);
#450=ORIENTED_EDGE('',*,*,#355,.F.);
#451=ORIENTED_EDGE('',*,*,#354,.T.);
#452=ORIENTED_EDGE('',*,*,#356,.F.);
#453=ORIENTED_EDGE('',*,*,#357,.F.);
#454=ORIENTED_EDGE('',*,*,#356,.T.);
#455=ORIENTED_EDGE('',*,*,#353,.T.);
#456=ORIENTED_EDGE('',*,*,#358,.T.);
#457=ORIENTED_EDGE('',*,*,#359,.T.);
#458=ORIENTED_EDGE('',*,*,#351,.T.);
#459=ORIENTED_EDGE('',*,*,#355,.T.);
#460=ORIENTED_EDGE('',*,*,#360,.F.);
#461=ORIENTED_EDGE('',*,*,#361,.T.);
#462=ORIENTED_EDGE('',*,*,#362,.T.);
#463=ORIENTED_EDGE('',*,*,#363,.F.);
#464=ORIENTED_EDGE('',*,*,#364,.F.);
#465=ORIENTED_EDGE('',*,*,#365,.T.);
#466=ORIENTED_EDGE('',*,*,#366,.F.);
#467=ORIENTED_EDGE('',*,*,#367,.F.);
#468=ORIENTED_EDGE('',*,*,#366,.T.);
#469=ORIENTED_EDGE('',*,*,#368,.T.);
#470=ORIENTED_EDGE('',*,*,#369,.T.);
#471=ORIENTED_EDGE('',*,*,#370,.T.);
#472=ORIENTED_EDGE('',*,*,#364,.T.);
#473=ORIENTED_EDGE('',*,*,#371,.F.);
#474=ORIENTED_EDGE('',*,*,#372,.T.);
#475=ORIENTED_EDGE('',*,*,#373,.T.);
#476=ORIENTED_EDGE('',*,*,#374,.T.);
#477=ORIENTED_EDGE('',*,*,#375,.T.);
#478=ORIENTED_EDGE('',*,*,#376,.T.);
#479=ORIENTED_EDGE('',*,*,#377,.T.);
#480=ORIENTED_EDGE('',*,*,#378,.T.);
#481=ORIENTED_EDGE('',*,*,#358,.F.);
#482=ORIENTED_EDGE('',*,*,#352,.F.);
#483=ORIENTED_EDGE('',*,*,#363,.T.);
#484=ORIENTED_EDGE('',*,*,#379,.F.);
#485=ORIENTED_EDGE('',*,*,#380,.T.);
#486=ORIENTED_EDGE('',*,*,#381,.T.);
#487=ORIENTED_EDGE('',*,*,#369,.F.);
#488=ORIENTED_EDGE('',*,*,#382,.F.);
#489=ORIENTED_EDGE('',*,*,#383,.F.);
#490=ORIENTED_EDGE('',*,*,#384,.F.);
#491=ORIENTED_EDGE('',*,*,#385,.F.);
#492=ORIENTED_EDGE('',*,*,#383,.T.);
#493=ORIENTED_EDGE('',*,*,#386,.T.);
#494=ORIENTED_EDGE('',*,*,#387,.T.);
#495=ORIENTED_EDGE('',*,*,#388,.F.);
#496=ORIENTED_EDGE('',*,*,#389,.T.);
#497=ORIENTED_EDGE('',*,*,#361,.F.);
#498=ORIENTED_EDGE('',*,*,#385,.T.);
#499=ORIENTED_EDGE('',*,*,#390,.T.);
#500=ORIENTED_EDGE('',*,*,#374,.F.);
#501=ORIENTED_EDGE('',*,*,#391,.T.);
#502=ORIENTED_EDGE('',*,*,#392,.T.);
#503=ORIENTED_EDGE('',*,*,#393,.T.);
#504=ORIENTED_EDGE('',*,*,#394,.T.);
#505=ORIENTED_EDGE('',*,*,#395,.T.);
#506=ORIENTED_EDGE('',*,*,#396,.T.);
#507=ORIENTED_EDGE('',*,*,#397,.T.);
#508=ORIENTED_EDGE('',*,*,#398,.T.);
#509=ORIENTED_EDGE('',*,*,#399,.T.);
#510=ORIENTED_EDGE('',*,*,#400,.F.);
#511=ORIENTED_EDGE('',*,*,#401,.T.);
#512=ORIENTED_EDGE('',*,*,#402,.T.);
#513=ORIENTED_EDGE('',*,*,#344,.F.);
#514=ORIENTED_EDGE('',*,*,#403,.F.);
#515=ORIENTED_EDGE('',*,*,#404,.T.);
#516=ORIENTED_EDGE('',*,*,#405,.T.);
#517=ORIENTED_EDGE('',*,*,#343,.F.);
#518=ORIENTED_EDGE('',*,*,#406,.T.);
#519=ORIENTED_EDGE('',*,*,#376,.F.);
#520=ORIENTED_EDGE('',*,*,#362,.F.);
#521=ORIENTED_EDGE('',*,*,#389,.F.);
#522=ORIENTED_EDGE('',*,*,#391,.F.);
#523=ORIENTED_EDGE('',*,*,#373,.F.);
#524=ORIENTED_EDGE('',*,*,#407,.T.);
#525=ORIENTED_EDGE('',*,*,#371,.T.);
#526=ORIENTED_EDGE('',*,*,#367,.T.);
#527=ORIENTED_EDGE('',*,*,#370,.F.);
#528=ORIENTED_EDGE('',*,*,#381,.F.);
#529=ORIENTED_EDGE('',*,*,#408,.F.);
#530=ORIENTED_EDGE('',*,*,#400,.T.);
#531=ORIENTED_EDGE('',*,*,#372,.F.);
#532=ORIENTED_EDGE('',*,*,#407,.F.);
#533=ORIENTED_EDGE('',*,*,#409,.F.);
#534=ORIENTED_EDGE('',*,*,#386,.F.);
#535=ORIENTED_EDGE('',*,*,#382,.T.);
#536=ORIENTED_EDGE('',*,*,#360,.T.);
#537=ORIENTED_EDGE('',*,*,#357,.T.);
#538=ORIENTED_EDGE('',*,*,#359,.F.);
#539=ORIENTED_EDGE('',*,*,#378,.F.);
#540=ORIENTED_EDGE('',*,*,#410,.F.);
#541=ORIENTED_EDGE('',*,*,#411,.T.);
#542=ORIENTED_EDGE('',*,*,#412,.F.);
#543=ORIENTED_EDGE('',*,*,#394,.F.);
#544=ORIENTED_EDGE('',*,*,#413,.F.);
#545=ORIENTED_EDGE('',*,*,#414,.T.);
#546=ORIENTED_EDGE('',*,*,#415,.F.);
#547=ORIENTED_EDGE('',*,*,#396,.F.);
#548=ORIENTED_EDGE('',*,*,#416,.F.);
#549=ORIENTED_EDGE('',*,*,#417,.F.);
#550=ORIENTED_EDGE('',*,*,#413,.T.);
#551=ORIENTED_EDGE('',*,*,#393,.F.);
#552=ORIENTED_EDGE('',*,*,#418,.T.);
#553=ORIENTED_EDGE('',*,*,#415,.T.);
#554=ORIENTED_EDGE('',*,*,#419,.F.);
#555=ORIENTED_EDGE('',*,*,#420,.F.);
#556=ORIENTED_EDGE('',*,*,#397,.F.);
#557=ORIENTED_EDGE('',*,*,#416,.T.);
#558=ORIENTED_EDGE('',*,*,#399,.F.);
#559=ORIENTED_EDGE('',*,*,#421,.T.);
#560=ORIENTED_EDGE('',*,*,#422,.F.);
#561=ORIENTED_EDGE('',*,*,#423,.F.);
#562=ORIENTED_EDGE('',*,*,#418,.F.);
#563=ORIENTED_EDGE('',*,*,#392,.F.);
#564=ORIENTED_EDGE('',*,*,#424,.T.);
#565=ORIENTED_EDGE('',*,*,#425,.F.);
#566=ORIENTED_EDGE('',*,*,#424,.F.);
#567=ORIENTED_EDGE('',*,*,#395,.F.);
#568=ORIENTED_EDGE('',*,*,#412,.T.);
#569=ORIENTED_EDGE('',*,*,#426,.F.);
#570=ORIENTED_EDGE('',*,*,#403,.T.);
#571=ORIENTED_EDGE('',*,*,#347,.T.);
#572=ORIENTED_EDGE('',*,*,#349,.F.);
#573=ORIENTED_EDGE('',*,*,#427,.F.);
#574=ORIENTED_EDGE('',*,*,#388,.T.);
#575=ORIENTED_EDGE('',*,*,#428,.T.);
#576=ORIENTED_EDGE('',*,*,#341,.F.);
#577=ORIENTED_EDGE('',*,*,#429,.F.);
#578=ORIENTED_EDGE('',*,*,#430,.T.);
#579=ORIENTED_EDGE('',*,*,#427,.T.);
#580=ORIENTED_EDGE('',*,*,#348,.F.);
#581=ORIENTED_EDGE('',*,*,#431,.T.);
#582=ORIENTED_EDGE('',*,*,#379,.T.);
#583=ORIENTED_EDGE('',*,*,#368,.F.);
#584=ORIENTED_EDGE('',*,*,#365,.F.);
#585=ORIENTED_EDGE('',*,*,#375,.F.);
#586=ORIENTED_EDGE('',*,*,#390,.F.);
#587=ORIENTED_EDGE('',*,*,#384,.T.);
#588=ORIENTED_EDGE('',*,*,#401,.F.);
#589=ORIENTED_EDGE('',*,*,#409,.T.);
#590=ORIENTED_EDGE('',*,*,#408,.T.);
#591=ORIENTED_EDGE('',*,*,#380,.F.);
#592=ORIENTED_EDGE('',*,*,#431,.F.);
#593=ORIENTED_EDGE('',*,*,#350,.F.);
#594=ORIENTED_EDGE('',*,*,#345,.F.);
#595=ORIENTED_EDGE('',*,*,#402,.F.);
#596=ORIENTED_EDGE('',*,*,#426,.T.);
#597=ORIENTED_EDGE('',*,*,#430,.F.);
#598=ORIENTED_EDGE('',*,*,#432,.F.);
#599=ORIENTED_EDGE('',*,*,#404,.F.);
#600=ORIENTED_EDGE('',*,*,#423,.T.);
#601=ORIENTED_EDGE('',*,*,#425,.T.);
#602=ORIENTED_EDGE('',*,*,#411,.F.);
#603=ORIENTED_EDGE('',*,*,#417,.T.);
#604=ORIENTED_EDGE('',*,*,#414,.F.);
#605=ORIENTED_EDGE('',*,*,#422,.T.);
#606=ORIENTED_EDGE('',*,*,#433,.T.);
#607=ORIENTED_EDGE('',*,*,#419,.T.);
#608=ORIENTED_EDGE('',*,*,#433,.F.);
#609=ORIENTED_EDGE('',*,*,#421,.F.);
#610=ORIENTED_EDGE('',*,*,#398,.F.);
#611=ORIENTED_EDGE('',*,*,#420,.T.);
#612=ORIENTED_EDGE('',*,*,#405,.F.);
#613=ORIENTED_EDGE('',*,*,#432,.T.);
#614=ORIENTED_EDGE('',*,*,#429,.T.);
#615=ORIENTED_EDGE('',*,*,#340,.F.);
#616=ORIENTED_EDGE('',*,*,#428,.F.);
#617=ORIENTED_EDGE('',*,*,#387,.F.);
#618=ORIENTED_EDGE('',*,*,#410,.T.);
#619=ORIENTED_EDGE('',*,*,#377,.F.);
#620=ORIENTED_EDGE('',*,*,#406,.F.);
#621=ORIENTED_EDGE('',*,*,#342,.F.);
#622=PLANE('',#690);
#623=PLANE('',#691);
#624=PLANE('',#692);
#625=PLANE('',#693);
#626=PLANE('',#694);
#627=PLANE('',#695);
#628=PLANE('',#696);
#629=PLANE('',#697);
#630=PLANE('',#698);
#631=PLANE('',#699);
#632=PLANE('',#700);
#633=PLANE('',#701);
#634=PLANE('',#702);
#635=PLANE('',#703);
#636=PLANE('',#704);
#637=PLANE('',#705);
#638=PLANE('',#706);
#639=PLANE('',#707);
#640=PLANE('',#708);
#641=PLANE('',#709);
#642=PLANE('',#710);
#643=PLANE('',#711);
#644=PLANE('',#712);
#645=PLANE('',#713);
#646=PLANE('',#714);
#647=PLANE('',#715);
#648=PLANE('',#716);
#649=PLANE('',#717);
#650=PLANE('',#718);
#651=PLANE('',#719);
#652=PLANE('',#720);
#653=PLANE('',#721);
#654=PLANE('',#722);
#655=ADVANCED_FACE('',(#19),#622,.T.);
#656=ADVANCED_FACE('',(#20),#623,.T.);
#657=ADVANCED_FACE('',(#21),#624,.T.);
#658=ADVANCED_FACE('',(#22),#625,.T.);
#659=ADVANCED_FACE('',(#23),#626,.T.);
#660=ADVANCED_FACE('',(#24),#627,.T.);
#661=ADVANCED_FACE('',(#25),#628,.T.);
#662=ADVANCED_FACE('',(#26),#629,.T.);
#663=ADVANCED_FACE('',(#27),#630,.T.);
#664=ADVANCED_FACE('',(#28),#631,.T.);
#665=ADVANCED_FACE('',(#29),#632,.T.);
#666=ADVANCED_FACE('',(#30),#633,.T.);
#667=ADVANCED_FACE('',(#31),#634,.T.);
#668=ADVANCED_FACE('',(#32),#635,.T.);
#669=ADVANCED_FACE('',(#33,#15,#16),#636,.T.);
#670=ADVANCED_FACE('',(#34),#637,.T.);
#671=ADVANCED_FACE('',(#35),#638,.T.);
#672=ADVANCED_FACE('',(#36),#639,.F.);
#673=ADVANCED_FACE('',(#37),#640,.T.);
#674=ADVANCED_FACE('',(#38),#641,.F.);
#675=ADVANCED_FACE('',(#39),#642,.T.);
#676=ADVANCED_FACE('',(#40),#643,.T.);
#677=ADVANCED_FACE('',(#41),#644,.F.);
#678=ADVANCED_FACE('',(#42),#645,.F.);
#679=ADVANCED_FACE('',(#43),#646,.F.);
#680=ADVANCED_FACE('',(#44),#647,.F.);
#681=ADVANCED_FACE('',(#45),#648,.T.);
#682=ADVANCED_FACE('',(#46),#649,.T.);
#683=ADVANCED_FACE('',(#47),#650,.F.);
#684=ADVANCED_FACE('',(#48,#17,#18),#651,.F.);
#685=ADVANCED_FACE('',(#49),#652,.F.);
#686=ADVANCED_FACE('',(#50),#653,.F.);
#687=ADVANCED_FACE('',(#51),#654,.T.);
#688=CLOSED_SHELL('',(#655,#656,#657,#658,#659,#660,#661,#662,#663,#664,
#665,#666,#667,#668,#669,#670,#671,#672,#673,#674,#675,#676,#677,#678,#679,
#680,#681,#682,#683,#684,#685,#686,#687));
#689=AXIS2_PLACEMENT_3D('',#885,#723,#724);
#690=AXIS2_PLACEMENT_3D('',#886,#725,#726);
#691=AXIS2_PLACEMENT_3D('',#895,#731,#732);
#692=AXIS2_PLACEMENT_3D('',#904,#737,#738);
#693=AXIS2_PLACEMENT_3D('',#910,#742,#743);
#694=AXIS2_PLACEMENT_3D('',#919,#748,#749);
#695=AXIS2_PLACEMENT_3D('',#925,#753,#754);
#696=AXIS2_PLACEMENT_3D('',#929,#757,#758);
#697=AXIS2_PLACEMENT_3D('',#937,#763,#764);
#698=AXIS2_PLACEMENT_3D('',#946,#769,#770);
#699=AXIS2_PLACEMENT_3D('',#952,#774,#775);
#700=AXIS2_PLACEMENT_3D('',#962,#781,#782);
#701=AXIS2_PLACEMENT_3D('',#968,#786,#787);
#702=AXIS2_PLACEMENT_3D('',#974,#791,#792);
#703=AXIS2_PLACEMENT_3D('',#982,#797,#798);
#704=AXIS2_PLACEMENT_3D('',#988,#802,#803);
#705=AXIS2_PLACEMENT_3D('',#1009,#815,#816);
#706=AXIS2_PLACEMENT_3D('',#1021,#824,#825);
#707=AXIS2_PLACEMENT_3D('',#1025,#828,#829);
#708=AXIS2_PLACEMENT_3D('',#1027,#831,#832);
#709=AXIS2_PLACEMENT_3D('',#1029,#834,#835);
#710=AXIS2_PLACEMENT_3D('',#1035,#839,#840);
#711=AXIS2_PLACEMENT_3D('',#1041,#844,#845);
#712=AXIS2_PLACEMENT_3D('',#1045,#848,#849);
#713=AXIS2_PLACEMENT_3D('',#1049,#852,#853);
#714=AXIS2_PLACEMENT_3D('',#1053,#856,#857);
#715=AXIS2_PLACEMENT_3D('',#1057,#860,#861);
#716=AXIS2_PLACEMENT_3D('',#1059,#863,#864);
#717=AXIS2_PLACEMENT_3D('',#1063,#867,#868);
#718=AXIS2_PLACEMENT_3D('',#1069,#873,#874);
#719=AXIS2_PLACEMENT_3D('',#1070,#875,#876);
#720=AXIS2_PLACEMENT_3D('',#1073,#879,#880);
#721=AXIS2_PLACEMENT_3D('',#1074,#881,#882);
#722=AXIS2_PLACEMENT_3D('',#1075,#883,#884);
#723=DIRECTION('axis',(0.,0.,1.));
#724=DIRECTION('refdir',(1.,0.,0.));
#725=DIRECTION('center_axis',(0.,-1.,0.));
#726=DIRECTION('ref_axis',(0.,0.,-1.));
#727=DIRECTION('',(-1.,0.,0.));
#728=DIRECTION('',(0.,0.,-1.));
#729=DIRECTION('',(1.,0.,0.));
#730=DIRECTION('',(0.,0.,1.));
#731=DIRECTION('center_axis',(1.,0.,0.));
#732=DIRECTION('ref_axis',(0.,0.,1.));
#733=DIRECTION('',(0.,0.,1.));
#734=DIRECTION('',(0.,-1.,0.));
#735=DIRECTION('',(0.,0.,1.));
#736=DIRECTION('',(0.,-1.,0.));
#737=DIRECTION('center_axis',(0.,-1.,0.));
#738=DIRECTION('ref_axis',(0.,0.,-1.));
#739=DIRECTION('',(0.,0.,-1.));
#740=DIRECTION('',(1.,0.,0.));
#741=DIRECTION('',(-1.,0.,0.));
#742=DIRECTION('center_axis',(1.,0.,0.));
#743=DIRECTION('ref_axis',(0.,1.,0.));
#744=DIRECTION('',(0.,-1.,0.));
#745=DIRECTION('',(0.,0.,1.));
#746=DIRECTION('',(0.,1.,0.));
#747=DIRECTION('',(0.,0.,1.));
#748=DIRECTION('center_axis',(0.,-1.,0.));
#749=DIRECTION('ref_axis',(1.,0.,0.));
#750=DIRECTION('',(-1.,0.,0.));
#751=DIRECTION('',(1.,0.,0.));
#752=DIRECTION('',(0.,0.,1.));
#753=DIRECTION('center_axis',(0.,0.,1.));
#754=DIRECTION('ref_axis',(1.,0.,0.));
#755=DIRECTION('',(-1.,0.,0.));
#756=DIRECTION('',(0.,-1.,0.));
#757=DIRECTION('center_axis',(0.,0.,1.));
#758=DIRECTION('ref_axis',(1.,0.,0.));
#759=DIRECTION('',(0.,1.,0.));
#760=DIRECTION('',(1.,0.,0.));
#761=DIRECTION('',(0.,1.,0.));
#762=DIRECTION('',(1.,0.,0.));
#763=DIRECTION('center_axis',(0.,-1.,0.));
#764=DIRECTION('ref_axis',(-1.,0.,0.));
#765=DIRECTION('',(1.,0.,0.));
#766=DIRECTION('',(0.,0.,-1.));
#767=DIRECTION('',(-1.,0.,0.));
#768=DIRECTION('',(0.,0.,-1.));
#769=DIRECTION('center_axis',(0.,0.,-1.));
#770=DIRECTION('ref_axis',(-1.,0.,0.));
#771=DIRECTION('',(0.,1.,0.));
#772=DIRECTION('',(1.,0.,0.));
#773=DIRECTION('',(0.,-1.,0.));
#774=DIRECTION('center_axis',(0.,0.,-1.));
#775=DIRECTION('ref_axis',(-1.,0.,0.));
#776=DIRECTION('',(0.,1.,0.));
#777=DIRECTION('',(-1.,0.,0.));
#778=DIRECTION('',(0.,1.,0.));
#779=DIRECTION('',(-1.,0.,0.));
#780=DIRECTION('',(0.,1.,0.));
#781=DIRECTION('center_axis',(0.,1.,0.));
#782=DIRECTION('ref_axis',(0.,0.,1.));
#783=DIRECTION('',(0.,0.,-1.));
#784=DIRECTION('',(-1.,0.,0.));
#785=DIRECTION('',(0.,0.,1.));
#786=DIRECTION('center_axis',(0.,1.,0.));
#787=DIRECTION('ref_axis',(0.,0.,1.));
#788=DIRECTION('',(0.,0.,-1.));
#789=DIRECTION('',(1.,0.,0.));
#790=DIRECTION('',(0.,0.,-1.));
#791=DIRECTION('center_axis',(0.,0.,-1.));
#792=DIRECTION('ref_axis',(1.,0.,0.));
#793=DIRECTION('',(0.,1.,0.));
#794=DIRECTION('',(1.,0.,0.));
#795=DIRECTION('',(0.,-1.,0.));
#796=DIRECTION('',(-1.,0.,0.));
#797=DIRECTION('center_axis',(0.,1.,0.));
#798=DIRECTION('ref_axis',(0.,0.,1.));
#799=DIRECTION('',(0.,0.,-1.));
#800=DIRECTION('',(-1.,0.,0.));
#801=DIRECTION('',(0.,0.,-1.));
#802=DIRECTION('center_axis',(0.,1.,0.));
#803=DIRECTION('ref_axis',(0.,0.,1.));
#804=DIRECTION('',(0.,0.,-1.));
#805=DIRECTION('',(0.,0.,1.));
#806=DIRECTION('',(0.,0.,-1.));
#807=DIRECTION('',(1.,0.,0.));
#808=DIRECTION('',(0.,0.,1.));
#809=DIRECTION('',(-1.,0.,0.));
#810=DIRECTION('',(0.,0.,-1.));
#811=DIRECTION('',(0.,0.,-1.));
#812=DIRECTION('',(1.,0.,0.));
#813=DIRECTION('',(0.,0.,1.));
#814=DIRECTION('',(-1.,0.,0.));
#815=DIRECTION('center_axis',(1.,0.,0.));
#816=DIRECTION('ref_axis',(0.,0.,-1.));
#817=DIRECTION('',(0.,0.,-1.));
#818=DIRECTION('',(0.,-1.,0.));
#819=DIRECTION('',(0.,-1.,0.));
#820=DIRECTION('',(0.,-1.,0.));
#821=DIRECTION('',(0.,0.,-1.));
#822=DIRECTION('',(0.,-1.,0.));
#823=DIRECTION('',(0.,1.,0.));
#824=DIRECTION('center_axis',(1.,0.,0.));
#825=DIRECTION('ref_axis',(0.,0.,-1.));
#826=DIRECTION('',(0.,0.,-1.));
#827=DIRECTION('',(0.,1.,0.));
#828=DIRECTION('center_axis',(0.,1.,0.));
#829=DIRECTION('ref_axis',(-1.,0.,0.));
#830=DIRECTION('',(1.,0.,0.));
#831=DIRECTION('center_axis',(-1.,0.,0.));
#832=DIRECTION('ref_axis',(0.,0.,1.));
#833=DIRECTION('',(0.,1.,0.));
#834=DIRECTION('center_axis',(0.,0.,1.));
#835=DIRECTION('ref_axis',(-1.,0.,0.));
#836=DIRECTION('',(-1.,0.,0.));
#837=DIRECTION('',(0.,-1.,0.));
#838=DIRECTION('',(0.,1.,0.));
#839=DIRECTION('center_axis',(1.,0.,0.));
#840=DIRECTION('ref_axis',(0.,0.,1.));
#841=DIRECTION('',(0.,0.,-1.));
#842=DIRECTION('',(0.,-1.,0.));
#843=DIRECTION('',(0.,1.,0.));
#844=DIRECTION('center_axis',(-1.,0.,0.));
#845=DIRECTION('ref_axis',(0.,0.,-1.));
#846=DIRECTION('',(0.,0.,-1.));
#847=DIRECTION('',(0.,-1.,0.));
#848=DIRECTION('center_axis',(0.,0.,-1.));
#849=DIRECTION('ref_axis',(1.,0.,0.));
#850=DIRECTION('',(-1.,0.,0.));
#851=DIRECTION('',(0.,-1.,0.));
#852=DIRECTION('center_axis',(0.,0.,1.));
#853=DIRECTION('ref_axis',(-1.,0.,0.));
#854=DIRECTION('',(0.,-1.,0.));
#855=DIRECTION('',(1.,0.,0.));
#856=DIRECTION('center_axis',(0.,0.,-1.));
#857=DIRECTION('ref_axis',(1.,0.,0.));
#858=DIRECTION('',(-1.,0.,0.));
#859=DIRECTION('',(0.,-1.,0.));
#860=DIRECTION('center_axis',(-1.,0.,0.));
#861=DIRECTION('ref_axis',(0.,0.,-1.));
#862=DIRECTION('',(0.,0.,1.));
#863=DIRECTION('center_axis',(0.,0.,-1.));
#864=DIRECTION('ref_axis',(1.,0.,0.));
#865=DIRECTION('',(-1.,0.,0.));
#866=DIRECTION('',(0.,-1.,0.));
#867=DIRECTION('center_axis',(-1.,0.,0.));
#868=DIRECTION('ref_axis',(0.,0.,1.));
#869=DIRECTION('',(0.,-1.,0.));
#870=DIRECTION('',(0.,-1.,0.));
#871=DIRECTION('',(0.,0.,1.));
#872=DIRECTION('',(0.,1.,0.));
#873=DIRECTION('center_axis',(0.,0.,-1.));
#874=DIRECTION('ref_axis',(1.,0.,0.));
#875=DIRECTION('center_axis',(0.,1.,0.));
#876=DIRECTION('ref_axis',(0.,0.,-1.));
#877=DIRECTION('',(-1.,0.,0.));
#878=DIRECTION('',(0.,0.,-1.));
#879=DIRECTION('center_axis',(1.,0.,0.));
#880=DIRECTION('ref_axis',(0.,0.,1.));
#881=DIRECTION('center_axis',(0.,0.,-1.));
#882=DIRECTION('ref_axis',(0.,-1.,0.));
#883=DIRECTION('center_axis',(0.,0.,-1.));
#884=DIRECTION('ref_axis',(-1.,0.,0.));
#885=CARTESIAN_POINT('',(0.,0.,0.));
#886=CARTESIAN_POINT('Origin',(3.,-1.,-3.));
#887=CARTESIAN_POINT('',(6.,-1.,-5.40000008046627));
#888=CARTESIAN_POINT('',(-1.,-1.,-5.40000008046627));
#889=CARTESIAN_POINT('',(4.5,-1.,-5.40000008046627));
#890=CARTESIAN_POINT('',(-1.,-1.,-6.));
#891=CARTESIAN_POINT('',(-1.,-1.,-6.));
#892=CARTESIAN_POINT('',(6.,-1.,-6.));
#893=CARTESIAN_POINT('',(6.,-1.,-6.));
#894=CARTESIAN_POINT('',(6.,-1.,0.));
#895=CARTESIAN_POINT('Origin',(5.99999861979541,0.,-1.60000001490116));
#896=CARTESIAN_POINT('',(5.99999861979541,0.,-1.60000001490116));
#897=CARTESIAN_POINT('',(5.99999861979541,0.,-1.00000001490116));
#898=CARTESIAN_POINT('',(5.99999861979541,0.,-1.00000001490116));
#899=CARTESIAN_POINT('',(5.99999861979541,-1.,-1.00000001490116));
#900=CARTESIAN_POINT('',(5.99999861979541,0.,-1.00000001490116));
#901=CARTESIAN_POINT('',(5.99999861979541,-1.,-1.60000001490116));
#902=CARTESIAN_POINT('',(5.99999861979541,-1.,-1.00000001490116));
#903=CARTESIAN_POINT('',(5.99999861979541,0.,-1.60000001490116));
#904=CARTESIAN_POINT('Origin',(2.49999930244712,-1.,-1.30000001490116));
#905=CARTESIAN_POINT('',(-1.00000001490116,-1.,-1.00000001490116));
#906=CARTESIAN_POINT('',(-1.00000001490116,-1.,-1.60000001490116));
#907=CARTESIAN_POINT('',(-1.00000001490116,-1.,-1.60000001490116));
#908=CARTESIAN_POINT('',(5.99999861979541,-1.,-1.60000001490116));
#909=CARTESIAN_POINT('',(-1.00000001490116,-1.,-1.00000001490116));
#910=CARTESIAN_POINT('Origin',(5.9999941751514,8.3,-5.75000008940697));
#911=CARTESIAN_POINT('',(5.9999941751514,8.7,-5.75000008940697));
#912=CARTESIAN_POINT('',(5.9999941751514,8.3,-5.75000008940697));
#913=CARTESIAN_POINT('',(5.9999941751514,7.65,-5.75000008940697));
#914=CARTESIAN_POINT('',(5.9999941751514,8.7,-4.25000008940697));
#915=CARTESIAN_POINT('',(5.9999941751514,8.7,-5.75000008940697));
#916=CARTESIAN_POINT('',(5.9999941751514,8.3,-4.25000008940697));
#917=CARTESIAN_POINT('',(5.9999941751514,8.7,-4.25000008940697));
#918=CARTESIAN_POINT('',(5.9999941751514,8.3,-5.75000008940697));
#919=CARTESIAN_POINT('Origin',(-0.999993161201917,8.3,-5.75000008940697));
#920=CARTESIAN_POINT('',(-0.999993161201917,8.3,-5.75000008940697));
#921=CARTESIAN_POINT('',(-0.999993161201917,8.3,-5.75000008940697));
#922=CARTESIAN_POINT('',(-0.999993161201917,8.3,-4.25000008940697));
#923=CARTESIAN_POINT('',(5.9999941751514,8.3,-4.25000008940697));
#924=CARTESIAN_POINT('',(-0.999993161201917,8.3,-5.75000008940697));
#925=CARTESIAN_POINT('Origin',(2.50000050697474,8.5,-4.25000008940697));
#926=CARTESIAN_POINT('',(-0.999993161201917,8.7,-4.25000008940697));
#927=CARTESIAN_POINT('',(-0.999993161201917,8.7,-4.25000008940697));
#928=CARTESIAN_POINT('',(-0.999993161201917,8.3,-4.25000008940697));
#929=CARTESIAN_POINT('Origin',(-0.999993161201917,7.,-5.75000008940697));
#930=CARTESIAN_POINT('',(-0.999993161201917,7.30000009387732,-5.74999987147748));
#931=CARTESIAN_POINT('',(-0.999993161201917,7.,-5.75000008940697));
#932=CARTESIAN_POINT('',(5.99999986588955,7.30000009387732,-5.74999987147748));
#933=CARTESIAN_POINT('',(0.750003385871429,7.30000009387732,-5.75000008940697));
#934=CARTESIAN_POINT('',(6.00000008940697,8.7,-5.75000008940697));
#935=CARTESIAN_POINT('',(6.00000008940697,7.,-5.75000008940697));
#936=CARTESIAN_POINT('',(-0.999993161201917,8.7,-5.75000008940697));
#937=CARTESIAN_POINT('Origin',(6.02424017759875,8.3,-1.25));
#938=CARTESIAN_POINT('',(-0.999999932052289,8.3,-1.25));
#939=CARTESIAN_POINT('',(6.02424017759875,8.3,-1.25));
#940=CARTESIAN_POINT('',(6.02424017759875,8.3,-1.25));
#941=CARTESIAN_POINT('',(-0.999999932052289,8.3,-2.75));
#942=CARTESIAN_POINT('',(-0.999999932052289,8.3,-1.25));
#943=CARTESIAN_POINT('',(6.02424017759875,8.3,-2.75));
#944=CARTESIAN_POINT('',(-0.999999932052289,8.3,-2.75));
#945=CARTESIAN_POINT('',(6.02424017759875,8.3,-1.25));
#946=CARTESIAN_POINT('Origin',(2.51212012277323,8.5,-2.75));
#947=CARTESIAN_POINT('',(-0.999999932052289,8.7,-2.75));
#948=CARTESIAN_POINT('',(-0.999999932052289,8.7,-2.75));
#949=CARTESIAN_POINT('',(6.02424017759875,8.7,-2.75));
#950=CARTESIAN_POINT('',(6.02424017759875,8.7,-2.75));
#951=CARTESIAN_POINT('',(6.02424017759875,8.3,-2.75));
#952=CARTESIAN_POINT('Origin',(6.02424017759875,7.,-1.25));
#953=CARTESIAN_POINT('',(6.02424017759875,7.,-1.25));
#954=CARTESIAN_POINT('',(6.02424017759875,7.,-1.25));
#955=CARTESIAN_POINT('',(6.,7.,-1.25));
#956=CARTESIAN_POINT('',(6.02424017759875,7.,-1.25));
#957=CARTESIAN_POINT('',(5.99999861979541,7.30000009387732,-1.24999997206032));
#958=CARTESIAN_POINT('',(5.99999861979541,7.15000004693866,-1.25));
#959=CARTESIAN_POINT('',(-0.999999977648258,7.30000009387732,-1.24999997206032));
#960=CARTESIAN_POINT('',(4.26211974933616,7.30000009387732,-1.25));
#961=CARTESIAN_POINT('',(-1.,7.,-1.25));
#962=CARTESIAN_POINT('Origin',(2.50000346410253,8.7,-5.87500008940697));
#963=CARTESIAN_POINT('',(6.00000008940697,8.7,-6.00000008940697));
#964=CARTESIAN_POINT('',(6.00000008940697,8.7,-5.75000008940697));
#965=CARTESIAN_POINT('',(-0.999993161201917,8.7,-6.00000008940697));
#966=CARTESIAN_POINT('',(6.00000008940697,8.7,-6.00000008940697));
#967=CARTESIAN_POINT('',(-0.999993161201917,8.7,-6.00000008940697));
#968=CARTESIAN_POINT('Origin',(2.51212008879937,8.7,-1.125));
#969=CARTESIAN_POINT('',(-1.,8.7,-1.));
#970=CARTESIAN_POINT('',(-0.999999932052289,8.7,-1.25));
#971=CARTESIAN_POINT('',(6.02424017759875,8.7,-1.));
#972=CARTESIAN_POINT('',(-1.,8.7,-1.));
#973=CARTESIAN_POINT('',(6.02424017759875,8.7,-1.));
#974=CARTESIAN_POINT('Origin',(-1.,7.30000009387732,-5.74999987147748));
#975=CARTESIAN_POINT('',(-0.999993161201917,7.,-5.75000008940697));
#976=CARTESIAN_POINT('',(-0.999993161201917,7.,-5.75000008940697));
#977=CARTESIAN_POINT('',(-1.,7.00000009387732,-5.74999987147748));
#978=CARTESIAN_POINT('',(1.,7.,-5.74999987147748));
#979=CARTESIAN_POINT('',(-1.,7.30000009387732,-5.74999987147748));
#980=CARTESIAN_POINT('',(-1.,7.30000009387732,-5.74999987147748));
#981=CARTESIAN_POINT('',(5.99999986588955,7.30000009387732,-5.74999987147748));
#982=CARTESIAN_POINT('Origin',(3.,7.,-3.));
#983=CARTESIAN_POINT('',(-0.999993161201917,7.,-6.00000008940697));
#984=CARTESIAN_POINT('',(-0.999993161201917,7.,-4.50000004470348));
#985=CARTESIAN_POINT('',(-1.,7.,-6.));
#986=CARTESIAN_POINT('',(6.,7.,-6.));
#987=CARTESIAN_POINT('',(-1.,7.,0.));
#988=CARTESIAN_POINT('Origin',(6.,7.30000009387732,-0.500000007450581));
#989=CARTESIAN_POINT('',(5.99999861979541,7.30000009387732,-1.60000001490116));
#990=CARTESIAN_POINT('',(6.,7.30000009387732,-0.25000000372529));
#991=CARTESIAN_POINT('',(-1.,7.30000009387732,-5.74999987147748));
#992=CARTESIAN_POINT('',(5.99999861979541,7.30000009387732,-1.24999997206032));
#993=CARTESIAN_POINT('',(0.,7.30000009387732,-4.60000006854534));
#994=CARTESIAN_POINT('',(4.10000006109476,7.30000009387732,-4.60000006854534));
#995=CARTESIAN_POINT('',(5.00000002980232,7.30000009387732,-4.60000006854534));
#996=CARTESIAN_POINT('',(4.10000006109476,7.3,-2.20000003278255));
#997=CARTESIAN_POINT('',(4.10000006109476,7.30000009387732,-2.55000003799796));
#998=CARTESIAN_POINT('',(0.,7.30000009387732,-2.20000003278255));
#999=CARTESIAN_POINT('',(3.55000005289912,7.3,-2.20000003278255));
#1000=CARTESIAN_POINT('',(0.,7.30000009387732,-1.35000002011657));
#1001=CARTESIAN_POINT('',(4.70000007003546,7.30000009387732,-1.90337528929041));
#1002=CARTESIAN_POINT('',(4.70000007003546,7.30000009387732,-4.));
#1003=CARTESIAN_POINT('',(4.70000007003546,7.3,-3.47500005178154));
#1004=CARTESIAN_POINT('',(4.70984312880644,7.30000009387732,-4.));
#1005=CARTESIAN_POINT('',(3.75,7.30000009387732,-4.));
#1006=CARTESIAN_POINT('',(4.70984312880644,7.30000009387732,-1.90337528929041));
#1007=CARTESIAN_POINT('',(4.70984312880644,7.30000009387732,-2.25000000372529));
#1008=CARTESIAN_POINT('',(5.35492156440322,7.30000009387732,-1.90337528929041));
#1009=CARTESIAN_POINT('Origin',(6.,0.,0.));
#1010=CARTESIAN_POINT('',(6.,7.,-1.));
#1011=CARTESIAN_POINT('',(6.,7.,0.));
#1012=CARTESIAN_POINT('',(6.,6.30000009387732,-1.));
#1013=CARTESIAN_POINT('',(6.,3.5,-1.));
#1014=CARTESIAN_POINT('',(5.99999861979541,7.,-1.00000001490116));
#1015=CARTESIAN_POINT('',(5.99999861979541,6.30000009387732,-1.60000001490116));
#1016=CARTESIAN_POINT('',(5.99999861979541,7.,-1.60000001490116));
#1017=CARTESIAN_POINT('',(6.,6.30000009387732,-5.40000008046627));
#1018=CARTESIAN_POINT('',(6.,6.30000009387732,-0.25000000372529));
#1019=CARTESIAN_POINT('',(6.,0.,-5.40000008046627));
#1020=CARTESIAN_POINT('',(6.,0.,-6.));
#1021=CARTESIAN_POINT('Origin',(6.02424017759875,7.,-1.));
#1022=CARTESIAN_POINT('',(6.02424017759875,7.,-1.));
#1023=CARTESIAN_POINT('',(6.02424017759875,7.,-1.));
#1024=CARTESIAN_POINT('',(6.02424017759875,7.,-1.));
#1025=CARTESIAN_POINT('Origin',(2.51212008879937,7.,-1.125));
#1026=CARTESIAN_POINT('',(-1.,7.,-1.));
#1027=CARTESIAN_POINT('Origin',(-0.999993161201917,7.,-6.00000008940697));
#1028=CARTESIAN_POINT('',(-0.999993161201917,7.,-6.00000008940697));
#1029=CARTESIAN_POINT('Origin',(4.00000005960464,7.,-2.20000003278255));
#1030=CARTESIAN_POINT('',(4.10000006109476,6.3,-2.20000003278255));
#1031=CARTESIAN_POINT('',(0.,6.30000009387732,-2.20000003278255));
#1032=CARTESIAN_POINT('',(3.55000005289912,6.3,-2.20000003278255));
#1033=CARTESIAN_POINT('',(0.,7.,-2.20000003278255));
#1034=CARTESIAN_POINT('',(4.10000006109476,6.3,-2.20000003278255));
#1035=CARTESIAN_POINT('Origin',(4.70000007003546,7.,-4.00000005960464));
#1036=CARTESIAN_POINT('',(4.70000007003546,6.30000009387732,-1.90337528929041));
#1037=CARTESIAN_POINT('',(4.70000007003546,6.30000009387732,-4.));
#1038=CARTESIAN_POINT('',(4.70000007003546,6.3,-3.47500005178154));
#1039=CARTESIAN_POINT('',(4.70000007003546,7.,-4.));
#1040=CARTESIAN_POINT('',(4.70000007003546,7.,-1.90337528929041));
#1041=CARTESIAN_POINT('Origin',(4.10000006109476,7.,-2.20000003278255));
#1042=CARTESIAN_POINT('',(4.10000006109476,6.30000009387732,-4.60000006854534));
#1043=CARTESIAN_POINT('',(4.10000006109476,6.30000009387732,-2.55000003799796));
#1044=CARTESIAN_POINT('',(4.10000006109476,7.,-4.60000006854534));
#1045=CARTESIAN_POINT('Origin',(1.5,7.,-4.));
#1046=CARTESIAN_POINT('',(4.70984312880644,6.30000009387732,-4.));
#1047=CARTESIAN_POINT('',(3.75,6.30000009387732,-4.));
#1048=CARTESIAN_POINT('',(4.70984312880644,7.,-4.));
#1049=CARTESIAN_POINT('Origin',(4.70984312880644,7.,-1.90337528929041));
#1050=CARTESIAN_POINT('',(4.70984312880644,6.30000009387732,-1.90337528929041));
#1051=CARTESIAN_POINT('',(4.70984312880644,7.,-1.90337528929041));
#1052=CARTESIAN_POINT('',(5.35492156440322,6.30000009387732,-1.90337528929041));
#1053=CARTESIAN_POINT('Origin',(0.,7.,-4.60000006854534));
#1054=CARTESIAN_POINT('',(0.,6.30000009387732,-4.60000006854534));
#1055=CARTESIAN_POINT('',(5.00000002980232,6.30000009387732,-4.60000006854534));
#1056=CARTESIAN_POINT('',(0.,7.,-4.60000006854534));
#1057=CARTESIAN_POINT('Origin',(0.,7.,-2.20000003278255));
#1058=CARTESIAN_POINT('',(0.,6.30000009387732,-1.35000002011657));
#1059=CARTESIAN_POINT('Origin',(-1.00000001490116,7.,-1.60000001490116));
#1060=CARTESIAN_POINT('',(-1.00000001490116,6.30000009387732,-1.60000001490116));
#1061=CARTESIAN_POINT('',(2.49999999254942,6.30000009387732,-1.60000001490116));
#1062=CARTESIAN_POINT('',(-1.00000001490116,7.,-1.60000001490116));
#1063=CARTESIAN_POINT('Origin',(-1.,3.5,-3.));
#1064=CARTESIAN_POINT('',(-1.,7.,-6.));
#1065=CARTESIAN_POINT('',(-1.,6.30000009387732,-5.40000008046627));
#1066=CARTESIAN_POINT('',(-1.,0.,-5.40000008046627));
#1067=CARTESIAN_POINT('',(-1.,6.30000009387732,-5.40000008046627));
#1068=CARTESIAN_POINT('',(-1.,7.,-1.));
#1069=CARTESIAN_POINT('Origin',(-1.,7.,-1.));
#1070=CARTESIAN_POINT('Origin',(6.,6.30000009387732,-0.500000007450581));
#1071=CARTESIAN_POINT('',(0.,6.30000009387732,-5.40000008046627));
#1072=CARTESIAN_POINT('',(4.70984312880644,6.30000009387732,-2.25000000372529));
#1073=CARTESIAN_POINT('Origin',(4.70984312880644,7.,-4.));
#1074=CARTESIAN_POINT('Origin',(6.,6.30000009387732,-5.40000008046627));
#1075=CARTESIAN_POINT('Origin',(6.,0.,-6.));
#1076=UNCERTAINTY_MEASURE_WITH_UNIT(LENGTH_MEASURE(0.001),#1080,
'DISTANCE_ACCURACY_VALUE',
'Maximum model space distance between geometric entities at asserted c
onnectivities');
#1077=UNCERTAINTY_MEASURE_WITH_UNIT(LENGTH_MEASURE(0.001),#1080,
'DISTANCE_ACCURACY_VALUE',
'Maximum model space distance between geometric entities at asserted c
onnectivities');
#1078=(
GEOMETRIC_REPRESENTATION_CONTEXT(3)
GLOBAL_UNCERTAINTY_ASSIGNED_CONTEXT((#1076))
GLOBAL_UNIT_ASSIGNED_CONTEXT((#1080,#1081,#1082))
REPRESENTATION_CONTEXT('','3D')
);
#1079=(
GEOMETRIC_REPRESENTATION_CONTEXT(3)
GLOBAL_UNCERTAINTY_ASSIGNED_CONTEXT((#1077))
GLOBAL_UNIT_ASSIGNED_CONTEXT((#1080,#1081,#1082))
REPRESENTATION_CONTEXT('','3D')
);
#1080=(
LENGTH_UNIT()
NAMED_UNIT(*)
SI_UNIT(.CENTI.,.METRE.)
);
#1081=(
NAMED_UNIT(*)
PLANE_ANGLE_UNIT()
SI_UNIT($,.RADIAN.)
);
#1082=(
NAMED_UNIT(*)
SI_UNIT($,.STERADIAN.)
SOLID_ANGLE_UNIT()
);
#1083=SHAPE_DEFINITION_REPRESENTATION(#1084,#1085);
#1084=PRODUCT_DEFINITION_SHAPE('',$,#1087);
#1085=SHAPE_REPRESENTATION('',(#689),#1078);
#1086=PRODUCT_DEFINITION_CONTEXT('part definition',#1091,'design');
#1087=PRODUCT_DEFINITION('2026-05-31-19-46-55-991','eeee',#1088,#1086);
#1088=PRODUCT_DEFINITION_FORMATION('',$,#1093);
#1089=PRODUCT_RELATED_PRODUCT_CATEGORY('eeee','eeee',(#1093));
#1090=APPLICATION_PROTOCOL_DEFINITION('international standard',
'automotive_design',2009,#1091);
#1091=APPLICATION_CONTEXT(
'Core Data for Automotive Mechanical Design Process');
#1092=PRODUCT_CONTEXT('part definition',#1091,'mechanical');
#1093=PRODUCT('2026-05-31-19-46-55-991','eeee',$,(#1092));
#1094=PRESENTATION_STYLE_ASSIGNMENT((#1095));
#1095=SURFACE_STYLE_USAGE(.BOTH.,#1096);
#1096=SURFACE_SIDE_STYLE('',(#1097));
#1097=SURFACE_STYLE_FILL_AREA(#1098);
#1098=FILL_AREA_STYLE('Steel - Satin',(#1099));
#1099=FILL_AREA_STYLE_COLOUR('Steel - Satin',#1100);
#1100=COLOUR_RGB('Steel - Satin',0.627450980392157,0.627450980392157,0.627450980392157);
ENDSEC;
END-ISO-10303-21;
