ISO-10303-21;
HEADER;
/* Generated by software containing ST-Developer
 * from STEP Tools, Inc. (www.steptools.com) 
 */

FILE_DESCRIPTION(
/* description */ (''),
/* implementation_level */ '2;1');

FILE_NAME(
/* name */ 'shoulderSTEP.step',
/* time_stamp */ '2026-06-19T21:00:50-04:00',
/* author */ (''),
/* organization */ (''),
/* preprocessor_version */ 'ST-DEVELOPER v20.1',
/* originating_system */ 'Autodesk Translation Framework v15.8.0.0',
/* authorisation */ '');

FILE_SCHEMA (('AUTOMOTIVE_DESIGN { 1 0 10303 214 3 1 1 }'));
ENDSEC;

DATA;
#10=MECHANICAL_DESIGN_GEOMETRIC_PRESENTATION_REPRESENTATION('',(#13),#1822);
#11=SHAPE_REPRESENTATION_RELATIONSHIP('SRR','None',#1828,#12);
#12=ADVANCED_BREP_SHAPE_REPRESENTATION('',(#14),#1821);
#13=STYLED_ITEM('',(#1837),#14);
#14=MANIFOLD_SOLID_BREP('Body2',#1078);
#15=FACE_BOUND('',#151,.T.);
#16=FACE_BOUND('',#152,.T.);
#17=FACE_BOUND('',#153,.T.);
#18=FACE_BOUND('',#154,.T.);
#19=FACE_BOUND('',#155,.T.);
#20=FACE_BOUND('',#156,.T.);
#21=FACE_BOUND('',#161,.T.);
#22=FACE_BOUND('',#162,.T.);
#23=FACE_BOUND('',#163,.T.);
#24=FACE_BOUND('',#164,.T.);
#25=FACE_BOUND('',#165,.T.);
#26=FACE_BOUND('',#166,.T.);
#27=FACE_BOUND('',#167,.T.);
#28=FACE_BOUND('',#168,.T.);
#29=FACE_BOUND('',#169,.T.);
#30=FACE_BOUND('',#170,.T.);
#31=FACE_BOUND('',#171,.T.);
#32=FACE_BOUND('',#172,.T.);
#33=PLANE('',#1083);
#34=PLANE('',#1084);
#35=PLANE('',#1088);
#36=PLANE('',#1089);
#37=PLANE('',#1090);
#38=PLANE('',#1091);
#39=PLANE('',#1092);
#40=PLANE('',#1093);
#41=PLANE('',#1094);
#42=PLANE('',#1100);
#43=PLANE('',#1102);
#44=PLANE('',#1104);
#45=PLANE('',#1106);
#46=PLANE('',#1108);
#47=PLANE('',#1111);
#48=PLANE('',#1114);
#49=PLANE('',#1117);
#50=PLANE('',#1118);
#51=PLANE('',#1119);
#52=PLANE('',#1120);
#53=PLANE('',#1121);
#54=PLANE('',#1124);
#55=PLANE('',#1125);
#56=PLANE('',#1126);
#57=PLANE('',#1127);
#58=PLANE('',#1132);
#59=PLANE('',#1149);
#60=PLANE('',#1150);
#61=PLANE('',#1168);
#62=PLANE('',#1170);
#63=PLANE('',#1185);
#64=PLANE('',#1189);
#65=PLANE('',#1190);
#66=FACE_OUTER_BOUND('',#121,.T.);
#67=FACE_OUTER_BOUND('',#122,.T.);
#68=FACE_OUTER_BOUND('',#123,.T.);
#69=FACE_OUTER_BOUND('',#124,.T.);
#70=FACE_OUTER_BOUND('',#125,.T.);
#71=FACE_OUTER_BOUND('',#126,.T.);
#72=FACE_OUTER_BOUND('',#127,.T.);
#73=FACE_OUTER_BOUND('',#128,.T.);
#74=FACE_OUTER_BOUND('',#129,.T.);
#75=FACE_OUTER_BOUND('',#130,.T.);
#76=FACE_OUTER_BOUND('',#131,.T.);
#77=FACE_OUTER_BOUND('',#132,.T.);
#78=FACE_OUTER_BOUND('',#133,.T.);
#79=FACE_OUTER_BOUND('',#134,.T.);
#80=FACE_OUTER_BOUND('',#135,.T.);
#81=FACE_OUTER_BOUND('',#136,.T.);
#82=FACE_OUTER_BOUND('',#137,.T.);
#83=FACE_OUTER_BOUND('',#138,.T.);
#84=FACE_OUTER_BOUND('',#139,.T.);
#85=FACE_OUTER_BOUND('',#140,.T.);
#86=FACE_OUTER_BOUND('',#141,.T.);
#87=FACE_OUTER_BOUND('',#142,.T.);
#88=FACE_OUTER_BOUND('',#143,.T.);
#89=FACE_OUTER_BOUND('',#144,.T.);
#90=FACE_OUTER_BOUND('',#145,.T.);
#91=FACE_OUTER_BOUND('',#146,.T.);
#92=FACE_OUTER_BOUND('',#147,.T.);
#93=FACE_OUTER_BOUND('',#148,.T.);
#94=FACE_OUTER_BOUND('',#149,.T.);
#95=FACE_OUTER_BOUND('',#150,.T.);
#96=FACE_OUTER_BOUND('',#157,.T.);
#97=FACE_OUTER_BOUND('',#158,.T.);
#98=FACE_OUTER_BOUND('',#159,.T.);
#99=FACE_OUTER_BOUND('',#160,.T.);
#100=FACE_OUTER_BOUND('',#173,.T.);
#101=FACE_OUTER_BOUND('',#174,.T.);
#102=FACE_OUTER_BOUND('',#175,.T.);
#103=FACE_OUTER_BOUND('',#176,.T.);
#104=FACE_OUTER_BOUND('',#177,.T.);
#105=FACE_OUTER_BOUND('',#178,.T.);
#106=FACE_OUTER_BOUND('',#179,.T.);
#107=FACE_OUTER_BOUND('',#180,.T.);
#108=FACE_OUTER_BOUND('',#181,.T.);
#109=FACE_OUTER_BOUND('',#182,.T.);
#110=FACE_OUTER_BOUND('',#183,.T.);
#111=FACE_OUTER_BOUND('',#184,.T.);
#112=FACE_OUTER_BOUND('',#185,.T.);
#113=FACE_OUTER_BOUND('',#186,.T.);
#114=FACE_OUTER_BOUND('',#187,.T.);
#115=FACE_OUTER_BOUND('',#188,.T.);
#116=FACE_OUTER_BOUND('',#189,.T.);
#117=FACE_OUTER_BOUND('',#190,.T.);
#118=FACE_OUTER_BOUND('',#191,.T.);
#119=FACE_OUTER_BOUND('',#192,.T.);
#120=FACE_OUTER_BOUND('',#193,.T.);
#121=EDGE_LOOP('',(#695,#696,#697,#698));
#122=EDGE_LOOP('',(#699,#700,#701,#702,#703,#704,#705,#706,#707,#708));
#123=EDGE_LOOP('',(#709,#710,#711,#712,#713,#714));
#124=EDGE_LOOP('',(#715,#716,#717,#718));
#125=EDGE_LOOP('',(#719,#720,#721,#722,#723,#724,#725,#726));
#126=EDGE_LOOP('',(#727,#728,#729,#730,#731,#732));
#127=EDGE_LOOP('',(#733,#734,#735,#736));
#128=EDGE_LOOP('',(#737,#738,#739,#740));
#129=EDGE_LOOP('',(#741,#742,#743,#744));
#130=EDGE_LOOP('',(#745,#746,#747,#748,#749,#750,#751,#752));
#131=EDGE_LOOP('',(#753,#754,#755,#756,#757,#758,#759,#760,#761,#762,#763,
#764,#765,#766,#767,#768));
#132=EDGE_LOOP('',(#769,#770));
#133=EDGE_LOOP('',(#771));
#134=EDGE_LOOP('',(#772));
#135=EDGE_LOOP('',(#773,#774));
#136=EDGE_LOOP('',(#775,#776,#777));
#137=EDGE_LOOP('',(#778,#779,#780));
#138=EDGE_LOOP('',(#781,#782,#783));
#139=EDGE_LOOP('',(#784,#785,#786,#787));
#140=EDGE_LOOP('',(#788,#789,#790,#791));
#141=EDGE_LOOP('',(#792,#793,#794,#795));
#142=EDGE_LOOP('',(#796,#797,#798,#799));
#143=EDGE_LOOP('',(#800,#801,#802,#803,#804,#805,#806));
#144=EDGE_LOOP('',(#807,#808,#809,#810));
#145=EDGE_LOOP('',(#811,#812,#813,#814));
#146=EDGE_LOOP('',(#815,#816,#817,#818));
#147=EDGE_LOOP('',(#819,#820,#821,#822));
#148=EDGE_LOOP('',(#823,#824,#825,#826));
#149=EDGE_LOOP('',(#827,#828,#829,#830));
#150=EDGE_LOOP('',(#831,#832,#833,#834,#835,#836,#837,#838,#839,#840,#841,
#842,#843));
#151=EDGE_LOOP('',(#844));
#152=EDGE_LOOP('',(#845));
#153=EDGE_LOOP('',(#846));
#154=EDGE_LOOP('',(#847));
#155=EDGE_LOOP('',(#848));
#156=EDGE_LOOP('',(#849,#850,#851,#852,#853,#854,#855,#856,#857,#858,#859,
#860,#861,#862,#863,#864));
#157=EDGE_LOOP('',(#865,#866,#867,#868));
#158=EDGE_LOOP('',(#869,#870,#871,#872));
#159=EDGE_LOOP('',(#873,#874,#875,#876));
#160=EDGE_LOOP('',(#877,#878,#879,#880,#881,#882,#883,#884));
#161=EDGE_LOOP('',(#885));
#162=EDGE_LOOP('',(#886));
#163=EDGE_LOOP('',(#887));
#164=EDGE_LOOP('',(#888,#889));
#165=EDGE_LOOP('',(#890));
#166=EDGE_LOOP('',(#891));
#167=EDGE_LOOP('',(#892));
#168=EDGE_LOOP('',(#893));
#169=EDGE_LOOP('',(#894));
#170=EDGE_LOOP('',(#895));
#171=EDGE_LOOP('',(#896));
#172=EDGE_LOOP('',(#897));
#173=EDGE_LOOP('',(#898,#899,#900,#901));
#174=EDGE_LOOP('',(#902,#903,#904,#905));
#175=EDGE_LOOP('',(#906,#907,#908,#909,#910));
#176=EDGE_LOOP('',(#911,#912,#913,#914,#915,#916,#917,#918));
#177=EDGE_LOOP('',(#919,#920,#921,#922,#923));
#178=EDGE_LOOP('',(#924,#925,#926,#927));
#179=EDGE_LOOP('',(#928,#929,#930,#931,#932,#933));
#180=EDGE_LOOP('',(#934,#935,#936,#937,#938,#939));
#181=EDGE_LOOP('',(#940,#941,#942,#943));
#182=EDGE_LOOP('',(#944,#945,#946,#947));
#183=EDGE_LOOP('',(#948,#949,#950,#951));
#184=EDGE_LOOP('',(#952,#953,#954,#955));
#185=EDGE_LOOP('',(#956,#957,#958,#959));
#186=EDGE_LOOP('',(#960,#961,#962,#963));
#187=EDGE_LOOP('',(#964,#965,#966,#967,#968,#969));
#188=EDGE_LOOP('',(#970,#971,#972,#973,#974,#975,#976,#977,#978,#979));
#189=EDGE_LOOP('',(#980,#981,#982));
#190=EDGE_LOOP('',(#983,#984,#985,#986));
#191=EDGE_LOOP('',(#987,#988,#989,#990,#991,#992));
#192=EDGE_LOOP('',(#993,#994,#995,#996));
#193=EDGE_LOOP('',(#997,#998,#999,#1000));
#194=LINE('',#1518,#291);
#195=LINE('',#1521,#292);
#196=LINE('',#1524,#293);
#197=LINE('',#1526,#294);
#198=LINE('',#1528,#295);
#199=LINE('',#1530,#296);
#200=LINE('',#1532,#297);
#201=LINE('',#1534,#298);
#202=LINE('',#1536,#299);
#203=LINE('',#1538,#300);
#204=LINE('',#1539,#301);
#205=LINE('',#1542,#302);
#206=LINE('',#1546,#303);
#207=LINE('',#1547,#304);
#208=LINE('',#1552,#305);
#209=LINE('',#1553,#306);
#210=LINE('',#1556,#307);
#211=LINE('',#1558,#308);
#212=LINE('',#1560,#309);
#213=LINE('',#1562,#310);
#214=LINE('',#1564,#311);
#215=LINE('',#1565,#312);
#216=LINE('',#1567,#313);
#217=LINE('',#1568,#314);
#218=LINE('',#1572,#315);
#219=LINE('',#1574,#316);
#220=LINE('',#1576,#317);
#221=LINE('',#1577,#318);
#222=LINE('',#1581,#319);
#223=LINE('',#1583,#320);
#224=LINE('',#1585,#321);
#225=LINE('',#1586,#322);
#226=LINE('',#1588,#323);
#227=LINE('',#1589,#324);
#228=LINE('',#1592,#325);
#229=LINE('',#1594,#326);
#230=LINE('',#1596,#327);
#231=LINE('',#1598,#328);
#232=LINE('',#1599,#329);
#233=LINE('',#1602,#330);
#234=LINE('',#1606,#331);
#235=LINE('',#1610,#332);
#236=LINE('',#1614,#333);
#237=LINE('',#1616,#334);
#238=LINE('',#1620,#335);
#239=LINE('',#1622,#336);
#240=LINE('',#1624,#337);
#241=LINE('',#1626,#338);
#242=LINE('',#1653,#339);
#243=LINE('',#1655,#340);
#244=LINE('',#1656,#341);
#245=LINE('',#1659,#342);
#246=LINE('',#1660,#343);
#247=LINE('',#1663,#344);
#248=LINE('',#1664,#345);
#249=LINE('',#1669,#346);
#250=LINE('',#1671,#347);
#251=LINE('',#1674,#348);
#252=LINE('',#1677,#349);
#253=LINE('',#1679,#350);
#254=LINE('',#1680,#351);
#255=LINE('',#1683,#352);
#256=LINE('',#1685,#353);
#257=LINE('',#1686,#354);
#258=LINE('',#1689,#355);
#259=LINE('',#1690,#356);
#260=LINE('',#1693,#357);
#261=LINE('',#1694,#358);
#262=LINE('',#1702,#359);
#263=LINE('',#1703,#360);
#264=LINE('',#1724,#361);
#265=LINE('',#1727,#362);
#266=LINE('',#1730,#363);
#267=LINE('',#1733,#364);
#268=LINE('',#1734,#365);
#269=LINE('',#1737,#366);
#270=LINE('',#1741,#367);
#271=LINE('',#1745,#368);
#272=LINE('',#1774,#369);
#273=LINE('',#1776,#370);
#274=LINE('',#1778,#371);
#275=LINE('',#1779,#372);
#276=LINE('',#1782,#373);
#277=LINE('',#1784,#374);
#278=LINE('',#1786,#375);
#279=LINE('',#1788,#376);
#280=LINE('',#1790,#377);
#281=LINE('',#1792,#378);
#282=LINE('',#1794,#379);
#283=LINE('',#1796,#380);
#284=LINE('',#1798,#381);
#285=LINE('',#1800,#382);
#286=LINE('',#1802,#383);
#287=LINE('',#1805,#384);
#288=LINE('',#1807,#385);
#289=LINE('',#1810,#386);
#290=LINE('',#1816,#387);
#291=VECTOR('',#1197,1.);
#292=VECTOR('',#1200,1.);
#293=VECTOR('',#1203,1.);
#294=VECTOR('',#1204,1.);
#295=VECTOR('',#1205,1.);
#296=VECTOR('',#1206,1.);
#297=VECTOR('',#1207,1.);
#298=VECTOR('',#1208,1.);
#299=VECTOR('',#1209,1.);
#300=VECTOR('',#1210,1.);
#301=VECTOR('',#1211,1.);
#302=VECTOR('',#1214,1.);
#303=VECTOR('',#1217,1.);
#304=VECTOR('',#1218,1.);
#305=VECTOR('',#1223,1.);
#306=VECTOR('',#1224,1.);
#307=VECTOR('',#1227,1.);
#308=VECTOR('',#1228,1.);
#309=VECTOR('',#1229,1.);
#310=VECTOR('',#1230,1.);
#311=VECTOR('',#1231,1.);
#312=VECTOR('',#1232,1.);
#313=VECTOR('',#1235,1.);
#314=VECTOR('',#1236,1.);
#315=VECTOR('',#1239,1.);
#316=VECTOR('',#1240,1.);
#317=VECTOR('',#1241,1.);
#318=VECTOR('',#1242,1.);
#319=VECTOR('',#1245,1.);
#320=VECTOR('',#1246,1.);
#321=VECTOR('',#1247,1.);
#322=VECTOR('',#1248,1.);
#323=VECTOR('',#1251,1.);
#324=VECTOR('',#1252,1.);
#325=VECTOR('',#1255,1.);
#326=VECTOR('',#1256,1.);
#327=VECTOR('',#1257,1.);
#328=VECTOR('',#1258,1.);
#329=VECTOR('',#1259,1.);
#330=VECTOR('',#1262,1.);
#331=VECTOR('',#1265,1.);
#332=VECTOR('',#1268,1.);
#333=VECTOR('',#1271,1.);
#334=VECTOR('',#1272,1.);
#335=VECTOR('',#1275,1.);
#336=VECTOR('',#1276,1.);
#337=VECTOR('',#1277,1.);
#338=VECTOR('',#1278,1.);
#339=VECTOR('',#1319,1.);
#340=VECTOR('',#1320,1.);
#341=VECTOR('',#1321,1.);
#342=VECTOR('',#1324,1.);
#343=VECTOR('',#1325,1.);
#344=VECTOR('',#1328,1.);
#345=VECTOR('',#1329,1.);
#346=VECTOR('',#1334,1.);
#347=VECTOR('',#1335,1.);
#348=VECTOR('',#1338,1.);
#349=VECTOR('',#1341,1.);
#350=VECTOR('',#1342,1.);
#351=VECTOR('',#1343,1.);
#352=VECTOR('',#1346,1.);
#353=VECTOR('',#1347,1.);
#354=VECTOR('',#1348,1.);
#355=VECTOR('',#1351,1.);
#356=VECTOR('',#1352,1.);
#357=VECTOR('',#1355,1.);
#358=VECTOR('',#1356,1.);
#359=VECTOR('',#1369,1.);
#360=VECTOR('',#1370,1.);
#361=VECTOR('',#1397,1.);
#362=VECTOR('',#1400,1.);
#363=VECTOR('',#1403,1.);
#364=VECTOR('',#1406,1.);
#365=VECTOR('',#1407,1.);
#366=VECTOR('',#1410,1.);
#367=VECTOR('',#1413,1.);
#368=VECTOR('',#1416,1.);
#369=VECTOR('',#1447,1.);
#370=VECTOR('',#1450,1.);
#371=VECTOR('',#1453,1.);
#372=VECTOR('',#1454,1.);
#373=VECTOR('',#1459,1.);
#374=VECTOR('',#1462,0.08);
#375=VECTOR('',#1465,0.35);
#376=VECTOR('',#1468,0.08);
#377=VECTOR('',#1471,0.08);
#378=VECTOR('',#1474,0.08);
#379=VECTOR('',#1477,0.08);
#380=VECTOR('',#1480,0.08);
#381=VECTOR('',#1483,0.08);
#382=VECTOR('',#1486,0.08);
#383=VECTOR('',#1489,0.08);
#384=VECTOR('',#1492,1.);
#385=VECTOR('',#1493,1.);
#386=VECTOR('',#1496,0.08);
#387=VECTOR('',#1507,0.08);
#388=CIRCLE('',#1081,0.1);
#389=CIRCLE('',#1082,0.1);
#390=CIRCLE('',#1085,0.1);
#391=CIRCLE('',#1087,0.1);
#392=CIRCLE('',#1095,1.);
#393=CIRCLE('',#1096,1.);
#394=CIRCLE('',#1097,1.);
#395=CIRCLE('',#1098,0.3);
#396=CIRCLE('',#1099,0.3);
#397=CIRCLE('',#1101,0.08);
#398=CIRCLE('',#1103,0.08);
#399=CIRCLE('',#1105,0.08);
#400=CIRCLE('',#1107,0.08);
#401=CIRCLE('',#1109,0.08);
#402=CIRCLE('',#1110,0.08);
#403=CIRCLE('',#1112,0.08);
#404=CIRCLE('',#1113,0.08);
#405=CIRCLE('',#1115,0.35);
#406=CIRCLE('',#1116,0.35);
#407=CIRCLE('',#1122,0.3);
#408=CIRCLE('',#1123,1.);
#409=CIRCLE('',#1129,0.3);
#410=CIRCLE('',#1131,0.3);
#411=CIRCLE('',#1133,0.3);
#412=CIRCLE('',#1134,0.08);
#413=CIRCLE('',#1135,0.08);
#414=CIRCLE('',#1136,0.08);
#415=CIRCLE('',#1137,0.08);
#416=CIRCLE('',#1138,0.08);
#417=CIRCLE('',#1139,0.35);
#418=CIRCLE('',#1140,0.08);
#419=CIRCLE('',#1141,0.08);
#420=CIRCLE('',#1142,0.08);
#421=CIRCLE('',#1143,0.08);
#422=CIRCLE('',#1144,0.08);
#423=CIRCLE('',#1145,0.08);
#424=CIRCLE('',#1148,1.);
#425=CIRCLE('',#1151,1.);
#426=CIRCLE('',#1152,1.);
#427=CIRCLE('',#1153,1.);
#428=CIRCLE('',#1154,0.35);
#429=CIRCLE('',#1155,0.08);
#430=CIRCLE('',#1156,0.08);
#431=CIRCLE('',#1157,0.08);
#432=CIRCLE('',#1158,0.08);
#433=CIRCLE('',#1159,0.08);
#434=CIRCLE('',#1160,0.08);
#435=CIRCLE('',#1161,0.08);
#436=CIRCLE('',#1162,0.08);
#437=CIRCLE('',#1163,0.08);
#438=CIRCLE('',#1164,0.08);
#439=CIRCLE('',#1165,0.08);
#440=CIRCLE('',#1166,0.08);
#441=CIRCLE('',#1183,0.08);
#442=CIRCLE('',#1184,0.08);
#443=CIRCLE('',#1186,0.08);
#444=VERTEX_POINT('',#1514);
#445=VERTEX_POINT('',#1515);
#446=VERTEX_POINT('',#1517);
#447=VERTEX_POINT('',#1519);
#448=VERTEX_POINT('',#1523);
#449=VERTEX_POINT('',#1525);
#450=VERTEX_POINT('',#1527);
#451=VERTEX_POINT('',#1529);
#452=VERTEX_POINT('',#1531);
#453=VERTEX_POINT('',#1533);
#454=VERTEX_POINT('',#1535);
#455=VERTEX_POINT('',#1537);
#456=VERTEX_POINT('',#1541);
#457=VERTEX_POINT('',#1543);
#458=VERTEX_POINT('',#1545);
#459=VERTEX_POINT('',#1549);
#460=VERTEX_POINT('',#1550);
#461=VERTEX_POINT('',#1555);
#462=VERTEX_POINT('',#1557);
#463=VERTEX_POINT('',#1559);
#464=VERTEX_POINT('',#1561);
#465=VERTEX_POINT('',#1563);
#466=VERTEX_POINT('',#1570);
#467=VERTEX_POINT('',#1571);
#468=VERTEX_POINT('',#1573);
#469=VERTEX_POINT('',#1575);
#470=VERTEX_POINT('',#1579);
#471=VERTEX_POINT('',#1580);
#472=VERTEX_POINT('',#1582);
#473=VERTEX_POINT('',#1584);
#474=VERTEX_POINT('',#1591);
#475=VERTEX_POINT('',#1593);
#476=VERTEX_POINT('',#1595);
#477=VERTEX_POINT('',#1597);
#478=VERTEX_POINT('',#1601);
#479=VERTEX_POINT('',#1603);
#480=VERTEX_POINT('',#1605);
#481=VERTEX_POINT('',#1607);
#482=VERTEX_POINT('',#1609);
#483=VERTEX_POINT('',#1611);
#484=VERTEX_POINT('',#1613);
#485=VERTEX_POINT('',#1615);
#486=VERTEX_POINT('',#1617);
#487=VERTEX_POINT('',#1619);
#488=VERTEX_POINT('',#1621);
#489=VERTEX_POINT('',#1623);
#490=VERTEX_POINT('',#1625);
#491=VERTEX_POINT('',#1631);
#492=VERTEX_POINT('',#1634);
#493=VERTEX_POINT('',#1639);
#494=VERTEX_POINT('',#1643);
#495=VERTEX_POINT('',#1647);
#496=VERTEX_POINT('',#1652);
#497=VERTEX_POINT('',#1654);
#498=VERTEX_POINT('',#1658);
#499=VERTEX_POINT('',#1662);
#500=VERTEX_POINT('',#1666);
#501=VERTEX_POINT('',#1668);
#502=VERTEX_POINT('',#1670);
#503=VERTEX_POINT('',#1672);
#504=VERTEX_POINT('',#1676);
#505=VERTEX_POINT('',#1678);
#506=VERTEX_POINT('',#1682);
#507=VERTEX_POINT('',#1684);
#508=VERTEX_POINT('',#1688);
#509=VERTEX_POINT('',#1692);
#510=VERTEX_POINT('',#1700);
#511=VERTEX_POINT('',#1704);
#512=VERTEX_POINT('',#1706);
#513=VERTEX_POINT('',#1708);
#514=VERTEX_POINT('',#1710);
#515=VERTEX_POINT('',#1712);
#516=VERTEX_POINT('',#1716);
#517=VERTEX_POINT('',#1719);
#518=VERTEX_POINT('',#1726);
#519=VERTEX_POINT('',#1728);
#520=VERTEX_POINT('',#1732);
#521=VERTEX_POINT('',#1736);
#522=VERTEX_POINT('',#1738);
#523=VERTEX_POINT('',#1740);
#524=VERTEX_POINT('',#1742);
#525=VERTEX_POINT('',#1744);
#526=VERTEX_POINT('',#1747);
#527=VERTEX_POINT('',#1749);
#528=VERTEX_POINT('',#1751);
#529=VERTEX_POINT('',#1753);
#530=VERTEX_POINT('',#1754);
#531=VERTEX_POINT('',#1757);
#532=VERTEX_POINT('',#1759);
#533=VERTEX_POINT('',#1761);
#534=VERTEX_POINT('',#1763);
#535=VERTEX_POINT('',#1765);
#536=VERTEX_POINT('',#1767);
#537=VERTEX_POINT('',#1769);
#538=VERTEX_POINT('',#1771);
#539=VERTEX_POINT('',#1804);
#540=VERTEX_POINT('',#1806);
#541=VERTEX_POINT('',#1808);
#542=EDGE_CURVE('',#444,#445,#388,.T.);
#543=EDGE_CURVE('',#445,#446,#194,.T.);
#544=EDGE_CURVE('',#446,#447,#389,.T.);
#545=EDGE_CURVE('',#447,#444,#195,.T.);
#546=EDGE_CURVE('',#445,#448,#196,.T.);
#547=EDGE_CURVE('',#449,#448,#197,.T.);
#548=EDGE_CURVE('',#450,#449,#198,.T.);
#549=EDGE_CURVE('',#451,#450,#199,.T.);
#550=EDGE_CURVE('',#452,#451,#200,.T.);
#551=EDGE_CURVE('',#453,#452,#201,.T.);
#552=EDGE_CURVE('',#454,#453,#202,.T.);
#553=EDGE_CURVE('',#455,#454,#203,.T.);
#554=EDGE_CURVE('',#446,#455,#204,.T.);
#555=EDGE_CURVE('',#444,#456,#205,.T.);
#556=EDGE_CURVE('',#457,#456,#390,.T.);
#557=EDGE_CURVE('',#457,#458,#206,.T.);
#558=EDGE_CURVE('',#448,#458,#207,.T.);
#559=EDGE_CURVE('',#459,#460,#391,.T.);
#560=EDGE_CURVE('',#460,#457,#208,.T.);
#561=EDGE_CURVE('',#456,#459,#209,.T.);
#562=EDGE_CURVE('',#460,#461,#210,.T.);
#563=EDGE_CURVE('',#462,#461,#211,.T.);
#564=EDGE_CURVE('',#463,#462,#212,.T.);
#565=EDGE_CURVE('',#464,#463,#213,.T.);
#566=EDGE_CURVE('',#465,#464,#214,.T.);
#567=EDGE_CURVE('',#458,#465,#215,.T.);
#568=EDGE_CURVE('',#461,#455,#216,.T.);
#569=EDGE_CURVE('',#459,#447,#217,.T.);
#570=EDGE_CURVE('',#466,#467,#218,.T.);
#571=EDGE_CURVE('',#468,#466,#219,.T.);
#572=EDGE_CURVE('',#468,#469,#220,.T.);
#573=EDGE_CURVE('',#467,#469,#221,.T.);
#574=EDGE_CURVE('',#470,#471,#222,.T.);
#575=EDGE_CURVE('',#472,#470,#223,.T.);
#576=EDGE_CURVE('',#472,#473,#224,.T.);
#577=EDGE_CURVE('',#471,#473,#225,.T.);
#578=EDGE_CURVE('',#469,#472,#226,.T.);
#579=EDGE_CURVE('',#473,#468,#227,.T.);
#580=EDGE_CURVE('',#474,#466,#228,.T.);
#581=EDGE_CURVE('',#475,#474,#229,.T.);
#582=EDGE_CURVE('',#475,#476,#230,.F.);
#583=EDGE_CURVE('',#476,#477,#231,.T.);
#584=EDGE_CURVE('',#471,#477,#232,.T.);
#585=EDGE_CURVE('',#467,#478,#233,.T.);
#586=EDGE_CURVE('',#479,#478,#392,.T.);
#587=EDGE_CURVE('',#479,#480,#234,.T.);
#588=EDGE_CURVE('',#481,#480,#393,.T.);
#589=EDGE_CURVE('',#481,#482,#235,.T.);
#590=EDGE_CURVE('',#483,#482,#394,.T.);
#591=EDGE_CURVE('',#483,#484,#236,.T.);
#592=EDGE_CURVE('',#484,#485,#237,.T.);
#593=EDGE_CURVE('',#485,#486,#395,.T.);
#594=EDGE_CURVE('',#486,#487,#238,.T.);
#595=EDGE_CURVE('',#488,#487,#239,.T.);
#596=EDGE_CURVE('',#489,#488,#240,.T.);
#597=EDGE_CURVE('',#489,#490,#241,.T.);
#598=EDGE_CURVE('',#490,#474,#396,.T.);
#599=EDGE_CURVE('',#462,#463,#397,.T.);
#600=EDGE_CURVE('',#491,#491,#398,.T.);
#601=EDGE_CURVE('',#492,#492,#399,.T.);
#602=EDGE_CURVE('',#464,#465,#400,.T.);
#603=EDGE_CURVE('',#453,#493,#401,.T.);
#604=EDGE_CURVE('',#493,#454,#402,.T.);
#605=EDGE_CURVE('',#449,#494,#403,.T.);
#606=EDGE_CURVE('',#494,#450,#404,.T.);
#607=EDGE_CURVE('',#451,#495,#405,.T.);
#608=EDGE_CURVE('',#495,#452,#406,.T.);
#609=EDGE_CURVE('',#496,#487,#242,.T.);
#610=EDGE_CURVE('',#497,#496,#243,.T.);
#611=EDGE_CURVE('',#488,#497,#244,.T.);
#612=EDGE_CURVE('',#498,#486,#245,.T.);
#613=EDGE_CURVE('',#498,#496,#246,.F.);
#614=EDGE_CURVE('',#499,#497,#247,.T.);
#615=EDGE_CURVE('',#489,#499,#248,.T.);
#616=EDGE_CURVE('',#477,#500,#407,.T.);
#617=EDGE_CURVE('',#500,#501,#249,.T.);
#618=EDGE_CURVE('',#501,#502,#250,.T.);
#619=EDGE_CURVE('',#503,#502,#408,.T.);
#620=EDGE_CURVE('',#503,#470,#251,.T.);
#621=EDGE_CURVE('',#504,#484,#252,.T.);
#622=EDGE_CURVE('',#505,#483,#253,.T.);
#623=EDGE_CURVE('',#505,#504,#254,.T.);
#624=EDGE_CURVE('',#501,#506,#255,.T.);
#625=EDGE_CURVE('',#507,#500,#256,.T.);
#626=EDGE_CURVE('',#507,#506,#257,.F.);
#627=EDGE_CURVE('',#508,#506,#258,.T.);
#628=EDGE_CURVE('',#502,#508,#259,.T.);
#629=EDGE_CURVE('',#499,#509,#260,.F.);
#630=EDGE_CURVE('',#509,#490,#261,.T.);
#631=EDGE_CURVE('',#475,#509,#409,.T.);
#632=EDGE_CURVE('',#507,#476,#410,.T.);
#633=EDGE_CURVE('',#498,#510,#411,.T.);
#634=EDGE_CURVE('',#504,#510,#262,.F.);
#635=EDGE_CURVE('',#508,#505,#263,.T.);
#636=EDGE_CURVE('',#511,#511,#412,.T.);
#637=EDGE_CURVE('',#512,#512,#413,.T.);
#638=EDGE_CURVE('',#513,#513,#414,.T.);
#639=EDGE_CURVE('',#514,#514,#415,.T.);
#640=EDGE_CURVE('',#515,#515,#416,.T.);
#641=EDGE_CURVE('',#452,#451,#417,.T.);
#642=EDGE_CURVE('',#450,#449,#418,.T.);
#643=EDGE_CURVE('',#465,#516,#419,.T.);
#644=EDGE_CURVE('',#516,#464,#420,.T.);
#645=EDGE_CURVE('',#463,#517,#421,.T.);
#646=EDGE_CURVE('',#517,#462,#422,.T.);
#647=EDGE_CURVE('',#454,#453,#423,.T.);
#648=EDGE_CURVE('',#510,#485,#264,.T.);
#649=EDGE_CURVE('',#478,#518,#265,.T.);
#650=EDGE_CURVE('',#518,#519,#424,.T.);
#651=EDGE_CURVE('',#519,#479,#266,.T.);
#652=EDGE_CURVE('',#520,#519,#267,.T.);
#653=EDGE_CURVE('',#480,#520,#268,.T.);
#654=EDGE_CURVE('',#518,#521,#269,.T.);
#655=EDGE_CURVE('',#522,#521,#425,.T.);
#656=EDGE_CURVE('',#522,#523,#270,.T.);
#657=EDGE_CURVE('',#524,#523,#426,.T.);
#658=EDGE_CURVE('',#524,#525,#271,.T.);
#659=EDGE_CURVE('',#520,#525,#427,.T.);
#660=EDGE_CURVE('',#526,#526,#428,.T.);
#661=EDGE_CURVE('',#527,#527,#429,.T.);
#662=EDGE_CURVE('',#528,#528,#430,.T.);
#663=EDGE_CURVE('',#529,#530,#431,.T.);
#664=EDGE_CURVE('',#530,#529,#432,.T.);
#665=EDGE_CURVE('',#531,#531,#433,.T.);
#666=EDGE_CURVE('',#532,#532,#434,.T.);
#667=EDGE_CURVE('',#533,#533,#435,.T.);
#668=EDGE_CURVE('',#534,#534,#436,.T.);
#669=EDGE_CURVE('',#535,#535,#437,.T.);
#670=EDGE_CURVE('',#536,#536,#438,.T.);
#671=EDGE_CURVE('',#537,#537,#439,.T.);
#672=EDGE_CURVE('',#538,#538,#440,.T.);
#673=EDGE_CURVE('',#525,#481,#272,.T.);
#674=EDGE_CURVE('',#482,#524,#273,.T.);
#675=EDGE_CURVE('',#508,#522,#274,.T.);
#676=EDGE_CURVE('',#521,#503,#275,.T.);
#677=EDGE_CURVE('',#523,#505,#276,.T.);
#678=EDGE_CURVE('',#538,#492,#277,.T.);
#679=EDGE_CURVE('',#526,#495,#278,.T.);
#680=EDGE_CURVE('',#537,#494,#279,.T.);
#681=EDGE_CURVE('',#527,#515,#280,.T.);
#682=EDGE_CURVE('',#536,#511,#281,.T.);
#683=EDGE_CURVE('',#535,#512,#282,.T.);
#684=EDGE_CURVE('',#534,#513,#283,.T.);
#685=EDGE_CURVE('',#533,#491,#284,.T.);
#686=EDGE_CURVE('',#532,#514,#285,.T.);
#687=EDGE_CURVE('',#531,#493,#286,.T.);
#688=EDGE_CURVE('',#530,#539,#287,.T.);
#689=EDGE_CURVE('',#540,#529,#288,.T.);
#690=EDGE_CURVE('',#541,#540,#441,.T.);
#691=EDGE_CURVE('',#541,#516,#289,.T.);
#692=EDGE_CURVE('',#539,#541,#442,.T.);
#693=EDGE_CURVE('',#539,#540,#443,.T.);
#694=EDGE_CURVE('',#528,#517,#290,.T.);
#695=ORIENTED_EDGE('',*,*,#542,.T.);
#696=ORIENTED_EDGE('',*,*,#543,.T.);
#697=ORIENTED_EDGE('',*,*,#544,.T.);
#698=ORIENTED_EDGE('',*,*,#545,.T.);
#699=ORIENTED_EDGE('',*,*,#543,.F.);
#700=ORIENTED_EDGE('',*,*,#546,.T.);
#701=ORIENTED_EDGE('',*,*,#547,.F.);
#702=ORIENTED_EDGE('',*,*,#548,.F.);
#703=ORIENTED_EDGE('',*,*,#549,.F.);
#704=ORIENTED_EDGE('',*,*,#550,.F.);
#705=ORIENTED_EDGE('',*,*,#551,.F.);
#706=ORIENTED_EDGE('',*,*,#552,.F.);
#707=ORIENTED_EDGE('',*,*,#553,.F.);
#708=ORIENTED_EDGE('',*,*,#554,.F.);
#709=ORIENTED_EDGE('',*,*,#542,.F.);
#710=ORIENTED_EDGE('',*,*,#555,.T.);
#711=ORIENTED_EDGE('',*,*,#556,.F.);
#712=ORIENTED_EDGE('',*,*,#557,.T.);
#713=ORIENTED_EDGE('',*,*,#558,.F.);
#714=ORIENTED_EDGE('',*,*,#546,.F.);
#715=ORIENTED_EDGE('',*,*,#559,.T.);
#716=ORIENTED_EDGE('',*,*,#560,.T.);
#717=ORIENTED_EDGE('',*,*,#556,.T.);
#718=ORIENTED_EDGE('',*,*,#561,.T.);
#719=ORIENTED_EDGE('',*,*,#560,.F.);
#720=ORIENTED_EDGE('',*,*,#562,.T.);
#721=ORIENTED_EDGE('',*,*,#563,.F.);
#722=ORIENTED_EDGE('',*,*,#564,.F.);
#723=ORIENTED_EDGE('',*,*,#565,.F.);
#724=ORIENTED_EDGE('',*,*,#566,.F.);
#725=ORIENTED_EDGE('',*,*,#567,.F.);
#726=ORIENTED_EDGE('',*,*,#557,.F.);
#727=ORIENTED_EDGE('',*,*,#544,.F.);
#728=ORIENTED_EDGE('',*,*,#554,.T.);
#729=ORIENTED_EDGE('',*,*,#568,.F.);
#730=ORIENTED_EDGE('',*,*,#562,.F.);
#731=ORIENTED_EDGE('',*,*,#559,.F.);
#732=ORIENTED_EDGE('',*,*,#569,.T.);
#733=ORIENTED_EDGE('',*,*,#570,.F.);
#734=ORIENTED_EDGE('',*,*,#571,.F.);
#735=ORIENTED_EDGE('',*,*,#572,.T.);
#736=ORIENTED_EDGE('',*,*,#573,.F.);
#737=ORIENTED_EDGE('',*,*,#574,.F.);
#738=ORIENTED_EDGE('',*,*,#575,.F.);
#739=ORIENTED_EDGE('',*,*,#576,.T.);
#740=ORIENTED_EDGE('',*,*,#577,.F.);
#741=ORIENTED_EDGE('',*,*,#576,.F.);
#742=ORIENTED_EDGE('',*,*,#578,.F.);
#743=ORIENTED_EDGE('',*,*,#572,.F.);
#744=ORIENTED_EDGE('',*,*,#579,.F.);
#745=ORIENTED_EDGE('',*,*,#577,.T.);
#746=ORIENTED_EDGE('',*,*,#579,.T.);
#747=ORIENTED_EDGE('',*,*,#571,.T.);
#748=ORIENTED_EDGE('',*,*,#580,.F.);
#749=ORIENTED_EDGE('',*,*,#581,.F.);
#750=ORIENTED_EDGE('',*,*,#582,.T.);
#751=ORIENTED_EDGE('',*,*,#583,.T.);
#752=ORIENTED_EDGE('',*,*,#584,.F.);
#753=ORIENTED_EDGE('',*,*,#570,.T.);
#754=ORIENTED_EDGE('',*,*,#585,.T.);
#755=ORIENTED_EDGE('',*,*,#586,.F.);
#756=ORIENTED_EDGE('',*,*,#587,.T.);
#757=ORIENTED_EDGE('',*,*,#588,.F.);
#758=ORIENTED_EDGE('',*,*,#589,.T.);
#759=ORIENTED_EDGE('',*,*,#590,.F.);
#760=ORIENTED_EDGE('',*,*,#591,.T.);
#761=ORIENTED_EDGE('',*,*,#592,.T.);
#762=ORIENTED_EDGE('',*,*,#593,.T.);
#763=ORIENTED_EDGE('',*,*,#594,.T.);
#764=ORIENTED_EDGE('',*,*,#595,.F.);
#765=ORIENTED_EDGE('',*,*,#596,.F.);
#766=ORIENTED_EDGE('',*,*,#597,.T.);
#767=ORIENTED_EDGE('',*,*,#598,.T.);
#768=ORIENTED_EDGE('',*,*,#580,.T.);
#769=ORIENTED_EDGE('',*,*,#599,.T.);
#770=ORIENTED_EDGE('',*,*,#564,.T.);
#771=ORIENTED_EDGE('',*,*,#600,.T.);
#772=ORIENTED_EDGE('',*,*,#601,.T.);
#773=ORIENTED_EDGE('',*,*,#602,.T.);
#774=ORIENTED_EDGE('',*,*,#566,.T.);
#775=ORIENTED_EDGE('',*,*,#603,.T.);
#776=ORIENTED_EDGE('',*,*,#604,.T.);
#777=ORIENTED_EDGE('',*,*,#552,.T.);
#778=ORIENTED_EDGE('',*,*,#605,.T.);
#779=ORIENTED_EDGE('',*,*,#606,.T.);
#780=ORIENTED_EDGE('',*,*,#548,.T.);
#781=ORIENTED_EDGE('',*,*,#607,.T.);
#782=ORIENTED_EDGE('',*,*,#608,.T.);
#783=ORIENTED_EDGE('',*,*,#550,.T.);
#784=ORIENTED_EDGE('',*,*,#545,.F.);
#785=ORIENTED_EDGE('',*,*,#569,.F.);
#786=ORIENTED_EDGE('',*,*,#561,.F.);
#787=ORIENTED_EDGE('',*,*,#555,.F.);
#788=ORIENTED_EDGE('',*,*,#595,.T.);
#789=ORIENTED_EDGE('',*,*,#609,.F.);
#790=ORIENTED_EDGE('',*,*,#610,.F.);
#791=ORIENTED_EDGE('',*,*,#611,.F.);
#792=ORIENTED_EDGE('',*,*,#609,.T.);
#793=ORIENTED_EDGE('',*,*,#594,.F.);
#794=ORIENTED_EDGE('',*,*,#612,.F.);
#795=ORIENTED_EDGE('',*,*,#613,.T.);
#796=ORIENTED_EDGE('',*,*,#596,.T.);
#797=ORIENTED_EDGE('',*,*,#611,.T.);
#798=ORIENTED_EDGE('',*,*,#614,.F.);
#799=ORIENTED_EDGE('',*,*,#615,.F.);
#800=ORIENTED_EDGE('',*,*,#574,.T.);
#801=ORIENTED_EDGE('',*,*,#584,.T.);
#802=ORIENTED_EDGE('',*,*,#616,.T.);
#803=ORIENTED_EDGE('',*,*,#617,.T.);
#804=ORIENTED_EDGE('',*,*,#618,.T.);
#805=ORIENTED_EDGE('',*,*,#619,.F.);
#806=ORIENTED_EDGE('',*,*,#620,.T.);
#807=ORIENTED_EDGE('',*,*,#621,.T.);
#808=ORIENTED_EDGE('',*,*,#591,.F.);
#809=ORIENTED_EDGE('',*,*,#622,.F.);
#810=ORIENTED_EDGE('',*,*,#623,.T.);
#811=ORIENTED_EDGE('',*,*,#624,.F.);
#812=ORIENTED_EDGE('',*,*,#617,.F.);
#813=ORIENTED_EDGE('',*,*,#625,.F.);
#814=ORIENTED_EDGE('',*,*,#626,.T.);
#815=ORIENTED_EDGE('',*,*,#624,.T.);
#816=ORIENTED_EDGE('',*,*,#627,.F.);
#817=ORIENTED_EDGE('',*,*,#628,.F.);
#818=ORIENTED_EDGE('',*,*,#618,.F.);
#819=ORIENTED_EDGE('',*,*,#615,.T.);
#820=ORIENTED_EDGE('',*,*,#629,.T.);
#821=ORIENTED_EDGE('',*,*,#630,.T.);
#822=ORIENTED_EDGE('',*,*,#597,.F.);
#823=ORIENTED_EDGE('',*,*,#630,.F.);
#824=ORIENTED_EDGE('',*,*,#631,.F.);
#825=ORIENTED_EDGE('',*,*,#581,.T.);
#826=ORIENTED_EDGE('',*,*,#598,.F.);
#827=ORIENTED_EDGE('',*,*,#583,.F.);
#828=ORIENTED_EDGE('',*,*,#632,.F.);
#829=ORIENTED_EDGE('',*,*,#625,.T.);
#830=ORIENTED_EDGE('',*,*,#616,.F.);
#831=ORIENTED_EDGE('',*,*,#610,.T.);
#832=ORIENTED_EDGE('',*,*,#613,.F.);
#833=ORIENTED_EDGE('',*,*,#633,.T.);
#834=ORIENTED_EDGE('',*,*,#634,.F.);
#835=ORIENTED_EDGE('',*,*,#623,.F.);
#836=ORIENTED_EDGE('',*,*,#635,.F.);
#837=ORIENTED_EDGE('',*,*,#627,.T.);
#838=ORIENTED_EDGE('',*,*,#626,.F.);
#839=ORIENTED_EDGE('',*,*,#632,.T.);
#840=ORIENTED_EDGE('',*,*,#582,.F.);
#841=ORIENTED_EDGE('',*,*,#631,.T.);
#842=ORIENTED_EDGE('',*,*,#629,.F.);
#843=ORIENTED_EDGE('',*,*,#614,.T.);
#844=ORIENTED_EDGE('',*,*,#636,.T.);
#845=ORIENTED_EDGE('',*,*,#637,.T.);
#846=ORIENTED_EDGE('',*,*,#638,.T.);
#847=ORIENTED_EDGE('',*,*,#639,.T.);
#848=ORIENTED_EDGE('',*,*,#640,.T.);
#849=ORIENTED_EDGE('',*,*,#551,.T.);
#850=ORIENTED_EDGE('',*,*,#641,.T.);
#851=ORIENTED_EDGE('',*,*,#549,.T.);
#852=ORIENTED_EDGE('',*,*,#642,.T.);
#853=ORIENTED_EDGE('',*,*,#547,.T.);
#854=ORIENTED_EDGE('',*,*,#558,.T.);
#855=ORIENTED_EDGE('',*,*,#567,.T.);
#856=ORIENTED_EDGE('',*,*,#643,.T.);
#857=ORIENTED_EDGE('',*,*,#644,.T.);
#858=ORIENTED_EDGE('',*,*,#565,.T.);
#859=ORIENTED_EDGE('',*,*,#645,.T.);
#860=ORIENTED_EDGE('',*,*,#646,.T.);
#861=ORIENTED_EDGE('',*,*,#563,.T.);
#862=ORIENTED_EDGE('',*,*,#568,.T.);
#863=ORIENTED_EDGE('',*,*,#553,.T.);
#864=ORIENTED_EDGE('',*,*,#647,.T.);
#865=ORIENTED_EDGE('',*,*,#648,.F.);
#866=ORIENTED_EDGE('',*,*,#633,.F.);
#867=ORIENTED_EDGE('',*,*,#612,.T.);
#868=ORIENTED_EDGE('',*,*,#593,.F.);
#869=ORIENTED_EDGE('',*,*,#586,.T.);
#870=ORIENTED_EDGE('',*,*,#649,.T.);
#871=ORIENTED_EDGE('',*,*,#650,.T.);
#872=ORIENTED_EDGE('',*,*,#651,.T.);
#873=ORIENTED_EDGE('',*,*,#651,.F.);
#874=ORIENTED_EDGE('',*,*,#652,.F.);
#875=ORIENTED_EDGE('',*,*,#653,.F.);
#876=ORIENTED_EDGE('',*,*,#587,.F.);
#877=ORIENTED_EDGE('',*,*,#650,.F.);
#878=ORIENTED_EDGE('',*,*,#654,.T.);
#879=ORIENTED_EDGE('',*,*,#655,.F.);
#880=ORIENTED_EDGE('',*,*,#656,.T.);
#881=ORIENTED_EDGE('',*,*,#657,.F.);
#882=ORIENTED_EDGE('',*,*,#658,.T.);
#883=ORIENTED_EDGE('',*,*,#659,.F.);
#884=ORIENTED_EDGE('',*,*,#652,.T.);
#885=ORIENTED_EDGE('',*,*,#660,.T.);
#886=ORIENTED_EDGE('',*,*,#661,.T.);
#887=ORIENTED_EDGE('',*,*,#662,.T.);
#888=ORIENTED_EDGE('',*,*,#663,.T.);
#889=ORIENTED_EDGE('',*,*,#664,.T.);
#890=ORIENTED_EDGE('',*,*,#665,.T.);
#891=ORIENTED_EDGE('',*,*,#666,.T.);
#892=ORIENTED_EDGE('',*,*,#667,.T.);
#893=ORIENTED_EDGE('',*,*,#668,.T.);
#894=ORIENTED_EDGE('',*,*,#669,.T.);
#895=ORIENTED_EDGE('',*,*,#670,.T.);
#896=ORIENTED_EDGE('',*,*,#671,.T.);
#897=ORIENTED_EDGE('',*,*,#672,.T.);
#898=ORIENTED_EDGE('',*,*,#588,.T.);
#899=ORIENTED_EDGE('',*,*,#653,.T.);
#900=ORIENTED_EDGE('',*,*,#659,.T.);
#901=ORIENTED_EDGE('',*,*,#673,.T.);
#902=ORIENTED_EDGE('',*,*,#673,.F.);
#903=ORIENTED_EDGE('',*,*,#658,.F.);
#904=ORIENTED_EDGE('',*,*,#674,.F.);
#905=ORIENTED_EDGE('',*,*,#589,.F.);
#906=ORIENTED_EDGE('',*,*,#619,.T.);
#907=ORIENTED_EDGE('',*,*,#628,.T.);
#908=ORIENTED_EDGE('',*,*,#675,.T.);
#909=ORIENTED_EDGE('',*,*,#655,.T.);
#910=ORIENTED_EDGE('',*,*,#676,.T.);
#911=ORIENTED_EDGE('',*,*,#575,.T.);
#912=ORIENTED_EDGE('',*,*,#620,.F.);
#913=ORIENTED_EDGE('',*,*,#676,.F.);
#914=ORIENTED_EDGE('',*,*,#654,.F.);
#915=ORIENTED_EDGE('',*,*,#649,.F.);
#916=ORIENTED_EDGE('',*,*,#585,.F.);
#917=ORIENTED_EDGE('',*,*,#573,.T.);
#918=ORIENTED_EDGE('',*,*,#578,.T.);
#919=ORIENTED_EDGE('',*,*,#590,.T.);
#920=ORIENTED_EDGE('',*,*,#674,.T.);
#921=ORIENTED_EDGE('',*,*,#657,.T.);
#922=ORIENTED_EDGE('',*,*,#677,.T.);
#923=ORIENTED_EDGE('',*,*,#622,.T.);
#924=ORIENTED_EDGE('',*,*,#672,.F.);
#925=ORIENTED_EDGE('',*,*,#678,.T.);
#926=ORIENTED_EDGE('',*,*,#601,.F.);
#927=ORIENTED_EDGE('',*,*,#678,.F.);
#928=ORIENTED_EDGE('',*,*,#660,.F.);
#929=ORIENTED_EDGE('',*,*,#679,.T.);
#930=ORIENTED_EDGE('',*,*,#607,.F.);
#931=ORIENTED_EDGE('',*,*,#641,.F.);
#932=ORIENTED_EDGE('',*,*,#608,.F.);
#933=ORIENTED_EDGE('',*,*,#679,.F.);
#934=ORIENTED_EDGE('',*,*,#671,.F.);
#935=ORIENTED_EDGE('',*,*,#680,.T.);
#936=ORIENTED_EDGE('',*,*,#605,.F.);
#937=ORIENTED_EDGE('',*,*,#642,.F.);
#938=ORIENTED_EDGE('',*,*,#606,.F.);
#939=ORIENTED_EDGE('',*,*,#680,.F.);
#940=ORIENTED_EDGE('',*,*,#661,.F.);
#941=ORIENTED_EDGE('',*,*,#681,.T.);
#942=ORIENTED_EDGE('',*,*,#640,.F.);
#943=ORIENTED_EDGE('',*,*,#681,.F.);
#944=ORIENTED_EDGE('',*,*,#670,.F.);
#945=ORIENTED_EDGE('',*,*,#682,.T.);
#946=ORIENTED_EDGE('',*,*,#636,.F.);
#947=ORIENTED_EDGE('',*,*,#682,.F.);
#948=ORIENTED_EDGE('',*,*,#669,.F.);
#949=ORIENTED_EDGE('',*,*,#683,.T.);
#950=ORIENTED_EDGE('',*,*,#637,.F.);
#951=ORIENTED_EDGE('',*,*,#683,.F.);
#952=ORIENTED_EDGE('',*,*,#668,.F.);
#953=ORIENTED_EDGE('',*,*,#684,.T.);
#954=ORIENTED_EDGE('',*,*,#638,.F.);
#955=ORIENTED_EDGE('',*,*,#684,.F.);
#956=ORIENTED_EDGE('',*,*,#667,.F.);
#957=ORIENTED_EDGE('',*,*,#685,.T.);
#958=ORIENTED_EDGE('',*,*,#600,.F.);
#959=ORIENTED_EDGE('',*,*,#685,.F.);
#960=ORIENTED_EDGE('',*,*,#666,.F.);
#961=ORIENTED_EDGE('',*,*,#686,.T.);
#962=ORIENTED_EDGE('',*,*,#639,.F.);
#963=ORIENTED_EDGE('',*,*,#686,.F.);
#964=ORIENTED_EDGE('',*,*,#665,.F.);
#965=ORIENTED_EDGE('',*,*,#687,.T.);
#966=ORIENTED_EDGE('',*,*,#603,.F.);
#967=ORIENTED_EDGE('',*,*,#647,.F.);
#968=ORIENTED_EDGE('',*,*,#604,.F.);
#969=ORIENTED_EDGE('',*,*,#687,.F.);
#970=ORIENTED_EDGE('',*,*,#688,.F.);
#971=ORIENTED_EDGE('',*,*,#663,.F.);
#972=ORIENTED_EDGE('',*,*,#689,.F.);
#973=ORIENTED_EDGE('',*,*,#690,.F.);
#974=ORIENTED_EDGE('',*,*,#691,.T.);
#975=ORIENTED_EDGE('',*,*,#643,.F.);
#976=ORIENTED_EDGE('',*,*,#602,.F.);
#977=ORIENTED_EDGE('',*,*,#644,.F.);
#978=ORIENTED_EDGE('',*,*,#691,.F.);
#979=ORIENTED_EDGE('',*,*,#692,.F.);
#980=ORIENTED_EDGE('',*,*,#692,.T.);
#981=ORIENTED_EDGE('',*,*,#690,.T.);
#982=ORIENTED_EDGE('',*,*,#693,.F.);
#983=ORIENTED_EDGE('',*,*,#688,.T.);
#984=ORIENTED_EDGE('',*,*,#693,.T.);
#985=ORIENTED_EDGE('',*,*,#689,.T.);
#986=ORIENTED_EDGE('',*,*,#664,.F.);
#987=ORIENTED_EDGE('',*,*,#662,.F.);
#988=ORIENTED_EDGE('',*,*,#694,.T.);
#989=ORIENTED_EDGE('',*,*,#645,.F.);
#990=ORIENTED_EDGE('',*,*,#599,.F.);
#991=ORIENTED_EDGE('',*,*,#646,.F.);
#992=ORIENTED_EDGE('',*,*,#694,.F.);
#993=ORIENTED_EDGE('',*,*,#635,.T.);
#994=ORIENTED_EDGE('',*,*,#677,.F.);
#995=ORIENTED_EDGE('',*,*,#656,.F.);
#996=ORIENTED_EDGE('',*,*,#675,.F.);
#997=ORIENTED_EDGE('',*,*,#621,.F.);
#998=ORIENTED_EDGE('',*,*,#634,.T.);
#999=ORIENTED_EDGE('',*,*,#648,.T.);
#1000=ORIENTED_EDGE('',*,*,#592,.F.);
#1001=CYLINDRICAL_SURFACE('',#1080,0.1);
#1002=CYLINDRICAL_SURFACE('',#1086,0.1);
#1003=CYLINDRICAL_SURFACE('',#1128,0.3);
#1004=CYLINDRICAL_SURFACE('',#1130,0.3);
#1005=CYLINDRICAL_SURFACE('',#1146,0.3);
#1006=CYLINDRICAL_SURFACE('',#1147,1.);
#1007=CYLINDRICAL_SURFACE('',#1167,1.);
#1008=CYLINDRICAL_SURFACE('',#1169,1.);
#1009=CYLINDRICAL_SURFACE('',#1171,1.);
#1010=CYLINDRICAL_SURFACE('',#1172,0.08);
#1011=CYLINDRICAL_SURFACE('',#1173,0.35);
#1012=CYLINDRICAL_SURFACE('',#1174,0.08);
#1013=CYLINDRICAL_SURFACE('',#1175,0.08);
#1014=CYLINDRICAL_SURFACE('',#1176,0.08);
#1015=CYLINDRICAL_SURFACE('',#1177,0.08);
#1016=CYLINDRICAL_SURFACE('',#1178,0.08);
#1017=CYLINDRICAL_SURFACE('',#1179,0.08);
#1018=CYLINDRICAL_SURFACE('',#1180,0.08);
#1019=CYLINDRICAL_SURFACE('',#1181,0.08);
#1020=CYLINDRICAL_SURFACE('',#1182,0.08);
#1021=CYLINDRICAL_SURFACE('',#1187,0.08);
#1022=CYLINDRICAL_SURFACE('',#1188,0.08);
#1023=ADVANCED_FACE('',(#66),#1001,.T.);
#1024=ADVANCED_FACE('',(#67),#33,.T.);
#1025=ADVANCED_FACE('',(#68),#34,.T.);
#1026=ADVANCED_FACE('',(#69),#1002,.T.);
#1027=ADVANCED_FACE('',(#70),#35,.T.);
#1028=ADVANCED_FACE('',(#71),#36,.T.);
#1029=ADVANCED_FACE('',(#72),#37,.F.);
#1030=ADVANCED_FACE('',(#73),#38,.F.);
#1031=ADVANCED_FACE('',(#74),#39,.F.);
#1032=ADVANCED_FACE('',(#75),#40,.F.);
#1033=ADVANCED_FACE('',(#76),#41,.T.);
#1034=ADVANCED_FACE('',(#77),#42,.T.);
#1035=ADVANCED_FACE('',(#78),#43,.T.);
#1036=ADVANCED_FACE('',(#79),#44,.T.);
#1037=ADVANCED_FACE('',(#80),#45,.T.);
#1038=ADVANCED_FACE('',(#81),#46,.T.);
#1039=ADVANCED_FACE('',(#82),#47,.T.);
#1040=ADVANCED_FACE('',(#83),#48,.T.);
#1041=ADVANCED_FACE('',(#84),#49,.T.);
#1042=ADVANCED_FACE('',(#85),#50,.T.);
#1043=ADVANCED_FACE('',(#86),#51,.F.);
#1044=ADVANCED_FACE('',(#87),#52,.T.);
#1045=ADVANCED_FACE('',(#88),#53,.T.);
#1046=ADVANCED_FACE('',(#89),#54,.F.);
#1047=ADVANCED_FACE('',(#90),#55,.F.);
#1048=ADVANCED_FACE('',(#91),#56,.F.);
#1049=ADVANCED_FACE('',(#92),#57,.F.);
#1050=ADVANCED_FACE('',(#93),#1003,.F.);
#1051=ADVANCED_FACE('',(#94),#1004,.F.);
#1052=ADVANCED_FACE('',(#95,#15,#16,#17,#18,#19,#20),#58,.F.);
#1053=ADVANCED_FACE('',(#96),#1005,.F.);
#1054=ADVANCED_FACE('',(#97),#1006,.T.);
#1055=ADVANCED_FACE('',(#98),#59,.T.);
#1056=ADVANCED_FACE('',(#99,#21,#22,#23,#24,#25,#26,#27,#28,#29,#30,#31,
#32),#60,.T.);
#1057=ADVANCED_FACE('',(#100),#1007,.T.);
#1058=ADVANCED_FACE('',(#101),#61,.T.);
#1059=ADVANCED_FACE('',(#102),#1008,.T.);
#1060=ADVANCED_FACE('',(#103),#62,.T.);
#1061=ADVANCED_FACE('',(#104),#1009,.T.);
#1062=ADVANCED_FACE('',(#105),#1010,.F.);
#1063=ADVANCED_FACE('',(#106),#1011,.F.);
#1064=ADVANCED_FACE('',(#107),#1012,.F.);
#1065=ADVANCED_FACE('',(#108),#1013,.F.);
#1066=ADVANCED_FACE('',(#109),#1014,.F.);
#1067=ADVANCED_FACE('',(#110),#1015,.F.);
#1068=ADVANCED_FACE('',(#111),#1016,.F.);
#1069=ADVANCED_FACE('',(#112),#1017,.F.);
#1070=ADVANCED_FACE('',(#113),#1018,.F.);
#1071=ADVANCED_FACE('',(#114),#1019,.F.);
#1072=ADVANCED_FACE('',(#115),#1020,.F.);
#1073=ADVANCED_FACE('',(#116),#63,.F.);
#1074=ADVANCED_FACE('',(#117),#1021,.F.);
#1075=ADVANCED_FACE('',(#118),#1022,.F.);
#1076=ADVANCED_FACE('',(#119),#64,.T.);
#1077=ADVANCED_FACE('',(#120),#65,.F.);
#1078=CLOSED_SHELL('',(#1023,#1024,#1025,#1026,#1027,#1028,#1029,#1030,
#1031,#1032,#1033,#1034,#1035,#1036,#1037,#1038,#1039,#1040,#1041,#1042,
#1043,#1044,#1045,#1046,#1047,#1048,#1049,#1050,#1051,#1052,#1053,#1054,
#1055,#1056,#1057,#1058,#1059,#1060,#1061,#1062,#1063,#1064,#1065,#1066,
#1067,#1068,#1069,#1070,#1071,#1072,#1073,#1074,#1075,#1076,#1077));
#1079=AXIS2_PLACEMENT_3D('',#1512,#1191,#1192);
#1080=AXIS2_PLACEMENT_3D('',#1513,#1193,#1194);
#1081=AXIS2_PLACEMENT_3D('',#1516,#1195,#1196);
#1082=AXIS2_PLACEMENT_3D('',#1520,#1198,#1199);
#1083=AXIS2_PLACEMENT_3D('',#1522,#1201,#1202);
#1084=AXIS2_PLACEMENT_3D('',#1540,#1212,#1213);
#1085=AXIS2_PLACEMENT_3D('',#1544,#1215,#1216);
#1086=AXIS2_PLACEMENT_3D('',#1548,#1219,#1220);
#1087=AXIS2_PLACEMENT_3D('',#1551,#1221,#1222);
#1088=AXIS2_PLACEMENT_3D('',#1554,#1225,#1226);
#1089=AXIS2_PLACEMENT_3D('',#1566,#1233,#1234);
#1090=AXIS2_PLACEMENT_3D('',#1569,#1237,#1238);
#1091=AXIS2_PLACEMENT_3D('',#1578,#1243,#1244);
#1092=AXIS2_PLACEMENT_3D('',#1587,#1249,#1250);
#1093=AXIS2_PLACEMENT_3D('',#1590,#1253,#1254);
#1094=AXIS2_PLACEMENT_3D('',#1600,#1260,#1261);
#1095=AXIS2_PLACEMENT_3D('',#1604,#1263,#1264);
#1096=AXIS2_PLACEMENT_3D('',#1608,#1266,#1267);
#1097=AXIS2_PLACEMENT_3D('',#1612,#1269,#1270);
#1098=AXIS2_PLACEMENT_3D('',#1618,#1273,#1274);
#1099=AXIS2_PLACEMENT_3D('',#1627,#1279,#1280);
#1100=AXIS2_PLACEMENT_3D('',#1628,#1281,#1282);
#1101=AXIS2_PLACEMENT_3D('',#1629,#1283,#1284);
#1102=AXIS2_PLACEMENT_3D('',#1630,#1285,#1286);
#1103=AXIS2_PLACEMENT_3D('',#1632,#1287,#1288);
#1104=AXIS2_PLACEMENT_3D('',#1633,#1289,#1290);
#1105=AXIS2_PLACEMENT_3D('',#1635,#1291,#1292);
#1106=AXIS2_PLACEMENT_3D('',#1636,#1293,#1294);
#1107=AXIS2_PLACEMENT_3D('',#1637,#1295,#1296);
#1108=AXIS2_PLACEMENT_3D('',#1638,#1297,#1298);
#1109=AXIS2_PLACEMENT_3D('',#1640,#1299,#1300);
#1110=AXIS2_PLACEMENT_3D('',#1641,#1301,#1302);
#1111=AXIS2_PLACEMENT_3D('',#1642,#1303,#1304);
#1112=AXIS2_PLACEMENT_3D('',#1644,#1305,#1306);
#1113=AXIS2_PLACEMENT_3D('',#1645,#1307,#1308);
#1114=AXIS2_PLACEMENT_3D('',#1646,#1309,#1310);
#1115=AXIS2_PLACEMENT_3D('',#1648,#1311,#1312);
#1116=AXIS2_PLACEMENT_3D('',#1649,#1313,#1314);
#1117=AXIS2_PLACEMENT_3D('',#1650,#1315,#1316);
#1118=AXIS2_PLACEMENT_3D('',#1651,#1317,#1318);
#1119=AXIS2_PLACEMENT_3D('',#1657,#1322,#1323);
#1120=AXIS2_PLACEMENT_3D('',#1661,#1326,#1327);
#1121=AXIS2_PLACEMENT_3D('',#1665,#1330,#1331);
#1122=AXIS2_PLACEMENT_3D('',#1667,#1332,#1333);
#1123=AXIS2_PLACEMENT_3D('',#1673,#1336,#1337);
#1124=AXIS2_PLACEMENT_3D('',#1675,#1339,#1340);
#1125=AXIS2_PLACEMENT_3D('',#1681,#1344,#1345);
#1126=AXIS2_PLACEMENT_3D('',#1687,#1349,#1350);
#1127=AXIS2_PLACEMENT_3D('',#1691,#1353,#1354);
#1128=AXIS2_PLACEMENT_3D('',#1695,#1357,#1358);
#1129=AXIS2_PLACEMENT_3D('',#1696,#1359,#1360);
#1130=AXIS2_PLACEMENT_3D('',#1697,#1361,#1362);
#1131=AXIS2_PLACEMENT_3D('',#1698,#1363,#1364);
#1132=AXIS2_PLACEMENT_3D('',#1699,#1365,#1366);
#1133=AXIS2_PLACEMENT_3D('',#1701,#1367,#1368);
#1134=AXIS2_PLACEMENT_3D('',#1705,#1371,#1372);
#1135=AXIS2_PLACEMENT_3D('',#1707,#1373,#1374);
#1136=AXIS2_PLACEMENT_3D('',#1709,#1375,#1376);
#1137=AXIS2_PLACEMENT_3D('',#1711,#1377,#1378);
#1138=AXIS2_PLACEMENT_3D('',#1713,#1379,#1380);
#1139=AXIS2_PLACEMENT_3D('',#1714,#1381,#1382);
#1140=AXIS2_PLACEMENT_3D('',#1715,#1383,#1384);
#1141=AXIS2_PLACEMENT_3D('',#1717,#1385,#1386);
#1142=AXIS2_PLACEMENT_3D('',#1718,#1387,#1388);
#1143=AXIS2_PLACEMENT_3D('',#1720,#1389,#1390);
#1144=AXIS2_PLACEMENT_3D('',#1721,#1391,#1392);
#1145=AXIS2_PLACEMENT_3D('',#1722,#1393,#1394);
#1146=AXIS2_PLACEMENT_3D('',#1723,#1395,#1396);
#1147=AXIS2_PLACEMENT_3D('',#1725,#1398,#1399);
#1148=AXIS2_PLACEMENT_3D('',#1729,#1401,#1402);
#1149=AXIS2_PLACEMENT_3D('',#1731,#1404,#1405);
#1150=AXIS2_PLACEMENT_3D('',#1735,#1408,#1409);
#1151=AXIS2_PLACEMENT_3D('',#1739,#1411,#1412);
#1152=AXIS2_PLACEMENT_3D('',#1743,#1414,#1415);
#1153=AXIS2_PLACEMENT_3D('',#1746,#1417,#1418);
#1154=AXIS2_PLACEMENT_3D('',#1748,#1419,#1420);
#1155=AXIS2_PLACEMENT_3D('',#1750,#1421,#1422);
#1156=AXIS2_PLACEMENT_3D('',#1752,#1423,#1424);
#1157=AXIS2_PLACEMENT_3D('',#1755,#1425,#1426);
#1158=AXIS2_PLACEMENT_3D('',#1756,#1427,#1428);
#1159=AXIS2_PLACEMENT_3D('',#1758,#1429,#1430);
#1160=AXIS2_PLACEMENT_3D('',#1760,#1431,#1432);
#1161=AXIS2_PLACEMENT_3D('',#1762,#1433,#1434);
#1162=AXIS2_PLACEMENT_3D('',#1764,#1435,#1436);
#1163=AXIS2_PLACEMENT_3D('',#1766,#1437,#1438);
#1164=AXIS2_PLACEMENT_3D('',#1768,#1439,#1440);
#1165=AXIS2_PLACEMENT_3D('',#1770,#1441,#1442);
#1166=AXIS2_PLACEMENT_3D('',#1772,#1443,#1444);
#1167=AXIS2_PLACEMENT_3D('',#1773,#1445,#1446);
#1168=AXIS2_PLACEMENT_3D('',#1775,#1448,#1449);
#1169=AXIS2_PLACEMENT_3D('',#1777,#1451,#1452);
#1170=AXIS2_PLACEMENT_3D('',#1780,#1455,#1456);
#1171=AXIS2_PLACEMENT_3D('',#1781,#1457,#1458);
#1172=AXIS2_PLACEMENT_3D('',#1783,#1460,#1461);
#1173=AXIS2_PLACEMENT_3D('',#1785,#1463,#1464);
#1174=AXIS2_PLACEMENT_3D('',#1787,#1466,#1467);
#1175=AXIS2_PLACEMENT_3D('',#1789,#1469,#1470);
#1176=AXIS2_PLACEMENT_3D('',#1791,#1472,#1473);
#1177=AXIS2_PLACEMENT_3D('',#1793,#1475,#1476);
#1178=AXIS2_PLACEMENT_3D('',#1795,#1478,#1479);
#1179=AXIS2_PLACEMENT_3D('',#1797,#1481,#1482);
#1180=AXIS2_PLACEMENT_3D('',#1799,#1484,#1485);
#1181=AXIS2_PLACEMENT_3D('',#1801,#1487,#1488);
#1182=AXIS2_PLACEMENT_3D('',#1803,#1490,#1491);
#1183=AXIS2_PLACEMENT_3D('',#1809,#1494,#1495);
#1184=AXIS2_PLACEMENT_3D('',#1811,#1497,#1498);
#1185=AXIS2_PLACEMENT_3D('',#1812,#1499,#1500);
#1186=AXIS2_PLACEMENT_3D('',#1813,#1501,#1502);
#1187=AXIS2_PLACEMENT_3D('',#1814,#1503,#1504);
#1188=AXIS2_PLACEMENT_3D('',#1815,#1505,#1506);
#1189=AXIS2_PLACEMENT_3D('',#1817,#1508,#1509);
#1190=AXIS2_PLACEMENT_3D('',#1818,#1510,#1511);
#1191=DIRECTION('axis',(0.,0.,1.));
#1192=DIRECTION('refdir',(1.,0.,0.));
#1193=DIRECTION('center_axis',(1.,0.,0.));
#1194=DIRECTION('ref_axis',(0.,-0.707106781186548,-0.707106781186548));
#1195=DIRECTION('center_axis',(-1.,0.,0.));
#1196=DIRECTION('ref_axis',(0.,-0.707106781186548,-0.707106781186548));
#1197=DIRECTION('',(-1.,0.,0.));
#1198=DIRECTION('center_axis',(1.,0.,0.));
#1199=DIRECTION('ref_axis',(0.,-0.707106781186548,-0.707106781186548));
#1200=DIRECTION('',(1.,0.,0.));
#1201=DIRECTION('center_axis',(0.,-1.,0.));
#1202=DIRECTION('ref_axis',(1.,0.,0.));
#1203=DIRECTION('',(0.,0.,1.));
#1204=DIRECTION('',(1.,0.,0.));
#1205=DIRECTION('',(1.,0.,0.));
#1206=DIRECTION('',(1.,0.,0.));
#1207=DIRECTION('',(1.,0.,0.));
#1208=DIRECTION('',(1.,0.,0.));
#1209=DIRECTION('',(1.,0.,0.));
#1210=DIRECTION('',(1.,0.,0.));
#1211=DIRECTION('',(0.,0.,1.));
#1212=DIRECTION('center_axis',(1.,0.,0.));
#1213=DIRECTION('ref_axis',(0.,1.,0.));
#1214=DIRECTION('',(0.,1.,0.));
#1215=DIRECTION('center_axis',(-1.,0.,0.));
#1216=DIRECTION('ref_axis',(0.,0.707106781186548,-0.707106781186548));
#1217=DIRECTION('',(0.,0.,1.));
#1218=DIRECTION('',(0.,1.,0.));
#1219=DIRECTION('center_axis',(-1.,0.,0.));
#1220=DIRECTION('ref_axis',(0.,0.707106781186548,-0.707106781186548));
#1221=DIRECTION('center_axis',(1.,0.,0.));
#1222=DIRECTION('ref_axis',(0.,0.707106781186548,-0.707106781186548));
#1223=DIRECTION('',(1.,0.,0.));
#1224=DIRECTION('',(-1.,0.,0.));
#1225=DIRECTION('center_axis',(0.,1.,0.));
#1226=DIRECTION('ref_axis',(-1.,0.,0.));
#1227=DIRECTION('',(0.,0.,1.));
#1228=DIRECTION('',(-1.,0.,0.));
#1229=DIRECTION('',(-1.,0.,0.));
#1230=DIRECTION('',(-1.,0.,0.));
#1231=DIRECTION('',(-1.,0.,0.));
#1232=DIRECTION('',(-1.,0.,0.));
#1233=DIRECTION('center_axis',(-1.,0.,0.));
#1234=DIRECTION('ref_axis',(0.,-1.,0.));
#1235=DIRECTION('',(0.,-1.,0.));
#1236=DIRECTION('',(0.,-1.,0.));
#1237=DIRECTION('center_axis',(0.,-1.,0.));
#1238=DIRECTION('ref_axis',(1.,0.,0.));
#1239=DIRECTION('',(1.,0.,0.));
#1240=DIRECTION('',(0.,0.,-1.));
#1241=DIRECTION('',(1.,0.,0.));
#1242=DIRECTION('',(0.,0.,1.));
#1243=DIRECTION('center_axis',(0.,1.,0.));
#1244=DIRECTION('ref_axis',(-1.,0.,0.));
#1245=DIRECTION('',(-1.,0.,0.));
#1246=DIRECTION('',(0.,0.,-1.));
#1247=DIRECTION('',(-1.,0.,0.));
#1248=DIRECTION('',(0.,0.,1.));
#1249=DIRECTION('center_axis',(0.,0.,1.));
#1250=DIRECTION('ref_axis',(1.,0.,0.));
#1251=DIRECTION('',(0.,1.,0.));
#1252=DIRECTION('',(0.,-1.,0.));
#1253=DIRECTION('center_axis',(1.,0.,0.));
#1254=DIRECTION('ref_axis',(0.,-1.,0.));
#1255=DIRECTION('',(0.,1.,0.));
#1256=DIRECTION('',(0.,0.,-1.));
#1257=DIRECTION('',(0.,-1.,0.));
#1258=DIRECTION('',(0.,0.,-1.));
#1259=DIRECTION('',(0.,1.,0.));
#1260=DIRECTION('center_axis',(0.,0.,-1.));
#1261=DIRECTION('ref_axis',(-1.,0.,0.));
#1262=DIRECTION('',(0.,-1.,0.));
#1263=DIRECTION('center_axis',(0.,0.,1.));
#1264=DIRECTION('ref_axis',(0.707106781186548,-0.707106781186548,0.));
#1265=DIRECTION('',(-1.,0.,0.));
#1266=DIRECTION('center_axis',(0.,0.,1.));
#1267=DIRECTION('ref_axis',(-0.707106781186548,-0.707106781186548,0.));
#1268=DIRECTION('',(0.,1.,0.));
#1269=DIRECTION('center_axis',(0.,0.,1.));
#1270=DIRECTION('ref_axis',(-0.707106781186548,0.707106781186548,0.));
#1271=DIRECTION('',(4.93432455388958E-17,-1.,0.));
#1272=DIRECTION('',(-1.,0.,0.));
#1273=DIRECTION('center_axis',(0.,0.,1.));
#1274=DIRECTION('ref_axis',(-0.707106781186547,0.707106781186548,0.));
#1275=DIRECTION('',(0.,-1.,0.));
#1276=DIRECTION('',(-1.,0.,0.));
#1277=DIRECTION('',(0.,1.,0.));
#1278=DIRECTION('',(1.,0.,0.));
#1279=DIRECTION('center_axis',(0.,0.,1.));
#1280=DIRECTION('ref_axis',(0.707106781186547,-0.707106781186549,0.));
#1281=DIRECTION('center_axis',(0.,0.,1.));
#1282=DIRECTION('ref_axis',(1.,0.,0.));
#1283=DIRECTION('center_axis',(0.,0.,1.));
#1284=DIRECTION('ref_axis',(1.,0.,0.));
#1285=DIRECTION('center_axis',(0.,0.,1.));
#1286=DIRECTION('ref_axis',(1.,0.,0.));
#1287=DIRECTION('center_axis',(0.,0.,1.));
#1288=DIRECTION('ref_axis',(1.,0.,0.));
#1289=DIRECTION('center_axis',(0.,0.,1.));
#1290=DIRECTION('ref_axis',(1.,0.,0.));
#1291=DIRECTION('center_axis',(0.,0.,1.));
#1292=DIRECTION('ref_axis',(1.,0.,0.));
#1293=DIRECTION('center_axis',(0.,0.,1.));
#1294=DIRECTION('ref_axis',(1.,0.,0.));
#1295=DIRECTION('center_axis',(0.,0.,1.));
#1296=DIRECTION('ref_axis',(1.,0.,0.));
#1297=DIRECTION('center_axis',(0.,0.,1.));
#1298=DIRECTION('ref_axis',(1.,0.,0.));
#1299=DIRECTION('center_axis',(0.,0.,1.));
#1300=DIRECTION('ref_axis',(1.,0.,0.));
#1301=DIRECTION('center_axis',(0.,0.,1.));
#1302=DIRECTION('ref_axis',(1.,0.,0.));
#1303=DIRECTION('center_axis',(0.,0.,1.));
#1304=DIRECTION('ref_axis',(1.,0.,0.));
#1305=DIRECTION('center_axis',(0.,0.,1.));
#1306=DIRECTION('ref_axis',(1.,0.,0.));
#1307=DIRECTION('center_axis',(0.,0.,1.));
#1308=DIRECTION('ref_axis',(1.,0.,0.));
#1309=DIRECTION('center_axis',(0.,0.,1.));
#1310=DIRECTION('ref_axis',(1.,0.,0.));
#1311=DIRECTION('center_axis',(0.,0.,1.));
#1312=DIRECTION('ref_axis',(1.,0.,0.));
#1313=DIRECTION('center_axis',(0.,0.,1.));
#1314=DIRECTION('ref_axis',(1.,0.,0.));
#1315=DIRECTION('center_axis',(0.,0.,-1.));
#1316=DIRECTION('ref_axis',(-1.,0.,0.));
#1317=DIRECTION('center_axis',(0.,1.,0.));
#1318=DIRECTION('ref_axis',(-1.,0.,0.));
#1319=DIRECTION('',(0.,0.,-1.));
#1320=DIRECTION('',(-1.,0.,0.));
#1321=DIRECTION('',(0.,0.,1.));
#1322=DIRECTION('center_axis',(-1.,0.,0.));
#1323=DIRECTION('ref_axis',(0.,1.,0.));
#1324=DIRECTION('',(0.,0.,-1.));
#1325=DIRECTION('',(0.,1.,0.));
#1326=DIRECTION('center_axis',(1.,0.,0.));
#1327=DIRECTION('ref_axis',(0.,1.,0.));
#1328=DIRECTION('',(0.,1.,0.));
#1329=DIRECTION('',(0.,0.,1.));
#1330=DIRECTION('center_axis',(0.,0.,-1.));
#1331=DIRECTION('ref_axis',(-1.,0.,0.));
#1332=DIRECTION('center_axis',(0.,0.,1.));
#1333=DIRECTION('ref_axis',(0.707106781186545,0.70710678118655,0.));
#1334=DIRECTION('',(-1.,0.,0.));
#1335=DIRECTION('',(0.,1.,0.));
#1336=DIRECTION('center_axis',(0.,0.,1.));
#1337=DIRECTION('ref_axis',(0.707106781186548,0.707106781186548,0.));
#1338=DIRECTION('',(0.,-1.,0.));
#1339=DIRECTION('center_axis',(-1.,-4.93432455388958E-17,0.));
#1340=DIRECTION('ref_axis',(4.93432455388958E-17,-1.,0.));
#1341=DIRECTION('',(0.,0.,-1.));
#1342=DIRECTION('',(0.,0.,-1.));
#1343=DIRECTION('',(0.,-1.,0.));
#1344=DIRECTION('center_axis',(0.,1.,0.));
#1345=DIRECTION('ref_axis',(1.,0.,0.));
#1346=DIRECTION('',(0.,0.,1.));
#1347=DIRECTION('',(0.,0.,-1.));
#1348=DIRECTION('',(1.,0.,0.));
#1349=DIRECTION('center_axis',(1.,0.,0.));
#1350=DIRECTION('ref_axis',(0.,1.,0.));
#1351=DIRECTION('',(0.,-1.,0.));
#1352=DIRECTION('',(0.,0.,1.));
#1353=DIRECTION('center_axis',(0.,-1.,0.));
#1354=DIRECTION('ref_axis',(-1.,0.,0.));
#1355=DIRECTION('',(-1.,0.,0.));
#1356=DIRECTION('',(0.,0.,-1.));
#1357=DIRECTION('center_axis',(0.,0.,-1.));
#1358=DIRECTION('ref_axis',(0.707106781186547,-0.707106781186549,0.));
#1359=DIRECTION('center_axis',(0.,0.,-1.));
#1360=DIRECTION('ref_axis',(0.707106781186547,-0.707106781186549,0.));
#1361=DIRECTION('center_axis',(0.,0.,-1.));
#1362=DIRECTION('ref_axis',(0.707106781186545,0.70710678118655,0.));
#1363=DIRECTION('center_axis',(0.,0.,-1.));
#1364=DIRECTION('ref_axis',(0.707106781186545,0.70710678118655,0.));
#1365=DIRECTION('center_axis',(0.,0.,1.));
#1366=DIRECTION('ref_axis',(1.,0.,0.));
#1367=DIRECTION('center_axis',(0.,0.,-1.));
#1368=DIRECTION('ref_axis',(-0.707106781186547,0.707106781186548,0.));
#1369=DIRECTION('',(1.,0.,0.));
#1370=DIRECTION('',(-1.,0.,0.));
#1371=DIRECTION('center_axis',(0.,0.,1.));
#1372=DIRECTION('ref_axis',(1.,0.,0.));
#1373=DIRECTION('center_axis',(0.,0.,1.));
#1374=DIRECTION('ref_axis',(1.,0.,0.));
#1375=DIRECTION('center_axis',(0.,0.,1.));
#1376=DIRECTION('ref_axis',(1.,0.,0.));
#1377=DIRECTION('center_axis',(0.,0.,1.));
#1378=DIRECTION('ref_axis',(1.,0.,0.));
#1379=DIRECTION('center_axis',(0.,0.,1.));
#1380=DIRECTION('ref_axis',(1.,0.,0.));
#1381=DIRECTION('center_axis',(0.,0.,1.));
#1382=DIRECTION('ref_axis',(1.,0.,0.));
#1383=DIRECTION('center_axis',(0.,0.,1.));
#1384=DIRECTION('ref_axis',(1.,0.,0.));
#1385=DIRECTION('center_axis',(0.,0.,1.));
#1386=DIRECTION('ref_axis',(1.,0.,0.));
#1387=DIRECTION('center_axis',(0.,0.,1.));
#1388=DIRECTION('ref_axis',(1.,0.,0.));
#1389=DIRECTION('center_axis',(0.,0.,1.));
#1390=DIRECTION('ref_axis',(1.,0.,0.));
#1391=DIRECTION('center_axis',(0.,0.,1.));
#1392=DIRECTION('ref_axis',(1.,0.,0.));
#1393=DIRECTION('center_axis',(0.,0.,1.));
#1394=DIRECTION('ref_axis',(1.,0.,0.));
#1395=DIRECTION('center_axis',(0.,0.,-1.));
#1396=DIRECTION('ref_axis',(-0.707106781186547,0.707106781186548,0.));
#1397=DIRECTION('',(0.,0.,-1.));
#1398=DIRECTION('center_axis',(0.,0.,-1.));
#1399=DIRECTION('ref_axis',(0.707106781186548,-0.707106781186548,0.));
#1400=DIRECTION('',(0.,0.,1.));
#1401=DIRECTION('center_axis',(0.,0.,-1.));
#1402=DIRECTION('ref_axis',(0.707106781186548,-0.707106781186548,0.));
#1403=DIRECTION('',(0.,0.,-1.));
#1404=DIRECTION('center_axis',(0.,-1.,0.));
#1405=DIRECTION('ref_axis',(-1.,0.,0.));
#1406=DIRECTION('',(1.,0.,0.));
#1407=DIRECTION('',(0.,0.,1.));
#1408=DIRECTION('center_axis',(0.,0.,1.));
#1409=DIRECTION('ref_axis',(1.,0.,0.));
#1410=DIRECTION('',(0.,1.,0.));
#1411=DIRECTION('center_axis',(0.,0.,-1.));
#1412=DIRECTION('ref_axis',(0.707106781186548,0.707106781186548,0.));
#1413=DIRECTION('',(-1.,0.,0.));
#1414=DIRECTION('center_axis',(0.,0.,-1.));
#1415=DIRECTION('ref_axis',(-0.707106781186548,0.707106781186548,0.));
#1416=DIRECTION('',(0.,-1.,0.));
#1417=DIRECTION('center_axis',(0.,0.,-1.));
#1418=DIRECTION('ref_axis',(-0.707106781186548,-0.707106781186548,0.));
#1419=DIRECTION('center_axis',(0.,0.,-1.));
#1420=DIRECTION('ref_axis',(1.,0.,0.));
#1421=DIRECTION('center_axis',(0.,0.,-1.));
#1422=DIRECTION('ref_axis',(1.,0.,0.));
#1423=DIRECTION('center_axis',(0.,0.,-1.));
#1424=DIRECTION('ref_axis',(1.,0.,0.));
#1425=DIRECTION('center_axis',(0.,0.,-1.));
#1426=DIRECTION('ref_axis',(1.,0.,0.));
#1427=DIRECTION('center_axis',(0.,0.,-1.));
#1428=DIRECTION('ref_axis',(-1.,0.,0.));
#1429=DIRECTION('center_axis',(0.,0.,-1.));
#1430=DIRECTION('ref_axis',(1.,0.,0.));
#1431=DIRECTION('center_axis',(0.,0.,-1.));
#1432=DIRECTION('ref_axis',(1.,0.,0.));
#1433=DIRECTION('center_axis',(0.,0.,-1.));
#1434=DIRECTION('ref_axis',(1.,0.,0.));
#1435=DIRECTION('center_axis',(0.,0.,-1.));
#1436=DIRECTION('ref_axis',(1.,0.,0.));
#1437=DIRECTION('center_axis',(0.,0.,-1.));
#1438=DIRECTION('ref_axis',(1.,0.,0.));
#1439=DIRECTION('center_axis',(0.,0.,-1.));
#1440=DIRECTION('ref_axis',(1.,0.,0.));
#1441=DIRECTION('center_axis',(0.,0.,-1.));
#1442=DIRECTION('ref_axis',(1.,0.,0.));
#1443=DIRECTION('center_axis',(0.,0.,-1.));
#1444=DIRECTION('ref_axis',(1.,0.,0.));
#1445=DIRECTION('center_axis',(0.,0.,-1.));
#1446=DIRECTION('ref_axis',(-0.707106781186548,-0.707106781186548,0.));
#1447=DIRECTION('',(0.,0.,-1.));
#1448=DIRECTION('center_axis',(-1.,0.,0.));
#1449=DIRECTION('ref_axis',(0.,1.,0.));
#1450=DIRECTION('',(0.,0.,1.));
#1451=DIRECTION('center_axis',(0.,0.,-1.));
#1452=DIRECTION('ref_axis',(0.707106781186548,0.707106781186548,0.));
#1453=DIRECTION('',(0.,0.,1.));
#1454=DIRECTION('',(0.,0.,-1.));
#1455=DIRECTION('center_axis',(1.,0.,0.));
#1456=DIRECTION('ref_axis',(0.,-1.,0.));
#1457=DIRECTION('center_axis',(0.,0.,-1.));
#1458=DIRECTION('ref_axis',(-0.707106781186548,0.707106781186548,0.));
#1459=DIRECTION('',(0.,0.,-1.));
#1460=DIRECTION('center_axis',(0.,0.,-1.));
#1461=DIRECTION('ref_axis',(1.,0.,0.));
#1462=DIRECTION('',(0.,0.,-1.));
#1463=DIRECTION('center_axis',(0.,0.,-1.));
#1464=DIRECTION('ref_axis',(1.,0.,0.));
#1465=DIRECTION('',(0.,0.,-1.));
#1466=DIRECTION('center_axis',(0.,0.,-1.));
#1467=DIRECTION('ref_axis',(1.,0.,0.));
#1468=DIRECTION('',(0.,0.,-1.));
#1469=DIRECTION('center_axis',(0.,0.,-1.));
#1470=DIRECTION('ref_axis',(1.,0.,0.));
#1471=DIRECTION('',(0.,0.,-1.));
#1472=DIRECTION('center_axis',(0.,0.,-1.));
#1473=DIRECTION('ref_axis',(1.,0.,0.));
#1474=DIRECTION('',(0.,0.,-1.));
#1475=DIRECTION('center_axis',(0.,0.,-1.));
#1476=DIRECTION('ref_axis',(1.,0.,0.));
#1477=DIRECTION('',(0.,0.,-1.));
#1478=DIRECTION('center_axis',(0.,0.,-1.));
#1479=DIRECTION('ref_axis',(1.,0.,0.));
#1480=DIRECTION('',(0.,0.,-1.));
#1481=DIRECTION('center_axis',(0.,0.,-1.));
#1482=DIRECTION('ref_axis',(1.,0.,0.));
#1483=DIRECTION('',(0.,0.,-1.));
#1484=DIRECTION('center_axis',(0.,0.,-1.));
#1485=DIRECTION('ref_axis',(1.,0.,0.));
#1486=DIRECTION('',(0.,0.,-1.));
#1487=DIRECTION('center_axis',(0.,0.,-1.));
#1488=DIRECTION('ref_axis',(1.,0.,0.));
#1489=DIRECTION('',(0.,0.,-1.));
#1490=DIRECTION('center_axis',(0.,0.,-1.));
#1491=DIRECTION('ref_axis',(1.,0.,0.));
#1492=DIRECTION('',(0.,0.,-1.));
#1493=DIRECTION('',(0.,0.,1.));
#1494=DIRECTION('center_axis',(0.,1.94289029309402E-16,-1.));
#1495=DIRECTION('ref_axis',(1.,0.,0.));
#1496=DIRECTION('',(0.,0.,-1.));
#1497=DIRECTION('center_axis',(0.,1.94289029309402E-16,-1.));
#1498=DIRECTION('ref_axis',(1.,0.,0.));
#1499=DIRECTION('center_axis',(0.,1.94289029309402E-16,-1.));
#1500=DIRECTION('ref_axis',(1.,0.,0.));
#1501=DIRECTION('center_axis',(0.,1.94289029309402E-16,-1.));
#1502=DIRECTION('ref_axis',(-1.,0.,0.));
#1503=DIRECTION('center_axis',(0.,-1.94289029309402E-16,1.));
#1504=DIRECTION('ref_axis',(-1.,0.,0.));
#1505=DIRECTION('center_axis',(0.,0.,-1.));
#1506=DIRECTION('ref_axis',(1.,0.,0.));
#1507=DIRECTION('',(0.,0.,-1.));
#1508=DIRECTION('center_axis',(0.,1.,0.));
#1509=DIRECTION('ref_axis',(1.,0.,0.));
#1510=DIRECTION('center_axis',(0.,1.,0.));
#1511=DIRECTION('ref_axis',(1.,0.,0.));
#1512=CARTESIAN_POINT('',(0.,0.,0.));
#1513=CARTESIAN_POINT('Origin',(3.57500005327165,5.40000007897615,-4.9));
#1514=CARTESIAN_POINT('',(5.00000007450581,5.40000007897615,-5.));
#1515=CARTESIAN_POINT('',(5.00000007450581,5.30000007897615,-4.9));
#1516=CARTESIAN_POINT('Origin',(5.00000007450581,5.40000007897615,-4.9));
#1517=CARTESIAN_POINT('',(3.1000000461936,5.30000007897615,-4.9));
#1518=CARTESIAN_POINT('',(3.57500005327165,5.30000007897615,-4.9));
#1519=CARTESIAN_POINT('',(3.1000000461936,5.40000007897615,-5.));
#1520=CARTESIAN_POINT('Origin',(3.1000000461936,5.40000007897615,-4.9));
#1521=CARTESIAN_POINT('',(3.57500005327165,5.40000007897615,-5.));
#1522=CARTESIAN_POINT('Origin',(3.1000000461936,5.30000007897615,-5.));
#1523=CARTESIAN_POINT('',(5.00000007450581,5.30000007897615,-0.5));
#1524=CARTESIAN_POINT('',(5.00000007450581,5.30000007897615,-5.));
#1525=CARTESIAN_POINT('',(4.88233678555491,5.30000007897615,-0.5));
#1526=CARTESIAN_POINT('',(3.6750000230968,5.30000007897615,-0.5));
#1527=CARTESIAN_POINT('',(4.75658886508473,5.30000007897615,-0.5));
#1528=CARTESIAN_POINT('',(3.1000000461936,5.30000007897615,-0.5));
#1529=CARTESIAN_POINT('',(4.44637866526477,5.30000007897615,-0.5));
#1530=CARTESIAN_POINT('',(3.6750000230968,5.30000007897615,-0.5));
#1531=CARTESIAN_POINT('',(3.75308565967184,5.30000007897615,-0.5));
#1532=CARTESIAN_POINT('',(3.1000000461936,5.30000007897615,-0.5));
#1533=CARTESIAN_POINT('',(3.44245004321543,5.30000007897615,-0.5));
#1534=CARTESIAN_POINT('',(3.6750000230968,5.30000007897615,-0.5));
#1535=CARTESIAN_POINT('',(3.31754995678457,5.30000007897615,-0.5));
#1536=CARTESIAN_POINT('',(3.1000000461936,5.30000007897615,-0.5));
#1537=CARTESIAN_POINT('',(3.1000000461936,5.30000007897615,-0.5));
#1538=CARTESIAN_POINT('',(3.6750000230968,5.30000007897615,-0.5));
#1539=CARTESIAN_POINT('',(3.1000000461936,5.30000007897615,-5.));
#1540=CARTESIAN_POINT('Origin',(5.00000007450581,5.30000007897615,-5.));
#1541=CARTESIAN_POINT('',(5.00000007450581,5.90000008940697,-5.));
#1542=CARTESIAN_POINT('',(5.00000007450581,5.30000007897615,-5.));
#1543=CARTESIAN_POINT('',(5.00000007450581,6.00000008940697,-4.9));
#1544=CARTESIAN_POINT('Origin',(5.00000007450581,5.90000008940697,-4.9));
#1545=CARTESIAN_POINT('',(5.00000007450581,6.00000008940697,-0.5));
#1546=CARTESIAN_POINT('',(5.00000007450581,6.00000008940697,-5.));
#1547=CARTESIAN_POINT('',(5.00000007450581,4.32500003948808,-0.5));
#1548=CARTESIAN_POINT('Origin',(4.52500006742775,5.90000008940697,-4.9));
#1549=CARTESIAN_POINT('',(3.1000000461936,5.90000008940697,-5.));
#1550=CARTESIAN_POINT('',(3.1000000461936,6.00000008940697,-4.9));
#1551=CARTESIAN_POINT('Origin',(3.1000000461936,5.90000008940697,-4.9));
#1552=CARTESIAN_POINT('',(4.52500006742775,6.00000008940697,-4.9));
#1553=CARTESIAN_POINT('',(4.52500006742775,5.90000008940697,-5.));
#1554=CARTESIAN_POINT('Origin',(5.00000007450581,6.00000008940697,-5.));
#1555=CARTESIAN_POINT('',(3.1000000461936,6.00000008940697,-0.5));
#1556=CARTESIAN_POINT('',(3.1000000461936,6.00000008940697,-5.));
#1557=CARTESIAN_POINT('',(3.72144513514767,6.00000008940697,-0.5));
#1558=CARTESIAN_POINT('',(4.6250000372529,6.00000008940697,-0.5));
#1559=CARTESIAN_POINT('',(3.79882671185467,6.00000008940697,-0.5));
#1560=CARTESIAN_POINT('',(5.00000007450581,6.00000008940697,-0.5));
#1561=CARTESIAN_POINT('',(4.4010481137188,6.00000008940697,-0.5));
#1562=CARTESIAN_POINT('',(4.6250000372529,6.00000008940697,-0.5));
#1563=CARTESIAN_POINT('',(4.480090002847,6.00000008940697,-0.5));
#1564=CARTESIAN_POINT('',(5.00000007450581,6.00000008940697,-0.5));
#1565=CARTESIAN_POINT('',(4.6250000372529,6.00000008940697,-0.5));
#1566=CARTESIAN_POINT('Origin',(3.1000000461936,6.00000008940697,-5.));
#1567=CARTESIAN_POINT('',(3.1000000461936,4.67500004470348,-0.5));
#1568=CARTESIAN_POINT('',(3.1000000461936,6.00000008940697,-5.));
#1569=CARTESIAN_POINT('Origin',(8.00000011920929,3.20000004768372,-5.));
#1570=CARTESIAN_POINT('',(8.00000011920929,3.20000004768372,-5.));
#1571=CARTESIAN_POINT('',(8.50000012665987,3.20000004768372,-5.));
#1572=CARTESIAN_POINT('',(6.12500005960464,3.20000004768372,-5.));
#1573=CARTESIAN_POINT('',(8.00000011920929,3.20000004768372,-2.7));
#1574=CARTESIAN_POINT('',(8.,3.20000004768372,-2.5));
#1575=CARTESIAN_POINT('',(8.50000012665987,3.20000004768372,-2.7));
#1576=CARTESIAN_POINT('',(8.00000011920929,3.20000004768372,-2.7));
#1577=CARTESIAN_POINT('',(8.5,3.20000004768372,-2.5));
#1578=CARTESIAN_POINT('Origin',(8.50000012665987,5.50000008195639,-5.));
#1579=CARTESIAN_POINT('',(8.50000012665987,5.50000008195639,-5.));
#1580=CARTESIAN_POINT('',(8.00000011920929,5.50000008195639,-5.));
#1581=CARTESIAN_POINT('',(6.37500006332994,5.50000008195639,-5.));
#1582=CARTESIAN_POINT('',(8.50000012665987,5.50000008195639,-2.7));
#1583=CARTESIAN_POINT('',(8.5,5.50000008195639,-2.5));
#1584=CARTESIAN_POINT('',(8.00000011920929,5.50000008195639,-2.7));
#1585=CARTESIAN_POINT('',(8.50000012665987,5.50000008195639,-2.7));
#1586=CARTESIAN_POINT('',(8.,5.50000008195639,-2.5));
#1587=CARTESIAN_POINT('Origin',(8.25000012293458,4.35000006482005,-2.7));
#1588=CARTESIAN_POINT('',(8.5,5.52500003241003,-2.7));
#1589=CARTESIAN_POINT('',(8.,5.52500003241003,-2.7));
#1590=CARTESIAN_POINT('Origin',(8.,6.7,0.));
#1591=CARTESIAN_POINT('',(8.,0.8,-5.));
#1592=CARTESIAN_POINT('',(8.,4.625,-5.));
#1593=CARTESIAN_POINT('',(8.,0.8,-0.5));
#1594=CARTESIAN_POINT('',(8.,0.8,0.));
#1595=CARTESIAN_POINT('',(8.,5.9,-0.5));
#1596=CARTESIAN_POINT('',(8.,5.025,-0.5));
#1597=CARTESIAN_POINT('',(8.,5.9,-5.));
#1598=CARTESIAN_POINT('',(8.,5.9,-4.5));
#1599=CARTESIAN_POINT('',(8.,4.625,-5.));
#1600=CARTESIAN_POINT('Origin',(4.25,3.35,-5.));
#1601=CARTESIAN_POINT('',(8.5,1.,-5.));
#1602=CARTESIAN_POINT('',(8.5,0.,-5.));
#1603=CARTESIAN_POINT('',(7.5,0.,-5.));
#1604=CARTESIAN_POINT('Origin',(7.5,1.,-5.));
#1605=CARTESIAN_POINT('',(1.,0.,-5.));
#1606=CARTESIAN_POINT('',(0.,0.,-5.));
#1607=CARTESIAN_POINT('',(0.,1.,-5.));
#1608=CARTESIAN_POINT('Origin',(1.,1.,-5.));
#1609=CARTESIAN_POINT('',(0.,5.7,-5.));
#1610=CARTESIAN_POINT('',(0.,6.7,-5.));
#1611=CARTESIAN_POINT('',(1.,6.7,-5.));
#1612=CARTESIAN_POINT('Origin',(1.,5.7,-5.));
#1613=CARTESIAN_POINT('',(1.00000001490116,6.2,-5.));
#1614=CARTESIAN_POINT('',(1.,4.425,-5.));
#1615=CARTESIAN_POINT('',(0.8,6.2,-5.));
#1616=CARTESIAN_POINT('',(2.525,6.2,-5.));
#1617=CARTESIAN_POINT('',(0.5,5.9,-5.));
#1618=CARTESIAN_POINT('Origin',(0.8,5.9,-5.));
#1619=CARTESIAN_POINT('',(0.500000007450581,1.25000001862645,-5.));
#1620=CARTESIAN_POINT('',(0.5,2.075,-5.));
#1621=CARTESIAN_POINT('',(5.00000007450581,1.25000001862645,-5.));
#1622=CARTESIAN_POINT('',(5.00000007450581,1.25000001862645,-5.));
#1623=CARTESIAN_POINT('',(5.00000007450581,0.500000007450581,-5.));
#1624=CARTESIAN_POINT('',(5.00000007450581,0.500000007450581,-5.));
#1625=CARTESIAN_POINT('',(7.7,0.5,-5.));
#1626=CARTESIAN_POINT('',(5.975,0.5,-5.));
#1627=CARTESIAN_POINT('Origin',(7.7,0.8,-5.));
#1628=CARTESIAN_POINT('Origin',(4.0500000603497,5.65000008419156,-0.5));
#1629=CARTESIAN_POINT('Origin',(3.76013592350117,6.07002167819632,-0.5));
#1630=CARTESIAN_POINT('Origin',(4.0500000603497,5.65000008419156,-0.5));
#1631=CARTESIAN_POINT('',(3.30019982537134,5.68895216158097,-0.5));
#1632=CARTESIAN_POINT('Origin',(3.38019982537134,5.68895216158097,-0.5));
#1633=CARTESIAN_POINT('Origin',(4.0500000603497,5.65000008419156,-0.5));
#1634=CARTESIAN_POINT('',(4.73895382044787,5.68872831520549,-0.5));
#1635=CARTESIAN_POINT('Origin',(4.81895382044787,5.68872831520549,-0.5));
#1636=CARTESIAN_POINT('Origin',(4.0500000603497,5.65000008419156,-0.5));
#1637=CARTESIAN_POINT('Origin',(4.4405690582829,6.06955650493251,-0.5));
#1638=CARTESIAN_POINT('Origin',(4.0500000603497,5.65000008419156,-0.5));
#1639=CARTESIAN_POINT('',(3.3,5.35,-0.5));
#1640=CARTESIAN_POINT('Origin',(3.38,5.35,-0.5));
#1641=CARTESIAN_POINT('Origin',(3.38,5.35,-0.5));
#1642=CARTESIAN_POINT('Origin',(4.0500000603497,5.65000008419156,-0.5));
#1643=CARTESIAN_POINT('',(4.73946282531982,5.34946587649682,-0.5));
#1644=CARTESIAN_POINT('Origin',(4.81946282531982,5.34946587649682,-0.5));
#1645=CARTESIAN_POINT('Origin',(4.81946282531982,5.34946587649682,-0.5));
#1646=CARTESIAN_POINT('Origin',(4.0500000603497,5.65000008419156,-0.5));
#1647=CARTESIAN_POINT('',(3.74973216246831,5.34833435355416,-0.5));
#1648=CARTESIAN_POINT('Origin',(4.09973216246831,5.34833435355416,-0.5));
#1649=CARTESIAN_POINT('Origin',(4.09973216246831,5.34833435355416,-0.5));
#1650=CARTESIAN_POINT('Origin',(4.0500000603497,5.65000008419156,-5.));
#1651=CARTESIAN_POINT('Origin',(5.00000007450581,1.25000001862645,-5.));
#1652=CARTESIAN_POINT('',(0.500000007450581,1.25000001862645,-0.5));
#1653=CARTESIAN_POINT('',(0.5,1.25000001862645,-2.5));
#1654=CARTESIAN_POINT('',(5.00000007450581,1.25000001862645,-0.5));
#1655=CARTESIAN_POINT('',(4.6250000372529,1.25000001862645,-0.5));
#1656=CARTESIAN_POINT('',(5.00000007450581,1.25000001862645,-5.));
#1657=CARTESIAN_POINT('Origin',(0.5,0.,0.));
#1658=CARTESIAN_POINT('',(0.5,5.9,-0.5));
#1659=CARTESIAN_POINT('',(0.5,5.9,0.));
#1660=CARTESIAN_POINT('',(0.5,1.675,-0.5));
#1661=CARTESIAN_POINT('Origin',(5.00000007450581,0.500000007450581,-5.));
#1662=CARTESIAN_POINT('',(5.00000007450581,0.500000007450581,-0.5));
#1663=CARTESIAN_POINT('',(5.00000007450581,2.17500000745058,-0.5));
#1664=CARTESIAN_POINT('',(5.00000007450581,0.5,-2.5));
#1665=CARTESIAN_POINT('Origin',(4.25,3.35,-5.));
#1666=CARTESIAN_POINT('',(7.7,6.2,-5.));
#1667=CARTESIAN_POINT('Origin',(7.7,5.9,-5.));
#1668=CARTESIAN_POINT('',(7.5,6.2,-5.));
#1669=CARTESIAN_POINT('',(5.875,6.2,-5.));
#1670=CARTESIAN_POINT('',(7.5,6.7,-5.));
#1671=CARTESIAN_POINT('',(7.5,5.025,-5.));
#1672=CARTESIAN_POINT('',(8.5,5.7,-5.));
#1673=CARTESIAN_POINT('Origin',(7.5,5.7,-5.));
#1674=CARTESIAN_POINT('',(8.5,0.,-5.));
#1675=CARTESIAN_POINT('Origin',(1.,5.5,-5.));
#1676=CARTESIAN_POINT('',(1.00000001490116,6.2,-0.500000007450581));
#1677=CARTESIAN_POINT('',(1.,6.2,-4.75));
#1678=CARTESIAN_POINT('',(1.00000001490116,6.7,-0.500000007450581));
#1679=CARTESIAN_POINT('',(1.,6.7,0.));
#1680=CARTESIAN_POINT('',(1.00000001490116,6.7,-0.500000007450581));
#1681=CARTESIAN_POINT('Origin',(0.,6.2,0.));
#1682=CARTESIAN_POINT('',(7.5,6.2,-0.500000007450581));
#1683=CARTESIAN_POINT('',(7.5,6.2,-4.75));
#1684=CARTESIAN_POINT('',(7.7,6.2,-0.5));
#1685=CARTESIAN_POINT('',(7.7,6.2,-4.5));
#1686=CARTESIAN_POINT('',(2.125,6.2,-0.5));
#1687=CARTESIAN_POINT('Origin',(7.5,1.,-5.));
#1688=CARTESIAN_POINT('',(7.5,6.7,-0.500000007450581));
#1689=CARTESIAN_POINT('',(7.5,6.7,-0.500000007450581));
#1690=CARTESIAN_POINT('',(7.5,6.7,0.));
#1691=CARTESIAN_POINT('Origin',(8.5,0.5,0.));
#1692=CARTESIAN_POINT('',(7.7,0.5,-0.5));
#1693=CARTESIAN_POINT('',(6.375,0.5,-0.5));
#1694=CARTESIAN_POINT('',(7.7,0.5,-4.5));
#1695=CARTESIAN_POINT('Origin',(7.7,0.8,0.));
#1696=CARTESIAN_POINT('Origin',(7.7,0.8,-0.5));
#1697=CARTESIAN_POINT('Origin',(7.7,5.9,0.));
#1698=CARTESIAN_POINT('Origin',(7.7,5.9,-0.5));
#1699=CARTESIAN_POINT('Origin',(4.25,3.35,-0.5));
#1700=CARTESIAN_POINT('',(0.8,6.2,-0.5));
#1701=CARTESIAN_POINT('Origin',(0.8,5.9,-0.5));
#1702=CARTESIAN_POINT('',(2.125,6.2,-0.5));
#1703=CARTESIAN_POINT('',(3.75,6.7,-0.500000007450581));
#1704=CARTESIAN_POINT('',(4.35947492475641,4.63027528056835,-0.5));
#1705=CARTESIAN_POINT('Origin',(4.43947492475641,4.63027528056835,-0.5));
#1706=CARTESIAN_POINT('',(4.02087181367976,4.63033009943326,-0.5));
#1707=CARTESIAN_POINT('Origin',(4.10087181367977,4.63033009943326,-0.5));
#1708=CARTESIAN_POINT('',(3.68168704078064,4.63074096028849,-0.5));
#1709=CARTESIAN_POINT('Origin',(3.76168704078064,4.63074096028849,-0.5));
#1710=CARTESIAN_POINT('',(3.29899369918176,5.01026745255488,-0.5));
#1711=CARTESIAN_POINT('Origin',(3.37899369918176,5.01026745255488,-0.5));
#1712=CARTESIAN_POINT('',(4.7404166000977,5.01015261029813,-0.5));
#1713=CARTESIAN_POINT('Origin',(4.8204166000977,5.01015261029813,-0.5));
#1714=CARTESIAN_POINT('Origin',(4.09973216246831,5.34833435355416,-0.5));
#1715=CARTESIAN_POINT('Origin',(4.81946282531982,5.34946587649682,-0.5));
#1716=CARTESIAN_POINT('',(4.3605690582829,6.06955650493251,-0.5));
#1717=CARTESIAN_POINT('Origin',(4.4405690582829,6.06955650493251,-0.5));
#1718=CARTESIAN_POINT('Origin',(4.4405690582829,6.06955650493251,-0.5));
#1719=CARTESIAN_POINT('',(3.68013592350117,6.07002167819632,-0.5));
#1720=CARTESIAN_POINT('Origin',(3.76013592350117,6.07002167819632,-0.5));
#1721=CARTESIAN_POINT('Origin',(3.76013592350117,6.07002167819632,-0.5));
#1722=CARTESIAN_POINT('Origin',(3.38,5.35,-0.5));
#1723=CARTESIAN_POINT('Origin',(0.8,5.9,0.));
#1724=CARTESIAN_POINT('',(0.8,6.2,-4.5));
#1725=CARTESIAN_POINT('Origin',(7.5,1.,0.));
#1726=CARTESIAN_POINT('',(8.5,1.,0.));
#1727=CARTESIAN_POINT('',(8.5,1.,0.));
#1728=CARTESIAN_POINT('',(7.5,0.,0.));
#1729=CARTESIAN_POINT('Origin',(7.5,1.,0.));
#1730=CARTESIAN_POINT('',(7.5,0.,0.));
#1731=CARTESIAN_POINT('Origin',(8.5,0.,0.));
#1732=CARTESIAN_POINT('',(1.,0.,0.));
#1733=CARTESIAN_POINT('',(0.,0.,0.));
#1734=CARTESIAN_POINT('',(1.,0.,0.));
#1735=CARTESIAN_POINT('Origin',(4.25,3.35,0.));
#1736=CARTESIAN_POINT('',(8.5,5.7,0.));
#1737=CARTESIAN_POINT('',(8.5,0.,0.));
#1738=CARTESIAN_POINT('',(7.5,6.7,0.));
#1739=CARTESIAN_POINT('Origin',(7.5,5.7,0.));
#1740=CARTESIAN_POINT('',(1.,6.7,0.));
#1741=CARTESIAN_POINT('',(8.5,6.7,0.));
#1742=CARTESIAN_POINT('',(0.,5.7,0.));
#1743=CARTESIAN_POINT('Origin',(1.,5.7,0.));
#1744=CARTESIAN_POINT('',(0.,1.,0.));
#1745=CARTESIAN_POINT('',(0.,6.7,0.));
#1746=CARTESIAN_POINT('Origin',(1.,1.,0.));
#1747=CARTESIAN_POINT('',(3.74973216246831,5.34833435355416,0.));
#1748=CARTESIAN_POINT('Origin',(4.09973216246831,5.34833435355416,0.));
#1749=CARTESIAN_POINT('',(4.7404166000977,5.01015261029813,0.));
#1750=CARTESIAN_POINT('Origin',(4.8204166000977,5.01015261029813,0.));
#1751=CARTESIAN_POINT('',(3.68013592350117,6.07002167819632,0.));
#1752=CARTESIAN_POINT('Origin',(3.76013592350117,6.07002167819632,0.));
#1753=CARTESIAN_POINT('',(4.42113044377128,6.1471589550605,0.));
#1754=CARTESIAN_POINT('',(4.41943861451162,5.992397549872,0.));
#1755=CARTESIAN_POINT('Origin',(4.4405690582829,6.06955650493251,0.));
#1756=CARTESIAN_POINT('Origin',(4.4,6.07,1.66533453693773E-16));
#1757=CARTESIAN_POINT('',(3.3,5.35,0.));
#1758=CARTESIAN_POINT('Origin',(3.38,5.35,0.));
#1759=CARTESIAN_POINT('',(3.29899369918176,5.01026745255488,0.));
#1760=CARTESIAN_POINT('Origin',(3.37899369918176,5.01026745255488,0.));
#1761=CARTESIAN_POINT('',(3.30019982537134,5.68895216158097,0.));
#1762=CARTESIAN_POINT('Origin',(3.38019982537134,5.68895216158097,0.));
#1763=CARTESIAN_POINT('',(3.68168704078064,4.63074096028849,0.));
#1764=CARTESIAN_POINT('Origin',(3.76168704078064,4.63074096028849,0.));
#1765=CARTESIAN_POINT('',(4.02087181367976,4.63033009943326,0.));
#1766=CARTESIAN_POINT('Origin',(4.10087181367977,4.63033009943326,0.));
#1767=CARTESIAN_POINT('',(4.35947492475641,4.63027528056835,0.));
#1768=CARTESIAN_POINT('Origin',(4.43947492475641,4.63027528056835,0.));
#1769=CARTESIAN_POINT('',(4.73946282531982,5.34946587649682,0.));
#1770=CARTESIAN_POINT('Origin',(4.81946282531982,5.34946587649682,0.));
#1771=CARTESIAN_POINT('',(4.73895382044787,5.68872831520549,0.));
#1772=CARTESIAN_POINT('Origin',(4.81895382044787,5.68872831520549,0.));
#1773=CARTESIAN_POINT('Origin',(1.,1.,0.));
#1774=CARTESIAN_POINT('',(0.,1.,0.));
#1775=CARTESIAN_POINT('Origin',(0.,0.,0.));
#1776=CARTESIAN_POINT('',(0.,5.7,0.));
#1777=CARTESIAN_POINT('Origin',(7.5,5.7,0.));
#1778=CARTESIAN_POINT('',(7.5,6.7,0.));
#1779=CARTESIAN_POINT('',(8.5,5.7,0.));
#1780=CARTESIAN_POINT('Origin',(8.5,6.7,0.));
#1781=CARTESIAN_POINT('Origin',(1.,5.7,0.));
#1782=CARTESIAN_POINT('',(1.,6.7,0.));
#1783=CARTESIAN_POINT('Origin',(4.81895382044787,5.68872831520549,-0.4));
#1784=CARTESIAN_POINT('',(4.73895382044787,5.68872831520549,-0.4));
#1785=CARTESIAN_POINT('Origin',(4.09973216246831,5.34833435355416,-0.4));
#1786=CARTESIAN_POINT('',(3.74973216246831,5.34833435355416,-0.4));
#1787=CARTESIAN_POINT('Origin',(4.81946282531982,5.34946587649682,-0.4));
#1788=CARTESIAN_POINT('',(4.73946282531982,5.34946587649682,-0.4));
#1789=CARTESIAN_POINT('Origin',(4.8204166000977,5.01015261029813,-0.4));
#1790=CARTESIAN_POINT('',(4.7404166000977,5.01015261029813,-0.4));
#1791=CARTESIAN_POINT('Origin',(4.43947492475641,4.63027528056835,-0.4));
#1792=CARTESIAN_POINT('',(4.35947492475641,4.63027528056835,-0.4));
#1793=CARTESIAN_POINT('Origin',(4.10087181367977,4.63033009943326,-0.4));
#1794=CARTESIAN_POINT('',(4.02087181367976,4.63033009943326,-0.4));
#1795=CARTESIAN_POINT('Origin',(3.76168704078064,4.63074096028849,-0.4));
#1796=CARTESIAN_POINT('',(3.68168704078064,4.63074096028849,-0.4));
#1797=CARTESIAN_POINT('Origin',(3.38019982537134,5.68895216158097,-0.4));
#1798=CARTESIAN_POINT('',(3.30019982537134,5.68895216158097,-0.4));
#1799=CARTESIAN_POINT('Origin',(3.37899369918176,5.01026745255488,-0.4));
#1800=CARTESIAN_POINT('',(3.29899369918176,5.01026745255488,-0.4));
#1801=CARTESIAN_POINT('Origin',(3.38,5.35,-0.4));
#1802=CARTESIAN_POINT('',(3.3,5.35,-0.4));
#1803=CARTESIAN_POINT('Origin',(4.4405690582829,6.06955650493251,-0.4));
#1804=CARTESIAN_POINT('',(4.41943861451162,5.992397549872,-0.0825855852538848));
#1805=CARTESIAN_POINT('',(4.41943861451162,5.992397549872,-0.4));
#1806=CARTESIAN_POINT('',(4.42113044377128,6.1471589550605,-0.0825855852538847));
#1807=CARTESIAN_POINT('',(4.42113044377128,6.1471589550605,-0.4));
#1808=CARTESIAN_POINT('',(4.3605690582829,6.06955650493251,-0.0825855852538848));
#1809=CARTESIAN_POINT('Origin',(4.4405690582829,6.06955650493251,-0.0825855852538848));
#1810=CARTESIAN_POINT('',(4.3605690582829,6.06955650493251,-0.4));
#1811=CARTESIAN_POINT('Origin',(4.4405690582829,6.06955650493251,-0.0825855852538848));
#1812=CARTESIAN_POINT('Origin',(4.4,4.07,-0.0825855852538848));
#1813=CARTESIAN_POINT('Origin',(4.4,6.07,-0.0825855852538848));
#1814=CARTESIAN_POINT('Origin',(4.4,6.07,0.317414414746115));
#1815=CARTESIAN_POINT('Origin',(3.76013592350117,6.07002167819632,-0.4));
#1816=CARTESIAN_POINT('',(3.68013592350117,6.07002167819632,-0.4));
#1817=CARTESIAN_POINT('Origin',(0.,6.7,0.));
#1818=CARTESIAN_POINT('Origin',(0.,6.2,0.));
#1819=UNCERTAINTY_MEASURE_WITH_UNIT(LENGTH_MEASURE(0.001),#1823,
'DISTANCE_ACCURACY_VALUE',
'Maximum model space distance between geometric entities at asserted c
onnectivities');
#1820=UNCERTAINTY_MEASURE_WITH_UNIT(LENGTH_MEASURE(0.001),#1823,
'DISTANCE_ACCURACY_VALUE',
'Maximum model space distance between geometric entities at asserted c
onnectivities');
#1821=(
GEOMETRIC_REPRESENTATION_CONTEXT(3)
GLOBAL_UNCERTAINTY_ASSIGNED_CONTEXT((#1819))
GLOBAL_UNIT_ASSIGNED_CONTEXT((#1823,#1824,#1825))
REPRESENTATION_CONTEXT('','3D')
);
#1822=(
GEOMETRIC_REPRESENTATION_CONTEXT(3)
GLOBAL_UNCERTAINTY_ASSIGNED_CONTEXT((#1820))
GLOBAL_UNIT_ASSIGNED_CONTEXT((#1823,#1824,#1825))
REPRESENTATION_CONTEXT('','3D')
);
#1823=(
LENGTH_UNIT()
NAMED_UNIT(*)
SI_UNIT(.CENTI.,.METRE.)
);
#1824=(
NAMED_UNIT(*)
PLANE_ANGLE_UNIT()
SI_UNIT($,.RADIAN.)
);
#1825=(
NAMED_UNIT(*)
SI_UNIT($,.STERADIAN.)
SOLID_ANGLE_UNIT()
);
#1826=SHAPE_DEFINITION_REPRESENTATION(#1827,#1828);
#1827=PRODUCT_DEFINITION_SHAPE('',$,#1830);
#1828=SHAPE_REPRESENTATION('',(#1079),#1821);
#1829=PRODUCT_DEFINITION_CONTEXT('part definition',#1834,'design');
#1830=PRODUCT_DEFINITION('2026-04-24-15-07-28-606','shoulder',#1831,#1829);
#1831=PRODUCT_DEFINITION_FORMATION('',$,#1836);
#1832=PRODUCT_RELATED_PRODUCT_CATEGORY('shoulder','shoulder',(#1836));
#1833=APPLICATION_PROTOCOL_DEFINITION('international standard',
'automotive_design',2009,#1834);
#1834=APPLICATION_CONTEXT(
'Core Data for Automotive Mechanical Design Process');
#1835=PRODUCT_CONTEXT('part definition',#1834,'mechanical');
#1836=PRODUCT('2026-04-24-15-07-28-606','shoulder',$,(#1835));
#1837=PRESENTATION_STYLE_ASSIGNMENT((#1838));
#1838=SURFACE_STYLE_USAGE(.BOTH.,#1839);
#1839=SURFACE_SIDE_STYLE('',(#1840));
#1840=SURFACE_STYLE_FILL_AREA(#1841);
#1841=FILL_AREA_STYLE('Steel - Satin',(#1842));
#1842=FILL_AREA_STYLE_COLOUR('Steel - Satin',#1843);
#1843=COLOUR_RGB('Steel - Satin',0.627450980392157,0.627450980392157,0.627450980392157);
ENDSEC;
END-ISO-10303-21;
